<?xml version="1.0" encoding="UTF-8"?>
<svg width="10px" height="9px" viewBox="0 0 10 9" version="1.1" xmlns="http://www.w3.org/2000/svg" xmlns:xlink="http://www.w3.org/1999/xlink">
    <!-- Generator: Sketch 52.4 (67378) - http://www.bohemiancoding.com/sketch -->
    <title>ridiselect</title>
    <desc>Created with Sketch.</desc>
    <g id="Symbols" stroke="none" stroke-width="1" fill="none" fill-rule="evenodd">
        <g id="main/library/grid/component/ridiselect" transform="translate(-5.000000, -5.000000)" fill="#FFFFFF">
            <g id="book_1" transform="translate(5.000000, 4.000000)">
                <path d="M7.48425344,1 C6.39963221,1 5.42043134,1.46145455 5.00041667,2.03786364 C4.57956864,1.46145455 3.60036777,1 2.51574655,1 L0.626097206,1 C0.279418429,1 0.000658691848,1.25690909 0.000658691848,1.57640909 L0.000658691848,7.88009091 C-0.0118417448,8.06868182 0.155247425,8.21718182 0.359837905,8.21718182 C0.359837905,8.21718182 1.38237362,8.2 1.87155738,8.2 C2.87534244,8.2 4.46164785,8.31986364 4.69665606,9.18181818 L5.30334392,9.18181818 C5.53835213,8.31986364 7.12465754,8.2 8.12885929,8.2 C8.61804304,8.2 9.64057876,8.21718182 9.64057876,8.21718182 C9.84475256,8.21718182 10.0118417,8.06868182 9.99934129,7.88009091 L9.99934129,1.57640909 C9.99934129,1.25690909 9.72058155,1 9.37390278,1 L7.48425344,1 Z M7.05304326,3.81257841 L4.77152044,6.20113741 L4.5293362,6.45454545 L4.28715196,6.20113741 L2.72727273,4.60040144 L2.94859312,4.36999247 L3.21859582,4.0894037 L3.46037097,3.83766831 L4.5297453,4.92364305 L6.30071755,3.0711717 L6.54331089,2.81818182 L6.78549513,3.07158986 L7.05304326,3.35217864 L7.27272727,3.58258761 L7.05304326,3.81257841 Z" id="ridiselect"></path>
            </g>
        </g>
    </g>
</svg>