<?xml version="1.0" encoding="utf-8"?>
<!-- Generator: Adobe Illustrator 16.0.0, SVG Export Plug-In . SVG Version: 6.00 Build 0)  -->
<!DOCTYPE svg PUBLIC "-//W3C//DTD SVG 1.0//EN" "http://www.w3.org/TR/2001/REC-SVG-20010904/DTD/svg10.dtd">
<svg version="1.0" id="Layer_2" xmlns="http://www.w3.org/2000/svg" xmlns:xlink="http://www.w3.org/1999/xlink" x="0px" y="0px"
	 width="20px" height="20px" viewBox="0 0 20 20" enable-background="new 0 0 20 20" xml:space="preserve">
<path fill="#1E1E1E" d="M10,0C4.478,0,0,4.477,0,10c0,5.523,4.478,9.999,10,9.999S20,15.523,20,10C20,4.477,15.522,0,10,0z
	 M10.001,3.039c3.845,0,6.961,3.117,6.961,6.961c0,1.316-0.371,2.542-1.006,3.592L6.408,4.045C7.458,3.41,8.685,3.039,10.001,3.039z
	 M3.039,10c0-1.316,0.372-2.542,1.006-3.592l9.547,9.548c-1.049,0.635-2.274,1.007-3.591,1.007C6.156,16.963,3.039,13.845,3.039,10z
	"/>
</svg>
