<?xml version="1.0" encoding="UTF-8"?>
<svg width="48px" height="46px" viewBox="0 0 48 46" version="1.1" xmlns="http://www.w3.org/2000/svg" xmlns:xlink="http://www.w3.org/1999/xlink">
    <!-- Generator: Sketch 41.2 (35397) - http://www.bohemiancoding.com/sketch -->
    <title>pencil_2</title>
    <desc>Created with Sketch.</desc>
    <defs></defs>
    <g id="Page-1" stroke="none" stroke-width="1" fill="none" fill-rule="evenodd">
        <g id="pencil_2" fill="#444444">
            <g id="레이어_1">
                <path d="M45.9,12 C45.9,11.4 45.7,10.9 45.3,10.5 L35.4,0.6 C35.1,0.2 34.6,0 34,0 C33.4,0 32.9,0.2 32.5,0.6 L1.2,32 C0.8,32.3 0.6,32.8 0.6,33.3 L0,43.8 C0,44.4 0.2,44.9 0.6,45.4 C1,45.8 1.5,46 2.1,46 L2.2,46 L12.7,45.4 C13.2,45.3 13.7,45.1 14,44.8 L45.3,13.4 C45.7,13 45.9,12.5 45.9,12 Z M11.7,41.3 L7,41.5 C6.7,40.2 5.7,39.3 4.5,38.9 L4.8,34.3 L28.9,10.1 L30.9,12.1 L7.8,35.2 C7,36 7,37.3 7.8,38.1 C8.2,38.5 8.7,38.7 9.3,38.7 C9.9,38.7 10.4,38.5 10.8,38.1 L33.9,15.1 L35.9,17.1 L11.7,41.3 L11.7,41.3 Z M38.8,14.1 L31.8,7.1 L34,5 L41,12 L38.8,14.1 Z" id="Shape"></path>
                <path d="M45.9,41.5 L22.8,41.5 C21.7,41.5 20.7,42.4 20.7,43.6 C20.7,44.8 21.6,45.7 22.8,45.7 L45.9,45.7 C47,45.7 48,44.8 48,43.6 C48,42.4 47.1,41.5 45.9,41.5 Z" id="Shape"></path>
            </g>
        </g>
    </g>
</svg>