<svg xmlns="http://www.w3.org/2000/svg" viewBox="0 0 48 48"><path d="M18.7 22c-.2.6-.4 1.3-.4 2 0 3.1 2.5 5.6 5.6 5.6 3.1 0 5.6-2.5 5.6-5.6 0-3.1-2.5-5.6-5.6-5.6L12.7 5s-2.5-2.4-4.2-1.4c-1.4 1.1-.6 3 .3 4.3L18.7 22zM24 0c-1 0-1.8.1-3 .2h-.4c-1.8 0-3.2 1.4-3.2 3.2 0 1.8 1.4 3.2 3.2 3.2h.1c1-.2 2.1-.2 3.2-.2 9.7 0 17.5 7.8 17.5 17.5S33.7 41.5 24 41.5 6.5 33.7 6.5 24c0-2.7.6-5.3 1.7-7.6.2-.4.2-.8.2-1.3 0-1.8-1.4-3.2-3.2-3.2-1.2 0-2.2.6-2.7 1.5v.1c-.2.2-.3.3-.3.5C.8 17.1 0 20.4 0 24c0 13.3 10.7 24 24 24s24-10.7 24-24S37.3 0 24 0z"/></svg>