<?xml version="1.0" encoding="UTF-8"?>
<svg width="42px" height="48px" viewBox="0 0 42 48" version="1.1" xmlns="http://www.w3.org/2000/svg">
  <!-- Generator: Sketch 41.2 (35397) - http://www.bohemiancoding.com/sketch -->
  <title>alphabet_b</title>
  <desc>Created with Sketch.</desc>
  <defs></defs>
  <g id="Page-1" stroke="none" stroke-width="1" fill="none" fill-rule="evenodd">
    <g id="alphabet_b" transform="translate(0.000000, -1.000000)" fill="#444444">
      <g id="레이어_1">
        <path d="M12.6,28 L22.6,28 C26.4,28 29.3,29.4 29.3,33.6 C29.3,37.6 26.5,39 22.6,39 L12.6,39 C12.6,39 12.6,28 12.6,28 Z M0.1,49 L23.2,49 C33.5,49 41.9,45.5 41.9,34.1 C41.9,28.7 38.7,24.2 33.6,22.7 C37.4,20.8 39.9,17.3 39.9,13 C39.9,3 30.8,0.8 22.6,1 L0.1,1 L0.1,49 L0.1,49 Z M12.6,10.7 L22.3,10.7 C24.9,10.7 27.4,11.8 27.4,15.3 C27.4,18.7 24.4,19.9 22.3,19.9 L12.6,19.9 L12.6,10.7 L12.6,10.7 Z" id="Shape"></path>
      </g>
    </g>
  </g>
</svg>
