<?xml version="1.0" encoding="UTF-8"?>
<svg width="48px" height="48px" viewBox="0 0 48 48" version="1.1" xmlns="http://www.w3.org/2000/svg">
  <!-- Generator: Sketch 41.2 (35397) - http://www.bohemiancoding.com/sketch -->
  <title>app_ridi_2</title>
  <desc>Created with Sketch.</desc>
  <defs></defs>
  <g id="Page-1" stroke="none" stroke-width="1" fill="none" fill-rule="evenodd">
    <g id="app_ridi_2" fill="#000000">
      <g id="Layer_1">
        <g id="Group" transform="translate(7.000000, 13.000000)">
          <path d="M6.8,5.5 C6.8,6.1 6.7,6.6 6.4,6.9 C6.1,7.2 5.7,7.3 5.1,7.3 L4.1,7.3 L3.9,7.3 L3.9,7.1 L3.9,3.8 L3.9,3.7 L4.1,3.7 L5.1,3.7 C5.7,3.7 6.2,3.8 6.4,4.1 C6.7,4.4 6.8,4.8 6.8,5.5 M10.3,5.5 C10.3,3.7 9.9,2.5 9.1,1.8 C8.3,1.1 7,0.8 5.2,0.8 L1,0.8 C0.7,0.8 0.6,0.9 0.6,1.2 L0.6,13.7 C0.6,14 0.7,14.1 1,14.1 L3.6,14.1 C3.9,14.1 4,14 4,13.7 L4,10.2 L4,10 L4.2,10 L4.9,10 L5,10 L5,10.1 L6.7,13.7 C6.8,14 7,14.1 7.4,14.1 L10,14.1 C10.2,14.1 10.3,14 10.3,14 C10.3,13.9 10.3,13.8 10.2,13.6 L8.1,9.6 L8,9.6 L8.1,9.5 L8.2,9.5 C9.6,8.8 10.3,7.5 10.3,5.5 M15.8,13.7 L15.8,1.2 C15.8,0.9 15.7,0.8 15.4,0.8 L12.8,0.8 C12.5,0.8 12.4,0.9 12.4,1.2 L12.4,13.7 C12.4,14 12.5,14.1 12.8,14.1 L15.4,14.1 C15.7,14.1 15.8,14 15.8,13.7 M24.5,7.5 C24.5,8.9 24.3,9.9 24,10.4 C23.7,10.9 23.1,11.2 22.2,11.2 L21.6,11.2 L21.4,11.2 L21.4,11 L21.4,3.9 L21.4,3.8 L21.6,3.8 L22.1,3.8 C23,3.8 23.6,4 24,4.6 C24.3,5.1 24.5,6 24.5,7.5 M26.7,12.7 C27.6,11.7 28,10 28,7.5 C28,5 27.5,3.3 26.6,2.3 C25.7,1.3 24.2,0.8 22.2,0.8 L18.4,0.8 C18.1,0.8 18,0.9 18,1.2 L18,13.7 C18,14 18.1,14.1 18.4,14.1 L22.3,14.1 C24.3,14.1 25.8,13.6 26.7,12.7 M33.5,13.7 L33.5,1.2 C33.5,0.9 33.4,0.8 33.1,0.8 L30.5,0.8 C30.2,0.8 30.1,0.9 30.1,1.2 L30.1,13.7 C30.1,14 30.2,14.1 30.5,14.1 L33.1,14.1 C33.4,14.1 33.5,14 33.5,13.7" id="Shape"></path>
          <path d="M33.5,19.5 L33.5,18 C33.5,17.7 33.4,17.6 33.1,17.6 L30.3,17.6 C28.6,17.6 23.3,17.6 21.2,18 C19.6,18.3 18.1,19 17.1,19.9 L17,20.1 L16.9,20 C15.8,19 14.4,18.4 12.8,18.1 C10.8,17.7 3.8,17.7 3.7,17.7 L0.9,17.7 C0.6,17.7 0.5,17.8 0.5,18.1 L0.5,19.6 C0.5,19.9 0.6,20 0.9,20 L4,20 C4.8,20 11,20 12.4,20.4 C14.7,20.9 15.9,22.6 16.2,23 L17.9,23 C18.2,22.6 19.4,21 21.7,20.4 C23.1,20.1 29.3,20 30.3,20 L33.1,20 C33.4,19.9 33.5,19.8 33.5,19.5" id="Shape"></path>
        </g>
        <path d="M39.7,0 L8.3,0 C3.7,0 0,3.7 0,8.3 L0,39.6 C0,44.3 3.7,47.9 8.3,47.9 L39.6,47.9 C44.3,47.9 47.9,44.2 47.9,39.6 L47.9,8.3 C48,3.7 44.3,0 39.7,0 Z M44.2,39.7 C44.2,42.2 42.2,44.2 39.7,44.2 L8.3,44.2 C5.8,44.2 3.8,42.2 3.8,39.7 L3.8,8.3 C3.8,5.8 5.8,3.8 8.3,3.8 L39.6,3.8 C42.1,3.8 44.1,5.8 44.1,8.3 L44.1,39.7 L44.2,39.7 Z" id="Shape"></path>
      </g>
    </g>
  </g>
</svg>
