<?xml version="1.0" encoding="UTF-8"?>
<svg width="49px" height="47px" viewBox="0 0 49 47" version="1.1" xmlns="http://www.w3.org/2000/svg">
  <!-- Generator: Sketch 41.2 (35397) - http://www.bohemiancoding.com/sketch -->
  <title>arrow_3_up</title>
  <desc>Created with Sketch.</desc>
  <defs></defs>
  <g id="Page-1" stroke="none" stroke-width="1" fill="none" fill-rule="evenodd">
    <g id="arrow_3_up" fill="#000000">
      <g id="레이어_1">
        <path d="M48.9,24.9 C48.9,25.9 48.5,26.9 47.8,27.7 L45.4,30 C44.6,30.8 43.7,31.2 42.6,31.2 C41.5,31.2 40.6,30.8 39.8,30 L30.7,21 L30.7,42.7 C30.7,43.8 30.3,44.6 29.5,45.3 C28.7,46 27.8,46.3 26.7,46.3 L22.8,46.3 C21.7,46.3 20.8,46 20,45.3 C19.2,44.6 18.8,43.8 18.8,42.7 L18.8,21 L9.7,30 C9,30.8 8,31.2 6.9,31.2 C5.8,31.2 4.9,30.8 4.1,30 L2,27.7 C1.2,26.9 0.8,26 0.8,24.9 C0.8,23.8 1.2,22.9 2,22.1 L22.1,2 C22.8,1.2 23.7,0.9 24.9,0.9 C26,0.9 26.9,1.3 27.7,2 L47.8,22.1 C48.5,22.9 48.9,23.8 48.9,24.9 Z" id="Shape"></path>
      </g>
    </g>
  </g>
</svg>
