<?xml version="1.0" encoding="UTF-8"?>
<svg width="22px" height="37px" viewBox="0 0 22 37" version="1.1" xmlns="http://www.w3.org/2000/svg">
  <!-- Generator: Sketch 41.2 (35397) - http://www.bohemiancoding.com/sketch -->
  <title>arrow_5_left</title>
  <desc>Created with Sketch.</desc>
  <defs></defs>
  <g id="Page-1" stroke="none" stroke-width="1" fill="none" fill-rule="evenodd">
    <g id="arrow_5_left" fill="#000000">
      <g id="Layer_1">
        <path d="M18.5,36.5 C18.2,36.5 17.9,36.3 17.6,36.2 L0.8,19.4 C0.7,19.1 0.5,18.8 0.5,18.5 C0.5,18.2 0.6,17.9 0.8,17.6 L17.6,0.8 C17.9,0.5 18.1,0.5 18.5,0.5 C18.8,0.5 19.1,0.6 19.4,0.8 L21.2,2.6 C21.3,2.9 21.5,3.2 21.5,3.5 C21.5,3.8 21.3,4.1 21.2,4.3 L7.1,18.5 L21.2,32.7 C21.5,33 21.5,33.1 21.5,33.6 C21.5,33.9 21.3,34.2 21.2,34.5 L19.4,36.3 C19.1,36.3 18.8,36.5 18.5,36.5 L18.5,36.5 Z" id="Shape"></path>
      </g>
    </g>
  </g>
</svg>
