<?xml version="1.0" encoding="UTF-8"?>
<svg width="47px" height="48px" viewBox="0 0 47 48" version="1.1" xmlns="http://www.w3.org/2000/svg">
  <!-- Generator: Sketch 41.2 (35397) - http://www.bohemiancoding.com/sketch -->
  <title>arrow_3_left</title>
  <desc>Created with Sketch.</desc>
  <defs></defs>
  <g id="Page-1" stroke="none" stroke-width="1" fill="none" fill-rule="evenodd">
    <g id="arrow_3_left" fill="#000000">
      <g id="레이어_1">
        <path d="M24.5,48 C23.4,48 22.5,47.6 21.7,46.9 L1.6,26.8 C0.9,26 0.5,25.1 0.5,24 C0.5,22.9 0.9,22 1.6,21.2 L21.7,1.2 C22.4,0.4 23.4,0 24.5,0 C25.6,0 26.5,0.4 27.3,1.2 L29.6,3.5 C30.4,4.3 30.7,5.2 30.7,6.3 C30.7,7.4 30.3,8.3 29.6,9.1 L20.5,18.2 L42.2,18.2 C43.3,18.2 44.2,18.6 45,19.4 C45.8,20.2 46.2,21.1 46.2,22.2 L46.2,26 C46.2,27.1 45.8,28 45,28.8 C44.2,29.6 43.3,30 42.2,30 L20.5,30 L29.6,39.1 C30.4,39.9 30.7,40.8 30.7,41.9 C30.7,43 30.3,43.9 29.6,44.7 L27.3,47 C26.5,47.6 25.5,48 24.5,48 Z" id="Shape"></path>
      </g>
    </g>
  </g>
</svg>
