<?xml version="1.0" encoding="UTF-8"?>
<svg width="48px" height="48px" viewBox="0 0 48 48" version="1.1" xmlns="http://www.w3.org/2000/svg">
  <!-- Generator: Sketch 41.2 (35397) - http://www.bohemiancoding.com/sketch -->
  <title>arrow_6_down</title>
  <desc>Created with Sketch.</desc>
  <defs></defs>
  <g id="Page-1" stroke="none" stroke-width="1" fill="none" fill-rule="evenodd">
    <g id="arrow_6_down" fill="#000000">
      <g id="레이어_1">
        <path d="M24,0 C10.7,0 0,10.7 0,24 C0,37.3 10.7,48 24,48 C37.3,48 48,37.3 48,24 C48,10.7 37.3,0 24,0 Z M34.4,23.4 L26.7,31.1 C26.6,31.3 26.5,31.4 26.3,31.6 C25.5,32.4 24.4,32.6 23.5,32.3 C23,32.2 22.6,31.9 22.3,31.6 C22.2,31.5 22.1,31.4 22,31.3 L14.2,23.5 C13.1,22.4 13.1,20.6 14.2,19.5 C15.3,18.4 17.1,18.4 18.2,19.5 L24.3,25.6 L30.5,19.4 C31.6,18.3 33.4,18.3 34.5,19.4 C35.6,20.5 35.5,22.3 34.4,23.4 L34.4,23.4 Z" id="Shape"></path>
      </g>
    </g>
  </g>
</svg>
