<?xml version="1.0" encoding="UTF-8"?>
<svg width="48px" height="48px" viewBox="0 0 48 48" version="1.1" xmlns="http://www.w3.org/2000/svg">
  <!-- Generator: Sketch 41.2 (35397) - http://www.bohemiancoding.com/sketch -->
  <title>arrow_11_right</title>
  <desc>Created with Sketch.</desc>
  <defs></defs>
  <g id="Page-1" stroke="none" stroke-width="1" fill="none" fill-rule="evenodd">
    <g id="arrow_11_right" fill="#000000">
      <g id="Layer_1">
        <path d="M31.8,22 L21,15.4 C19.2,14.4 18,14.8 18,16.4 L18,31.5 C18,33.2 19.3,33.6 21,32.6 L31.8,26 C33.4,24.9 33.4,23.1 31.8,22 Z M24,0 C10.8,0 0,10.8 0,24 C0,37.2 10.8,48 24,48 C37.2,48 48,37.2 48,24 C48,10.8 37.2,0 24,0 Z M40.8,35.4 C40,36.4 39.3,37.5 38.2,38.4 C37.3,39.3 36.3,40.2 35.2,40.9 C34.1,41.6 33,42.3 31.8,42.7 C29.2,43.7 26.7,44.3 23.8,44.3 C20.9,44.3 18.4,43.7 15.9,42.7 C14.7,42.2 13.5,41.5 12.4,40.9 C11.4,40.1 10.3,39.4 9.4,38.4 C8.5,37.5 7.6,36.4 6.9,35.4 C6.1,34.3 5.5,33.2 5.1,31.9 C4.1,29.4 3.4,26.8 3.4,23.9 C3.4,21 4,18.5 5,15.9 C5.5,14.7 6.2,13.5 6.8,12.5 C7.6,11.5 8.3,10.4 9.3,9.5 C10.2,8.6 11.3,7.7 12.3,7 C13.3,6.3 14.5,5.6 15.8,5.2 C18.4,4.2 20.9,3.5 23.7,3.5 C26.4,3.5 29.1,4.1 31.7,5.1 C33,5.7 34.2,6.4 35.2,7 C36.3,7.8 37.3,8.5 38.2,9.5 C39.1,10.4 40,11.5 40.8,12.5 C41.6,13.5 42.1,14.7 42.6,15.9 C43.6,18.5 44.3,21 44.3,23.9 C44.3,26.8 43.7,29.3 42.6,31.8 C42.2,33.2 41.6,34.2 40.8,35.4 Z" id="Shape"></path>
      </g>
    </g>
  </g>
</svg>
