<?xml version="1.0" encoding="UTF-8"?>
<svg width="36px" height="21px" viewBox="0 0 36 21" version="1.1" xmlns="http://www.w3.org/2000/svg">
  <!-- Generator: Sketch 41.2 (35397) - http://www.bohemiancoding.com/sketch -->
  <title>arrow_5_up</title>
  <desc>Created with Sketch.</desc>
  <defs></defs>
  <g id="Page-1" stroke="none" stroke-width="1" fill="none" fill-rule="evenodd">
    <g id="arrow_5_up" fill="#000000">
      <g id="Layer_1">
        <path d="M36,18 C36,18.3 35.8,18.6 35.7,18.9 L33.9,20.7 C33.6,21 33.4,21 33,21 C32.5,21 32.4,20.9 32.1,20.7 L18,6.4 L3.9,20.7 C3.6,21 3.5,21 3,21 C2.5,21 2.4,20.8 2.1,20.7 L0.3,18.9 C0.2,18.6 0,18.3 0,18 C0,17.7 0.2,17.4 0.3,17.1 L17.1,0.3 C17.4,0 17.5,0 18,0 C18.3,0 18.6,0.2 18.9,0.3 L35.7,17.1 C35.8,17.4 36,17.7 36,18 L36,18 Z" id="Shape"></path>
      </g>
    </g>
  </g>
</svg>
