<?xml version="1.0" encoding="UTF-8"?>
<svg width="48px" height="48px" viewBox="0 0 48 48" version="1.1" xmlns="http://www.w3.org/2000/svg">
  <!-- Generator: Sketch 41.2 (35397) - http://www.bohemiancoding.com/sketch -->
  <title>arrow_6_up</title>
  <desc>Created with Sketch.</desc>
  <defs></defs>
  <g id="Page-1" stroke="none" stroke-width="1" fill="none" fill-rule="evenodd">
    <g id="arrow_6_up" fill="#000000">
      <g id="레이어_1">
        <path d="M24,48 C37.3,48 48,37.3 48,24 C48,10.7 37.3,0 24,0 C10.7,0 0,10.7 0,24 C0,37.3 10.7,48 24,48 Z M13.6,24.6 L21.3,16.9 C21.4,16.7 21.5,16.6 21.7,16.4 C22.5,15.6 23.6,15.4 24.5,15.7 C25,15.8 25.4,16 25.8,16.4 C25.9,16.5 26,16.6 26.1,16.7 L33.9,24.5 C35,25.6 35,27.4 33.9,28.5 C32.8,29.6 31,29.6 29.9,28.5 L23.8,22.4 L17.6,28.6 C16.5,29.7 14.7,29.7 13.6,28.6 C12.5,27.5 12.5,25.7 13.6,24.6 L13.6,24.6 Z" id="Shape"></path>
      </g>
    </g>
  </g>
</svg>
