<?xml version="1.0" encoding="UTF-8"?>
<svg width="48px" height="29px" viewBox="0 0 48 29" version="1.1" xmlns="http://www.w3.org/2000/svg">
  <!-- Generator: Sketch 41.2 (35397) - http://www.bohemiancoding.com/sketch -->
  <title>arrow_2_down</title>
  <desc>Created with Sketch.</desc>
  <defs></defs>
  <g id="Page-1" stroke="none" stroke-width="1" fill="none" fill-rule="evenodd">
    <g id="arrow_2_down" transform="translate(-1.000000, -1.000000)" fill="#000000">
      <g id="레이어_1">
        <path d="M2.3,9.1 C4,10.8 21.7,27.7 21.7,27.7 C22.6,28.6 23.8,29.1 25,29.1 C26.2,29.1 27.4,28.6 28.3,27.7 C28.3,27.7 46,10.8 47.7,9.1 C49.4,7.4 49.5,4.3 47.7,2.4 C45.9,0.6 43.4,0.4 41.2,2.4 L25,17.9 L8.8,2.4 C6.6,0.4 4.1,0.6 2.3,2.4 C0.5,4.3 0.6,7.4 2.3,9.1 L2.3,9.1 Z" id="Shape"></path>
      </g>
    </g>
  </g>
</svg>
