<?xml version="1.0" encoding="UTF-8"?>
<svg width="29px" height="48px" viewBox="0 0 29 48" version="1.1" xmlns="http://www.w3.org/2000/svg">
  <!-- Generator: Sketch 41.2 (35397) - http://www.bohemiancoding.com/sketch -->
  <title>arrow_2_left</title>
  <desc>Created with Sketch.</desc>
  <defs></defs>
  <g id="Page-1" stroke="none" stroke-width="1" fill="none" fill-rule="evenodd">
    <g id="arrow_2_left" transform="translate(0.000000, -1.000000)" fill="#000000">
      <g id="레이어_1">
        <path d="M20.9,2.3 C19.2,4 2.3,21.7 2.3,21.7 C1.4,22.6 0.9,23.8 0.9,25 C0.9,26.2 1.4,27.4 2.3,28.3 C2.3,28.3 19.2,46 20.9,47.7 C22.6,49.4 25.7,49.5 27.6,47.7 C29.4,45.9 29.6,43.4 27.6,41.2 L12.1,25 L27.6,8.8 C29.6,6.6 29.4,4.1 27.6,2.3 C25.7,0.5 22.6,0.6 20.9,2.3 L20.9,2.3 Z" id="Shape"></path>
      </g>
    </g>
  </g>
</svg>
