<?xml version="1.0" encoding="UTF-8"?>
<svg width="48px" height="38px" viewBox="0 0 48 38" version="1.1" xmlns="http://www.w3.org/2000/svg">
  <!-- Generator: Sketch 41.2 (35397) - http://www.bohemiancoding.com/sketch -->
  <title>arrow_12_left</title>
  <desc>Created with Sketch.</desc>
  <defs></defs>
  <g id="Page-1" stroke="none" stroke-width="1" fill="none" fill-rule="evenodd">
    <g id="arrow_12_left" fill="#3D4142">
      <g id="Layer_1">
        <path d="M46.3,17.3 L6.1,17.3 L21.8,3.1 C22.5,2.4 22.5,1.4 21.8,0.8 C21.1,0.2 20.1,0.1 19.5,0.8 L0.8,17.5 C0.6,17.5 0.6,17.7 0.5,17.7 C0.2,18 0,18.5 0,18.8 L0,18.8 L0,18.8 C0,19.3 0.2,19.6 0.5,20 C0.7,20.2 0.7,20.2 0.8,20.2 L19.3,37.2 C20,37.9 21,37.9 21.6,37.2 C22.2,36.5 22.3,35.5 21.6,34.9 L6.1,20.7 L46.3,20.7 C47.3,20.7 48,19.9 48,19 C48,18 47.2,17.3 46.3,17.3 Z" id="Shape"></path>
      </g>
    </g>
  </g>
</svg>
