<?xml version="1.0" encoding="UTF-8"?>
<svg width="42px" height="48px" viewBox="0 0 42 48" version="1.1" xmlns="http://www.w3.org/2000/svg">
  <!-- Generator: Sketch 41.2 (35397) - http://www.bohemiancoding.com/sketch -->
  <title>bell_1</title>
  <desc>Created with Sketch.</desc>
  <defs></defs>
  <g id="Page-1" stroke="none" stroke-width="1" fill="none" fill-rule="evenodd">
    <g id="bell_1" fill="#000000">
      <g id="Layer_1">
        <g id="XMLID_54_">
          <path d="M21.1,48 C23.7,48 25.6,45.9 25.6,43.5 L16.5,43.5 C16.6,45.9 18.5,48 21.1,48 Z" id="XMLID_56_"></path>
          <path d="M36.8,33.9 L36.8,20.6 C36.8,13.2 31.7,7 24.6,5.2 L24.6,3.6 C24.8,1.6 23.2,0 21.1,0 C19,0 17.4,1.6 17.4,3.7 L17.4,5.3 C10.5,6.9 5.2,13.1 5.2,20.6 L5.2,33.9 L0.4,38.7 L0.4,41.1 L41.5,41.1 L41.5,38.7 L36.8,33.9 Z" id="XMLID_55_"></path>
        </g>
      </g>
    </g>
  </g>
</svg>
