<?xml version="1.0" encoding="UTF-8"?>
<svg width="45px" height="49px" viewBox="0 0 45 49" version="1.1" xmlns="http://www.w3.org/2000/svg">
  <!-- Generator: Sketch 41.2 (35397) - http://www.bohemiancoding.com/sketch -->
  <title>bell_add_1</title>
  <desc>Created with Sketch.</desc>
  <defs></defs>
  <g id="Page-1" stroke="none" stroke-width="1" fill="none" fill-rule="evenodd">
    <g id="bell_add_1" fill="#000000">
      <g id="Layer_1">
        <g id="Group">
          <polygon id="Shape" points="44.9 7.5 37.9 7.5 37.9 0.5 37.9 0.5 33.3 0.5 33.3 0.5 33.3 7.5 26.3 7.5 26.3 7.5 26.3 8.1 26.3 12.1 26.3 12.1 31.6 12.1 33.3 12.1 33.3 14.7 33.3 19.1 33.3 19.1 34.9 19.1 37.9 19.1 37.9 19.1 37.9 12.1 44.9 12.1 44.9 12.1"></polygon>
          <path d="M20.1,48.5 C22.6,48.5 24.5,46.5 24.5,44.1 L15.8,44.1 C15.7,46.6 17.8,48.5 20.1,48.5 Z" id="Shape"></path>
          <path d="M35.3,22.3 L33.4,22.3 L30.3,22.3 L30.3,19.1 L30.3,15.3 L26.4,15.3 L23.3,15.3 L23.3,12.1 L23.3,7.4 L23.3,4.4 C23,3.1 21.8,2 20,2 C18,2.1 16.5,3.6 16.5,5.6 L16.5,7.2 C9.9,8.8 4.9,14.8 4.9,21.9 L4.9,34.8 L0.2,39.5 L0.2,41.8 L40,41.8 L40,39.5 L35.3,34.8 L35.3,22.3 L35.3,22.3 Z" id="Shape"></path>
        </g>
      </g>
    </g>
  </g>
</svg>
