<?xml version="1.0" encoding="UTF-8"?>
<svg width="46px" height="48px" viewBox="0 0 46 48" version="1.1" xmlns="http://www.w3.org/2000/svg">
  <!-- Generator: Sketch 41.2 (35397) - http://www.bohemiancoding.com/sketch -->
  <title>call_center</title>
  <desc>Created with Sketch.</desc>
  <defs></defs>
  <g id="Page-1" stroke="none" stroke-width="1" fill="none" fill-rule="evenodd">
    <g id="call_center" transform="translate(0.000000, -1.000000)" fill="#000000">
      <g id="레이어_1">
        <path d="M27.7,28.4 C26.8,29.7 25.2,30.6 23.5,30.6 C21.8,30.6 20.2,29.8 19.2,28.5 C18.5,27.6 17.2,27.4 16.3,28.1 C15.4,28.8 15.2,30.1 15.9,31 L15.9,31 C17.6,33.3 20.4,34.9 23.5,34.8 L23.5,34.8 C26.6,34.8 29.4,33.2 31,30.8 C31.7,29.9 31.4,28.6 30.5,27.9 C29.6,27.2 28.4,27.4 27.7,28.4 L27.7,28.4 Z M30.4,15.8 C29.3,15.8 28.4,16.7 28.4,17.9 L28.4,19.3 C28.4,20.4 29.3,21.3 30.5,21.3 C31.6,21.3 32.5,20.4 32.5,19.2 L32.5,17.8 C32.4,16.7 31.5,15.8 30.4,15.8 Z M18.4,19.4 L18.4,18 C18.4,16.9 17.5,16 16.3,16 C15.2,16 14.3,16.9 14.3,18.1 L14.3,19.5 C14.3,20.6 15.2,21.5 16.4,21.5 C17.5,21.4 18.4,20.5 18.4,19.4 Z M41.4,15.8 C39.5,7.3 31.9,0.9 22.8,1 C13.7,1.1 6.2,7.6 4.4,16.1 C2.3,16.6 0.7,18.5 0.8,20.8 L0.8,27.1 C0.8,29.3 2.4,31.2 4.5,31.7 C6,39.2 12,45.1 19.5,46.5 C20.2,47.9 21.6,48.9 23.3,48.9 C25.6,48.9 27.4,47 27.4,44.7 C27.4,42.4 25.5,40.6 23.3,40.6 C21.9,40.6 20.8,41.3 20,42.3 C13.3,41 8.3,35.2 8.2,28.2 L8.2,20.1 C8.1,11.9 14.7,5.2 22.8,5.1 C31,5 37.7,11.6 37.8,19.8 L37.8,29.6 C37.8,30.7 38.8,31.6 40,31.6 L40.5,31.6 C43.2,31.6 45.2,29.4 45.2,26.7 L45.2,20.4 C45.2,18.2 43.6,16.3 41.4,15.8 Z" id="Shape"></path>
      </g>
    </g>
  </g>
</svg>
