<?xml version="1.0" encoding="UTF-8"?>
<svg width="46px" height="48px" viewBox="0 0 46 48" version="1.1" xmlns="http://www.w3.org/2000/svg">
  <!-- Generator: Sketch 41.2 (35397) - http://www.bohemiancoding.com/sketch -->
  <title>cart_2</title>
  <desc>Created with Sketch.</desc>
  <defs></defs>
  <g id="Page-1" stroke="none" stroke-width="1" fill="none" fill-rule="evenodd">
    <g id="cart_2" fill="#444444">
      <g id="레이어_1">
        <path d="M35.3,48 C32.3,48 29.8,45.5 29.8,42.5 C29.8,39.5 32.2,37 35.3,37 C38.4,37 40.8,39.5 40.8,42.5 C40.8,45.5 38.3,48 35.3,48 Z M35.3,39.8 C33.8,39.8 32.7,41 32.7,42.5 C32.7,44 33.9,45.2 35.3,45.2 C36.8,45.2 37.9,44 37.9,42.5 C37.9,41 36.7,39.8 35.3,39.8 Z M12.3,48 C9.3,48 6.8,45.5 6.8,42.5 C6.8,39.5 9.2,37 12.3,37 C15.4,37 17.8,39.5 17.8,42.5 C17.8,45.5 15.3,48 12.3,48 Z M12.3,39.8 C10.8,39.8 9.7,41 9.7,42.5 C9.7,44 10.9,45.2 12.3,45.2 C13.8,45.2 15,44 15,42.5 C15,41 13.8,39.8 12.3,39.8 Z M35.2,33 L9.2,33 C7.9,33 6.8,31.9 6.8,30.6 L6.8,9 L2.9,9 C1.6,9 0.5,7.9 0.5,6.6 L0.5,2.4 C0.5,1.1 1.5,0 2.8,0 L11.8,0 C13.1,0 14.2,1.1 14.2,2.4 L14.2,6.9 L41.8,6.9 C43.1,6.9 44.2,7.4 44.9,8.4 C45.6,9.3 45.8,10.6 45.4,11.8 L45.4,11.9 L41.6,21.8 L37.9,31 C37.5,32.3 36.2,33 35.2,33 Z M9.6,30.2 L35.2,30.2 L35.2,30.2 L39,20.9 L42.7,11 C42.8,10.7 42.8,10.3 42.6,10.1 C42.4,9.9 42.2,9.8 41.8,9.8 L11.4,9.8 L11.4,2.9 L3.3,2.9 L3.3,6.2 L9.6,6.2 L9.6,30.2 L9.6,30.2 Z" id="Shape"></path>
      </g>
    </g>
  </g>
</svg>
