<?xml version="1.0" encoding="utf-8"?>
<!-- Generator: Adobe Illustrator 21.1.0, SVG Export Plug-In . SVG Version: 6.00 Build 0)  -->
<svg version="1.1" id="Layer_1" xmlns="http://www.w3.org/2000/svg"  x="0px" y="0px"
	 viewBox="0 0 48 48" style="enable-background:new 0 0 48 48;" xml:space="preserve">
<path id="check" d="M24,0c13.255,0,24,10.745,24,24S37.255,48,24,48S0,37.255,0,24S10.745,0,24,0L24,0z M36.464,14.795
	L36.464,14.795c0.213-0.35,0.327-0.751,0.331-1.16c-0.055-1.386-1.22-2.467-2.606-2.418c-0.786-0.006-1.534,0.336-2.043,0.934l0,0
	l-0.01,0.013c-0.132,0.155-0.245,0.326-0.336,0.509L20.824,29.946l-4.864-5.474c-0.578-0.833-1.516-1.345-2.53-1.379
	c-1.337,0.093-2.346,1.253-2.253,2.59c0.003,0.043,0.007,0.087,0.013,0.13c0.047,0.651,0.325,1.265,0.786,1.728l6.738,8.277
	c0.54,0.604,1.304,0.958,2.114,0.979c0.828,0.074,1.633-0.299,2.112-0.979l13.347-20.752c0.067-0.083,0.126-0.172,0.178-0.266l0,0
	V14.795z"/>
</svg>
