<?xml version="1.0" encoding="UTF-8"?>
<svg width="48px" height="48px" viewBox="0 0 48 48" version="1.1" xmlns="http://www.w3.org/2000/svg">
  <!-- Generator: Sketch 41.2 (35397) - http://www.bohemiancoding.com/sketch -->
  <title>check_3</title>
  <desc>Created with Sketch.</desc>
  <defs></defs>
  <g id="Page-1" stroke="none" stroke-width="1" fill="none" fill-rule="evenodd">
    <g id="check_3" fill="#000000">
      <g id="레이어_1">
        <g id="Layer_3">
          <path d="M24,48 C10.8,48 0,37.2 0,24 C0,10.8 10.8,0 24,0 C37.2,0 48,10.8 48,24 C48,37.2 37.2,48 24,48 Z M24,1.7 C11.7,1.7 1.7,11.7 1.7,24 C1.7,36.3 11.7,46.3 24,46.3 C36.3,46.3 46.3,36.3 46.3,24 C46.3,11.7 36.3,1.7 24,1.7 Z" id="Shape"></path>
        </g>
        <g id="Layer_2" transform="translate(10.000000, 14.000000)">
          <path d="M26.5,2.7 L9.6,20.3 C9.1,20.8 8.4,20.8 7.9,20.3 L7.9,20.3 L7.9,20.3 L0.9,13 C0.4,12.5 0.4,11.7 0.9,11.2 C1.4,10.7 2.1,10.7 2.6,11.2 L8.8,17.7 L24.7,1 C25.2,0.5 25.9,0.5 26.4,1 C26.9,1.5 26.9,2.3 26.5,2.7 Z" id="Shape"></path>
        </g>
      </g>
    </g>
  </g>
</svg>
