<?xml version="1.0" encoding="UTF-8"?>
<svg width="48px" height="48px" viewBox="0 0 48 48" version="1.1" xmlns="http://www.w3.org/2000/svg">
  <!-- Generator: Sketch 41.2 (35397) - http://www.bohemiancoding.com/sketch -->
  <title>check_1</title>
  <desc>Created with Sketch.</desc>
  <defs></defs>
  <g id="Page-1" stroke="none" stroke-width="1" fill="none" fill-rule="evenodd">
    <g id="check_1" fill="#000000">
      <g id="레이어_1">
        <path d="M47.4,6.7 L47.4,6.7 C47.8,6.1 48,5.3 48,4.5 C48,2 45.8,0 43.1,0 C41.5,0 40.2,0.7 39.3,1.8 L39.3,1.8 L39.3,1.8 C39.1,2.1 38.8,2.4 38.7,2.8 L18.1,35.1 L8.9,24.9 C8,23.7 6.3,22.3 4.2,22.3 C1.2,22.3 0,25 0,27.4 C0,28.7 0.7,29.7 1.5,30.6 L14.1,46.2 C14.9,47.1 16.3,48 18.1,48 C20.1,48 21.3,47.3 22.1,46.2 L47.1,7.3 C47.2,7.1 47.3,6.9 47.4,6.7 L47.4,6.7 Z" id="Shape"></path>
      </g>
    </g>
  </g>
</svg>
