<?xml version="1.0" encoding="utf-8"?>
<!-- Generator: Adobe Illustrator 23.0.0, SVG Export Plug-In . SVG Version: 6.00 Build 0)  -->
<svg version="1.0" id="Layer_1" xmlns="http://www.w3.org/2000/svg"  x="0px" y="0px" width="48px" height="34px" viewBox="0 0 48 34" style="enable-background:new 0 0 48 34;" xml:space="preserve">
<path d="M45.67,13.079C47.199,11.743,48,10.181,48,8.51c0-4.735-6.352-8.306-14.775-8.306S18.451,3.775,18.451,8.51
	c0,0.369,0.04,0.735,0.119,1.097c-1.236-0.177-2.506-0.267-3.795-0.267C6.352,9.34,0,12.912,0,17.647
	c0,1.39,0.574,2.731,1.671,3.922C0.574,22.759,0,24.1,0,25.49c0,4.735,6.352,8.306,14.775,8.306c3.387,0,6.643-0.621,9.225-1.754
	c2.582,1.133,5.838,1.754,9.225,1.754C41.648,33.796,48,30.225,48,25.49c0-1.39-0.575-2.731-1.672-3.922
	C47.425,20.378,48,19.037,48,17.647C48,15.976,47.199,14.413,45.67,13.079z M42.13,20.275c-0.302,0.177-0.635,0.343-0.986,0.504
	c-2.123,0.967-4.936,1.499-7.919,1.499c-1.858,0-3.618-0.199-5.234-0.591c-0.035-0.04-0.071-0.079-0.107-0.119
	c0.106-0.115,0.207-0.23,0.3-0.345c0.333-0.41,0.616-0.86,0.838-1.335c0.209-0.446,0.349-0.856,0.427-1.254
	c0.067-0.337,0.101-0.669,0.101-0.988c0-0.369-0.04-0.735-0.12-1.097c1.237,0.177,2.508,0.267,3.795,0.267
	c3.369,0,6.496-0.583,9.077-1.688c1.274,0.793,2.023,1.717,2.023,2.518c0,0.652-0.495,1.392-1.393,2.084
	C42.688,19.918,42.424,20.102,42.13,20.275z M41.933,11.245c-0.328,0.183-0.68,0.358-1.063,0.522
	c-0.415,0.176-0.862,0.337-1.333,0.485c-3.721,1.167-8.901,1.167-12.623,0c-0.472-0.148-0.919-0.308-1.335-0.486
	c-0.382-0.163-0.735-0.339-1.064-0.522c-1.495-0.835-2.389-1.857-2.389-2.733c0-1.934,4.222-4.631,11.099-4.631
	s11.1,2.697,11.1,4.631C44.325,9.386,43.431,10.409,41.933,11.245z M25.874,17.647c0,0.279-0.099,0.587-0.295,0.916
	c-0.236,0.395-0.605,0.787-1.127,1.191l-0.184,0.141c-0.184,0.131-0.38,0.258-0.59,0.381l0.439,0.748l-0.549-0.688
	c-0.271,0.155-0.566,0.303-0.906,0.459l-0.254,0.115c-0.246,0.104-0.505,0.202-0.773,0.297c-0.428,0.152-0.882,0.291-1.363,0.415
	c-1.688,0.436-3.538,0.657-5.498,0.657c-2.983,0-5.795-0.532-7.917-1.499c-0.351-0.159-0.684-0.325-0.983-0.502
	c-0.296-0.175-0.561-0.358-0.806-0.547c-0.898-0.694-1.393-1.433-1.393-2.084c0-1.934,4.223-4.63,11.099-4.63
	c2.513,0,4.885,0.37,6.86,1.07c0.354,0.127,0.687,0.262,1.004,0.404c0.332,0.148,0.644,0.305,0.931,0.469
	C25.012,15.784,25.874,16.789,25.874,17.647z M4.642,23.766c2.712,1.413,6.28,2.187,10.132,2.187c1.62,0,3.23-0.145,4.784-0.429
	c0.377-0.069,0.748-0.143,1.11-0.228c0.431-0.102,0.85-0.213,1.258-0.334c0.858-0.258,1.681-0.57,2.442-0.928
	c0.184-0.087,0.364-0.175,0.539-0.267c0.285,0.265,0.509,0.537,0.672,0.809c0.195,0.328,0.295,0.636,0.295,0.915
	c0,0.857-0.862,1.863-2.305,2.687c-0.288,0.165-0.599,0.321-0.931,0.47c-0.316,0.141-0.648,0.277-1.002,0.402
	c-1.975,0.701-4.348,1.072-6.861,1.072c-6.877,0-11.099-2.697-11.099-4.631C3.675,24.951,4.015,24.35,4.642,23.766z M29.545,25.701
	c1.207,0.167,2.441,0.252,3.68,0.252c3.853,0,7.421-0.774,10.133-2.187c0.627,0.584,0.967,1.184,0.967,1.724
	c0,1.934-4.223,4.631-11.1,4.631c-1.925,0-3.767-0.217-5.412-0.634C28.898,28.342,29.489,27.057,29.545,25.701z"/>
</svg>
