<?xml version="1.0" encoding="UTF-8"?>
<svg width="70px" height="48px" viewBox="0 0 70 48" version="1.1" xmlns="http://www.w3.org/2000/svg">
  <!-- Generator: Sketch 41.2 (35397) - http://www.bohemiancoding.com/sketch -->
  <title>coin_2</title>
  <desc>Created with Sketch.</desc>
  <defs></defs>
  <g id="Page-1" stroke="none" stroke-width="1" fill="none" fill-rule="evenodd">
    <g id="coin_2" fill="#444444">
      <g id="레이어_1">
        <path d="M70,25 C70,22.4 68.4,20 65.6,18.1 C68.4,16.2 70,13.9 70,11.3 C70,5 60.8,0.1 49,0.1 C37.2,0.1 27.9,4.9 27.9,11.1 C27.9,12.3 28.2,13.4 28.8,14.5 C26.5,13.9 23.8,13.8 21.2,13.8 C9.2,13.8 0,18.6 0,25 C0,27.2 1.2,29.2 3.1,31 C1.2,32.6 0,34.6 0,36.8 C0,43.1 9.2,48 21,48 C26.4,48 31.2,47 35,45.2 C38.6,47 43.6,48 49,48 C60.8,48 70,43 70,36.8 C70,34.6 68.8,32.6 66.9,30.8 C68.8,29.2 70,27.2 70,25 L70,25 Z M67.1,36.8 C67.1,40.7 59.8,45.1 49,45.1 C44.8,45.1 41.1,44.4 38.2,43.3 C40.7,41.4 42.1,39.2 42.1,36.7 C42.1,36.3 42.1,35.8 42,35.4 C44.2,35.8 46.5,36 49,36 C55.1,36 60.7,34.7 64.5,32.4 C66.1,33.9 67.1,35.4 67.1,36.8 L67.1,36.8 Z M2.9,36.8 C2.9,35.3 3.8,33.9 5.5,32.6 C9.3,34.8 14.8,36.2 21,36.2 C23.5,36.2 25.8,35.9 28,35.6 C28.6,35.5 29,35.5 29.6,35.3 C30.2,35.2 30.9,35 31.5,34.9 C32.8,34.5 34,34 35,33.6 C35.6,33.3 36,33.2 36.5,32.7 C37.4,33.4 38.1,34.2 38.5,34.9 C38.9,35.6 39.1,36.2 39.1,36.9 C39.1,38.8 37.6,40.5 34.9,42.2 C34.5,42.5 33.9,42.6 33.4,42.9 C33,43.2 32.4,43.3 31.8,43.6 C28.9,44.6 25.2,45.4 21,45.4 C10.2,45.1 2.9,40.9 2.9,36.8 L2.9,36.8 Z M2.9,25 C2.9,20.9 10.2,16.7 21,16.7 C25.2,16.7 28.9,17.4 31.8,18.5 C32.4,18.6 32.8,18.9 33.4,19.2 C34,19.5 34.4,19.6 34.9,19.9 C37.5,21.4 39.1,23.3 39.1,25.2 C39.1,25.9 38.8,26.5 38.5,27.2 C38.1,27.9 37.3,28.7 36.5,29.4 C36.4,29.5 36.2,29.5 36.2,29.7 C35.9,30 35.6,30.1 35.2,30.3 L35,30.4 C34.6,30.7 34.1,30.8 33.5,31.1 L33.4,31.1 C33.3,31.1 33.1,31.2 33,31.2 C32.6,31.3 32.1,31.5 31.7,31.6 C31,31.9 30.2,32 29.5,32.3 C27,33 24.1,33.3 20.9,33.3 C15.8,33.3 11.6,32.3 8.4,31 C7.8,30.7 7.2,30.4 6.8,30.1 C6.4,29.8 5.9,29.5 5.5,29.2 C3.9,27.9 2.9,26.5 2.9,25 L2.9,25 Z M67.1,11.1 C67.1,13 65.5,14.9 62.9,16.4 C62.3,16.7 61.7,17 61.1,17.3 C60.4,17.6 59.6,17.9 58.9,18 C56.1,18.9 52.8,19.5 49,19.5 C45.2,19.5 41.9,18.9 39.1,18 C38.4,17.7 37.6,17.6 36.9,17.3 C36.3,17 35.7,16.7 35.1,16.4 C32.3,14.9 30.9,13 30.9,11.1 C30.9,7.2 38.2,2.8 49,2.8 C59.8,2.8 67.1,7.1 67.1,11.1 Z M64.5,29.1 C64.1,29.4 63.6,29.7 63.2,30 C62.8,30.3 62.2,30.6 61.6,30.9 C58.4,32.4 54.2,33.2 49.1,33.2 C45.9,33.2 43,32.8 40.5,32.2 C40.1,31.8 39.6,31.3 39.2,30.9 C39.6,30.5 40.1,30 40.5,29.6 C40.9,29 41.4,28.4 41.5,27.8 C41.8,27.4 41.9,26.8 42.1,26.2 C42.2,25.8 42.2,25.3 42.2,24.9 C42.2,23.7 41.9,22.6 41.3,21.5 C43.8,21.9 46.3,22.2 49,22.2 C54.4,22.2 59.2,21.2 62.9,19.4 C65.7,20.9 67.1,22.8 67.1,24.7 C67.1,26.5 66.1,27.9 64.5,29.1 Z" id="Shape"></path>
      </g>
    </g>
  </g>
</svg>
