<?xml version="1.0" encoding="UTF-8"?>
<svg width="44px" height="48px" viewBox="0 0 44 48" version="1.1" xmlns="http://www.w3.org/2000/svg">
  <!-- Generator: Sketch 41.2 (35397) - http://www.bohemiancoding.com/sketch -->
  <title>cone_hat</title>
  <desc>Created with Sketch.</desc>
  <defs></defs>
  <g id="Page-1" stroke="none" stroke-width="1" fill="none" fill-rule="evenodd">
    <g id="cone_hat" fill="#000000">
      <g id="레이어_1">
        <path d="M22.3,9.5 L17.1,20.3 C20.6,19.4 23.4,17.8 25.5,16.3 L22.3,9.5 Z M26.6,18.8 C23.9,20.7 20.2,22.5 15.6,23.3 L10.7,33.7 C18.3,31.7 25.1,27.9 29.5,25.1 L26.6,18.8 L26.6,18.8 Z M38.6,44.5 L35.1,37 C31.8,39.2 26.9,42.1 21.1,44.5 L12.3,44.5 C21.4,42.4 29.5,37.6 34,34.6 L30.7,27.5 C25.7,30.7 17.9,34.9 9.3,36.8 L5.6,44.5 L0.7,44.5 L0.7,48 L43.5,48 L43.5,44.5 L38.6,44.5 Z M22.2,0 L24.1,3.7 L28.3,4.3 L25.3,7.2 L26,11.2 L22.2,9.3 L18.4,11.2 L19.1,7.1 L16.1,4.2 L20.3,3.6 L22.2,0 Z" id="Shape"></path>
      </g>
    </g>
  </g>
</svg>
