<?xml version="1.0" encoding="utf-8"?>
<!-- Generator: Adobe Illustrator 21.0.0, SVG Export Plug-In . SVG Version: 6.00 Build 0)  -->
<svg version="1.1" id="Layer_1" xmlns="http://www.w3.org/2000/svg"  x="0px" y="0px"
	 viewBox="0 0 36 48" style="enable-background:new 0 0 36 48;" xml:space="preserve">
<g>
	<path d="M26.815,35.816H9.185c-1.102,0-1.889,0.945-1.889,1.891c0,0.945,0.787,2.048,1.889,2.048h17.631
		c1.102,0,1.889-0.945,1.889-1.89C28.704,36.919,27.917,35.816,26.815,35.816z"/>
	<path d="M35.238,10.482l-9.532-9.529C25.321,0.374,24.582,0,23.825,0H5.249C2.354,0,0,2.357,0,5.253v37.494
		C0,45.643,2.354,48,5.249,48h25.502C33.646,48,36,45.643,36,42.747V12.185C36,11.679,35.92,10.956,35.238,10.482z M25.951,10.045
		V7.038l3.12,3.008H25.951z M23.982,14.602h7.502v28.145c0,0.269-0.306,0.576-0.576,0.576H5.249c-0.269,0-0.576-0.307-0.576-0.576
		V5.253c0-0.269,0.306-0.576,0.576-0.576h16.317v7.508C21.566,13.495,22.673,14.602,23.982,14.602z"/>
	<path d="M26.815,27.939H9.185c-1.102,0-1.889,0.945-1.889,1.891c0,0.945,0.787,2.048,1.889,2.048h17.631
		c1.102,0,1.889-0.945,1.889-1.89S27.917,27.939,26.815,27.939z"/>
	<path d="M7.138,22.11c0,1.103,0.945,1.89,1.889,1.89h17.631c1.102,0,1.889-0.945,1.889-1.89s-0.944-1.89-1.889-1.89H9.185
		C8.083,20.062,7.138,21.007,7.138,22.11z"/>
</g>
</svg>
