<?xml version="1.0" encoding="UTF-8"?>
<svg width="60px" height="48px" viewBox="0 0 60 48" version="1.1" xmlns="http://www.w3.org/2000/svg">
  <!-- Generator: Sketch 41.2 (35397) - http://www.bohemiancoding.com/sketch -->
  <title>group</title>
  <desc>Created with Sketch.</desc>
  <defs></defs>
  <g id="Page-1" stroke="none" stroke-width="1" fill="none" fill-rule="evenodd">
    <g id="group" fill="#444444">
      <g id="레이어_1">
        <path d="M54.2,39.1 L49.2,39.1 L49.2,37 C49.2,32.7 44.5,27 41.2,26 C41.1,26 40.8,25.9 40.4,25.7 C41.7,24.2 41.8,22.6 42.2,19.8 L42.2,19.6 C42.2,19.2 42.3,18.8 42.3,18.4 C42.3,13.8 40.5,9.7 37.8,7 C38.6,3.1 41.7,0 45.5,0 C50,0 53.6,4.4 53.6,9.8 C53.6,13.5 51.1,16.6 48.9,18.3 C48.9,18.3 52.3,19.6 52.7,19.7 C55.4,20.5 60,25 60,28.2 L60,33.3 C60,36.5 57.4,39.1 54.2,39.1 Z M33.5,27.1 C33.5,27.1 36.9,28.4 37.3,28.5 C40,29.3 44.6,33.8 44.6,37 L44.6,42.1 C44.6,45.3 42,47.9 38.8,47.9 L21.3,47.9 C18.1,47.9 15.5,45.3 15.5,42.1 L15.5,37 C15.5,33.8 20.1,29.3 22.8,28.5 C23.2,28.4 26.6,27.1 26.6,27.1 C24.3,25.4 21.9,22.3 21.9,18.6 C21.9,13.2 25.6,8.8 30,8.8 C34.4,8.8 38.1,13.2 38.1,18.6 C38.2,22.3 35.7,25.4 33.5,27.1 L33.5,27.1 Z M17.9,19.4 L17.9,20 C18.2,22.7 18.4,24.3 19.7,25.9 C19.3,26.1 19,26.2 18.9,26.2 C15.6,27.2 10.9,32.9 10.9,37.2 L10.9,39.3 L5.9,39.3 C2.7,39.3 0.1,36.7 0.1,33.5 L0.1,28.4 C0.1,25.2 4.7,20.7 7.4,19.9 C7.8,19.8 11.2,18.5 11.2,18.5 C8.9,16.8 6.5,13.7 6.5,10 C6.4,4.4 10,0 14.5,0 C18.3,0 21.4,3.1 22.4,7.3 C19.6,9.9 17.9,14 17.9,18.6 L17.9,19.4 L17.9,19.4 Z" id="Shape"></path>
      </g>
    </g>
  </g>
</svg>
