<?xml version="1.0" encoding="UTF-8"?>
<svg width="58px" height="49px" viewBox="0 0 58 49" version="1.1" xmlns="http://www.w3.org/2000/svg">
  <!-- Generator: Sketch 41.2 (35397) - http://www.bohemiancoding.com/sketch -->
  <title>heart_2</title>
  <desc>Created with Sketch.</desc>
  <defs></defs>
  <g id="Page-1" stroke="none" stroke-width="1" fill="none" fill-rule="evenodd">
    <g id="heart_2" fill="#444444">
      <g id="레이어_1">
        <path d="M40.3,0 L40,0 C35.8,0.1 31.9,1.6 28.8,4.4 C25.7,1.7 21.8,0.3 17.6,0.3 C13.3,0.3 9.2,2 6,5.1 C2.6,8.5 0.7,13.2 0.8,18.1 C0.8,19.9 1.1,21.7 1.6,23.2 C2.7,27.7 7.8,33.3 18.1,41.1 C20.7,43.1 24.7,45.7 26.3,46.9 L26.9,47.3 C27,47.4 27.2,47.5 27.4,47.6 C28,47.9 28.6,48.1 29.3,48.1 C30,48.1 30.7,47.9 31.4,47.5 C33.7,46.1 36.7,43.9 40.5,40.9 C50.3,33.1 55.5,27.1 56.5,22.8 C57,21.1 57.3,19.3 57.2,17.5 C57.1,7.8 49.5,0 40.3,0 L40.3,0 Z M53.4,21.8 L53.4,21.9 C52.9,24.4 49.9,29.2 38.5,38.3 C34.9,41.2 31.9,43.4 29.8,44.7 C29.6,44.8 29.3,44.8 29.1,44.7 C29.1,44.7 29,44.7 29,44.6 L28.3,44.1 C26.6,43 22.8,40.4 20.2,38.4 C10.6,31.4 5.6,26.1 4.7,22.4 L4.7,22.3 C4.3,21 4,19.5 4,18 C3.9,13.9 5.5,10 8.3,7.3 C10.8,4.8 14.1,3.4 17.6,3.4 C21.5,3.4 25.1,4.9 27.7,7.6 C28,7.9 28.4,8.1 28.9,8.1 C29.4,8.1 29.8,7.9 30.1,7.6 C32.7,4.8 36.2,3.2 40.1,3.1 L40.4,3.1 C47.9,3.1 54,9.5 54.1,17.4 C54,18.9 53.8,20.4 53.4,21.8 L53.4,21.8 Z" id="Shape"></path>
      </g>
    </g>
  </g>
</svg>
