<?xml version="1.0" encoding="UTF-8"?>
<svg width="58px" height="48px" viewBox="0 0 58 48" version="1.1" xmlns="http://www.w3.org/2000/svg">
  <!-- Generator: Sketch 41.2 (35397) - http://www.bohemiancoding.com/sketch -->
  <title>heart_1</title>
  <desc>Created with Sketch.</desc>
  <defs></defs>
  <g id="Page-1" stroke="none" stroke-width="1" fill="none" fill-rule="evenodd">
    <g id="heart_1" fill="#000000">
      <g id="레이어_1">
        <path d="M41.2,0 C36.2,0 32,3.5 29,7.4 C26.1,3.5 21.8,0 16.8,0 C8,0 0.8,7.1 0.8,15.7 C0.8,19.4 2.1,22.9 4.5,25.8 C6.9,29.2 24,44.4 27.5,47.5 C28,47.8 28.5,48 29,48 C29.5,48 30.1,47.8 30.5,47.4 C32.6,45.5 50.9,28.8 53.4,25.9 C53.5,25.8 53.5,25.8 53.6,25.7 C56,22.9 57.3,19.3 57.3,15.7 C57.2,7.1 50,0 41.2,0 L41.2,0 Z" id="Shape"></path>
      </g>
    </g>
  </g>
</svg>
