<?xml version="1.0" encoding="utf-8"?>
<!-- Generator: Adobe Illustrator 20.1.0, SVG Export Plug-In . SVG Version: 6.00 Build 0)  -->
<svg version="1.1" id="Layer_1" xmlns="http://www.w3.org/2000/svg"  x="0px" y="0px"
	 viewBox="0 0 54 48.9" style="enable-background:new 0 0 54 48.9;" xml:space="preserve">
<path d="M37.4,0.7l-0.3,0c-3.8,0.1-7.4,1.4-10.3,3.8c-2.9-2.3-6.5-3.5-10.3-3.5c-4.3,0-8.3,1.7-11.4,4.9c-3.3,3.4-5.2,8.1-5.1,13
	c0,1.8,0.3,3.6,0.8,5c1.1,4.6,5.9,10,15.6,17.5c2.4,1.9,6,4.4,7.6,5.5l0.6,0.4c0.2,0.1,0.4,0.3,0.6,0.4c0.7,0.4,1.5,0.6,2.2,0.6
	c0.9,0,1.7-0.2,2.5-0.7c2.1-1.3,5-3.5,8.4-6.3c9.3-7.7,14.1-13.3,15-17.7c0.5-1.7,0.7-3.5,0.7-5.3C53.9,8.5,46.4,0.7,37.4,0.7z
	 M48.8,18.2c0,1.3-0.2,2.6-0.5,3.9l-0.1,0.2c-0.3,1.8-2.5,6-13.3,14.8c-3.1,2.6-5.7,4.5-7.6,5.8l-0.4-0.3c-1.5-1.1-5.1-3.5-7.4-5.3
	c-8.4-6.5-13-11.5-13.7-14.7l-0.1-0.2c-0.3-1-0.5-2.3-0.6-3.6c0-3.5,1.3-6.9,3.6-9.3c2.1-2.1,4.8-3.3,7.7-3.3c3.3,0,6.3,1.3,8.5,3.6
	c0.5,0.5,1.2,0.8,1.9,0.8c0.7,0,1.4-0.3,1.9-0.9c2.1-2.4,5.1-3.8,8.3-3.8l0.2,0C43.6,5.8,48.7,11.4,48.8,18.2z"/>
</svg>
