<?xml version="1.0" encoding="utf-8"?>
<!-- Generator: Adobe Illustrator 22.1.0, SVG Export Plug-In . SVG Version: 6.00 Build 0)  -->
<svg version="1.1" id="Layer_1" xmlns="http://www.w3.org/2000/svg"  x="0px" y="0px"
	 width="53.9px" height="48px" viewBox="0 0 53.9 48" style="enable-background:new 0 0 53.9 48;" xml:space="preserve">
<path d="M17.5,22.3c1.4,0,2.6-0.5,3.6-1.5c0.9-0.9,1.5-2.2,1.5-3.6s-0.5-2.6-1.5-3.6c-2-2-5.2-2-7.2,0c-1,1-1.5,2.2-1.5,3.6
	s0.5,2.6,1.5,3.6C14.9,21.8,16.2,22.3,17.5,22.3z M15.3,17.2c0-0.6,0.2-1.1,0.7-1.5l0,0c0.4-0.4,1-0.7,1.5-0.7
	c0.6,0,1.1,0.2,1.5,0.7c0.4,0.4,0.7,1,0.7,1.5c0,0.6-0.2,1.1-0.7,1.5c-0.9,0.9-2.2,0.9-3.1,0C15.6,18.4,15.3,17.8,15.3,17.2z
	 M31.1,25.7C31.1,25.7,31.1,25.7,31.1,25.7c-1.4,0-2.6,0.5-3.6,1.5c-2,2-2,5.2,0,7.2c0.9,0.9,2.2,1.5,3.6,1.5c1.4,0,2.7-0.5,3.6-1.5
	c2-2,2-5.2,0-7.2C33.7,26.2,32.4,25.7,31.1,25.7z M33.3,30.8c0,0.6-0.2,1.1-0.6,1.5c-0.8,0.8-2.3,0.8-3.1,0c-0.8-0.8-0.8-2.2,0-3.1
	c0.4-0.4,1-0.7,1.5-0.7c0.6,0,1.1,0.2,1.5,0.7C33,29.6,33.3,30.2,33.3,30.8z M31.1,22.3c1.4,0,2.7-0.5,3.6-1.5
	c0.9-0.9,1.5-2.2,1.5-3.6s-0.5-2.6-1.5-3.6c-2-2-5.2-2-7.2,0c-0.9,0.9-1.5,2.2-1.5,3.6c0,1.3,0.5,2.6,1.5,3.6
	C28.5,21.8,29.8,22.3,31.1,22.3z M28.9,17.2c0-0.6,0.2-1.2,0.6-1.5l0,0c0.4-0.4,1-0.7,1.5-0.7c0.6,0,1.1,0.2,1.5,0.7
	c0.4,0.4,0.7,1,0.7,1.5c0,0.6-0.2,1.1-0.7,1.5c-0.8,0.9-2.2,0.8-3.1,0C29.1,18.3,28.9,17.8,28.9,17.2z M17.5,25.7
	c-1.4,0-2.6,0.5-3.6,1.5c-1,1-1.5,2.2-1.5,3.6c0,1.4,0.5,2.6,1.5,3.6c0.9,1,2.2,1.5,3.6,1.5c1.4,0,2.6-0.5,3.6-1.5c2-2,2-5.2,0-7.2
	C20.2,26.2,18.9,25.7,17.5,25.7z M19.7,30.8c0,0.6-0.2,1.1-0.6,1.5c-0.9,0.9-2.2,0.9-3.1,0c-0.4-0.4-0.6-1-0.6-1.5
	c0-0.6,0.2-1.1,0.6-1.5c0.4-0.4,1-0.7,1.5-0.7s1.1,0.2,1.5,0.7C19.5,29.6,19.7,30.2,19.7,30.8z M21.2,24c0,1.7,1.4,3.2,3.2,3.2
	s3.2-1.4,3.2-3.2s-1.4-3.2-3.2-3.2S21.2,22.3,21.2,24z M24,24c0-0.1,0.1-0.3,0.3-0.3s0.3,0.1,0.3,0.3C24.6,24.3,24,24.3,24,24z
	 M51.7,38.1h-7.9c3-4.1,4.6-9,4.6-14.1c0-13.2-10.8-24-24-24c-13.2,0-24,10.8-24,24c0,13.2,10.8,24,24,24h27.4c1,0,1.9-0.8,1.9-1.9
	v-6.2C53.5,38.9,52.7,38.1,51.7,38.1z M49.8,41.8v2.5H37.1c1.1-0.7,2.2-1.5,3.2-2.5H49.8z M24.3,3.7c11.2,0,20.3,9.1,20.3,20.3
	s-9.1,20.3-20.3,20.3C13.1,44.3,4,35.2,4,24S13.1,3.7,24.3,3.7z"/>
</svg>
