<?xml version="1.0" encoding="utf-8"?>
<!-- Generator: Adobe Illustrator 22.1.0, SVG Export Plug-In . SVG Version: 6.00 Build 0)  -->
<svg version="1.0" id="Layer_1" xmlns="http://www.w3.org/2000/svg"  x="0px" y="0px"
	 width="163px" height="48px" viewBox="0 0 163 48" style="enable-background:new 0 0 163 48;" xml:space="preserve">
<style type="text/css">
	.st0{fill-rule:evenodd;clip-rule:evenodd;}
</style>
<path class="st0" d="M116.314,1.32c-0.8,4.09-1.778,8.002-2.934,11.735c-2.785,0.207-2.263-2.894-4.801-2.934
	c-4.535-0.444-10.935-0.444-15.469,0c-0.462,3.183-1.671,5.619-2.134,8.802c4.801,0.622,10.757,0.089,16.003,0.267
	c-0.478,3.968-1.845,7.046-2.401,10.935c-1.338-0.132-2.96-2.162-5.334-2.134c-3.032-0.275-8.611-0.789-11.202,0.267
	c-0.32,5.018-6.109,13.129,0,15.736c-0.29,0.955-0.416,2.073-0.8,2.934c-6.537-0.341-15.945,0.689-21.07-0.533
	c2.218-8.896,5.421-20.044,8.268-30.405c1.219-4.436,4.629-11.462-1.067-12.536c-0.086-1.241,0.532-1.78,0.533-2.934
	c0.089,0,0.178,0,0.267,0c10.402,0,20.804,0,31.205,0c3.241,0.508,8.776-0.916,10.935,0.533
	C116.355,1.081,116.281,1.28,116.314,1.32z M110.18,25.324c-1.394,14.961,10.529,21.53,23.471,22.671c3.201,0,6.401,0,9.602,0
	c4.356,0.089,7.558-0.977,11.469-1.334c0.99-3.188,1.687-6.67,2.401-10.135c-3.391,1.143-7.239,1.829-11.202,2.4
	c-0.374,0.442-2.56,0.442-2.934,0c-8.481-1.032-14.309-4.717-15.736-12.802c-0.442-0.46-0.442-2.741,0-3.201
	c0.596-10.481,16.098-17.117,26.405-12.802c2.2,0.921,3.248,3.389,5.868,3.734c1.467-3.69,2.429-7.884,3.467-12.002
	c-3.065-0.58-5.638-1.653-9.335-1.6c-3.467,0-6.935,0-10.402,0C127.761,1.644,111.579,10.31,110.18,25.324z M11.763,3.72
	c5.919,0.825,2.616,6.627,1.334,11.202c-2.713,9.681-4.546,23.025-9.868,28.272c-0.779,0.288-1.537,0.597-2.667,0.533
	c-0.146,1.01-0.645,1.666-0.534,2.934c7.735,0.622,16.625,0.089,24.804,0.267c0.17-1.164,0.444-2.223,0.8-3.201
	c-7.011-1.434,0.185-12.709,0.8-17.07c6.311,8.447,8.888,20.628,23.738,20.537c2.134,0,4.267,0,6.401,0c0.089,0,0.178,0,0.267,0
	c1.16-0.618,3.464-0.092,5.068-0.267c0.458-0.876,0.706-1.961,0.8-3.201c-3.543-0.196-5.359-2.248-6.935-4.267
	c-4-5.13-7.984-12.504-11.469-17.603c3.696-2.823,7.339-5.706,11.202-8.802c4.219-3.381,8.454-8.322,14.403-9.335
	c0.002-1.154,0.619-1.692,0.533-2.934c-7.024-0.8-15.913,0.266-22.937-0.533c-0.622,0-1.245,0-1.867,0
	c-0.17,1.164-0.444,2.223-0.8,3.201c1.182,0.507,2.699,0.68,2.934,2.134c-5.994,5.83-13.744,11.327-20.27,15.736
	c2.941-5.772,1.548-15.877,8.268-17.87c-0.189-0.989,0.456-1.145,0.267-2.134c-0.033-0.04,0.041-0.239,0-0.267
	C31.927-1.704,21.811,1.998,16.297,0.52c-1.245,0-2.489,0-3.734,0C12.207,1.497,11.932,2.556,11.763,3.72z"/>
</svg>
