<?xml version="1.0" encoding="utf-8"?>
<!-- Generator: Adobe Illustrator 22.1.0, SVG Export Plug-In . SVG Version: 6.00 Build 0)  -->
<svg version="1.0" id="Layer_1" xmlns="http://www.w3.org/2000/svg"  x="0px" y="0px"
	 width="64px" height="48px" viewBox="0 0 64 48" style="enable-background:new 0 0 64 48;" xml:space="preserve">
<style type="text/css">
	.st0{fill:#040000;}
</style>
<path class="st0" d="M47.165,15.941c-1.485,0-2.915,0.217-4.28,0.595V5.13c0-2.828-2.778-5.13-6.193-5.13H2.433
	C1.537,0,0.807,0.639,0.807,1.422v35.227c0,0.784,0.729,1.422,1.626,1.422h29.91c2.4,5.826,8.129,9.929,14.82,9.929
	c8.853,0,16.03-7.176,16.03-16.03S56.018,15.941,47.165,15.941z M7.66,35.228L7.66,35.228H4.059V2.843H7.66V35.228z M31.468,35.228
	H10.91V2.843h25.782c1.622,0,2.941,1.026,2.941,2.286v12.693c-5.055,2.697-8.499,8.018-8.499,14.148
	C31.135,33.087,31.251,34.176,31.468,35.228z M47.165,44.995c-7.181,0-13.024-5.843-13.024-13.024
	c0-7.181,5.843-13.024,13.024-13.024c7.181,0,13.024,5.843,13.024,13.024C60.189,39.152,54.346,44.995,47.165,44.995z M28.385,9.698
	H26.14c-0.18,0-0.262,0.065-0.262,0.262v7.359c0,0.18,0.065,0.262,0.262,0.262h2.261c1.18-0.016,2.032-0.312,2.557-0.902
	c0.525-0.59,0.786-1.606,0.786-3.048c0-1.443-0.262-2.459-0.803-3.049C30.417,9.992,29.565,9.698,28.385,9.698z M29.401,15.319
	c-0.196,0.312-0.557,0.475-1.049,0.475h-0.328h-0.098v-0.098V11.55v-0.098h0.098h0.312c0.492,0,0.853,0.164,1.049,0.475
	c0.196,0.311,0.295,0.869,0.295,1.704C29.679,14.467,29.581,15.024,29.401,15.319z M20.142,14.811
	c0.786-0.394,1.196-1.163,1.196-2.31c0-1.033-0.245-1.77-0.704-2.18c-0.475-0.41-1.262-0.623-2.327-0.623h-2.491
	c-0.196,0-0.262,0.065-0.262,0.262v7.359c0,0.18,0.065,0.262,0.262,0.262h1.508c0.18,0,0.262-0.065,0.262-0.262v-2.065v-0.098h0.098
	h0.426h0.033l0.033,0.049l1.016,2.098c0.082,0.164,0.213,0.245,0.426,0.245h1.541c0.131,0,0.147-0.049,0.164-0.065
	c0.016-0.049,0.016-0.131-0.033-0.213l-1.23-2.328l-0.049-0.082l0.082-0.033L20.142,14.811z M19.061,13.304
	c-0.147,0.18-0.41,0.262-0.786,0.262h-0.606h-0.098v-0.098v-1.967v-0.098h0.098h0.606c0.377,0,0.623,0.082,0.786,0.245
	c0.147,0.18,0.213,0.443,0.213,0.853C19.273,12.877,19.208,13.139,19.061,13.304z M24.566,9.96v7.342
	c0,0.197-0.066,0.263-0.262,0.279H22.78c-0.197,0-0.262-0.082-0.262-0.262V9.96c0-0.197,0.082-0.262,0.262-0.262h1.524
	C24.501,9.698,24.567,9.78,24.566,9.96z M34.989,9.96v7.342c0,0.197-0.066,0.263-0.262,0.279h-1.524
	c-0.197,0-0.262-0.082-0.262-0.262V9.96c0-0.197,0.082-0.262,0.262-0.262h1.524C34.924,9.698,34.989,9.78,34.989,9.96z
	 M46.688,27.532c-2.183,0-2.892,1.752-2.892,3.957c0,2.204,0.709,3.989,2.892,3.989c2.183,0,2.892-1.785,2.892-3.989
	C49.581,29.284,48.872,27.532,46.688,27.532z M46.688,33.758c-0.741,0-0.958-1.011-0.958-2.269c0-1.247,0.215-2.237,0.958-2.237
	c0.741,0,0.958,0.99,0.958,2.237C47.645,32.747,47.43,33.758,46.688,33.758z M56.898,28.36l-4.857,6.291h-1.337l4.858-6.291
	C55.562,28.36,56.899,28.36,56.898,28.36z M55.703,31.72c-0.889,0-1.592,0.695-1.592,1.523c0,0.845,0.703,1.514,1.592,1.514
	c0.88,0,1.593-0.669,1.593-1.514C57.296,32.415,56.583,31.72,55.703,31.72z M55.703,33.699c-0.263,0-0.484-0.202-0.484-0.466
	c0-0.246,0.22-0.458,0.484-0.458c0.264,0,0.484,0.211,0.484,0.458C56.187,33.497,55.968,33.699,55.703,33.699z M51.945,31.289
	c0.88,0,1.593-0.668,1.593-1.513c0-0.828-0.713-1.523-1.593-1.523c-0.889,0-1.593,0.695-1.593,1.523
	C50.352,30.621,51.057,31.289,51.945,31.289z M51.945,29.309c0.263,0,0.484,0.211,0.484,0.458c0,0.263-0.22,0.466-0.484,0.466
	c-0.264,0-0.484-0.202-0.484-0.466C51.461,29.52,51.682,29.309,51.945,29.309z M39.443,33.736h3.268v1.613H37.39
	c-0.054-0.301-0.086-0.571-0.086-0.828c0-2.84,3.322-3.345,3.322-4.452c0-0.538-0.431-0.763-0.829-0.763
	c-0.731,0-1.14,0.818-1.14,0.818l-1.398-0.936c0,0,0.709-1.656,2.71-1.656c1.258,0,2.623,0.72,2.623,2.354
	C42.591,32.284,39.495,32.747,39.443,33.736z"/>
</svg>
