<?xml version="1.0" encoding="utf-8"?>
<!-- Generator: Adobe Illustrator 22.1.0, SVG Export Plug-In . SVG Version: 6.00 Build 0)  -->
<svg version="1.1" id="Layer_1" xmlns="http://www.w3.org/2000/svg"  x="0px" y="0px"
	 width="48.2px" height="48px" viewBox="0 0 48.2 48" style="enable-background:new 0 0 48.2 48;" xml:space="preserve">
<style type="text/css">
	.st0{fill:#070606;}
</style>
<path class="st0" d="M17.2,10.9L19.6,9l-2.4-1.9c-0.5-0.3-0.8-0.9-0.6-1.8c0-0.6,0.2-1.1,0.7-1.6l4.5-3.4c0.8-0.6,2-0.4,2.7,0.4
	c0.6,0.8,0.4,2-0.4,2.7l-2.4,1.9l2.4,2c0.4,0.4,0.7,0.9,0.7,1.6s-0.2,1.1-0.7,1.6l-4.5,3.4c-0.4,0.2-0.8,0.4-1.2,0.4
	c-0.6,0-1.1-0.2-1.6-0.7C16.2,12.8,16.4,11.6,17.2,10.9z M40.4,39.3c-0.1,4.8-4,8.7-8.8,8.7h-22c-4.8,0-8.8-3.9-8.8-8.8v-22h39.6
	v6.9c3.9,0.4,6.9,3.7,6.9,7.6C47.3,35.7,44.3,39,40.4,39.3z M37,20.7H4.3v18.6c0,2.9,2.4,5.3,5.3,5.3h22c2.9,0,5.3-2.4,5.3-5.3
	C37,39.2,37,20.7,37,20.7z M43.9,31.7c0-2.1-1.5-3.8-3.5-4.1v8.3C42.4,35.5,43.9,33.8,43.9,31.7z"/>
</svg>
