<?xml version="1.0" encoding="utf-8"?>
<!-- Generator: Adobe Illustrator 21.1.0, SVG Export Plug-In . SVG Version: 6.00 Build 0)  -->
<svg version="1.0" id="Layer_1" xmlns="http://www.w3.org/2000/svg"  x="0px" y="0px"
	 width="156px" height="48px" viewBox="0 0 156 48" style="enable-background:new 0 0 156 48;" xml:space="preserve">
<style type="text/css">
	.st0{fill:#1E1E1E;}
</style>
<path class="st0" d="M51.64,20.205c0,11.039-11.433,20.008-25.429,20.008c-1.577,0-3.154-0.099-4.534-0.296l-10.251,6.899
	c-0.197,0.197-0.296,0.197-0.493,0.197s-0.296,0-0.493-0.197c-0.197-0.197-0.394-0.493-0.197-0.789l2.366-8.969
	C5.512,33.413,0.781,27.105,0.781,20.008C0.781,8.969,12.215,0,26.211,0S51.541,8.969,51.64,20.205z"/>
<path class="st0" d="M155.219,5.109l-9.852,26.912c-1.322,3.604-2.763,6.848-4.565,9.612c-1.802,2.763-3.845,4.806-6.368,6.368
	l-4.806-4.445c1.322-1.322,2.643-2.523,3.604-3.845c0.961-1.322,1.922-2.883,2.883-4.445L124.942,5.109l8.65-0.601l6.488,23.068
	l6.728-23.068h0L155.219,5.109z"/>
<path class="st0" d="M109.684,4.147c-1.922,0-3.845,0.36-6.007,0.961c-2.163,0.601-3.845,1.322-5.166,2.523l2.283,5.407
	c1.322-0.601,2.643-1.201,4.205-1.562c1.562-0.36,2.883-0.601,4.085-0.601c1.562,0,2.883,0.36,3.845,1.201
	c0.961,0.721,1.322,1.922,1.322,3.604v0.961h-4.565c-4.085,0-7.089,0.721-9.371,2.523c-2.163,1.682-3.244,4.085-3.244,7.329
	c0,3.124,0.721,5.407,2.523,6.968c1.562,1.682,3.845,2.523,6.728,2.523c1.322,0,2.643-0.24,4.205-0.721
	c1.562-0.601,3.124-1.322,4.566-2.523l0.721,2.523h5.527V16.042c0-3.845-0.961-6.968-3.124-8.891
	C116.412,5.109,113.529,4.147,109.684,4.147z M114.129,27.455c-0.36,0.36-0.721,0.601-1.322,0.961
	c-0.601,0.36-0.961,0.601-1.562,0.721c-0.601,0.24-1.201,0.36-1.682,0.601c-0.601,0.24-1.201,0.24-1.682,0.24
	c-2.283,0-3.484-1.201-3.484-3.484c0-2.883,2.163-4.445,6.127-4.445h3.604V27.455z"/>
<path class="st0" d="M89.916,8.923C88.417,6,85.627,3.693,82.319,3.252c-0.693-0.092-1.393-0.132-2.092-0.134
	c-3.912-0.012-6.695,1.983-8.29,3.563c-0.613-1.366-1.364-2.636-2.046-2.636c-1.478,0-4.846,0.062-4.846,0.062v43.039h8.131V36.087
	c1.026,0.102,2.276,0.169,2.4,0.174c4.608,0.183,9.295-0.544,12.432-3.981c3.479-3.812,4.513-10.463,4.086-15.468
	C91.861,14.084,91.167,11.366,89.916,8.923z M85.188,19.631c-0.155,3.271-1.183,7.284-3.953,9.314
	c-0.236,0.173-0.482,0.33-0.738,0.471c-2.177,1.201-4.798,1.05-7.321,0.838V10.957c0.422-0.65,0.966-1.185,1.687-1.48
	c2.277-0.932,5.158-0.371,7.107,1.056C84.728,12.554,85.344,16.343,85.188,19.631z"/>
</svg>
