<?xml version="1.0" encoding="UTF-8"?>
<svg width="56px" height="48px" viewBox="0 0 56 48" version="1.1" xmlns="http://www.w3.org/2000/svg">
  <!-- Generator: Sketch 41.2 (35397) - http://www.bohemiancoding.com/sketch -->
  <title>lightnovel_1</title>
  <desc>Created with Sketch.</desc>
  <defs></defs>
  <g id="Page-1" stroke="none" stroke-width="1" fill="none" fill-rule="evenodd">
    <g id="lightnovel_1" fill="#000000">
      <g id="레이어_1">
        <path d="M50.8,0.1 L46,0 C41.2,0 32.8,0 28.1,6.1 C27.7,5.6 27.3,5.1 26.8,4.6 C25.7,3.5 24.3,2.5 22.8,1.9 C20.4,0.9 17.9,0.3 14.8,0.1 C12.5,0 10.2,0 7.9,0 L5.2,0 C2.5,0 0.2,2.2 0.2,5 L0.2,38.9 C0.1,39.9 0.5,40.8 1.2,41.6 C1.9,42.4 2.9,42.7 3.9,42.7 L3.9,42.7 C3.9,42.7 9,42.6 11.4,42.6 C16.5,42.6 23.2,43.9 26.6,47.3 C26.8,47.5 27,47.6 27.2,47.8 C27.4,47.9 27.7,48 27.9,48 L27.9,48 L27.9,48 C28.1,48 28.4,48 28.6,47.8 C28.9,47.7 29.1,47.5 29.2,47.3 C32.4,44.1 37.3,42.6 44.4,42.6 C46.8,42.6 51.9,42.7 51.9,42.7 C52.9,42.7 53.9,42.3 54.6,41.6 C55.3,40.9 55.6,39.9 55.6,39 L55.6,5 C55.8,2.3 53.6,0.1 50.8,0.1 L50.8,0.1 Z M46,3.8 L50.8,3.8 C51.5,3.8 52,4.3 52,5 L52.1,32.7 C51.5,31.9 50.7,31.3 49.7,30.7 C49.2,30.4 48.6,30.1 47.8,29.8 L47.8,29.8 C47.8,29.8 47.8,29.8 47.7,29.8 C46.4,29.3 45,28.7 44.7,27.8 C44.6,27.4 44.6,27 44.9,26.4 C45.1,26 45.2,25.6 45.5,25.2 C45.6,25.1 45.7,24.9 45.7,24.8 C47.7,21.4 48.1,18.8 46.7,16.5 C45.6,14.6 43.7,13.8 41.6,13.8 L41.6,13.8 L41.6,13.8 C39.5,13.8 37.6,14.6 36.5,16.5 C35.1,18.9 35.5,21.6 37.5,25 C37.6,25.1 37.7,25.2 37.7,25.3 C38,25.8 38.2,26.1 38.3,26.5 C38.5,27 38.6,27.5 38.5,27.9 C38.2,28.9 36.8,29.4 35.5,29.9 C35.5,29.9 35.5,29.9 35.4,29.9 L35.4,29.9 C34.7,30.2 34,30.4 33.5,30.8 C31.7,31.9 30.4,33.2 29.8,35.5 L29.8,10.4 C32.4,4.9 38,3.8 46,3.8 L46,3.8 Z M4,39 L4,5 C4,4.3 4.5,3.8 5.2,3.8 L8,3.8 C10.1,3.8 12.3,3.7 14.4,3.9 C17.1,4.1 19.3,4.6 21.2,5.4 C22.3,5.9 23.2,6.5 24,7.3 C25.3,8.6 25.9,9.7 26,10 L26,10 L26,42.3 C20.6,39.2 13.7,38.9 11.3,38.9 C8.9,38.9 4.1,39 4,39 L4,39 Z" id="Shape"></path>
        <path d="M7.1,10.5 L7.1,14.3 L9.2,14.3 C12.1,14.3 18.6,14.6 21.7,16.7 L21.7,12.5 C17,10.7 12.7,10.4 9.9,10.4 L7.1,10.5 L7.1,10.5 Z" id="Shape"></path>
        <path d="M7.1,19.2 L7.1,23 L9.2,23 C12.1,23 18.6,23.3 21.7,25.4 L21.7,21.3 C17,19.5 12.7,19.2 9.9,19.2 L7.1,19.2 Z" id="Shape"></path>
        <path d="M7.1,28 L7.1,31.8 L9.2,31.8 C12.1,31.8 18.6,32.1 21.7,34.2 L21.7,30.1 C17,28.3 12.7,27.9 9.9,28 L7.1,28 Z" id="Shape"></path>
      </g>
    </g>
  </g>
</svg>
