<?xml version="1.0" encoding="utf-8"?>
<!-- Generator: Adobe Illustrator 22.1.0, SVG Export Plug-In . SVG Version: 6.00 Build 0)  -->
<svg version="1.0" id="Layer_1" xmlns="http://www.w3.org/2000/svg"  x="0px" y="0px"
	 width="22px" height="16px" viewBox="0 0 22 16" style="enable-background:new 0 0 22 16;" xml:space="preserve">
<path d="M20.932,11.47h-2.035c-0.153,0-0.301,0.064-0.406,0.172l-0.496,0.514l-1.556-1.621l0.366-0.277v-0.003
	c0.649-0.555,0.986-1.215,0.986-1.945c0.003-1.363-1.114-2.47-2.473-2.47c-1.373,0-2.469,1.126-2.469,2.47
	c0,0.677,0.244,1.269,0.721,1.751l0.386,0.386l-0.332,0.263c-1.791,1.412-1.409,3.407-0.384,4.426
	c0.351,0.352,0.763,0.591,1.199,0.729c1.022,0.319,2.174,0.064,2.968-0.736l0.604-0.628l1.191,1.193
	c0.108,0.113,0.259,0.173,0.409,0.173h2.092l-2.553-2.553L20.932,11.47z M15.342,7.373c0.501,0,0.883,0.403,0.888,0.886
	c0,0.267-0.146,0.522-0.481,0.788l-0.482,0.383l-0.533-0.532c-0.225-0.228-0.279-0.465-0.281-0.639
	C14.456,7.769,14.851,7.373,15.342,7.373z M16.157,14.076c-0.513,0.421-1.28,0.415-1.776-0.083c-0.47-0.468-0.59-1.419,0.261-2.08
	l0.444-0.341l1.769,1.773L16.157,14.076z M8.234,3.047C8.125,2.935,8.045,2.919,7.857,2.919H4.742c-0.18,0-0.279,0.011-0.376,0.123
	L4.02,3.403C3.889,3.543,3.854,3.614,3.854,3.837v1.844c0,0.215,0.084,0.403,0.475,0.49l4.996,1.006
	c1.459,0.326,2.345,1.377,2.345,2.791v2.88c0,0.494-0.152,0.825-0.554,1.219l-1.314,1.364c-0.446,0.448-0.781,0.547-1.627,0.547
	H3.391c-0.846,0-1.124-0.098-1.573-0.547l-1.389-1.385c-0.174-0.178-0.177-0.38-0.003-0.536l1.683-1.522
	c0.188-0.169,0.395-0.124,0.527-0.004l0.942,0.949l0.006,0.004c0.081,0.09,0.148,0.123,0.375,0.123h3.679
	c0.187,0,0.28-0.019,0.375-0.125h0.005v-0.003l0.345-0.358c0.129-0.139,0.164-0.212,0.162-0.435v-1.75
	c0-0.221-0.118-0.423-0.507-0.496L3.055,8.894C1.527,8.567,0.71,7.364,0.71,6.107v-2.98c0-0.494,0.151-0.824,0.552-1.218
	l1.312-1.363l0.004-0.002l0.003-0.003C3.027,0.13,3.302,0,4.175,0h4.249C9.27,0,9.549,0.097,9.997,0.547l1.39,1.384
	c0.173,0.177,0.178,0.38,0.003,0.538l-1.686,1.52C9.535,4.147,9.314,4.126,9.18,3.994L8.234,3.047z"/>
</svg>
