<?xml version="1.0" encoding="utf-8"?>
<!-- Generator: Adobe Illustrator 22.1.0, SVG Export Plug-In . SVG Version: 6.00 Build 0)  -->
<svg version="1.0" id="Layer_1" xmlns="http://www.w3.org/2000/svg"  x="0px" y="0px"
	 width="68px" height="16px" viewBox="0 0 68 16" style="enable-background:new 0 0 68 16;" xml:space="preserve">
<style type="text/css">
	.st0{fill:#040000;}
</style>
<path class="st0" d="M12.452,0.165c-0.267,0.824-1.835,7.157-1.835,7.157l-0.175,0.683c-0.378,1.33-0.802,2.826-2.422,3.784
	c-0.933,0.571-2.315,0.884-3.788,0.884c-1.142,0-3.163-0.185-3.871-1.423c-0.221-0.39-0.332-0.852-0.332-1.417l0.259-1.907
	l0.133-0.583L1.975,0.47c0,0,0.074-0.378,0.094-0.444C2.105,0.074,2.63,0.1,5.594,0.074C5.59,0.096,5.586,0.119,5.572,0.165
	C5.299,0.971,3.777,7.07,3.777,7.07c0,0.01-0.291,1.823-0.291,1.823l0.018,0.308c0.094,0.898,0.649,1.371,1.602,1.371
	c0.593,0,1.105-0.175,1.543-0.537C7.421,9.412,7.648,8.447,7.96,7.093c0.004-0.006,1.455-6.697,1.533-7.068
	c0.203,0.048,0.838,0.07,2.987,0.048C12.466,0.096,12.462,0.119,12.452,0.165z M17.816,5.183c-0.378,0-1.069,0.092-1.69,0.396
	c-0.225,0.115-0.438,0.249-0.663,0.382l0.203-0.732l-0.111-0.123c-1.316,0.267-1.61,0.303-2.826,0.474l-0.102,0.068
	c-0.141,1.17-0.267,2.05-0.79,4.351c-0.199,0.848-0.406,1.704-0.613,2.55l0.056,0.108c1.246-0.066,1.624-0.066,2.707-0.048
	l0.088-0.096c0.137-0.705,0.155-0.87,0.46-2.297c0.143-0.677,0.442-2.163,0.589-2.693c0.271-0.125,0.537-0.249,0.792-0.249
	c0.607,0,0.533,0.529,0.51,0.74c-0.026,0.354-0.247,1.511-0.474,2.504L15.8,11.158c-0.105,0.474-0.221,0.933-0.326,1.403
	l0.046,0.094c1.228-0.066,1.602-0.066,2.651-0.048l0.123-0.096c0.189-1.101,0.245-1.395,0.581-2.997l0.169-0.736
	c0.328-1.441,0.494-2.171,0.245-2.767C19.026,5.344,18.395,5.183,17.816,5.183z M23.777,6.691c-0.653,0.125-1.069,0.209-1.483,0.263
	c-0.41,0.066-0.81,0.125-1.441,0.213l-0.05,0.046l-0.046,0.036c-0.066,0.47-0.111,0.876-0.199,1.353
	c-0.074,0.494-0.187,1.055-0.372,1.861c-0.143,0.617-0.217,0.832-0.299,1.049c-0.08,0.217-0.167,0.428-0.328,1.035l0.038,0.056
	l0.032,0.052c0.589-0.028,0.975-0.048,1.371-0.052c0.396-0.014,0.806,0,1.441,0.004l0.056-0.046l0.06-0.05
	c0.092-0.547,0.106-0.695,0.161-0.961c0.056-0.287,0.151-0.683,0.386-1.742c0.111-0.498,0.235-0.993,0.35-1.501
	c0.119-0.506,0.245-1.003,0.364-1.501l-0.018-0.06L23.777,6.691z M31.607,6.154c0.36,0.46,0.647,1.214,0.279,2.83
	c-0.113,0.488-0.44,1.672-1.152,2.468c-0.925,0.981-2.156,1.312-3.356,1.312c-0.47,0-1.198-0.06-1.704-0.277
	c-1.638-0.663-1.377-2.444-1.15-3.433c0.225-0.971,0.597-1.984,1.403-2.731c1.123-1.035,2.56-1.095,3.163-1.095
	C30.092,5.229,31.06,5.453,31.607,6.154z M28.721,6.876c-0.834,0-1.16,1.027-1.437,2.251c-0.096,0.424-0.173,0.814-0.169,1.196
	c0.008,0.774,0.529,0.774,0.617,0.774c0.295,0,0.561-0.193,0.786-0.512c0.322-0.432,0.561-1.445,0.613-1.718
	C29.422,7.641,29.374,6.876,28.721,6.876z M59.218,5.298l0.038,0.109c-0.241,0.995-0.476,1.984-0.711,2.983
	c-0.482,2.086-0.657,3.145-0.842,4.235l-0.115,0.088c-1.27-0.01-1.634-0.01-2.806,0.04l-0.074-0.096
	c0.039-0.148,0.077-0.297,0.116-0.445c-0.429,0.361-0.892,0.612-1.392,0.638c-0.474,0.024-0.939-0.042-1.459-0.263
	c-1.63-0.635-1.367-2.416-1.138-3.391c0.217-0.967,0.599-1.976,1.395-2.713c1.133-1.031,2.45-1.316,3.011-1.095
	c0.439,0.169,0.723,0.439,0.919,0.756c0.013-0.097,0.025-0.195,0.038-0.296l0.096-0.078C57.556,5.593,57.907,5.541,59.218,5.298z
	 M55.366,10.096c0.088-0.355,0.179-0.709,0.262-1.066c0.057-0.247,0.106-0.466,0.151-0.673c0.057-0.832-0.222-1.32-0.75-1.32
	c-0.836,0-1.158,1.017-1.439,2.219c-0.098,0.428-0.175,0.818-0.171,1.196c0.018,0.76,0.533,0.76,0.617,0.76
	c0.295,0,0.806-0.189,1.021-0.494C55.172,10.567,55.276,10.338,55.366,10.096z M38.716,5.183c-0.378,0-1.073,0.092-1.69,0.396
	c-0.221,0.115-0.442,0.249-0.659,0.382l0.189-0.732l-0.102-0.123c-1.316,0.267-1.616,0.303-2.83,0.474l-0.094,0.068
	c-0.147,1.17-0.267,2.05-0.79,4.351c-0.199,0.848-0.406,1.704-0.613,2.55l0.056,0.108c1.248-0.066,1.62-0.066,2.701-0.048
	l0.094-0.096c0.133-0.705,0.155-0.87,0.45-2.297c0.147-0.677,0.452-2.163,0.595-2.693c0.271-0.125,0.533-0.249,0.796-0.249
	c0.603,0,0.529,0.529,0.506,0.74c-0.022,0.354-0.243,1.511-0.474,2.504l-0.143,0.641c-0.11,0.474-0.229,0.933-0.334,1.403
	l0.046,0.094c1.232-0.066,1.592-0.066,2.647-0.048l0.127-0.096c0.185-1.101,0.235-1.395,0.581-2.997l0.165-0.736
	c0.33-1.441,0.498-2.171,0.253-2.767C39.922,5.344,39.288,5.183,38.716,5.183z M50.481,6.978c-1.515,1.115-3.447,1.115-5.159,1.115
	h-0.181c-0.123,0.068-0.247,0.239-0.247,0.239c-0.024,0.06-0.416,1.704-0.416,1.704c-0.004,0-0.464,2.241-0.541,2.619
	c-0.342-0.038-1.156-0.038-3.141-0.014c0.092-0.378,2.04-8.401,2.04-8.401c0-0.006,0.814-3.78,0.814-3.78S43.71,0.165,43.742,0
	c0.374,0.046,1.286,0.054,3.559,0.026c0,0,0.87-0.008,0.876-0.008c1.775,0.008,3.314,0.028,4.086,1.109
	c0.305,0.406,0.41,0.925,0.41,1.451c0,0.4-0.06,0.8-0.141,1.136C52.217,5.085,51.512,6.214,50.481,6.978z M48.521,2.052
	c-0.042-0.004-1.827-0.157-1.827-0.157l-0.346-0.036l-0.012,0.147l-0.028,0.193c0.004-0.014-0.862,3.752-0.862,3.752L45.41,6.14
	h0.47c0.726,0,1.431-0.024,2.006-0.312c0.699-0.34,1.242-1.045,1.427-1.883C49.516,3.027,49.225,2.325,48.521,2.052z M67.872,5.173
	c-1.298,0.263-1.533,0.305-2.725,0.466L65.06,5.726c-0.004,0.014-0.008,0.036-0.014,0.056l-0.004-0.02
	C64.154,7.81,64.18,7.368,63.458,8.98c-0.004-0.074-0.004-0.119-0.008-0.197l-0.181-3.495l-0.113-0.115
	c-1.359,0.263-1.391,0.305-2.647,0.466l-0.097,0.088c-0.014,0.042-0.014,0.088-0.022,0.137l0.008,0.018
	c0.157,0.802,0.119,0.623,0.277,1.889c0.074,0.621,0.171,1.246,0.245,1.859c0.123,1.027,0.193,1.532,0.344,3.099
	c-0.848,1.399-1.049,1.929-1.865,3.157L59.449,16c1.224-0.046,1.509-0.046,2.416-0.046l0.197-0.225
	c0.687-1.479,5.911-10.441,5.911-10.441L67.872,5.173z M23.791,4.657c-0.593-0.35-1.634-0.239-2.335,0.245
	c-0.699,0.474-0.778,1.146-0.187,1.501c0.583,0.34,1.628,0.239,2.323-0.249C24.289,5.67,24.376,5.004,23.791,4.657z"/>
</svg>
