<?xml version="1.0" encoding="UTF-8"?>
<svg width="34px" height="48px" viewBox="0 0 34 48" version="1.1" xmlns="http://www.w3.org/2000/svg">
  <!-- Generator: Sketch 41.2 (35397) - http://www.bohemiancoding.com/sketch -->
  <title>marker</title>
  <desc>Created with Sketch.</desc>
  <defs></defs>
  <g id="Page-1" stroke="none" stroke-width="1" fill="none" fill-rule="evenodd">
    <g id="marker" fill="#000000">
      <g id="레이어_1">
        <path d="M17,0 C8,0 0.8,7.3 0.8,16.2 C0.8,19.1 1.6,21.8 2.9,24.1 L12.3,44.1 C12.8,46.3 14.8,47.9 17.1,47.9 C19.4,47.9 21.4,46.3 21.9,44.1 L31.3,24 C32.6,21.7 33.4,19 33.4,16.1 C33.2,7.3 26,0 17,0 L17,0 Z M17,24.1 C12.7,24.1 9.1,20.6 9.1,16.2 C9.1,11.9 12.6,8.3 17,8.3 C21.4,8.3 24.9,11.8 24.9,16.2 C24.9,20.6 21.3,24.1 17,24.1 Z" id="Shape"></path>
      </g>
    </g>
  </g>
</svg>
