<?xml version="1.0" encoding="UTF-8"?>
<svg width="49px" height="41px" viewBox="0 0 49 41" version="1.1" xmlns="http://www.w3.org/2000/svg">
  <!-- Generator: Sketch 41.2 (35397) - http://www.bohemiancoding.com/sketch -->
  <title>minion_pro_11</title>
  <desc>Created with Sketch.</desc>
  <defs></defs>
  <g id="Page-1" stroke="none" stroke-width="1" fill="none" fill-rule="evenodd">
    <g id="minion_pro_11" fill="#000000">
      <g id="레이어_1">
        <path d="M21.3,0.4 C16.8,2 12,3.1 7.9,3.6 L7.4,5.4 L9.4,5.4 C12.9,5.5 13.3,6 12.5,9.9 L8.1,32.2 C7.1,37.3 6.6,37.8 1.3,38.2 L0.9,40.2 L19.5,40.2 L20,38.2 C14.3,37.8 14,37.2 14.9,32.2 L21.3,0.4 L21.3,0.4 Z" id="Shape"></path>
        <path d="M48.9,0.4 C44.4,2 39.6,3.1 35.5,3.6 L35.1,5.4 L37,5.4 C40.4,5.5 40.9,6 40.2,9.9 L35.8,32.1 C34.7,37.2 34.3,37.7 29,38.1 L28.6,40.1 L47.2,40.1 L47.6,38.1 C41.9,37.7 41.6,37.1 42.5,32.1 C42.7,32.3 48.9,0.4 48.9,0.4 Z" id="Shape"></path>
      </g>
    </g>
  </g>
</svg>
