<?xml version="1.0" encoding="UTF-8"?>
<svg width="30px" height="42px" viewBox="0 0 30 42" version="1.1" xmlns="http://www.w3.org/2000/svg">
  <!-- Generator: Sketch 41.2 (35397) - http://www.bohemiancoding.com/sketch -->
  <title>minion_pro_9</title>
  <desc>Created with Sketch.</desc>
  <defs></defs>
  <g id="Page-1" stroke="none" stroke-width="1" fill="none" fill-rule="evenodd">
    <g id="minion_pro_9" fill="#000000">
      <g id="레이어_1">
        <path d="M17.5,0.6 C9.7,0.6 3.1,7.5 3.1,15 C3.1,21.6 7.8,25.5 13.2,25.5 C14,25.5 15.2,25.2 16.7,24.6 L20.6,22.8 C17.3,32 9.2,37.8 0.9,39.6 L1.4,41.5 C3.7,41.5 8,40.7 10.9,39.6 C22,35.5 29.5,25.6 29.5,14.2 C29.2,6.6 25.3,0.6 17.5,0.6 L17.5,0.6 Z M16.9,3 C21.4,3 22.1,8.9 22.1,12.2 C22.1,15.7 21.5,18.7 20.9,20.4 C20,21 18.2,21.6 16.8,21.6 C12.3,21.6 10,18.1 10,13.3 C10.1,8.2 12.9,3 16.9,3 Z" id="Shape"></path>
      </g>
    </g>
  </g>
</svg>
