<?xml version="1.0" encoding="UTF-8"?>
<svg width="190px" height="48px" viewBox="0 0 190 48" version="1.1" xmlns="http://www.w3.org/2000/svg">
  <!-- Generator: Sketch 41.2 (35397) - http://www.bohemiancoding.com/sketch -->
  <title>naver_pay</title>
  <desc>Created with Sketch.</desc>
  <defs></defs>
  <g id="Page-1" stroke="none" stroke-width="1" fill="none" fill-rule="evenodd">
    <g id="naver_pay" fill="#231F20">
      <g id="Layer_1">
        <g id="Group">
          <path d="M142.9,15 L138.6,15 L138.6,22.7 L142.6,22.7 C145.6,22.8 147,21.5 147,19 L147,18.5 C147,16.2 145.6,15 142.9,15 Z M153.6,28.5 L153.6,28.9 C153.6,30.4 154.8,31.1 156.3,31.1 C157.7,31.1 158.6,30.8 159.4,30.1 C160.1,29.5 160.4,28.8 160.4,27.6 L160.4,26.2 L156.5,26.2 C154.5,26.2 153.6,27 153.6,28.5 Z" id="Shape"></path>
          <path d="M0.2,0 L0.2,48 L189.8,48 L189.8,0 L0.2,0 Z M125,43.2 L5,43.2 L5,4.8 L125,4.8 L125,43.2 Z M149.9,19.1 C149.9,22.5 147.6,25.2 143.1,25.2 L138.6,25.2 L138.6,33.3 L135.8,33.3 L135.8,12.6 L143.1,12.6 C147.7,12.6 149.9,15.1 149.9,18.5 L149.9,19.1 L149.9,19.1 Z M163.2,33.3 L160.6,33.3 L160.6,31.4 L160.6,31.4 C160.3,32 159.7,32.5 159.2,32.8 C158.4,33.3 157.5,33.5 156.1,33.5 C153,33.5 151,31.8 151,29.1 L151,28.3 C151,25.6 152.7,23.8 156.6,23.8 L160.5,23.8 L160.5,22.9 C160.5,20.8 159.6,19.8 157.3,19.8 C155.5,19.8 154.3,20.4 152.9,21.4 L151.5,19.3 C153,18.2 154.8,17.3 157.3,17.3 C160.8,17.3 163.2,19.1 163.2,22.3 L163.2,33.3 L163.2,33.3 Z M171,39.8 L168.5,38.9 L170.5,33.5 L164.9,17.5 L167.9,17.5 L172,30.1 L172,30.1 L176.1,17.5 L179,17.5 L171,39.8 Z" id="Shape"></path>
          <polygon id="Shape" points="21.6 23.9 28.1 33.3 35.1 33.3 35.1 14.6 28.1 14.6 28.1 24 21.6 14.6 14.6 14.6 14.6 33.3 21.6 33.3"></polygon>
          <path d="M103.2,27.5 L107.4,33.3 L115.4,33.3 L109.8,26.3 C112.3,25.6 113.9,23.8 113.9,21 C113.9,16.2 110.1,14.6 105,14.6 L96.3,14.6 L96.3,33.3 L103.3,33.3 L103.3,27.5 L103.2,27.5 Z M103,19.3 L104.5,19.3 C105.2,19.3 106,19.5 106.4,19.8 C106.8,20.1 107,20.6 107,21.2 C107,21.8 106.8,22.2 106.4,22.5 C105.9,22.9 105.2,23 104.5,23 L103,23 L103,19.3 Z" id="Shape"></path>
          <polygon id="Shape" points="93.6 28.5 86.2 28.5 86.2 26.3 92.9 26.3 92.9 21.7 86.2 21.7 86.2 19.5 93.4 19.5 93.4 14.6 79.3 14.6 79.3 33.3 93.6 33.3"></polygon>
          <path d="M44.9,30.9 L50.7,30.9 L51.4,33.3 L59.1,33.3 L51.8,14.6 L43.9,14.6 L36.6,33.3 L44.4,33.3 L44.9,30.9 Z M47.7,20.4 L47.9,20.4 L49.5,26.6 L46,26.6 L47.7,20.4 Z" id="Shape"></path>
          <polygon id="Shape" points="70 33.4 77.8 14.6 70.2 14.6 66.8 25.9 66.6 25.9 63.2 14.6 55.6 14.6 63.4 33.3 70 33.3"></polygon>
        </g>
      </g>
    </g>
  </g>
</svg>
