<?xml version="1.0" encoding="UTF-8"?>
<svg width="48px" height="48px" viewBox="0 0 48 48" version="1.1" xmlns="http://www.w3.org/2000/svg">
  <!-- Generator: Sketch 41.2 (35397) - http://www.bohemiancoding.com/sketch -->
  <title>new_2</title>
  <desc>Created with Sketch.</desc>
  <defs></defs>
  <g id="Page-1" stroke="none" stroke-width="1" fill="none" fill-rule="evenodd">
    <g id="new_2" fill="#000000">
      <g id="레이어_1">
        <path d="M24,0 C10.7,0 0,10.7 0,24 C0,37.3 10.7,48 24,48 C37.3,48 48,37.3 48,24 C48,10.7 37.3,0 24,0 Z M30.9,34.8 L25.8,34.8 L21.7,24.8 C21.1,23.4 20.6,21.1 20.6,21.1 L20.5,21.1 C20.5,21.1 20.3,23.4 20.1,24.8 L18.1,34.8 L12.9,34.8 L17.1,13.2 L22.2,13.2 L26.2,23.3 C26.8,24.7 27.3,27 27.3,27 L27.4,27 C27.4,27 27.6,24.7 27.9,23.3 L29.9,13.2 L35.2,13.2 C35.1,13.2 30.9,34.8 30.9,34.8 Z" id="Shape"></path>
      </g>
    </g>
  </g>
</svg>
