<?xml version="1.0" encoding="UTF-8"?>
<svg width="54px" height="48px" viewBox="0 0 54 48" version="1.1" xmlns="http://www.w3.org/2000/svg">
  <!-- Generator: Sketch 41.2 (35397) - http://www.bohemiancoding.com/sketch -->
  <title>new_window</title>
  <desc>Created with Sketch.</desc>
  <defs></defs>
  <g id="Page-1" stroke="none" stroke-width="1" fill="none" fill-rule="evenodd">
    <g id="new_window" transform="translate(0.000000, -1.000000)" fill="#000000">
      <g id="레이어_1">
        <path d="M53.4,5.8 C53.4,5.7 53.4,5.5 53.3,5.4 C53.3,5.3 53.3,5.2 53.2,5 C53.2,5 53.2,5 53.2,4.9 C53,4.6 53,4.4 52.9,4 C52.9,3.9 52.8,3.8 52.8,3.7 C52.7,3.6 52.7,3.4 52.6,3.3 C51.8,2.1 50.6,1.3 49.2,1.1 C49,1.1 48.7,1 48.4,1 L17.9,1 C15.1,0.9 12.8,3.3 12.8,6 L12.8,9.3 L16.6,9.3 L16.6,8 L46.7,8 L46.7,33.2 L45,33.2 L45,37 L48.3,37 C51,37 53.4,34.7 53.4,31.9 L53.4,6.1 L53.4,5.8 L53.4,5.8 Z M41.7,16.5 C41.7,16.4 41.7,16.3 41.6,16.1 C41.6,16.1 41.6,16.1 41.6,16 C41.5,15.8 41.5,15.6 41.4,15.2 L41.3,15.1 C41.2,15 41.2,14.8 41.1,14.7 C40.3,13.5 39.1,12.7 37.7,12.5 C37.5,12.5 37.2,12.4 36.9,12.4 L5.7,12.4 C3,12.4 0.6,14.6 0.6,17.5 L0.6,44 L0.6,44.4 C0.6,44.5 0.6,44.7 0.7,44.8 C0.7,44.9 0.7,45 0.8,45.2 L0.8,45.3 C0.9,45.5 0.9,45.7 1,46 C1.1,46.1 1.1,46.2 1.2,46.3 C1.3,46.4 1.3,46.5 1.4,46.6 C2.2,47.8 3.4,48.6 4.8,48.8 C5,48.8 36.7,48.9 36.7,48.9 C39.4,48.9 41.8,46.6 41.8,43.8 L41.8,17.4 L41.8,17 C41.8,16.9 41.8,16.7 41.7,16.5 L41.7,16.5 Z M35.2,42 L7.8,42 L7.8,19.2 L35.3,19.2 L35.3,42 L35.2,42 Z" id="Shape"></path>
      </g>
    </g>
  </g>
</svg>
