<?xml version="1.0" encoding="UTF-8"?>
<svg width="60px" height="49px" viewBox="0 0 60 49" version="1.1" xmlns="http://www.w3.org/2000/svg">
  <!-- Generator: Sketch 41.2 (35397) - http://www.bohemiancoding.com/sketch -->
  <title>pallet</title>
  <desc>Created with Sketch.</desc>
  <defs></defs>
  <g id="Page-1" stroke="none" stroke-width="1" fill="none" fill-rule="evenodd">
    <g id="pallet" fill="#444444">
      <g id="레이어_1">
        <path d="M30,0.2 C14,0.2 0.9,10.9 0.9,24.2 C0.9,37.5 13.9,48.2 30,48.2 C32.4,48.2 34.7,48 36.9,47.5 C38.8,47.1 39.5,45.3 38.5,43.6 L34.9,37.3 C33,34 34.5,31.3 38.4,31.3 L54.3,31.3 C56.2,31.3 58.3,29.8 58.7,28 C58.9,26.8 59.1,25.5 59.1,24.2 C59.1,10.9 46.1,0.2 30,0.2 L30,0.2 Z M10.4,27.7 C7.7,27.7 5.5,26.1 5.5,24.2 C5.5,22.3 7.7,20.7 10.4,20.7 C13.1,20.7 15.3,22.3 15.3,24.2 C15.3,26.1 13.1,27.7 10.4,27.7 Z M14.8,15.3 C12.9,13.4 12.4,10.7 13.8,9.4 C15.2,8 17.8,8.5 19.7,10.4 C21.6,12.3 22.1,15 20.7,16.3 C19.4,17.7 16.8,17.2 14.8,15.3 Z M32.1,40.6 C31.8,42.9 29,44.4 25.8,44 C22.6,43.6 20.2,41.4 20.5,39.2 C20.8,36.9 23.6,35.4 26.8,35.8 C30,36.2 32.4,38.3 32.1,40.6 Z M30,13 C28.1,13 26.5,10.8 26.5,8.1 C26.5,5.4 28.1,3.2 30,3.2 C31.9,3.2 33.5,5.4 33.5,8.1 C33.5,10.8 31.9,13 30,13 Z M39.2,16.3 C37.8,14.9 38.3,12.3 40.2,10.4 C42.1,8.5 44.8,8 46.1,9.4 C47.5,10.8 47,13.4 45.1,15.3 C43.2,17.2 40.6,17.7 39.2,16.3 Z M49.6,27.7 C46.9,27.7 44.7,26.1 44.7,24.2 C44.7,22.3 46.9,20.7 49.6,20.7 C52.3,20.7 54.5,22.3 54.5,24.2 C54.5,26.1 52.3,27.7 49.6,27.7 Z" id="Shape"></path>
      </g>
    </g>
  </g>
</svg>
