<?xml version="1.0" encoding="utf-8"?>
<!-- Generator: Adobe Illustrator 21.1.0, SVG Export Plug-In . SVG Version: 6.00 Build 0)  -->
<svg version="1.1" id="Layer_1" xmlns="http://www.w3.org/2000/svg"  x="0px" y="0px"
	 viewBox="0 0 213 48" style="enable-background:new 0 0 213 48;" xml:space="preserve">
<g>
	<path d="M0,5.502c0-2.851,2.254-5.105,5.105-5.105h13.856c11.072,0,17.768,6.563,17.768,16.044v0.133
		c0,10.74-8.353,16.309-18.762,16.309H10.21v9.613c0,2.851-2.254,5.105-5.105,5.105C2.254,47.602,0,45.348,0,42.497V5.502z
		 M18.298,23.801c5.105,0,8.089-3.05,8.089-7.028V16.64c0-4.575-3.183-7.028-8.287-7.028h-7.89V23.8h8.088V23.801z"/>
	<path d="M35.102,40.641L51.278,4.11c1.127-2.52,3.183-4.044,5.967-4.044h0.597c2.784,0,4.773,1.525,5.9,4.044L79.92,40.641
		c0.331,0.729,0.53,1.392,0.53,2.055c0,2.718-2.122,4.906-4.839,4.906c-2.387,0-3.978-1.392-4.907-3.513l-3.116-7.293h-20.42
		l-3.249,7.625c-0.862,1.989-2.586,3.182-4.707,3.182c-2.652,0-4.707-2.122-4.707-4.773C34.505,42.1,34.77,41.37,35.102,40.641z
		 M63.809,27.779l-6.431-15.315l-6.431,15.315H63.809z"/>
	<path d="M91.248,29.304L76.265,8.95c-0.73-0.994-1.26-2.188-1.26-3.647c0-2.718,2.254-4.906,5.105-4.906
		c2.32,0,3.779,1.26,5.039,3.116L96.42,19.756L107.889,3.38c1.26-1.856,2.785-3.049,4.906-3.049c3.117,0,4.973,2.188,4.973,4.972
		c0,1.393-0.663,2.652-1.326,3.58l-14.984,20.221v13.392c0,2.851-2.254,5.105-5.105,5.105c-2.851,0-5.105-2.254-5.105-5.105
		C91.248,42.496,91.248,29.304,91.248,29.304z"/>
	<path d="M118.078,24.133V24c0-13.193,9.944-24,24.199-24c6.961,0,11.668,1.856,15.514,4.707c1.06,0.795,1.989,2.254,1.989,4.044
		c0,2.784-2.254,4.973-5.039,4.973c-1.392,0-2.32-0.53-3.05-0.994c-2.851-2.122-5.834-3.315-9.481-3.315
		c-7.823,0-13.458,6.497-13.458,14.453V24c0,7.956,5.503,14.585,13.458,14.585c4.31,0,7.16-1.326,10.078-3.646
		c0.796-0.663,1.857-1.127,3.05-1.127c2.586,0,4.773,2.122,4.773,4.707c0,1.591-0.796,2.851-1.723,3.646
		C154.21,45.812,149.304,48,141.879,48C128.221,48,118.078,37.458,118.078,24.133z"/>
	<path d="M162.773,24.133V24c0-13.193,10.408-24,24.729-24s24.597,10.674,24.597,23.867V24c0,13.193-10.409,24-24.73,24
		C173.049,48,162.773,37.326,162.773,24.133z M201.424,24.133V24c0-7.956-5.834-14.586-14.055-14.586
		c-8.221,0-13.922,6.497-13.922,14.453V24c0,7.956,5.834,14.585,14.055,14.585S201.424,32.088,201.424,24.133z"/>
</g>
</svg>
