<?xml version="1.0" encoding="UTF-8"?>
<svg width="66px" height="48px" viewBox="0 0 66 48" version="1.1" xmlns="http://www.w3.org/2000/svg">
  <!-- Generator: Sketch 41.2 (35397) - http://www.bohemiancoding.com/sketch -->
  <title>payment_1</title>
  <desc>Created with Sketch.</desc>
  <defs></defs>
  <g id="Page-1" stroke="none" stroke-width="1" fill="none" fill-rule="evenodd">
    <g id="payment_1" fill="#000000">
      <g id="Layer_1">
        <g id="Group">
          <path d="M62.2,10.1 L57.9,10.1 L57.9,1.5 C57.9,0.7 57.3,0.1 56.5,0.1 L2.3,0.1 C1.5,0.1 0.9,0.7 0.9,1.5 L0.9,40 C0.9,40.8 1.5,41.4 2.3,41.4 L21.8,41.4 L21.8,44.6 L17.1,44.6 C16.3,44.6 15.8,45.2 15.8,45.9 L15.8,48 L42.7,48 L42.7,45.9 C42.7,45.1 42.1,44.6 41.4,44.6 L37,44.6 L37,41.4 L46.3,41.4 L46.3,44.6 C46.3,46.2 47.6,47.5 49.2,47.5 L62.5,47.5 C64.1,47.5 65.4,46.2 65.4,44.6 L65.4,13 C65.1,11.4 63.8,10.1 62.2,10.1 L62.2,10.1 Z M46.1,13 L46.1,32.4 L4.3,32.4 L4.3,3.4 L54.2,3.4 L54.2,10.1 L49,10.1 C47.4,10.1 46.1,11.4 46.1,13 L46.1,13 Z M55.5,45.3 C54.5,45.3 53.9,44.5 53.9,43.7 C53.9,42.9 54.7,42.1 55.5,42.1 C56.3,42.1 57.1,42.9 57.1,43.7 C57.3,44.6 56.5,45.3 55.5,45.3 Z M62.9,40.3 L48.5,40.3 L48.5,15.8 L62.9,15.8 L62.9,40.3 Z" id="Shape"></path>
          <path d="M34.1,18.4 C33.8,20 33.5,21.4 33,23 L30.4,23 C30.1,21.6 29.9,20 29.6,18.4 L28.8,18.4 C28.5,19.8 28.2,21.4 27.8,23 L25.2,23 C24.9,21.4 24.6,20 24.2,18.4 L22.6,18.4 L22.6,16.6 L24,16.6 C23.8,15.3 23.7,14 23.4,12.8 L25.8,12.8 C26,14.1 26.3,15.4 26.4,16.5 L27.7,16.5 C28,15.2 28.2,13.9 28.3,12.8 L30.7,12.8 C30.9,14.1 31.2,15.4 31.3,16.5 L32.6,16.5 C32.8,15.2 33.1,13.9 33.2,12.8 L35.4,12.8 C35.1,14.1 34.8,15.4 34.6,16.5 L36,16.5 L36,18.3 L34.1,18.3 L34.1,18.4 Z M27.2,18.4 L26.6,18.4 C26.8,19.4 26.9,20 26.9,20.8 C26.9,20 27,19.2 27.2,18.4 Z M29.4,16.5 L29.4,15.5 C29.4,15.8 29.4,16.1 29.2,16.5 L29.4,16.5 Z M32.2,18.4 L31.6,18.4 C31.8,19.2 31.8,20 31.9,20.8 C31.9,20 32,19.2 32.2,18.4 Z" id="Shape"></path>
          <path d="M58.7,28.3 C58.5,29.3 58.2,30.2 58.1,31.2 L56.5,31.2 C56.3,30.2 56.2,29.3 56,28.3 L55.5,28.3 C55.3,29.3 55,30.2 54.9,31.2 L53.3,31.2 C53.1,30.2 52.8,29.3 52.7,28.3 L51.7,28.3 L51.7,27.2 L52.5,27.2 C52.3,26.4 52.2,25.6 52,24.8 L53.4,24.8 C53.6,25.6 53.7,26.4 53.7,27.2 L54.5,27.2 C54.7,26.4 54.8,25.6 55,24.8 L56.4,24.8 C56.6,25.6 56.7,26.4 56.7,27.2 L57.5,27.2 C57.7,26.4 57.8,25.6 58,24.8 L59.4,24.8 C59.2,25.6 59.1,26.4 58.9,27.2 L59.7,27.2 L59.7,28.3 L58.7,28.3 Z M54.4,28.3 L54.1,28.3 C54.3,28.9 54.3,29.4 54.3,29.7 C54.2,29.4 54.2,29 54.4,28.3 Z M55.8,27.2 L55.8,26.6 C55.7,26.7 55.7,27 55.8,27.2 L55.8,27.2 Z M57.5,28.3 L57.2,28.3 C57.4,28.8 57.4,29.3 57.4,29.7 C57.3,29.3 57.5,28.8 57.5,28.3 Z" id="Shape"></path>
        </g>
      </g>
    </g>
  </g>
</svg>
