<?xml version="1.0" encoding="UTF-8"?>
<svg width="48px" height="48px" viewBox="0 0 48 48" version="1.1" xmlns="http://www.w3.org/2000/svg">
  <!-- Generator: Sketch 41.2 (35397) - http://www.bohemiancoding.com/sketch -->
  <title>play_1</title>
  <desc>Created with Sketch.</desc>
  <defs></defs>
  <g id="Page-1" stroke="none" stroke-width="1" fill="none" fill-rule="evenodd">
    <g id="play_1" fill="#000000">
      <g id="레이어_1">
        <path d="M23.7,0 C17.4,0 11.4,2.4 6.9,6.8 L6.8,6.9 C2.4,11.4 0,17.4 0,23.7 C0,29.1 1.7,34.2 5,38.5 C8.2,42.6 12.7,45.7 17.7,47.1 C19.8,47.7 22,48 24.2,48 C30.5,48 36.5,45.6 41.1,41.2 L41.2,41.1 C45,37.2 47.4,32 47.9,26.6 C48,25.8 48,25 48,24.2 C48,10.9 37.1,0 23.7,0 Z M23.7,3.6 C35.1,3.6 44.4,12.9 44.4,24.3 C44.4,25 44.4,25.6 44.3,26.3 C43.9,30.9 41.8,35.3 38.6,38.6 C34.7,42.3 29.6,44.4 24.2,44.4 C22.3,44.4 20.5,44.1 18.6,43.6 C9.8,41.2 3.6,33 3.6,23.8 C3.6,18.4 5.6,13.3 9.4,9.4 C13.2,5.6 18.4,3.6 23.7,3.6 L23.7,3.6 Z" id="Shape"></path>
        <path d="M20.2,35.5 L34,25.7 C35.5,24.6 36,23.2 34,21.7 L20.2,12.5 C18.7,11.4 17.5,12 17.5,13.8 L17.5,34.1 C17.5,36 18.7,36.6 20.2,35.5 L20.2,35.5 Z" id="Shape"></path>
      </g>
    </g>
  </g>
</svg>
