<?xml version="1.0" encoding="UTF-8"?>
<svg width="48px" height="48px" viewBox="0 0 48 48" version="1.1" xmlns="http://www.w3.org/2000/svg">
  <!-- Generator: Sketch 41.2 (35397) - http://www.bohemiancoding.com/sketch -->
  <title>sad</title>
  <desc>Created with Sketch.</desc>
  <defs></defs>
  <g id="Page-1" stroke="none" stroke-width="1" fill="none" fill-rule="evenodd">
    <g id="sad" fill="#000000">
      <g id="레이어_1">
        <path d="M24,48 C37.3,48 48,37.3 48,24 C48,10.7 37.3,0 24,0 C10.7,0 0,10.7 0,24 C0,37.3 10.7,48 24,48 Z M24,4.5 C34.8,4.5 43.5,13.2 43.5,24 C43.5,34.8 34.8,43.5 24,43.5 C13.2,43.5 4.5,34.8 4.5,24 C4.5,13.2 13.2,4.5 24,4.5 Z M12,15 C12,13.3 13.3,12 15,12 C16.7,12 18,13.3 18,15 C18,16.7 16.7,18 15,18 C13.3,18 12,16.7 12,15 Z M30,15 C30,13.3 31.3,12 33,12 C34.7,12 36,13.3 36,15 C36,16.7 34.7,18 33,18 C31.3,18 30,16.7 30,15 Z M15,36.6 L11.1,34.3 C13.8,29.9 18.5,27 24,27 C29.5,27 34.2,29.9 36.9,34.3 L33,36.6 C31.2,33.5 27.8,31.5 24,31.5 C20.2,31.5 16.8,33.5 15,36.6 Z" id="Shape"></path>
      </g>
    </g>
  </g>
</svg>
