<?xml version="1.0" encoding="utf-8"?>
<!-- Generator: Adobe Illustrator 21.1.0, SVG Export Plug-In . SVG Version: 6.00 Build 0)  -->
<svg version="1.1" id="Layer_1" xmlns="http://www.w3.org/2000/svg"  x="0px" y="0px"
	 viewBox="0 0 333 48" style="enable-background:new 0 0 333 48;" xml:space="preserve">
<g>
	<path d="M235.192,0c-1.689,0-3.362,0.272-4.97,0.808c-1.608,0.537-3.654,1.744-4.705,3.43c0-1.578,0-3.47,0-3.47h-7.601V48h7.486
		V31.634c0.835,1.45,3.166,2.783,4.821,3.325c1.69,0.575,3.482,0.867,5.324,0.867c2.54,0,4.478-0.448,6.554-1.33
		c2.071-0.883,3.962-2.207,5.621-3.942c1.573-1.611,2.799-3.539,3.648-5.739c0.885-2.192,1.333-4.474,1.333-6.784
		c0-5.042-1.783-9.309-5.156-12.816C243.899,1.422,239.402,0,235.192,0z M242.051,26.079c-1.784,1.81-4.14,2.991-7.037,2.991
		c-2.86,0-5.315-0.745-7.305-2.87c-1.983-2.117-2.746-5.238-2.746-8.451c0-3.009,0.785-6.026,2.814-8.148
		c1.987-2.04,4.401-2.907,7.176-2.907c2.976,0,5.446,1.173,7.158,2.989c1.994,2.115,2.972,5.077,2.972,8.415
		C245.083,21.15,244.109,23.994,242.051,26.079z"/>
	<polygon points="324.697,0.767 315.044,25.039 304.573,0.767 296.554,0.767 311.284,33.1 304.86,48 312.738,48 332.756,0.767 	"/>
	<path d="M284.367,4.238c-1.051-1.686-3.097-2.893-4.705-3.43C278.055,0.272,276.381,0,274.692,0c-4.209,0-8.707,1.422-12.356,5.214
		c-3.374,3.508-5.156,7.774-5.156,12.816c0,2.31,0.448,4.592,1.333,6.784c0.849,2.199,2.075,4.128,3.648,5.739
		c1.659,1.735,3.549,3.06,5.621,3.942c2.076,0.883,4.014,1.33,6.554,1.33c1.842,0,3.634-0.292,5.324-0.867
		c1.656-0.541,3.986-1.875,4.821-3.325c0,1.009,0,3.562,0,3.562h7.486V0.767h-7.601C284.367,0.767,284.367,2.659,284.367,4.238z
		 M282.175,26.2c-1.99,2.125-4.445,2.87-7.305,2.87c-2.897,0-5.253-1.181-7.037-2.991c-2.058-2.086-3.032-4.929-3.032-7.981
		c0-3.338,0.978-6.299,2.972-8.415c1.713-1.816,4.182-2.989,7.158-2.989c2.775,0,5.189,0.868,7.176,2.907
		c2.029,2.122,2.814,5.14,2.814,8.148C284.921,20.963,284.158,24.083,282.175,26.2z"/>
	<polygon points="168.802,28.439 168.649,28.439 161.936,5.561 151.127,5.561 151.127,34.418 158.288,34.418 157.88,10.731
		158.063,10.731 165.249,34.418 175.632,34.418 175.632,5.561 168.408,5.561 	"/>
	<polygon points="31.193,5.561 25.802,34.695 33.666,34.695 37.658,8.244 37.828,8.244 41.714,34.695 49.563,34.695 44.177,5.561
		"/>
	<polygon points="75.243,5.561 71.637,27.843 71.483,27.843 67.91,5.561 56.02,5.561 55.364,34.695 62.649,34.695 62.829,8.488
		62.992,8.488 67.881,34.695 75.266,34.695 80.129,8.488 80.278,8.488 80.474,34.695 87.775,34.695 87.122,5.561 	"/>
	<path d="M135.625,27.111c0,0.376-0.008,0.798-0.064,1.112c-0.146,0.713-0.769,2.094-2.806,2.094c-2.026,0-2.653-1.381-2.793-2.094
		c-0.039-0.315-0.081-0.736-0.056-1.112V5.558h-7.378v20.885c-0.006,0.546,0.036,1.638,0.071,1.93
		c0.498,5.435,4.79,7.184,10.156,7.184c5.359,0,9.678-1.749,10.173-7.184c0.03-0.292,0.091-1.384,0.091-1.93V5.558h-7.393v21.553
		H135.625z"/>
	<path d="M7.745,13.063c-0.143-0.605-0.11-1.2-0.033-1.526c0.21-0.95,0.847-1.972,2.664-1.972c1.72,0,2.716,1.072,2.716,2.634v1.819
		h7.27v-2.047c0-6.352-5.706-7.346-9.841-7.346c-5.172,0-9.401,1.726-10.185,6.483c-0.197,1.281-0.224,2.443,0.067,3.91
		c1.261,5.972,11.636,7.688,13.125,11.446c0.282,0.714,0.192,1.616,0.064,2.163c-0.241,0.965-0.892,1.965-2.847,1.965
		c-1.817,0-2.916-1.059-2.916-2.646l-0.023-2.828H0v2.246c0,6.509,5.106,8.461,10.575,8.461c5.293,0,9.623-1.785,10.311-6.646
		c0.365-2.526,0.1-4.174-0.013-4.789C19.638,18.274,8.569,16.481,7.745,13.063z"/>
	<path d="M102.576,13.12c-0.147-0.57-0.106-1.178-0.044-1.499c0.204-0.922,0.834-1.939,2.633-1.939c1.711,0,2.691,1.041,2.691,2.595
		v1.794h7.187v-2.014c0-6.284-5.643-7.27-9.714-7.27c-5.13,0-9.336,1.678-10.088,6.407c-0.227,1.265-0.257,2.415,0.067,3.886
		c1.246,5.91,11.497,7.601,12.98,11.348c0.297,0.692,0.177,1.584,0.064,2.13c-0.23,0.959-0.9,1.921-2.814,1.921
		c-1.808,0-2.899-1.025-2.899-2.605v-2.806h-7.748v2.236c0,6.448,5.065,8.372,10.495,8.372c5.204,0,9.501-1.773,10.195-6.593
		c0.348-2.485,0.09-4.124-0.042-4.748C114.324,18.307,103.374,16.516,102.576,13.12z"/>
	<path d="M193.604,22.594h2.982v4.21c0.003,0.375-0.019,0.786-0.072,1.104c-0.13,0.802-0.87,2.116-2.97,2.116
		c-2.113,0-2.846-1.314-2.997-2.116c-0.032-0.318-0.05-0.729-0.05-1.104V13.473c0-0.467,0.018-0.995,0.112-1.373
		c0.169-0.711,0.8-2.111,2.895-2.111c2.227,0,2.788,1.479,2.92,2.111c0.09,0.413,0.09,1.109,0.09,1.109v1.631h7.347l-0.009-0.953
		c0,0,0.043-1.01-0.062-1.914c-0.517-5.491-5.062-7.197-10.235-7.197c-5.155,0-9.563,1.722-10.197,7.197
		c-0.069,0.464-0.128,1.388-0.128,1.914v12.26c0,0.545,0.003,0.947,0.106,1.917c0.483,5.286,5.063,7.194,10.219,7.194
		c5.174,0,9.78-1.909,10.271-7.194c0.069-0.97,0.09-1.372,0.09-1.917v-7.832h-10.312L193.604,22.594L193.604,22.594z"/>
</g>
</svg>
