<?xml version="1.0" encoding="UTF-8"?>
<svg width="48px" height="48px" viewBox="0 0 48 48" version="1.1" xmlns="http://www.w3.org/2000/svg">
  <!-- Generator: Sketch 41.2 (35397) - http://www.bohemiancoding.com/sketch -->
  <title>smile_3</title>
  <desc>Created with Sketch.</desc>
  <defs></defs>
  <g id="Page-1" stroke="none" stroke-width="1" fill="none" fill-rule="evenodd">
    <g id="smile_3" fill="#000000">
      <g id="레이어_1">
        <path d="M24,48 C10.7,48 0,37.3 0,24 C0,10.7 10.7,0 24,0 C37.3,0 48,10.7 48,24 C48,37.3 37.3,48 24,48 Z M24,4.5 C13.2,4.5 4.5,13.2 4.5,24 C4.5,34.8 13.2,43.5 24,43.5 C34.8,43.5 43.5,34.8 43.5,24 C43.5,13.2 34.8,4.5 24,4.5 Z M24,39 C18.5,39 13.8,36.1 11.1,31.7 L15,29.4 C16.8,32.5 20.2,34.5 24,34.5 C27.8,34.5 31.2,32.5 33,29.4 L36.9,31.7 C34.2,36.1 29.5,39 24,39 Z M33,18 C31.3,18 30,16.7 30,15 C30,13.3 31.3,12 33,12 C34.7,12 36,13.3 36,15 C36,16.7 34.7,18 33,18 Z M21.9,20.1 L25.9,20.1 L25.9,28.1 L21.9,28.1 C21.9,28.2 21.9,20.1 21.9,20.1 Z M15,18 C13.3,18 12,16.7 12,15 C12,13.3 13.3,12 15,12 C16.7,12 18,13.3 18,15 C18,16.7 16.7,18 15,18 Z" id="Shape"></path>
      </g>
    </g>
  </g>
</svg>
