<?xml version="1.0" encoding="UTF-8"?>
<svg width="156px" height="48px" viewBox="0 0 156 48" version="1.1" xmlns="http://www.w3.org/2000/svg">
  <!-- Generator: Sketch 41.2 (35397) - http://www.bohemiancoding.com/sketch -->
  <title>stars</title>
  <desc>Created with Sketch.</desc>
  <defs></defs>
  <g id="Page-1" stroke="none" stroke-width="1" fill="none" fill-rule="evenodd">
    <g id="stars" fill="#000000">
      <g id="레이어_1">
        <path d="M84.3,17.4 L78.6,0 L71.7,17.9 L52.8,19.1 L67.4,29.9 L61.4,48 L77.3,36.8 L92.5,46.8 L87.7,29.1 L103.1,17.1 L84.3,17.4 L84.3,17.4 Z M155.9,17.1 L137,17.4 L131.3,0 L124.4,17.9 L105.5,19.1 L120.1,29.9 L114.1,48 L130,36.8 L145.2,46.8 L140.4,29.1 L155.9,17.1 L155.9,17.1 Z M31.6,17.4 L25.9,0 L19,17.9 L0.1,19.1 L14.7,29.9 L8.7,48 L24.6,36.8 L39.8,46.8 L35,29.1 L50.4,17.1 L31.6,17.4 L31.6,17.4 Z" id="Shape"></path>
      </g>
    </g>
  </g>
</svg>
