<?xml version="1.0" encoding="UTF-8"?>
<svg width="44px" height="48px" viewBox="0 0 44 48" version="1.1" xmlns="http://www.w3.org/2000/svg">
  <!-- Generator: Sketch 41.2 (35397) - http://www.bohemiancoding.com/sketch -->
  <title>thumb_up_2</title>
  <desc>Created with Sketch.</desc>
  <defs></defs>
  <g id="Page-1" stroke="none" stroke-width="1" fill="none" fill-rule="evenodd">
    <g id="thumb_up_2" fill="#000000">
      <g id="레이어_1">
        <path d="M31.7,17 C31.4,16 41.2,7.3 35.5,0.2 C34.2,-1.5 29.6,8.1 23.2,12.5 C19.6,14.9 11.3,20 11.3,22.8 L11.3,41 C11.3,44.4 24.4,48 34.4,48 C38,48 43.3,25.1 43.3,21.5 C43.3,17.9 32.1,17.9 31.7,17 Z M8.7,17.2 C6.9,17.2 0.7,18.3 0.7,25.5 L0.7,38.4 C0.7,45.7 6.9,46.5 8.7,46.5 C10.5,46.5 6,45 6,40.5 L6,23.5 C6,18.8 10.4,17.2 8.7,17.2 L8.7,17.2 Z" id="Shape"></path>
      </g>
    </g>
  </g>
</svg>
