<?xml version="1.0" encoding="UTF-8"?>
<svg width="44px" height="49px" viewBox="0 0 44 49" version="1.1" xmlns="http://www.w3.org/2000/svg">
  <!-- Generator: Sketch 41.2 (35397) - http://www.bohemiancoding.com/sketch -->
  <title>thumb_up_1</title>
  <desc>Created with Sketch.</desc>
  <defs></defs>
  <g id="Page-1" stroke="none" stroke-width="1" fill="none" fill-rule="evenodd">
    <g id="thumb_up_1" transform="translate(0.000000, -1.000000)" fill="#000000">
      <g id="레이어_1">
        <path d="M41.7,33.7 C41.7,33.7 44,32.4 43.8,29.4 C43.7,27.5 41.4,25.7 41.4,25.7 C41.4,25.7 42.4,23.9 42.4,23.1 C42.4,22.3 42.4,20.2 40.3,19.1 C38.2,18 28.2,19.5 28.2,19.5 C28.2,19.5 29.2,13.7 29.3,12.9 C29.4,12.1 30.3,11.2 30.4,8.5 C30.6,5 29.2,0.9 26.2,1 C23.1,1.1 24,6 24,6.8 C24,7.6 21.8,12.6 19.8,15.8 C17.9,19 15.6,20.4 14.9,23.6 C14.3,26.3 11.3,27.4 11.3,27.4 C10.4,27.6 10.4,28.4 10.5,29.1 C12.4,40.8 14.3,47.1 14.3,47.1 C14.3,47.1 19.3,48.2 21.1,48.3 C22.9,48.4 22.6,48.5 24.4,48.9 C26.2,49.2 29.9,48.9 32.9,48.9 C35.9,48.9 37.1,48.2 40,46.1 C42.9,44 40.8,41.1 40.8,41.1 C40.8,41.1 43.2,40.5 43.2,37.3 C43.2,34.5 41.7,33.7 41.7,33.7 L41.7,33.7 Z" id="Shape"></path>
        <path d="M7.7,29.1 C7.5,28.2 6.6,27.5 5.7,27.5 L2,27.5 C1.1,27.5 0.3,28.2 0.2,29.1 L0.2,47.1 C0.2,48 1,48.7 1.9,48.7 L10.1,48.7 C11,48.7 11.4,47.5 11.2,46.5 L7.7,29.1 L7.7,29.1 Z" id="Shape"></path>
      </g>
    </g>
  </g>
</svg>
