<?xml version="1.0" encoding="UTF-8"?>
<svg width="66px" height="48px" viewBox="0 0 66 48" version="1.1" xmlns="http://www.w3.org/2000/svg">
  <!-- Generator: Sketch 41.2 (35397) - http://www.bohemiancoding.com/sketch -->
  <title>ticket_1</title>
  <desc>Created with Sketch.</desc>
  <defs></defs>
  <g id="Page-1" stroke="none" stroke-width="1" fill="none" fill-rule="evenodd">
    <g id="ticket_1" fill="#000000">
      <g id="Layer_1">
        <path d="M65.3,29.2 L65.7,29.2 L65.7,41.9 C65.5,45.4 62.6,48 59.2,48 L6.8,48 C3.3,48 0.3,45.2 0.3,41.5 L0.3,6.5 C0.3,3 3.1,0 6.8,0 L59.2,0 C62.7,0 65.5,2.8 65.7,6.1 L65.7,18.8 L65.3,18.8 C62.5,18.8 60.1,21.2 60.1,24 C60.1,26.8 62.5,29.2 65.3,29.2 L65.3,29.2 Z M61.4,32.1 C58.3,30.6 56.4,27.5 56.4,24 C56.4,20.5 58.6,17.5 61.4,15.9 L61.4,7.2 C61.4,5.7 60.1,4.4 58.6,4.4 L48.3,4.4 L48.3,8.8 L43.9,8.8 L43.9,4.4 L7.7,4.4 C6,4.4 4.6,5.7 4.6,7.5 L4.6,40.9 C4.6,42.4 5.9,43.7 7.7,43.7 L58.5,43.7 C60,43.7 61.3,42.4 61.3,40.6 L61.4,32.1 L61.4,32.1 L61.4,32.1 Z M43.9,39.3 L48.3,39.3 L48.3,43.7 L43.9,43.7 L43.9,39.3 Z M43.9,30.5 L48.3,30.5 L48.3,34.9 L43.9,34.9 L43.9,30.5 Z M43.9,21.8 L48.3,21.8 L48.3,26.2 L43.9,26.2 L43.9,21.8 Z M43.9,13.1 L48.3,13.1 L48.3,17.5 L43.9,17.5 L43.9,13.1 Z" id="Shape"></path>
      </g>
    </g>
  </g>
</svg>
