<?xml version="1.0" encoding="UTF-8"?>
<svg width="78px" height="49px" viewBox="0 0 78 49" version="1.1" xmlns="http://www.w3.org/2000/svg">
  <!-- Generator: Sketch 41.2 (35397) - http://www.bohemiancoding.com/sketch -->
  <title>truck</title>
  <desc>Created with Sketch.</desc>
  <defs></defs>
  <g id="Page-1" stroke="none" stroke-width="1" fill="none" fill-rule="evenodd">
    <g id="truck" fill="#444444">
      <g id="레이어_1">
        <path d="M61.7,38.2 L61,38.2 C58.4,38.2 56.2,40.3 56.2,43 L56.2,43 L56.2,43.7 L56.2,43.7 L56.2,43.7 C56.2,46.3 58.3,48.5 61,48.5 L61.7,48.5 C64.4,48.5 66.5,46.4 66.5,43.7 L66.5,42.9 C66.5,40.3 64.4,38.2 61.7,38.2 Z" id="Shape"></path>
        <path d="M15.9,38.2 L15.2,38.2 C12.6,38.2 10.4,40.3 10.4,43 L10.4,43 L10.4,43.7 C10.4,46.3 12.5,48.5 15.2,48.5 L15.9,48.5 C18.6,48.5 20.7,46.4 20.7,43.7 L20.7,42.9 C20.7,40.3 18.6,38.2 15.9,38.2 Z" id="Shape"></path>
        <path d="M75.8,28.6 L2.4,28.6 C2.1,28.6 1.7,28.7 1.5,29 C1.3,29.2 1.1,29.6 1.1,29.9 L1.1,41.2 C1.1,42.2 1.9,42.9 2.8,42.9 L7.3,42.9 C7.3,38.6 10.8,35.2 15.1,35.2 L15.8,35.2 C20.1,35.2 23.5,38.7 23.6,42.9 L53.2,42.9 C53.2,38.6 56.7,35.2 61,35.2 L61.7,35.2 C66,35.2 69.4,38.6 69.5,42.9 L75.7,40.9 C76.5,40.7 77.1,40.6 77.1,39.5 L77.1,29.8 C77.1,29.5 77,29.1 76.7,28.9 C76.5,28.8 76.2,28.6 75.8,28.6 L75.8,28.6 Z" id="Shape"></path>
        <path d="M76.8,0.9 C76.6,0.7 76.3,0.6 75.9,0.6 L25.6,0.6 C25.3,0.6 24.9,0.7 24.7,0.9 C24.4,1.1 24.3,1.4 24.3,1.7 L24.3,25.3 L75.9,25.3 C76.2,25.3 76.6,25.2 76.8,25 C77,24.8 77.2,24.5 77.2,24.2 L77.2,1.7 C77.2,1.4 77.1,1.1 76.8,0.9 Z M73.5,21.6 L28,21.6 L28,4.2 L73.4,4.2 L73.4,21.6 L73.5,21.6 Z" id="Shape"></path>
        <path d="M2.1,25.3 L20.8,25.3 L20.8,8.4 C20.8,8.1 20.7,7.7 20.4,7.5 C20.2,7.3 19.9,7.1 19.5,7.1 L7.6,7.1 C7.1,7.1 6.6,7.4 6.4,7.9 L1,23.7 C0.9,24.1 0.9,24.5 1.2,24.8 C1.3,25.1 1.7,25.3 2.1,25.3 L2.1,25.3 Z" id="Shape"></path>
      </g>
    </g>
  </g>
</svg>
