<?xml version="1.0" encoding="UTF-8"?>
<svg width="48px" height="48px" viewBox="0 0 48 48" version="1.1" xmlns="http://www.w3.org/2000/svg">
  <!-- Generator: Sketch 41.2 (35397) - http://www.bohemiancoding.com/sketch -->
  <title>tts_1</title>
  <desc>Created with Sketch.</desc>
  <defs></defs>
  <g id="Page-1" stroke="none" stroke-width="1" fill="none" fill-rule="evenodd">
    <g id="tts_1" fill="#000000">
      <g id="Layer_1">
        <path d="M48,23.6 C48,10.7 37,0.1 23.8,0.1 C10.7,2.08166817e-16 0.2,10.7 0.2,23.6 C0.2,26.2 0.7,28.8 1.7,31.2 C0.7,32.7 0.2,34.6 0.2,36.7 L0.2,37.2 C0.2,43 5,47.7 10.7,47.7 L13.3,47.7 L13.3,26.2 L10.7,26.2 C9.2,26.2 7.6,26.5 6.2,27.2 C5.9,26.2 5.3,25.1 5.3,24.1 C5.2,13.5 13.1,5 23.4,5 C33.9,5 42.3,13.4 42.3,24.1 C42.3,25.1 42,26.2 41.6,27.2 C40.2,26.7 38.8,26.3 37.3,26.3 L34.9,26.3 L34.9,48 L37.3,48 C43.1,48 47.8,43.2 47.8,37.5 L47.8,37 C47.8,35.1 47.3,33.4 46.4,31.8 C47.3,29 48,26.4 48,23.6 Z" id="Shape"></path>
      </g>
    </g>
  </g>
</svg>
