<?xml version="1.0" encoding="UTF-8"?>
<svg width="51px" height="48px" viewBox="0 0 51 48" version="1.1" xmlns="http://www.w3.org/2000/svg">
  <!-- Generator: Sketch 41.2 (35397) - http://www.bohemiancoding.com/sketch -->
  <title>user_1</title>
  <desc>Created with Sketch.</desc>
  <defs></defs>
  <g id="Page-1" stroke="none" stroke-width="1" fill="none" fill-rule="evenodd">
    <g id="user_1" fill="#000000">
      <g id="레이어_1">
        <path d="M39.4,35.9 C32.8,33.5 30.7,31.5 30.7,27.2 C30.7,24.6 32.7,25.4 33.6,20.7 C34,18.7 35.7,20.7 36.1,16.2 C36.1,14.4 35.1,14 35.1,14 C35.1,14 35.6,11.3 35.8,9.3 C36,6.6 34.3,0 25.2,0 C16.1,0 14.4,6.6 14.6,9.1 C14.8,11.1 15.3,13.8 15.3,13.8 C15.3,13.8 14.3,14.2 14.3,16 C14.6,20.5 16.4,18.6 16.8,20.5 C17.7,25.3 19.7,24.4 19.7,27 C19.7,31.3 17.6,33.4 11,35.7 C4.4,38.1 0.1,40.6 0.1,42.2 L0.1,47.8 L50.2,47.8 L50.2,42.2 C50.2,40.5 46,38.3 39.4,35.9 L39.4,35.9 Z" id="Shape"></path>
      </g>
    </g>
  </g>
</svg>
