<?xml version="1.0" encoding="UTF-8"?>
<svg width="48px" height="48px" viewBox="0 0 48 48" version="1.1" xmlns="http://www.w3.org/2000/svg">
  <!-- Generator: Sketch 41.2 (35397) - http://www.bohemiancoding.com/sketch -->
  <title>user_add</title>
  <desc>Created with Sketch.</desc>
  <defs></defs>
  <g id="Page-1" stroke="none" stroke-width="1" fill="none" fill-rule="evenodd">
    <g id="user_add" fill="#000000">
      <g id="레이어_1">
        <g id="Layer_5">
          <path d="M29.1,39 C24.2,37.2 22.7,35.7 22.7,32.5 C22.7,30.6 24.2,31.2 24.8,27.7 C25.1,26.2 26.4,27.7 26.6,24.3 C26.6,23 25.9,22.6 25.9,22.6 C25.9,22.6 26.3,20.6 26.4,19.1 C26.6,17.2 25.3,12.3 18.6,12.3 C11.9,12.3 10.6,17.2 10.8,19.1 C10.9,20.6 11.3,22.6 11.3,22.6 C11.3,22.6 10.5,23 10.5,24.4 C10.7,27.7 12.1,26.3 12.3,27.8 C13,31.3 14.4,30.7 14.4,32.6 C14.4,35.8 12.8,37.3 8,39.1 C3.2,40.8 0,42.6 0,43.8 L0,48 L37.1,48 L37.1,43.8 C37.1,42.6 33.9,40.8 29.1,39 L29.1,39 Z" id="Shape"></path>
          <polygon id="Shape" points="40.3 20.4 40.3 12.7 48 12.7 48 7.7 40.3 7.7 40.3 0 35.3 0 35.3 7.7 27.6 7.7 27.6 12.7 35.3 12.7 35.3 20.4"></polygon>
        </g>
      </g>
    </g>
  </g>
</svg>
