<?xml version="1.0" encoding="UTF-8"?>
<svg width="40px" height="48px" viewBox="0 0 40 48" version="1.1" xmlns="http://www.w3.org/2000/svg">
  <!-- Generator: Sketch 41.2 (35397) - http://www.bohemiancoding.com/sketch -->
  <title>zen</title>
  <desc>Created with Sketch.</desc>
  <defs></defs>
  <g id="Page-1" stroke="none" stroke-width="1" fill="none" fill-rule="evenodd">
    <g id="zen" fill="#444444">
      <g id="레이어_1">
        <path d="M28.4,36.7 C28.4,36.7 32,36.3 35.2,37.8 C38.3,39.3 39.9,39.4 39.9,44.2 C39.9,46.8 39.5,48 36.4,48 C33.3,48 28,48.2 27.1,46.4 C25.7,43.6 24.5,43.3 20,43.3 C20,43.3 20,43.3 20,43.2 L20,43.3 C15.4,43.3 14.3,43.6 12.9,46.4 C12,48.2 6.7,48 3.6,48 C0.5,48 0.1,46.7 0.1,44.2 C0.1,39.4 1.7,39.3 4.8,37.8 C7.9,36.3 11.6,36.7 11.6,36.7 C12.2,36.7 12.6,36.6 13.2,36.2 C14.7,34.2 14.5,30.9 14.5,30.9 L9.4,32.5 C7.6,33.6 5.6,32.2 5.6,32.2 C4.1,29.8 5.2,28.6 5.2,28.6 L11.4,17.5 C12.7,15.7 18,15.1 18,15.1 L18,12.6 C14.9,11.5 14.7,9.3 14.7,6.4 C14.7,3.5 16,0 20,0 L20,0 L20,0 C24,0 25.3,3.5 25.3,6.4 C25.3,9.3 25.1,11.5 22,12.6 L22,15.2 C22,15.2 27.3,15.7 28.6,17.6 L34.8,28.7 C34.8,28.7 35.9,29.9 34.4,32.3 C34.4,32.3 32.4,33.7 30.6,32.6 L25.5,31 C25.5,31 25.3,34.3 26.8,36.3 C27.4,36.6 27.8,36.7 28.4,36.7 L28.4,36.7 Z M14,22.8 C11.4,25 9.7,28.5 9.7,28.5 L14.2,28.1 L14,22.8 Z M30.3,28.5 C30.3,28.5 28.6,25 26,22.8 L25.8,28.1 L30.3,28.5 Z" id="Shape"></path>
      </g>
    </g>
  </g>
</svg>
