<svg xmlns="http://www.w3.org/2000/svg" viewBox="0 0 166 18"><path fill="#0F1724" fill-rule="evenodd" d="M159.223 13.62h-2.104V7.55c0-.754-.142-1.316-.428-1.687-.285-.37-.73-.556-1.337-.556-.809 0-1.402.262-1.779.788-.377.525-.566 1.399-.566 2.621v4.905h-2.095V3.774h1.64l.294 1.291h.107a2.73 2.73 0 0 1 1.19-1.086 3.845 3.845 0 0 1 1.717-.383c1.516 0 2.52.517 3.014 1.55h.142a3.004 3.004 0 0 1 1.23-1.14c.53-.273 1.136-.41 1.82-.41 1.177 0 2.034.297 2.572.89.538.594.807 1.5.807 2.716v6.418h-2.095V7.55c0-.754-.145-1.316-.433-1.687-.288-.37-.735-.556-1.342-.556-.814 0-1.41.253-1.787.76-.378.508-.567 1.287-.567 2.338v5.216zm-14.907-8.439c-.666 0-1.2.21-1.6.632-.402.422-.641 1.036-.718 1.843h4.475c-.011-.813-.208-1.429-.588-1.847-.38-.419-.904-.628-1.57-.628zm.383 8.617c-1.533 0-2.733-.446-3.597-1.34-.865-.893-1.298-2.123-1.298-3.69 0-1.608.402-2.872 1.204-3.792.802-.92 1.905-1.38 3.308-1.38 1.301 0 2.33.395 3.085 1.184.755.79 1.132 1.876 1.132 3.259v1.13h-6.571c.03.956.288 1.69.776 2.203.487.514 1.173.77 2.06.77a7.61 7.61 0 0 0 1.626-.164 8.531 8.531 0 0 0 1.619-.548v1.7a6.437 6.437 0 0 1-1.552.517c-.523.1-1.12.151-1.792.151zm-7.81-1.691c.51 0 1.022-.08 1.533-.24v1.575c-.232.101-.53.186-.896.254a6.19 6.19 0 0 1-1.137.102c-1.985 0-2.978-1.044-2.978-3.133V5.359h-1.346v-.926l1.444-.765.714-2.083h1.293v2.19h2.808v1.584h-2.808v5.27c0 .505.126.877.378 1.117.253.24.585.36.995.36zm-5.938-1.291c0 .962-.351 1.699-1.053 2.212-.701.514-1.706.77-3.013.77-1.314 0-2.369-.199-3.165-.596v-1.807c1.159.534 2.238.8 3.236.8 1.29 0 1.935-.388 1.935-1.165a.923.923 0 0 0-.214-.623c-.143-.167-.378-.339-.704-.517-.327-.178-.782-.38-1.365-.605-1.135-.44-1.903-.878-2.304-1.318-.402-.439-.602-1.008-.602-1.709 0-.842.34-1.497 1.02-1.963.681-.466 1.607-.699 2.778-.699 1.16 0 2.256.235 3.29.704l-.678 1.575c-1.064-.439-1.958-.658-2.683-.658-1.106 0-1.659.314-1.659.943 0 .309.144.57.433.784.288.213.917.507 1.886.88.814.316 1.405.603 1.774.864.368.262.642.563.82.904.178.341.268.75.268 1.224zm-17.913-7.042h2.283l2.006 5.582c.303.795.505 1.543.606 2.243h.071c.054-.326.152-.722.295-1.188.142-.466.897-2.678 2.264-6.637h2.265l-4.217 11.155c-.767 2.047-2.045 3.071-3.834 3.071-.464 0-.916-.05-1.355-.151v-1.656c.314.071.674.107 1.078.107 1.01 0 1.721-.585 2.131-1.754l.366-.926-3.959-9.846zm-.802 6.312c0 1.157-.42 2.065-1.257 2.724-.839.659-1.995.988-3.469.988-1.474 0-2.68-.228-3.62-.685V11.1a9.85 9.85 0 0 0 1.895.659c.669.16 1.291.24 1.868.24.844 0 1.467-.16 1.868-.48.401-.321.602-.751.602-1.291 0-.487-.185-.9-.553-1.238-.369-.338-1.13-.739-2.283-1.202-1.189-.48-2.027-1.03-2.514-1.647-.488-.617-.731-1.358-.731-2.225 0-1.086.386-1.94 1.159-2.564.773-.623 1.81-.935 3.112-.935 1.248 0 2.49.273 3.727.82l-.678 1.735c-1.16-.486-2.193-.73-3.103-.73-.69 0-1.212.15-1.569.45-.357.3-.535.696-.535 1.188 0 .339.071.628.214.868.143.24.377.468.704.681.327.214.916.496 1.766.846.957.398 1.658.769 2.104 1.113.446.344.773.733.98 1.166.209.433.313.944.313 1.531zM96.838 13.62h-2.105V7.567c0-.76-.153-1.327-.459-1.7-.306-.374-.792-.561-1.457-.561-.886 0-1.534.26-1.944.783-.41.522-.615 1.398-.615 2.626v4.905h-2.096V3.774h1.64l.295 1.291h.107c.297-.468.72-.83 1.266-1.086a4.25 4.25 0 0 1 1.82-.383c2.365 0 3.548 1.202 3.548 3.606v6.418zM79.487 6.961c0 .618.159 1.092.477 1.425.318.332.774.498 1.369.498 1.212 0 1.818-.646 1.818-1.94 0-.641-.15-1.135-.45-1.483-.3-.347-.756-.52-1.368-.52-.607 0-1.066.172-1.378.516-.312.344-.468.846-.468 1.504zm-.9 8.19c0 .451.203.798.61 1.042.407.243.98.365 1.717.365 1.14 0 1.99-.163 2.55-.49.558-.326.838-.76.838-1.3 0-.427-.153-.731-.46-.912-.306-.181-.875-.271-1.707-.271h-1.587c-.6 0-1.077.14-1.431.422-.354.282-.53.664-.53 1.144zm7.748-11.377v1.149l-1.686.311c.155.208.283.463.384.766.1.303.151.623.151.961 0 1.015-.35 1.814-1.052 2.395-.701.582-1.667.873-2.897.873a4.7 4.7 0 0 1-.856-.072c-.452.28-.678.606-.678.98 0 .225.105.394.317.507.21.113.598.169 1.163.169h1.72c1.089 0 1.915.232 2.48.694.564.463.847 1.131.847 2.003 0 1.116-.461 1.977-1.382 2.582-.922.605-2.253.908-3.995.908-1.343 0-2.369-.237-3.076-.712-.707-.475-1.06-1.152-1.06-2.03 0-.605.19-1.114.574-1.526.384-.413.92-.7 1.61-.86-.28-.118-.51-.31-.691-.574a1.447 1.447 0 0 1-.272-.832c0-.368.104-.68.312-.935.208-.255.517-.507.927-.757a2.744 2.744 0 0 1-1.244-1.072c-.318-.496-.477-1.076-.477-1.74 0-1.069.337-1.897 1.012-2.484.675-.588 1.636-.882 2.885-.882.279 0 .571.02.878.058.306.039.536.08.69.12h3.416zm-13.42 9.846V3.774h2.096v9.846h-2.095zm-.124-12.454c0-.374.103-.661.308-.863.205-.202.497-.303.878-.303.368 0 .655.101.86.303.205.202.308.49.308.863 0 .356-.103.637-.308.841-.205.205-.492.308-.86.308-.38 0-.673-.103-.878-.308-.205-.204-.308-.485-.308-.84zm-2.14 9.65c0 .962-.35 1.699-1.052 2.212-.701.514-1.706.77-3.014.77-1.313 0-2.368-.199-3.165-.596v-1.807c1.16.534 2.238.8 3.237.8 1.29 0 1.935-.388 1.935-1.165a.923.923 0 0 0-.214-.623c-.143-.167-.378-.339-.705-.517-.327-.178-.781-.38-1.364-.605-1.135-.44-1.904-.878-2.305-1.318-.401-.439-.602-1.008-.602-1.709 0-.842.34-1.497 1.021-1.963.68-.466 1.607-.699 2.778-.699 1.159 0 2.255.235 3.29.704l-.678 1.575c-1.064-.439-1.958-.658-2.684-.658-1.105 0-1.658.314-1.658.943 0 .309.144.57.432.784.289.213.917.507 1.886.88.814.316 1.406.603 1.774.864.369.262.642.563.82.904.179.341.268.75.268 1.224zM57.43 5.181c-.666 0-1.2.21-1.6.632-.402.422-.641 1.036-.718 1.843h4.475c-.012-.813-.208-1.429-.588-1.847-.38-.419-.904-.628-1.57-.628zm.383 8.617c-1.534 0-2.733-.446-3.598-1.34-.864-.893-1.297-2.123-1.297-3.69 0-1.608.401-2.872 1.204-3.792.802-.92 1.905-1.38 3.308-1.38 1.301 0 2.33.395 3.085 1.184.754.79 1.132 1.876 1.132 3.259v1.13h-6.571c.03.956.288 1.69.776 2.203.487.514 1.173.77 2.06.77.582 0 1.124-.054 1.626-.164a8.532 8.532 0 0 0 1.619-.548v1.7a6.439 6.439 0 0 1-1.552.517c-.523.1-1.12.151-1.792.151zm-9.13-6.739c0-3.115-1.46-4.673-4.378-4.673H42.46v9.445h1.515c3.139 0 4.708-1.59 4.708-4.772zm2.247-.07c0 2.148-.597 3.79-1.792 4.926-1.195 1.137-2.916 1.705-5.163 1.705h-3.646V.605h4.03c2.074 0 3.688.558 4.841 1.674 1.153 1.116 1.73 2.685 1.73 4.71zM.444 14.13c-.323 0-.444-.121-.444-.447V.793C0 .467.12.346.444.346h4.352c1.871 0 3.24.367 4.067 1.09.817.714 1.232 1.996 1.232 3.808 0 2.012-.718 3.376-2.132 4.056l-.074.035-.148.072.076.145 2.145 4.082c.084.16.105.29.063.387-.014.03-.048.109-.275.109H7.063c-.352 0-.584-.138-.73-.43l-1.765-3.69-.043-.09h-.988V13.684c0 .326-.12.447-.446.447H.444zm3.093-7.175v.159H4.756c.645 0 1.103-.153 1.363-.455.255-.296.379-.759.379-1.415 0-.699-.126-1.177-.383-1.46-.263-.289-.707-.43-1.359-.43H3.537v3.601zm26.817 6.728V.793c0-.325.12-.447.445-.447h2.668c.324 0 .444.122.444.447v12.89c0 .326-.12.447-.444.447h-2.668c-.324 0-.445-.121-.445-.447zm-18.176 0V.793c0-.325.12-.447.445-.447h2.667c.325 0 .445.122.445.447v12.89c0 .326-.12.447-.445.447h-2.667c-.325 0-.445-.121-.445-.447zm6.301.447c-.324 0-.444-.121-.444-.447V.793c0-.325.12-.447.444-.447h3.91c2.047 0 3.55.52 4.468 1.543.924 1.03 1.393 2.83 1.393 5.35 0 2.518-.465 4.318-1.384 5.35-.91 1.022-2.403 1.541-4.436 1.541H18.48zm3.112-3.247v.158h.739c.858 0 1.471-.28 1.824-.835.335-.527.499-1.498.499-2.968 0-1.471-.17-2.443-.521-2.971-.367-.552-.986-.832-1.842-.832H21.591V10.883z"/></svg>
