<svg xmlns="http://www.w3.org/2000/svg" viewBox="0 0 24 24"><path d="M14 4a8 8 0 11-2 15.748l-.254.06A8 8 0 012 12a8 8 0 018-8c.714 0 2 .252 2 .252A8.055 8.055 0 0114 4zm-1.92 15.727h-.006l-.074.021.08-.021zM10 6a6 6 0 10.001 12 6 6 0 000-12zm5.497.188l.077.074A7.98 7.98 0 0118 12c0 2.92-2.503 5.812-2.503 5.812A6.005 6.005 0 0020 12a6.005 6.005 0 00-4.503-5.813zM7.5 8.6h2.535c.485 0 .915.099 1.29.296a2.1 2.1 0 01.867.84c.205.365.308.778.308 1.239 0 .683-.222 1.228-.666 1.637-.398.368-.931.57-1.598.607l-.228.006h-.977V15.6h-1.53v-7h2.534zm2.552 1.303h-1.02v2.019h1.003c.296 0 .522-.081.678-.245.156-.163.233-.394.233-.692 0-.327-.08-.588-.239-.784a.817.817 0 00-.655-.298z"/></svg>