<svg xmlns="http://www.w3.org/2000/svg" viewBox="0 0 24 24"><path d="M16.5 19.323l1.55 1.55a4.016 4.016 0 01-.747.118l-.258.008H16.5v-1.676zM4.345 7.173l1.394 1.393a7.605 7.605 0 00-.818 3.553c0 .385.225.807.338 1.193.452-.232.96-.35 1.451-.395l.245-.018H7.5V21h-.545C4.807 21 3 19.31 3 17.08c0-.808.188-1.653.564-2.23A7.76 7.76 0 013 11.927c0-1.748.492-3.379 1.345-4.755zM4.412 3l16.556 16.55-1.41 1.41L3.002 4.41 4.412 3zm7.475 0h.226C17.044 2.96 21 6.967 21 11.926a7.76 7.76 0 01-.564 2.922c.376.577.564 1.422.564 2.23 0 .336-.041.66-.118.968l-4.382-4.38v-.768h.545c.566.027 1.169.143 1.696.413.113-.386.338-.808.338-1.193.037-3.991-2.816-7.106-6.579-7.232l-.236-.004h-.528a6.69 6.69 0 00-3.216.807L7.163 4.334a8.71 8.71 0 014.378-1.33L11.887 3h.226z"/></svg>