<svg viewBox="0 0 48 48" xmlns="http://www.w3.org/2000/svg" class="ridi_icon"><path d="M13.8 18.5c0 .6-.1 1.1-.4 1.4-.3.3-.7.4-1.3.4h-1.2v-3.6h1.2c.6 0 1.1.1 1.3.4.3.3.4.7.4 1.4m3.5 0c0-1.8-.4-3-1.2-3.7-.8-.7-2.1-1-3.9-1H8c-.3 0-.4.1-.4.4v12.5c0 .3.1.4.4.4h2.6c.3 0 .4-.1.4-.4V23h1v.1l1.7 3.6c.1.3.3.4.7.4H17c.2 0 .3-.1.3-.1 0-.1 0-.2-.1-.4l-2.1-4H15l.1-.1h.1c1.4-.7 2.1-2 2.1-4m5.5 8.2V14.2c0-.3-.1-.4-.4-.4h-2.6c-.3 0-.4.1-.4.4v12.5c0 .3.1.4.4.4h2.6c.3 0 .4-.1.4-.4m8.7-6.2c0 1.4-.2 2.4-.5 2.9s-.9.8-1.8.8h-.8v-7.4h.7c.9 0 1.5.2 1.9.8.3.5.5 1.4.5 2.9m2.2 5.2c.9-1 1.3-2.7 1.3-5.2s-.5-4.2-1.4-5.2c-.9-1-2.4-1.5-4.4-1.5h-3.8c-.3 0-.4.1-.4.4v12.5c0 .3.1.4.4.4h3.9c2 0 3.5-.5 4.4-1.4m6.8 1V14.2c0-.3-.1-.4-.4-.4h-2.6c-.3 0-.4.1-.4.4v12.5c0 .3.1.4.4.4h2.6c.3 0 .4-.1.4-.4m0 5.8V31c0-.3-.1-.4-.4-.4h-2.8c-1.7 0-7 0-9.1.4-1.6.3-3.1 1-4.1 1.9l-.1.2-.1-.1c-1.1-1-2.5-1.6-4.1-1.9-2-.4-9-.4-9.1-.4H7.9c-.3 0-.4.1-.4.4v1.5c0 .3.1.4.4.4H11c.8 0 7 0 8.4.4 2.3.5 3.5 2.2 3.8 2.6h1.7c.3-.4 1.5-2 3.8-2.6 1.4-.3 7.6-.4 8.6-.4h2.8c.3-.1.4-.2.4-.5"/><path d="M39.7 0H8.3C3.7 0 0 3.7 0 8.3v31.3c0 4.7 3.7 8.3 8.3 8.3h31.3c4.7 0 8.3-3.7 8.3-8.3V8.3C48 3.7 44.3 0 39.7 0zm4.5 39.7c0 2.5-2 4.5-4.5 4.5H8.3c-2.5 0-4.5-2-4.5-4.5V8.3c0-2.5 2-4.5 4.5-4.5h31.3c2.5 0 4.5 2 4.5 4.5v31.4h.1z"/></svg>