<svg viewBox="0 0 48 48" xmlns="http://www.w3.org/2000/svg" class="ridi_icon"><path d="M12.6 20.5c.6 0 1-.1 1.3-.4.2-.3.4-.7.4-1.3 0-.7-.1-1.1-.4-1.4-.3-.3-.7-.4-1.3-.4h-1.2v3.4h.1c.1.1 1.1.1 1.1.1zM29 24.1c.8 0 1.4-.3 1.7-.8.3-.5.5-1.4.5-2.8s-.2-2.3-.5-2.8-.9-.8-1.7-.8h-.6v7.2h.6z"/><path d="M41.6 0H6.4C2.9 0 0 2.9 0 6.4v35.2C0 45.1 2.9 48 6.4 48h35.2c3.5 0 6.4-2.9 6.4-6.4V6.4C48 2.9 45.1 0 41.6 0zM25 14.6c0-.3.1-.4.4-.4h3.7c1.9 0 3.3.5 4.2 1.4.9 1 1.3 2.6 1.3 5s-.4 4-1.3 5-2.2 1.4-4.1 1.4h-3.7c-.3 0-.4-.1-.4-.4v-12H25zm-5.5 0c0-.3.1-.4.4-.4h2.5c.3 0 .4.1.4.4v12c0 .3-.1.4-.4.4h-2.5c-.3 0-.4-.1-.4-.4v-12zm-11.4 0c0-.3.1-.4.4-.4h4.1c1.8 0 3 .3 3.8 1 .8.7 1.2 1.9 1.2 3.5 0 1.9-.7 3.1-2 3.8h-.1l-.1.1.1.1 2 3.8c.1.1.1.3.1.4 0 0 0 .1-.3.1h-2.5c-.3 0-.5-.1-.7-.4l-1.7-3.4v-.1h-1v3.5c0 .3-.1.4-.4.4H8.6c-.3 0-.4-.1-.4-.4-.1 0-.1-12-.1-12zm31.8 17.6c0 .3-.1.4-.4.4h-2.7c-1 0-6.9 0-8.3.4-2.2.5-3.4 2.1-3.6 2.5h-1.6c-.2-.4-1.4-1.9-3.6-2.5-1.4-.3-7.3-.4-8.1-.4H8.5c-.3 0-.4-.1-.4-.4v-1.4c0-.3.1-.4.4-.4h2.7s6.8 0 8.7.4c1.6.3 2.9.9 3.9 1.9l.1.1.1-.1c1-.9 2.4-1.6 3.9-1.9 2-.4 7.1-.4 8.7-.4h2.7c.3 0 .4.1.4.4l.2 1.4zm0-5.6c0 .3-.1.4-.4.4H37c-.3 0-.4-.1-.4-.4v-12c0-.3.1-.4.4-.4h2.5c.3 0 .4.1.4.4v12z"/></svg>