<?xml version="1.0" encoding="UTF-8"?>
<svg width="48px" height="29px" viewBox="0 0 48 29" version="1.1" xmlns="http://www.w3.org/2000/svg">
  <!-- Generator: Sketch 41.2 (35397) - http://www.bohemiancoding.com/sketch -->
  <title>arrow_2_up</title>
  <desc>Created with Sketch.</desc>
  <defs></defs>
  <g id="Page-1" stroke="none" stroke-width="1" fill="none" fill-rule="evenodd">
    <g id="arrow_2_up" transform="translate(-1.000000, 0.000000)" fill="#000000">
      <g id="레이어_1">
        <path d="M47.7,20.4 C46,18.7 28.3,1.8 28.3,1.8 C27.4,0.9 26.2,0.4 25,0.4 C23.8,0.4 22.6,0.9 21.7,1.8 C21.7,1.8 4,18.7 2.3,20.4 C0.6,22.1 0.5,25.2 2.3,27.1 C4.1,28.9 6.6,29.1 8.8,27.1 L25,11.6 L41.2,27.1 C43.4,29.1 45.9,28.9 47.7,27.1 C49.5,25.2 49.4,22.1 47.7,20.4 L47.7,20.4 Z" id="Shape"></path>
      </g>
    </g>
  </g>
</svg>
