<?xml version="1.0" encoding="UTF-8"?>
<svg width="48px" height="48px" viewBox="0 0 48 48" version="1.1" xmlns="http://www.w3.org/2000/svg">
  <!-- Generator: Sketch 41.2 (35397) - http://www.bohemiancoding.com/sketch -->
  <title>arrow_6_left</title>
  <desc>Created with Sketch.</desc>
  <defs></defs>
  <g id="Page-1" stroke="none" stroke-width="1" fill="none" fill-rule="evenodd">
    <g id="arrow_6_left" fill="#000000">
      <g id="레이어_1">
        <path d="M48,24 C48,10.7 37.3,0 24,0 C10.7,0 0,10.7 0,24 C0,37.3 10.7,48 24,48 C37.3,48 48,37.3 48,24 Z M24.6,34.4 L16.9,26.7 C16.7,26.6 16.6,26.5 16.4,26.3 C15.6,25.5 15.4,24.4 15.7,23.5 C15.8,23 16,22.6 16.4,22.2 C16.5,22.1 16.6,22 16.7,21.9 L24.5,14.1 C25.6,13 27.4,13 28.5,14.1 C29.6,15.2 29.6,17 28.5,18.1 L22.4,24.2 L28.6,30.4 C29.7,31.5 29.7,33.3 28.6,34.4 C27.5,35.5 25.7,35.5 24.6,34.4 L24.6,34.4 Z" id="Shape"></path>
      </g>
    </g>
  </g>
</svg>
