<svg viewBox="0 0 48 48" xmlns="http://www.w3.org/2000/svg" class="ridi_icon"><path d="M27.1 15.5L16.2 22c-1.7 1.1-1.7 2.9 0 4l10.9 6.6c1.7 1.1 3.1.6 3.1-1.1V16.4c0-1.6-1.4-2.1-3.1-.9zM24 0C10.7 0 0 10.7 0 24s10.7 24 24 24 24-10.7 24-24S37.3 0 24 0zm16.8 35.4c-.7 1.1-1.6 2.1-2.5 3-.9.9-1.9 1.8-3 2.5s-2.2 1.4-3.4 1.9c-2.5 1.1-5.2 1.6-7.9 1.6s-5.4-.5-7.9-1.6c-1.2-.5-2.4-1.1-3.5-1.9-1.1-.7-2.1-1.6-3-2.5-.9-.9-1.8-1.9-2.5-3s-1.4-2.2-1.9-3.5c-1.1-2.5-1.6-5.2-1.6-7.9s.5-5.4 1.6-7.9c.5-1.2 1.1-2.4 1.9-3.5.7-1.1 1.6-2.1 2.5-3 .9-.9 1.9-1.8 3-2.5s2.2-1.4 3.5-1.9c2.5-1.1 5.2-1.6 7.9-1.6s5.4.5 7.9 1.6c1.2.5 2.4 1.1 3.4 1.9 1.1.7 2.1 1.6 3 2.5.9.9 1.8 1.9 2.5 3s1.4 2.2 1.9 3.5c1.1 2.5 1.6 5.2 1.6 7.9s-.5 5.4-1.6 7.9c-.5 1.2-1.1 2.4-1.9 3.5z"/></svg>