<svg xmlns="http://www.w3.org/2000/svg" viewBox="0 0 48 48"><path d="M31.8 22L21 15.4c-1.8-1-3-.6-3 1v15.1c0 1.7 1.3 2.1 3 1.1L31.8 26c1.6-1.1 1.6-2.9 0-4zM24 0C10.8 0 0 10.8 0 24s10.8 24 24 24 24-10.8 24-24S37.2 0 24 0zm16.8 35.4c-.8 1-1.5 2.1-2.6 3-.9.9-1.9 1.8-3 2.5s-2.2 1.4-3.4 1.8c-2.6 1-5.1 1.6-8 1.6-2.9 0-5.4-.6-7.9-1.6-1.2-.5-2.4-1.2-3.5-1.8-1-.8-2.1-1.5-3-2.5-.9-.9-1.8-2-2.5-3-.8-1.1-1.4-2.2-1.8-3.5-1-2.5-1.7-5.1-1.7-8 0-2.9.6-5.4 1.6-8 .5-1.2 1.2-2.4 1.8-3.4.8-1 1.5-2.1 2.5-3 .9-.9 2-1.8 3-2.5s2.2-1.4 3.5-1.8c2.6-1 5.1-1.7 7.9-1.7 2.7 0 5.4.6 8 1.6 1.3.6 2.5 1.3 3.5 1.9 1.1.8 2.1 1.5 3 2.5.9.9 1.8 2 2.6 3s1.3 2.2 1.8 3.4c1 2.6 1.7 5.1 1.7 8 0 2.9-.6 5.4-1.7 7.9-.4 1.4-1 2.4-1.8 3.6z"/></svg>