<?xml version="1.0" encoding="UTF-8"?>
<svg width="29px" height="48px" viewBox="0 0 29 48" version="1.1" xmlns="http://www.w3.org/2000/svg">
  <!-- Generator: Sketch 41.2 (35397) - http://www.bohemiancoding.com/sketch -->
  <title>arrow_2_right</title>
  <desc>Created with Sketch.</desc>
  <defs></defs>
  <g id="Page-1" stroke="none" stroke-width="1" fill="none" fill-rule="evenodd">
    <g id="arrow_2_right" transform="translate(-1.000000, -1.000000)" fill="#000000">
      <g id="레이어_1">
        <path d="M9.1,47.7 C10.8,46 27.7,28.3 27.7,28.3 C28.6,27.4 29.1,26.2 29.1,25 C29.1,23.8 28.6,22.6 27.7,21.7 C27.7,21.7 10.8,4 9.1,2.3 C7.4,0.6 4.3,0.5 2.4,2.3 C0.6,4.1 0.4,6.6 2.4,8.8 L17.9,25 L2.4,41.2 C0.4,43.4 0.6,45.9 2.4,47.7 C4.3,49.5 7.4,49.4 9.1,47.7 L9.1,47.7 Z" id="Shape"></path>
      </g>
    </g>
  </g>
</svg>
