<svg viewBox="0 0 94 36" xmlns="http://www.w3.org/2000/svg" class="ridi_icon"><path d="M29.2 19.5h-2.7l-.8 3.7h2.7c.6 0 1-.2 1.4-.4.6-.4 1.2-1.2 1.2-1.9s-.6-1.4-1.8-1.4zM76.8 13s-.8 1.9-1.4 3.1l-1.7 3.5h3.7l-.4-3.5c-.2-1-.2-3.1-.2-3.1zm-46.6-.2h-2.3l-.6 3.3h2.3c1.4 0 1.9-1 1.9-1.9 0-.9-.4-1.4-1.3-1.4z"/><path d="M90.4 0h-77c-1.5 0-3.1 1.4-3.1 2.9v8.9L.6 18l9.7 6v8.9c0 1.7 1.4 3.1 3.1 3.1h77c1.7 0 3.1-1.4 3.1-3.1v-30c0-1.5-1.4-2.9-3.1-2.9zM35.6 21.1c0 2.9-1.9 4.8-4.5 5.6-1 .4-1.9.4-2.9.4h-7.7l3.7-18.2H30c1.2 0 2.3.2 3.3.4 1.9.6 2.9 2.1 2.9 3.9 0 1.8-1 3.5-2.9 4.3 1.5.7 2.3 2 2.3 3.6zm15.9-8.3h-7.2l-.6 3.3h5.6l-.8 3.9h-5.6l-.6 3.5h7.4l-.8 3.9h-12l3.7-18.3h11.6l-.7 3.7zm8.9 14.3h-4.5l2.9-14.3h-5.6l.8-3.9h15.7l-.8 3.9h-5.6l-2.9 14.3zm17.6 0l-.4-3.9h-5.8l-1.9 3.9H65l9.7-18.2h5.2l2.5 18.2H78z"/></svg>