<svg xmlns="http://www.w3.org/2000/svg" viewBox="0 0 59 49"><path d="M47.4 37.8V26.6c6.2-1.2 10.7-6.6 10.7-12.9C58.1 6.5 52.1.6 45 .6s-13.1 6-13.1 13.1c0 6.3 4.5 11.7 10.7 12.9v11.1L36.9 32l-4.2 4.2L45 48.5l12.3-12.3-3.9-4.4-6 6zm-9.5-24.2c0-3.9 3.2-7.2 7.2-7.2s7.2 3.2 7.2 7.2-3.3 7.2-7.3 7.2-7.1-3.1-7.1-7.2zm-21.5 8.6V11.1l5.7 5.7 4.2-4.2L14 .5 1.7 12.8 5.6 17l6-6v11.1C5.4 23.3.9 28.7.9 35c0 7.2 6 13.1 13.1 13.1s13.1-6 13.1-13.1c0-6.2-4.5-11.6-10.7-12.8zM14 42.3c-3.9 0-7.2-3.2-7.2-7.2S10 28 14 28s7.2 3.2 7.2 7.2-3.3 7.1-7.2 7.1z"/></svg>