<?xml version="1.0" encoding="UTF-8"?>
<svg width="38px" height="48px" viewBox="0 0 38 48" version="1.1" xmlns="http://www.w3.org/2000/svg">
  <!-- Generator: Sketch 41.2 (35397) - http://www.bohemiancoding.com/sketch -->
  <title>book_6</title>
  <desc>Created with Sketch.</desc>
  <defs></defs>
  <g id="Page-1" stroke="none" stroke-width="1" fill="none" fill-rule="evenodd">
    <g id="book_6" fill="#000000">
      <g id="Layer_1">
        <path d="M6.7,4.4 L37.4,4.4 L37.4,0 L6.7,0 C3.3,0 0.6,2.7 0.6,6.1 L0.6,6.6 L0.6,6.6 L0.6,39.3 L0.6,41.5 L0.6,42.3 L0.6,42.3 C0.9,45.5 3.8,48 7.2,48 L37,48 L37,48 L37.3,48 L37.3,7.8 L6.7,7.8 C5.9,7.8 5,7.1 5,6.1 C5,5.1 5.9,4.4 6.7,4.4 Z M6.7,12 L33.2,12 L33.2,43.5 L7.2,43.5 C6,43.5 5,42.5 5,41.3 L5,39.3 L5,11.8 C5.5,12 6.2,12 6.7,12 Z" id="Shape"></path>
      </g>
    </g>
  </g>
</svg>
