<?xml version="1.0" encoding="UTF-8"?>
<svg width="60px" height="48px" viewBox="0 0 60 48" version="1.1" xmlns="http://www.w3.org/2000/svg">
  <!-- Generator: Sketch 41.2 (35397) - http://www.bohemiancoding.com/sketch -->
  <title>book_2</title>
  <desc>Created with Sketch.</desc>
  <defs></defs>
  <g id="Page-1" stroke="none" stroke-width="1" fill="none" fill-rule="evenodd">
    <g id="book_2" fill="#000000">
      <g id="레이어_1">
        <path d="M15.6,0 C7.8,0 0,4.5 0,4.5 L0,48 C0,48 9.4,44.4 16.1,44.4 C22.8,44.4 27.6,47.3 28.1,47.6 L28.1,47.6 L28.1,3.1 C28.1,3.1 23.5,0 15.6,0 L15.6,0 Z M44.4,0 C52.2,0 60,4.5 60,4.5 L60,48 C60,48 50.6,44.4 43.9,44.4 C37.2,44.4 32.4,47.3 31.9,47.6 L31.9,47.6 L31.9,3.1 C31.9,3.1 36.5,0 44.4,0 L44.4,0 Z" id="Shape"></path>
      </g>
    </g>
  </g>
</svg>
