<?xml version="1.0" encoding="utf-8"?>
<!-- Generator: Adobe Illustrator 21.1.0, SVG Export Plug-In . SVG Version: 6.00 Build 0)  -->
<svg version="1.0" id="Layer_1" xmlns="http://www.w3.org/2000/svg"  x="0px" y="0px"
	 width="57px" height="48px" viewBox="0 0 57 48" style="enable-background:new 0 0 57 48;" xml:space="preserve">
<style type="text/css">
	.st0{fill:#040000;}
</style>
<g>
	<g>
		<g>
			<path class="st0" d="M10.391,29.236h5.673c0.873,0,1.527-0.655,1.527-1.527s-0.655-1.527-1.527-1.527h-5.673
				c-0.873,0-1.527,0.655-1.527,1.527S9.518,29.236,10.391,29.236z"/>
		</g>
	</g>
</g>
<g>
	<g>
		<g>
			<path class="st0" d="M10.391,37.964h5.673c0.873,0,1.527-0.655,1.527-1.527c0-0.873-0.655-1.527-1.527-1.527h-5.673
				c-0.873,0-1.527,0.655-1.527,1.527C8.864,37.309,9.518,37.964,10.391,37.964z"/>
		</g>
	</g>
</g>
<g>
	<g>
		<g>
			<path class="st0" d="M25.664,29.236h5.673c0.873,0,1.527-0.655,1.527-1.527s-0.655-1.527-1.527-1.527h-5.673
				c-0.873,0-1.527,0.655-1.527,1.527S24.791,29.236,25.664,29.236z"/>
		</g>
	</g>
</g>
<g>
	<g>
		<g>
			<path class="st0" d="M25.664,37.964h5.673c0.873,0,1.527-0.655,1.527-1.527c0-0.873-0.655-1.527-1.527-1.527h-5.673
				c-0.873,0-1.527,0.655-1.527,1.527C24.136,37.309,24.791,37.964,25.664,37.964z"/>
		</g>
	</g>
</g>
<path class="st0" d="M40.936,29.236h5.673c0.873,0,1.527-0.655,1.527-1.527s-0.655-1.527-1.527-1.527h-5.673
	c-0.873,0-1.527,0.655-1.527,1.527S40.064,29.236,40.936,29.236z"/>
<g>
	<g>
		<path class="st0" d="M48.136,4.364h-4.364V2.182C43.773,0.873,42.9,0,41.591,0s-2.182,0.873-2.182,2.182v2.182H17.591V2.182
			C17.591,0.873,16.718,0,15.409,0s-2.182,0.873-2.182,2.182v2.182H8.864c-4.8,0-8.727,3.927-8.727,8.727v26.182
			c0,4.8,3.927,8.727,8.727,8.727h39.273c4.8,0,8.727-3.927,8.727-8.727V13.091C56.864,8.291,52.936,4.364,48.136,4.364z
			 M52.5,39.273c0,2.4-1.964,4.364-4.364,4.364H8.864c-2.4,0-4.364-1.964-4.364-4.364V19.636h48V39.273z M52.5,15.273h-48v-2.182
			c0-2.4,1.964-4.364,4.364-4.364h4.364c0,1.309,0.873,2.182,2.182,2.182s2.182-0.873,2.182-2.182h21.818
			c0,1.309,0.873,2.182,2.182,2.182s2.182-0.873,2.182-2.182h4.364c2.4,0,4.364,1.964,4.364,4.364V15.273z"/>
	</g>
</g>
</svg>
