<svg viewBox="0 0 46 48" xmlns="http://www.w3.org/2000/svg" class="ridi_icon"><path d="M27.7 27.4c-.9 1.3-2.5 2.2-4.2 2.2-1.7 0-3.3-.8-4.3-2.1-.7-.9-2-1.1-2.9-.4-.9.7-1.1 2-.4 2.9 1.7 2.3 4.5 3.9 7.6 3.8 3.1 0 5.9-1.6 7.5-4 .7-.9.4-2.2-.5-2.9-.9-.7-2.1-.5-2.8.5zm2.7-12.6c-1.1 0-2 .9-2 2.1v1.4c0 1.1.9 2 2.1 2 1.1 0 2-.9 2-2.1v-1.4c-.1-1.1-1-2-2.1-2zm-12 3.6V17c0-1.1-.9-2-2.1-2-1.1 0-2 .9-2 2.1v1.4c0 1.1.9 2 2.1 2 1.1-.1 2-1 2-2.1zm23-3.6C39.5 6.3 31.9-.1 22.8 0 13.7.1 6.2 6.6 4.4 15.1c-2.1.5-3.7 2.4-3.6 4.7v6.3c0 2.2 1.6 4.1 3.7 4.6 1.5 7.5 7.5 13.4 15 14.8.7 1.4 2.1 2.4 3.8 2.4 2.3 0 4.1-1.9 4.1-4.2 0-2.3-1.9-4.1-4.1-4.1-1.4 0-2.5.7-3.3 1.7C13.3 40 8.3 34.2 8.2 27.2v-8.1c-.1-8.2 6.5-14.9 14.6-15 8.2-.1 14.9 6.5 15 14.7v9.8c0 1.1 1 2 2.2 2h.5c2.7 0 4.7-2.2 4.7-4.9v-6.3c0-2.2-1.6-4.1-3.8-4.6z"/></svg>