<svg viewBox="0 0 46 48" xmlns="http://www.w3.org/2000/svg" class="ridi_icon"><path d="M35.3 48c-3 0-5.5-2.5-5.5-5.5s2.4-5.5 5.5-5.5 5.5 2.5 5.5 5.5-2.5 5.5-5.5 5.5zm0-8.2c-1.5 0-2.6 1.2-2.6 2.7 0 1.5 1.2 2.7 2.6 2.7 1.5 0 2.6-1.2 2.6-2.7 0-1.5-1.2-2.7-2.6-2.7zm-23 8.2c-3 0-5.5-2.5-5.5-5.5S9.2 37 12.3 37s5.5 2.5 5.5 5.5-2.5 5.5-5.5 5.5zm0-8.2c-1.5 0-2.6 1.2-2.6 2.7 0 1.5 1.2 2.7 2.6 2.7 1.5 0 2.7-1.2 2.7-2.7 0-1.5-1.2-2.7-2.7-2.7zM35.2 33h-26c-1.3 0-2.4-1.1-2.4-2.4V9H2.9C1.6 9 .5 7.9.5 6.6V2.4C.5 1.1 1.5 0 2.8 0h9c1.3 0 2.4 1.1 2.4 2.4v4.5h27.6c1.3 0 2.4.5 3.1 1.5.7.9.9 2.2.5 3.4v.1l-3.8 9.9-3.7 9.2c-.4 1.3-1.7 2-2.7 2zM9.6 30.2h25.6l3.8-9.3 3.7-9.9c.1-.3.1-.7-.1-.9-.2-.2-.4-.3-.8-.3H11.4V2.9H3.3v3.3h6.3v24z"/></svg>