<svg viewBox="0 0 46 48" xmlns="http://www.w3.org/2000/svg" class="ridi_icon"><path d="M32.4 3.4c1-2 3-3.4 5.4-3.4 3.3 0 6.1 2.7 6.1 6.1 0 1.8-.9 3.4-2.2 4.5-2.5-3.1-5.6-5.6-9.3-7.2zm12.8 22.1c0 5.8-2.3 11.1-6 15l3.6 6-3 1.5-4.5-4.1c-3.5 2.4-7.8 3.8-12.4 3.8-4.6 0-8.9-1.4-12.4-3.8L6.1 48l-3-1.5 3.6-6c-3.7-4-6-9.2-6-15C.8 13.2 10.7 3.2 23 3.2s22.2 10 22.2 22.3zM23 6.7c-10.3 0-18.7 8.4-18.7 18.8s8.4 18.8 18.8 18.8 18.7-8.4 18.7-18.8S33.4 6.7 23 6.7zm-1.5 20.5V12h3v12.2h9.1v3H21.5zM4.3 10.7C2.9 9.6 1.9 8 1.9 6.1 1.9 2.7 4.7 0 8 0c2.4 0 4.5 1.4 5.4 3.5-3.6 1.6-6.7 4.1-9.1 7.2z"/></svg>