<svg viewBox="0 0 58 48" xmlns="http://www.w3.org/2000/svg" class="ridi_icon"><path d="M34.8 19.2c2.1 2.1 4.7 3.2 7.5 3.2 1.6 0 2.4.2 2.7.6.4.5.2 1.6-.2 3.2-.8 3.3-2.4 6.2-4.8 8.8-2.4 2.5-5.5 4.5-9.1 6.1l3.2 6.9c3.3-1.2 6.4-2.9 9.3-5 2.9-2.1 5.4-4.5 7.5-7.4 2.1-2.7 3.8-5.9 5-9.3 1.2-3.5 1.9-7 1.9-10.7 0-4.3-1.2-8-3.7-11-2.4-3-5.6-4.5-9.7-4.5s-7 1.2-9.3 3.5c-2.3 2.3-3.3 5-3.3 8.4-.1 2.7.9 5.1 3 7.2zm-30.3 0c2.1 2.1 4.7 3.2 7.5 3.2 1.3 0 2.1.2 2.5.6.4.5.2 1.6-.2 3.2-.7 3.2-2.4 6.1-4.9 8.7C7 37.5 3.9 39.6.3 41l3.3 6.9c3.2-1.2 6.3-2.9 9.2-5 2.9-2.1 5.4-4.7 7.4-7.4 2.1-2.7 3.8-5.9 5-9.3 1.2-3.4 1.9-7 1.9-10.7 0-4.3-1.2-8-3.6-11C21.1 1.5 18 0 13.9 0c-3.9 0-7 1.2-9.3 3.5-2.3 2.3-3.3 5-3.3 8.4 0 2.8 1.1 5.2 3.2 7.3z"/></svg>