<?xml version="1.0" encoding="UTF-8"?>
<svg width="58px" height="48px" viewBox="0 0 58 48" version="1.1" xmlns="http://www.w3.org/2000/svg">
  <!-- Generator: Sketch 41.2 (35397) - http://www.bohemiancoding.com/sketch -->
  <title>closeq</title>
  <desc>Created with Sketch.</desc>
  <defs></defs>
  <g id="Page-1" stroke="none" stroke-width="1" fill="none" fill-rule="evenodd">
    <g id="closeq" fill="#000000">
      <g id="레이어_1">
        <path d="M34.8,19.2 C36.9,21.3 39.5,22.4 42.3,22.4 C43.9,22.4 44.7,22.6 45,23 C45.4,23.5 45.2,24.6 44.8,26.2 C44,29.5 42.4,32.4 40,35 C37.6,37.5 34.5,39.5 30.9,41.1 L34.1,48 C37.4,46.8 40.5,45.1 43.4,43 C46.3,40.9 48.8,38.5 50.9,35.6 C53,32.9 54.7,29.7 55.9,26.3 C57.1,22.8 57.8,19.3 57.8,15.6 C57.8,11.3 56.6,7.6 54.1,4.6 C51.7,1.6 48.5,0.1 44.4,0.1 C40.3,0.1 37.4,1.3 35.1,3.6 C32.8,5.9 31.8,8.6 31.8,12 C31.7,14.7 32.7,17.1 34.8,19.2 L34.8,19.2 Z M4.5,19.2 C6.6,21.3 9.2,22.4 12,22.4 C13.3,22.4 14.1,22.6 14.5,23 C14.9,23.5 14.7,24.6 14.3,26.2 C13.6,29.4 11.9,32.3 9.4,34.9 C7,37.5 3.9,39.6 0.3,41 L3.6,47.9 C6.8,46.7 9.9,45 12.8,42.9 C15.7,40.8 18.2,38.2 20.2,35.5 C22.3,32.8 24,29.6 25.2,26.2 C26.4,22.8 27.1,19.2 27.1,15.5 C27.1,11.2 25.9,7.5 23.5,4.5 C21.1,1.5 18,0 13.9,0 C10,0 6.9,1.2 4.6,3.5 C2.3,5.8 1.3,8.5 1.3,11.9 C1.3,14.7 2.4,17.1 4.5,19.2 L4.5,19.2 Z" id="Shape"></path>
      </g>
    </g>
  </g>
</svg>
