<svg viewBox="0 0 76 48" xmlns="http://www.w3.org/2000/svg" class="ridi_icon"><path d="M75.1 9.4c0 5.3-9.3 9.4-20.7 9.4-11.4 0-20.6-4.1-20.6-9.4 0-5.3 9.3-9.4 20.7-9.4 11.4 0 20.6 4.2 20.6 9.4zM42.2 24c0 5.3-9.3 9.4-20.7 9.4C10.1 33.4.9 29.2.9 24s9.3-9.4 20.7-9.4c11.4 0 20.6 4.1 20.6 9.4zm-4.1 9c-3.7 2.3-9.8 3.9-16.6 3.9-6.8 0-12.8-1.6-16.5-3.9C2.4 34.5.8 36.4.8 38.6c0 5.3 9.3 9.4 20.7 9.4 11.4 0 20.7-4.3 20.7-9.4 0-2.2-1.6-4.1-4.1-5.6zm32.7-14.9c-3.7 2.2-9.8 3.7-16.3 3.7-3.6 0-7-.5-9.9-1.2.9 1.1 1.4 2.2 1.4 3.4 0 2.6-2.3 5-6 6.7 3.7 1.7 9 2.8 14.7 2.8 11.1 0 20.4-4.2 20.4-9.4 0-2.3-1.7-4.3-4.3-6zm.2 14.7c-3.7 2.3-9.8 3.9-16.6 3.9-3.6 0-6.8-.5-9.6-1.1.6.9 1.1 2 1.1 2.9 0 2.6-2.3 5-6 6.7 3.7 1.7 9 2.8 14.7 2.8 11.5 0 20.7-4.3 20.7-9.4-.2-2.2-1.7-4.1-4.3-5.8z"/></svg>