<svg xmlns="http://www.w3.org/2000/svg" viewBox="0 0 70 48"><path d="M70 25c0-2.6-1.6-5-4.4-6.9 2.8-1.9 4.4-4.2 4.4-6.8C70 5 60.8.1 49 .1s-21.1 4.8-21.1 11c0 1.2.3 2.3.9 3.4-2.3-.6-5-.7-7.6-.7C9.2 13.8 0 18.6 0 25c0 2.2 1.2 4.2 3.1 6C1.2 32.6 0 34.6 0 36.8 0 43.1 9.2 48 21 48c5.4 0 10.2-1 14-2.8C38.6 47 43.6 48 49 48c11.8 0 21-5 21-11.2 0-2.2-1.2-4.2-3.1-6 1.9-1.6 3.1-3.6 3.1-5.8zm-2.9 11.8c0 3.9-7.3 8.3-18.1 8.3-4.2 0-7.9-.7-10.8-1.8 2.5-1.9 3.9-4.1 3.9-6.6 0-.4 0-.9-.1-1.3 2.2.4 4.5.6 7 .6 6.1 0 11.7-1.3 15.5-3.6 1.6 1.5 2.6 3 2.6 4.4zm-64.2 0c0-1.5.9-2.9 2.6-4.2 3.8 2.2 9.3 3.6 15.5 3.6 2.5 0 4.8-.3 7-.6.6-.1 1-.1 1.6-.3.6-.1 1.3-.3 1.9-.4 1.3-.4 2.5-.9 3.5-1.3.6-.3 1-.4 1.5-.9.9.7 1.6 1.5 2 2.2.4.7.6 1.3.6 2 0 1.9-1.5 3.6-4.2 5.3-.4.3-1 .4-1.5.7-.4.3-1 .4-1.6.7-2.9 1-6.6 1.8-10.8 1.8-10.8-.3-18.1-4.5-18.1-8.6zm0-11.8c0-4.1 7.3-8.3 18.1-8.3 4.2 0 7.9.7 10.8 1.8.6.1 1 .4 1.6.7.6.3 1 .4 1.5.7 2.6 1.5 4.2 3.4 4.2 5.3 0 .7-.3 1.3-.6 2-.4.7-1.2 1.5-2 2.2-.1.1-.3.1-.3.3-.3.3-.6.4-1 .6l-.2.1c-.4.3-.9.4-1.5.7h-.1c-.1 0-.3.1-.4.1-.4.1-.9.3-1.3.4-.7.3-1.5.4-2.2.7-2.5.7-5.4 1-8.6 1-5.1 0-9.3-1-12.5-2.3-.6-.3-1.2-.6-1.6-.9-.4-.3-.9-.6-1.3-.9-1.6-1.3-2.6-2.7-2.6-4.2zm64.2-13.9c0 1.9-1.6 3.8-4.2 5.3l-1.8.9c-.7.3-1.5.6-2.2.7-2.8.9-6.1 1.5-9.9 1.5-3.8 0-7.1-.6-9.9-1.5-.7-.3-1.5-.4-2.2-.7l-1.8-.9c-2.8-1.5-4.2-3.4-4.2-5.3 0-3.9 7.3-8.3 18.1-8.3s18.1 4.3 18.1 8.3zm-2.6 18c-.4.3-.9.6-1.3.9-.4.3-1 .6-1.6.9-3.2 1.5-7.4 2.3-12.5 2.3-3.2 0-6.1-.4-8.6-1l-1.3-1.3 1.3-1.3c.4-.6.9-1.2 1-1.8.3-.4.4-1 .6-1.6.1-.4.1-.9.1-1.3 0-1.2-.3-2.3-.9-3.4 2.5.4 5 .7 7.7.7 5.4 0 10.2-1 13.9-2.8 2.8 1.5 4.2 3.4 4.2 5.3 0 1.8-1 3.2-2.6 4.4z"/></svg>