<svg viewBox="0 0 72 48" xmlns="http://www.w3.org/2000/svg" class="ridi_icon"><path d="M67 0H4.9C2.4 0 .5 2.1.5 4.4v39.1c0 2.5 2.1 4.4 4.4 4.4h62.2c2.5 0 4.4-2.1 4.4-4.4v-11c-1-.1-2.1-.4-2.8-.9-1-.6-1.9-1.3-2.7-2.2-1.5-1.8-2.1-4.1-1.8-6.4.3-2.8 2.1-5.2 4.4-6.5.9-.4 1.9-.9 2.8-.9V4.4C71.6 2.1 69.5 0 67 0zm-5.8 22.5c-.4 3.1.4 6.2 2.4 8.6 1.3 1.8 3.1 3 5 3.7v8.6c0 .4-.1.9-.4 1.2-.3.3-.8.4-1.2.4H56.4v-5.8h-3.1V45H4.9c-.4 0-.9-.1-1.2-.4-.1-.3-.3-.6-.3-1V4.4c0-.4.1-.9.4-1.2.3-.1.7-.4 1-.4h48.4V8h3.1V2.8H67c.4 0 .9.1 1.2.4.3.3.4.7.4 1.2V13c-3.9 1.5-6.8 5.2-7.4 9.5z"/><path d="M35 12.4L22.2 34.8l2.5 1.2 12.8-22.4zM24.9 23.9c.7-.3 1.3-.7 1.8-1.2.4-.4.9-1 1.2-1.8.3-.7.4-1.5.4-2.2 0-.7-.2-1.5-.4-2.3-.3-.7-.8-1.3-1.2-1.7-.4-.6-1-.9-1.8-1.2-.8-.3-1.5-.5-2.2-.5-.7 0-1.5.2-2.3.5-.7.1-1.3.6-1.8 1.2-.4.4-.9 1-1.2 1.8-.3.8-.4 1.4-.4 2.2 0 .8.1 1.5.4 2.2.3.7.7 1.3 1.2 1.8.4.6 1 .9 1.8 1.2.7.3 1.5.4 2.2.4.8.1 1.5 0 2.3-.4zm-5-5.2c0-.7.3-1.5.7-1.9.6-.5 1.3-.8 2.1-.8s1.5.3 1.9.7c.4.5.7 1.2.7 2s-.3 1.4-.7 1.9c-.4.5-1.2.7-1.9.7s-1.5-.3-2-.7c-.6-.5-.8-1-.8-1.9zm21.3 6.9c-.4-.4-1-.9-1.8-1.2-.7-.3-1.5-.4-2.2-.4-.7 0-1.5.1-2.2.4-.7.3-1.3.7-1.8 1.2-.4.4-.9 1-1.2 1.8-.3.7-.4 1.5-.4 2.2 0 .7.1 1.5.4 2.2.3.7.7 1.3 1.2 1.8.4.4 1 .9 1.8 1.2.7.3 1.5.4 2.2.4.7 0 1.5-.1 2.2-.4.7-.3 1.3-.7 1.8-1.2.4-.4.9-1 1.2-1.8.3-.7.4-1.5.4-2.2 0-.7-.1-1.5-.4-2.2-.2-.6-.6-1.2-1.2-1.8zm-2.1 6.1c-.4.4-1.2.7-1.9.7s-1.5-.3-1.9-.7c-.4-.4-.7-1.2-.7-1.9s.3-1.5.7-1.9c.4-.4 1.2-.7 1.9-.7s1.5.3 1.9.7c.4.4.7 1.2.7 1.9.2.7-.1 1.3-.7 1.9zm14.4-5.8v8.9h3.1v-8.9h-1.5zm0-13.3v8.9h3.1v-8.9h-1.5z"/></svg>