<svg xmlns="http://www.w3.org/2000/svg" viewBox="0 0 48 49"><path d="M45.3 41.2H2.7c-1.2 0-2.1.9-2.1 2.1V46c0 1.2.9 2.1 2.1 2.1h42.5c1.2 0 2.1-.9 2.1-2.1v-2.7c.1-1.2-.9-2.1-2-2.1zM6.5 17.4c-.4-.3-.9-.6-1.5-.6-1.2 0-2.2 1-2.2 2.2h-.1v17.4h.1c.1 1.1 1.1 2 2.2 2h37.7v-.1c1.2 0 2.1-.9 2.2-2V19c0-1.2-1-2.2-2.2-2.2-.5 0-1 .2-1.4.5l-.1.1-.2.2-4.7 4.7-10.6-10.9c-.4-.4-1-.7-1.6-.7-.6 0-1.2.3-1.6.7L11.4 22.3l-4.7-4.7-.2-.2zM5 13.8c2.3 0 4.2-1.9 4.2-4.2 0-2.3-1.9-4.1-4.2-4.1C2.7 5.5.8 7.4.8 9.7c0 2.2 1.9 4.1 4.2 4.1zm37.8 0c2.3 0 4.2-1.8 4.2-4.1s-1.9-4.2-4.2-4.2c-2.3 0-4.2 1.9-4.2 4.2 0 2.2 1.9 4.1 4.2 4.1zM24.2 8.3c2.3 0 4.2-1.9 4.2-4.2 0-2.3-1.9-4.1-4.2-4.1C21.9 0 20 1.9 20 4.2c.1 2.2 1.9 4.1 4.2 4.1z"/></svg>