<?xml version="1.0" encoding="utf-8"?>
<!-- Generator: Adobe Illustrator 22.1.0, SVG Export Plug-In . SVG Version: 6.00 Build 0)  -->
<svg version="1.1" id="Layer_1" xmlns="http://www.w3.org/2000/svg"  x="0px" y="0px"
	 width="75px" height="48px" viewBox="0 0 75 48" style="enable-background:new 0 0 75 48;" xml:space="preserve">
<title>btn_delete</title>
<desc>Created with Sketch.</desc>
<g id="Page-1">
	<g id="PAPER-PRO_결제-비밀번호-입력" transform="translate(-494.000000, -765.000000)">
		<g id="keyboard" transform="translate(99.000000, 468.000000)">
			<g id="btn_delete" transform="translate(395.000000, 297.000000)">
				<path d="M75,48H16.7L0,24L16.7,0H75V48z M18.2,45H72V3H18.2L3.7,24L18.2,45z"/>
				<path id="icon_close" d="M53.8,30.4L47.4,24l6.4-6.4c0.1-0.1,0.1-0.1,0.1-0.2c0.1-0.2,0-0.5-0.1-0.7l-3-3
					c-0.2-0.2-0.5-0.2-0.7-0.2c-0.1,0-0.2,0.1-0.2,0.1l-6.4,6.4l-6.4-6.4c-0.1-0.1-0.1-0.1-0.2-0.1c-0.2-0.1-0.5,0-0.7,0.2l-3,3
					C33,16.9,33,17.2,33,17.4c0,0.1,0.1,0.2,0.2,0.2l6.4,6.4l-6.4,6.4c-0.1,0.1-0.1,0.1-0.2,0.2c-0.1,0.2,0,0.5,0.2,0.7l3,3
					c0.2,0.2,0.5,0.2,0.7,0.1c0.1,0,0.2-0.1,0.2-0.1l6.4-6.4l6.4,6.4c0.1,0.1,0.1,0.1,0.2,0.1c0.2,0.1,0.5,0,0.7-0.1l3-3
					c0.2-0.2,0.2-0.5,0.1-0.7C53.9,30.5,53.9,30.4,53.8,30.4"/>
			</g>
		</g>
	</g>
</g>
</svg>
