<svg xmlns="http://www.w3.org/2000/svg" viewBox="0 0 40 49"><path d="M37.4.9H2.6C1.4.9.5 1.9.5 3v43.8c0 1.2 1 2.1 2.1 2.1h22c.6 0 1.1-.2 1.5-.6l12.8-12.8c.4-.4.6-.9.6-1.5V3c0-1-.9-2.1-2.1-2.1zM25.7 42.8v-7.7h7.7l-7.7 7.7zm9.6-9.8H24.6c-.6 0-1.1.5-1.1 1.1v10.6H4.7V5.2h30.6V33zM9.8 12.3h12.5c.6 0 1.1-.5 1.1-1.1 0-.6-.5-1.1-1.1-1.1H9.8c-.6 0-1.1.5-1.1 1.1 0 .6.5 1.1 1.1 1.1zm0 5.1h20.8c.6 0 1.1-.5 1.1-1.1 0-.6-.5-1.1-1.1-1.1H9.8c-.6 0-1.1.5-1.1 1.1 0 .6.5 1.1 1.1 1.1zm0 5.2h20.8c.6 0 1.1-.5 1.1-1.1 0-.6-.5-1.1-1.1-1.1H9.8c-.6 0-1.1.5-1.1 1.1 0 .6.5 1.1 1.1 1.1zm0 5.1h8.7c.6 0 1.1-.5 1.1-1.1 0-.6-.5-1.1-1.1-1.1H9.8c-.6 0-1.1.5-1.1 1.1 0 .6.5 1.1 1.1 1.1z"/></svg>