<?xml version="1.0" encoding="UTF-8"?>
<svg width="60px" height="14px" viewBox="0 0 60 14" version="1.1" xmlns="http://www.w3.org/2000/svg">
  <!-- Generator: Sketch 41.2 (35397) - http://www.bohemiancoding.com/sketch -->
  <title>dotdotdot</title>
  <desc>Created with Sketch.</desc>
  <defs></defs>
  <g id="Page-1" stroke="none" stroke-width="1" fill="none" fill-rule="evenodd">
    <g id="dotdotdot" fill="#000000">
      <g id="레이어_1">
        <path d="M7.5,0 C3.7,0 0.5,3.1 0.5,7 C0.5,10.9 3.7,14 7.5,14 C11.3,14 14.5,10.8 14.5,7 C14.5,3.2 11.5,0 7.5,0 Z M30,0 C26.1,0 23,3.2 23,7 C23,10.8 26.2,14 30,14 C33.8,14 37,10.8 37,7 C37,3.2 33.9,0 30,0 Z M52.5,0 C48.6,0 45.5,3.2 45.5,7 C45.5,10.8 48.7,14 52.5,14 C56.4,14 59.5,10.8 59.5,7 C59.5,3.2 56.3,0 52.5,0 Z" id="Shape"></path>
      </g>
    </g>
  </g>
</svg>
