<svg viewBox="0 0 50 48" xmlns="http://www.w3.org/2000/svg" class="ridi_icon"><path d="M47.4 27.1c.7-.8 1.7-1.8 1.7-3.1s-.9-2.3-1.7-3.1c-.3-.4-.8-.9-.9-1.1-.1-.3.2-1 .4-1.5.4-1.1.8-2.3.3-3.4-.5-1.2-1.7-1.7-2.7-2.2-.5-.2-1.1-.5-1.3-.7-.2-.2-.2-1-.2-1.5 0-1.3-.1-2.6-1-3.5-.9-.9-2.2-1-3.3-1-.5 0-1.3-.1-1.5-.2-.2-.2-.5-.8-.7-1.3-.5-1-1-2.2-2.2-2.7-.3-.1-.7-.2-1.1-.2-.8 0-1.6.3-2.3.6-.5.2-1.1.4-1.4.4h-.1c-.4-.1-.9-.6-1.3-.9C27.3.9 26.3 0 25 0s-2.3.9-3.1 1.7c-.4.3-.9.8-1.2.8h-.1c-.3 0-.9-.2-1.4-.4-.7-.2-1.5-.5-2.3-.5-.4 0-.8.1-1.1.2-1.2.5-1.7 1.7-2.2 2.7-.2.4-.6 1.1-.8 1.3-.2.1-.9.2-1.5.2-1.1 0-2.4.1-3.3 1-.9.9-1 2.2-1 3.3 0 .5-.1 1.3-.2 1.5-.2.2-.8.5-1.3.7-1 .5-2.2 1-2.7 2.2-.5 1.3-.1 2.5.3 3.6.2.5.4 1.2.4 1.5-.1.2-.6.8-.9 1.1-.7.8-1.7 1.8-1.7 3.1s.9 2.3 1.7 3.1c.3.4.8.9.9 1.1.1.3-.2 1-.4 1.5-.4 1.1-.8 2.3-.3 3.4.5 1.2 1.7 1.7 2.7 2.2.5.2 1.1.5 1.3.7.2.2.2 1 .2 1.5.1 1.1.1 2.4 1 3.3.9.9 2.2 1 3.3 1 .5 0 1.3.1 1.5.2.2.4.6 1 .8 1.5.5 1 1 2.2 2.2 2.7.3.1.7.2 1.1.2.8 0 1.6-.3 2.3-.6.5-.2 1.1-.4 1.4-.4h.1c.2.1.8.6 1.1.9.8.7 1.8 1.7 3.1 1.7s2.3-.9 3.1-1.7c.4-.3.9-.8 1.1-.9h.1c.3 0 .9.2 1.4.4.7.3 1.5.6 2.3.6.4 0 .8-.1 1.1-.2 1.2-.5 1.7-1.7 2.2-2.7.2-.5.5-1.1.7-1.3.2-.2 1-.2 1.5-.2 1.1-.1 2.4-.1 3.3-1 .9-.9 1-2.2 1-3.3 0-.5.1-1.3.2-1.5.2-.2.8-.5 1.3-.7 1-.5 2.2-1 2.7-2.2.5-1.2.1-2.4-.3-3.4-.2-.5-.4-1.2-.4-1.5.3-.4.8-.9 1.2-1.3zm-28 4.4l-1.9-3.3c-.2-.2-.3-.7-.3-.7h-.1s-.2.5-.3.7l-1.9 3.3h-3l3.6-5.4-3.5-5.3h3.1l1.7 2.9.4.6h.1l.4-.6 1.7-2.9h3.1L19 26.1l3.6 5.4h-3.2zm18.2 1.3H25.7c-.1-.5-.2-1.2-.2-1.8 0-6.6 7.7-7.8 7.7-10.3 0-1.3-1-1.8-1.9-1.8-1.7 0-2.7 1.9-2.7 1.9l-3.3-2.2s1.7-3.9 6.3-3.9c2.9 0 6.1 1.7 6.1 5.6 0 5.6-7.2 6.7-7.3 9.1h7.1l.1 3.4z"/></svg>