<?xml version="1.0" encoding="UTF-8"?>
<svg width="40px" height="49px" viewBox="0 0 40 49" version="1.1" xmlns="http://www.w3.org/2000/svg">
  <!-- Generator: Sketch 41.2 (35397) - http://www.bohemiancoding.com/sketch -->
  <title>education_1</title>
  <desc>Created with Sketch.</desc>
  <defs></defs>
  <g id="Page-1" stroke="none" stroke-width="1" fill="none" fill-rule="evenodd">
    <g id="education_1" fill="#000000">
      <g id="레이어_1">
        <path d="M39.6,47.2 L37.5,32.9 C37.4,32.2 37.1,31.2 36.4,30.9 L27.2,26.4 C26.8,26.2 26.3,25.8 25.9,25.5 C25.6,25 25.4,24.5 25.2,23.9 C25.9,22.9 26.6,21.7 27,20.5 C27.4,20.2 27.6,19.9 27.7,19.5 C28.3,17.5 28.5,15.6 28.4,13.5 L28.3,13.5 L28.3,8.6 C29.3,8.3 30.3,8.1 31.4,7.8 L31.4,13.6 C31.1,13.8 30.6,14.2 30.6,14.5 L30.6,15.4 L30.6,15.4 L30.4,16.1 L30.2,18.7 C30.7,19.4 33.3,19.6 33.7,18.6 L33.4,16.1 L32.9,15.3 L32.9,15.4 C32.9,15.2 33.4,14.8 33.4,14.4 C33.4,14 33.3,13.7 33,13.5 L33,7.3 L36.3,6.5 L36.3,4.6 L19.9,0.9 L3.3,4.5 L3.3,6.4 L11.3,8.4 L11.3,13.3 L11.3,13.3 C11.2,15.2 11.3,17.7 12,19.5 C12.2,19.9 12.4,20.1 12.7,20.3 C13.1,21.4 13.9,22.7 14.6,23.7 C14.4,24.2 14.1,24.7 13.9,25.2 C13.5,25.6 13,26 12.6,26.1 L3.4,30.5 C2.8,30.8 2.4,31.9 2.3,32.6 L0.3,47 L0.4,47 L0.4,46.7 C0.4,48 9.1,48.9 19.9,48.9 C30.7,48.9 39.4,48.1 39.4,46.8 C39.6,47 39.5,47.2 39.6,47.2 L39.6,47.2 L39.6,47.2 Z" id="Shape"></path>
      </g>
    </g>
  </g>
</svg>
