<svg viewBox="0 0 40 49" xmlns="http://www.w3.org/2000/svg" class="ridi_icon"><path d="M39.6 47.2l-2.1-14.3c-.1-.7-.4-1.7-1.1-2l-9.2-4.5c-.4-.2-.9-.6-1.3-.9-.3-.5-.5-1-.7-1.6.7-1 1.4-2.2 1.8-3.4.4-.3.6-.6.7-1 .6-2 .8-3.9.7-6h-.1V8.6c1-.3 2-.5 3.1-.8v5.8c-.3.2-.8.6-.8.9v.9l-.2.7-.2 2.6c.5.7 3.1.9 3.5-.1l-.3-2.5-.5-.8v.1c0-.2.5-.6.5-1s-.1-.7-.4-.9V7.3l3.3-.8V4.6L19.9.9 3.3 4.5v1.9l8 2v4.9c-.1 1.9 0 4.4.7 6.2.2.4.4.6.7.8.4 1.1 1.2 2.4 1.9 3.4-.2.5-.5 1-.7 1.5-.4.4-.9.8-1.3.9l-9.2 4.4c-.6.3-1 1.4-1.1 2.1L.3 47h.1v-.3c0 1.3 8.7 2.2 19.5 2.2s19.5-.8 19.5-2.1c.2.2.1.4.2.4z"/></svg>