<svg xmlns="http://www.w3.org/2000/svg" viewBox="0 0 133 48"><path d="M128.017 29.253H94.976V3.771h32.553v4.956h-26.27v5.387h25.133v4.956h-25.133v5.226h26.758v4.957zM24.97 20.471c0 10.02-4.604 17.077-12.512 17.077C4.604 37.549 0 30.545 0 20.471 0 10.343 4.604 3.286 12.458 3.286c7.908 0 12.512 7.057 12.512 17.185zm-6.066 0c0-7.596-2.708-12.121-6.446-12.121-3.629 0-6.283 4.525-6.283 12.121 0 7.542 2.654 12.013 6.283 12.013 3.737.001 6.446-4.471 6.446-12.013zM85.024 0h-6.012v35.556h6.012V0zm4.373 37.01v4.956H133V37.01H89.397zM32.228 48h6.283V0h-6.283v48zm26.201-16.593h-6.283v15.407h34.07v-5.01H58.429V31.407zm6.825-4.309H45.701V3.663h6.391v7.057h6.825V3.556h6.337v8.889h4.333V.862H75.6v33.401h-6.012v-16.7h-4.333v9.535zm-6.337-11.529h-6.825v6.572h6.825v-6.572z"/></svg>