<?xml version="1.0" encoding="utf-8"?>
<!-- Generator: Adobe Illustrator 22.1.0, SVG Export Plug-In . SVG Version: 6.00 Build 0)  -->
<svg version="1.0" id="Layer_1" xmlns="http://www.w3.org/2000/svg"  x="0px" y="0px"
	 width="133px" height="48px" viewBox="0 0 133 48" style="enable-background:new 0 0 133 48;" xml:space="preserve">
<path d="M128.017,29.253H94.976V3.771h32.553v4.956h-26.27v5.387h25.133v4.956h-25.133v5.226h26.758V29.253z M24.97,20.471
	c0,10.02-4.604,17.077-12.512,17.077C4.604,37.549,0,30.545,0,20.471C0,10.343,4.604,3.286,12.458,3.286
	C20.366,3.286,24.97,10.343,24.97,20.471z M18.904,20.471c0-7.596-2.708-12.121-6.446-12.121c-3.629,0-6.283,4.525-6.283,12.121
	c0,7.542,2.654,12.013,6.283,12.013C16.195,32.485,18.904,28.013,18.904,20.471z M85.024,0h-6.012v35.556h6.012V0z M89.397,37.01
	v4.956H133V37.01H89.397z M32.228,48h6.283V0h-6.283V48z M58.429,31.407h-6.283v15.407h34.07v-5.01H58.429V31.407z M65.254,27.098
	H45.701V3.663h6.391v7.057h6.825V3.556h6.337v8.889h4.333V0.862H75.6v33.401h-6.012v-16.7h-4.333V27.098z M58.917,15.569h-6.825
	v6.572h6.825V15.569z"/>
</svg>
