<svg viewBox="0 0 54 48" xmlns="http://www.w3.org/2000/svg" class="ridi_icon"><path d="M52.5 42.6L30.2 1.8C29.6.7 28.4 0 27.2 0c-1.3 0-2.5.7-3.1 1.8l-22.9 41c-.6 1.1-.6 2.4 0 3.4.7 1 1.7 1.7 3 1.7l45.5.1c1.9 0 3.5-1.5 3.5-3.4 0-.8-.3-1.5-.7-2zM27 31.1c-1 0-2-1-2.1-2-.9-4.5-1.3-9.3-1.7-13.3-.1-.9.7-1.9 1.7-2.1 1.8-.3 2.8-.3 4.6 0 1 .2 1.7 1.2 1.6 2.1-.5 4-.9 8.8-1.8 13.3-.2 1.1-1.2 2-2.2 2H27zm0 12.2c-2.2 0-3.9-1.7-3.9-3.9 0-2.1 1.8-3.8 3.9-3.8 2.2 0 3.9 1.7 3.9 3.9 0 2.1-1.7 3.8-3.9 3.8z"/></svg>