<svg xmlns="http://www.w3.org/2000/svg" viewBox="0 0 36 48"><path d="M26.815 35.816H9.185c-1.102 0-1.889.945-1.889 1.891 0 .945.787 2.048 1.889 2.048h17.631c1.102 0 1.889-.945 1.889-1.89-.001-.946-.788-2.049-1.89-2.049z"/><path d="M35.238 10.482L25.706.953C25.321.374 24.582 0 23.825 0H5.249A5.257 5.257 0 0 0 0 5.253v37.494A5.257 5.257 0 0 0 5.249 48h25.502A5.257 5.257 0 0 0 36 42.747V12.185c0-.506-.08-1.229-.762-1.703zm-9.287-.437V7.038l3.12 3.008h-3.12zm-1.969 4.557h7.502v28.145c0 .269-.306.576-.576.576H5.249c-.269 0-.576-.307-.576-.576V5.253c0-.269.306-.576.576-.576h16.317v7.508c0 1.31 1.107 2.417 2.416 2.417z"/><path d="M26.815 27.939H9.185c-1.102 0-1.889.945-1.889 1.891 0 .945.787 2.048 1.889 2.048h17.631c1.102 0 1.889-.945 1.889-1.89s-.788-2.049-1.89-2.049zM7.138 22.11c0 1.103.945 1.89 1.889 1.89h17.631c1.102 0 1.889-.945 1.889-1.89s-.944-1.89-1.889-1.89H9.185c-1.102-.158-2.047.787-2.047 1.89z"/></svg>