<svg xmlns="http://www.w3.org/2000/svg" viewBox="0 0 46 48"><path d="M3.9 48h18V26.2h-18V48zm20.3 0h18.1V26.2H24.2V48zm14.6-34.4c.7-.7 1.3-1.6 1.7-2.4.9-1.9 1.4-4.9.6-7.1-1-2.5-3.6-4.1-6.5-4.1-1 0-2 .2-2.9.6-2.7 1.3-4.5 3.8-6 6.1-.3.4-.5.8-.8 1.2-.1.2-.2.3-.4.5H22c-.1-.2-.2-.3-.4-.5-.3-.4-.5-.8-.8-1.2-1.6-2.2-3.3-4.8-6-6.1-.9-.4-1.9-.6-2.9-.6C9 0 6.4 1.7 5.4 4.1c-.8 2.2-.3 5.2.6 7.1.4.8.9 1.7 1.7 2.4H0v10.1h46V13.6h-7.2zm-19.5-1.3c-1.1.1-2.1.2-2.5.2-.3 0-.5 0-.9.1-.5 0-1.1.1-1.8.1-2.5 0-4.1-.9-5.1-2.9-.7-1.4-.9-3.4-.5-4.4.5-1.2 1.8-2 3.4-2 .5 0 1 .1 1.5.3 1.9.9 3.4 3 4.7 5l.9 1.2c.1.2.2.3.3.4v2zm18.2-2.5c-1 2-2.6 2.9-5.1 2.9-.7 0-1.3-.1-1.8-.1-.4 0-.6-.1-.9-.1-.4 0-1.3-.1-2.3-.2V10c.1-.1.1-.2.2-.2l.9-1.2c1.4-2 2.8-4 4.7-5 .4-.2.9-.3 1.5-.3 1.5 0 2.9.8 3.4 2 .3 1.1 0 3.1-.6 4.5z"/></svg>