<?xml version="1.0" encoding="UTF-8"?>
<svg width="44px" height="49px" viewBox="0 0 44 49" version="1.1" xmlns="http://www.w3.org/2000/svg">
  <!-- Generator: Sketch 41.2 (35397) - http://www.bohemiancoding.com/sketch -->
  <title>girl_1</title>
  <desc>Created with Sketch.</desc>
  <defs></defs>
  <g id="Page-1" stroke="none" stroke-width="1" fill="none" fill-rule="evenodd">
    <g id="girl_1" fill="#000000">
      <g id="레이어_1">
        <path d="M32.8,10.3 C29,7.8 25.8,6.3 22.4,6.1 C22.4,6.1 22.4,6.1 22.4,6 L18,0.6 C17.7,0.2 17.2,0 16.6,0 C16,0 15.5,0.3 15.2,0.8 L11.8,5.3 C11.4,4.9 10.8,4.8 10.4,5.1 L7.5,7.4 C7.1,7.8 7,8.4 7.4,8.8 L7.4,8.8 L2.2,11 C1.7,11.2 1.2,11.7 1.1,12.2 C1,12.7 1,13.4 1.4,13.8 L5.2,18.7 C4.1,23.5 4.2,30 0.6,39.7 C0.5,40 0.4,40.3 0.6,40.6 C1.8,42.8 10.4,47.5 13.8,45.1 L14.1,44.9 C14.2,44.8 14.4,44.8 14.6,44.9 C22.9,49.2 21.2,49.2 29.4,44.9 C29.6,44.8 29.8,44.8 29.9,44.9 L30.2,45.1 C33.6,47.5 42.2,42.8 43.4,40.6 C43.6,40.3 43.5,40 43.4,39.7 C37.2,22.9 42,15.8 32.8,10.3 L32.8,10.3 Z M15.5,4.3 C15.6,4.1 15.8,4 16,4 C16.2,4 16.4,4.1 16.5,4.2 L18,6.2 C18.1,6.4 18.2,6.6 18.1,6.8 L18.1,6.8 C18,7 17.9,7.1 17.7,7.2 L15.4,8.2 L15.3,7.9 L14,6.3 L15.5,4.3 L15.5,4.3 Z M10.6,8.5 L10.6,8.5 C11.1,8.1 11.7,8.2 12,8.6 L12.6,9.3 L12.9,9.7 C13.3,10.1 13.2,10.8 12.7,11.1 L12.7,11.1 C12.3,11.5 11.6,11.4 11.3,11 L10.5,10 C10.1,9.5 10.2,8.9 10.6,8.5 L10.6,8.5 Z M5.2,13.4 C5.1,13.2 5.1,13 5.1,12.8 C5.1,12.6 5.3,12.4 5.5,12.4 L7.8,11.4 L8.5,12.3 L9.3,13.3 L7.8,15.3 C7.7,15.4 7.5,15.5 7.3,15.5 C7.1,15.5 6.9,15.4 6.8,15.3 L6.4,14.9 L5.2,13.4 L5.2,13.4 Z M28.8,40.4 C20.2,44.7 24,44.7 15.3,40.4 C12.8,39.1 11.2,36.5 11.2,33.7 L11.2,23.9 C11.2,23.8 11.3,23.7 11.5,23.7 C13.5,24.8 15.6,25.7 18.5,25.5 C18.9,25.5 19.2,25.2 19.3,24.9 L20.1,22.7 C20.1,22.6 20.2,22.6 20.3,22.7 L21.1,26.8 C21.2,27.1 21.5,27.4 21.8,27.3 C26.7,26.8 29.6,26.2 32.8,24.4 C32.9,24.3 33.1,24.4 33.1,24.6 L33.1,33.6 C32.9,36.5 31.3,39.1 28.8,40.4 L28.8,40.4 Z" id="Shape"></path>
        <path d="M20.6,34.7 C20.6,35.5 21.4,36.1 22.3,36.1 C23.2,36.1 23.9,35.5 24,34.7 C23.5,35 23,35.2 22.3,35.2 C21.6,35.2 21,35 20.6,34.7 Z" id="Shape"></path>
        <path d="M16.1,29 C15.6,29 15.1,29.3 14.9,29.7 C14.7,29.9 14.7,30.2 14.7,30.5 C14.7,31.3 15.4,32 16.2,32 C17,32 17.7,31.3 17.7,30.5 L17.7,30.1 C17.4,29.5 16.8,29 16.1,29 L16.1,29 Z" id="Shape"></path>
        <path d="M27.4,29 C26.7,29 26.2,29.5 26,30.1 C26,30.2 25.9,30.4 25.9,30.5 C25.9,31.3 26.6,32 27.4,32 C28.2,32 28.9,31.3 28.9,30.5 C28.9,30.2 28.8,29.9 28.6,29.6 C28.3,29.2 27.9,29 27.4,29 L27.4,29 Z" id="Shape"></path>
      </g>
    </g>
  </g>
</svg>
