<svg viewBox="0 0 44 49" xmlns="http://www.w3.org/2000/svg" class="ridi_icon"><path d="M32.8 10.3c-3.8-2.5-7-4-10.4-4.2V6L18 .6c-.3-.4-.8-.6-1.4-.6-.6 0-1.1.3-1.4.8l-3.4 4.5c-.4-.4-1-.5-1.4-.2L7.5 7.4c-.4.4-.5 1-.1 1.4L2.2 11c-.5.2-1 .7-1.1 1.2-.1.5-.1 1.2.3 1.6l3.8 4.9c-1.1 4.8-1 11.3-4.6 21-.1.3-.2.6 0 .9 1.2 2.2 9.8 6.9 13.2 4.5l.3-.2c.1-.1.3-.1.5 0 8.3 4.3 6.6 4.3 14.8 0 .2-.1.4-.1.5 0l.3.2c3.4 2.4 12-2.3 13.2-4.5.2-.3.1-.6 0-.9-6.2-16.8-1.4-23.9-10.6-29.4zm-17.3-6c.1-.2.3-.3.5-.3s.4.1.5.2l1.5 2c.1.2.2.4.1.6-.1.2-.2.3-.4.4l-2.3 1-.1-.3L14 6.3l1.5-2zm-4.9 4.2c.5-.4 1.1-.3 1.4.1l.6.7.3.4c.4.4.3 1.1-.2 1.4-.4.4-1.1.3-1.4-.1l-.8-1c-.4-.5-.3-1.1.1-1.5zm-5.4 4.9c-.1-.2-.1-.4-.1-.6 0-.2.2-.4.4-.4l2.3-1 .7.9.8 1-1.5 2c-.1.1-.3.2-.5.2s-.4-.1-.5-.2l-.4-.4-1.2-1.5zm23.6 27c-8.6 4.3-4.8 4.3-13.5 0-2.5-1.3-4.1-3.9-4.1-6.7v-9.8c0-.1.1-.2.3-.2 2 1.1 4.1 2 7 1.8.4 0 .7-.3.8-.6l.8-2.2c0-.1.1-.1.2 0l.8 4.1c.1.3.4.6.7.5 4.9-.5 7.8-1.1 11-2.9.1-.1.3 0 .3.2v9c-.2 2.9-1.8 5.5-4.3 6.8z"/><path d="M20.6 34.7c0 .8.8 1.4 1.7 1.4.9 0 1.6-.6 1.7-1.4-.5.3-1 .5-1.7.5s-1.3-.2-1.7-.5zM16.1 29c-.5 0-1 .3-1.2.7-.2.2-.2.5-.2.8 0 .8.7 1.5 1.5 1.5s1.5-.7 1.5-1.5v-.4c-.3-.6-.9-1.1-1.6-1.1zm11.3 0c-.7 0-1.2.5-1.4 1.1 0 .1-.1.3-.1.4 0 .8.7 1.5 1.5 1.5s1.5-.7 1.5-1.5c0-.3-.1-.6-.3-.9-.3-.4-.7-.6-1.2-.6z"/></svg>