<?xml version="1.0" encoding="UTF-8"?>
<svg width="48px" height="48px" viewBox="0 0 48 48" version="1.1" xmlns="http://www.w3.org/2000/svg">
  <!-- Generator: Sketch 41.2 (35397) - http://www.bohemiancoding.com/sketch -->
  <title>globe</title>
  <desc>Created with Sketch.</desc>
  <defs></defs>
  <g id="Page-1" stroke="none" stroke-width="1" fill="none" fill-rule="evenodd">
    <g id="globe" fill="#444444">
      <g id="레이어_1">
        <path d="M24,0 C10.8,0 0,10.8 0,24 C0,37.2 10.8,48 24,48 C37.2,48 48,37.2 48,24 C48,10.8 37.2,0 24,0 Z M13.4,32.7 L23,32.7 L23,43.9 C21.9,43.8 20.8,43.7 19.7,43.4 C16.9,41.5 14.6,37.6 13.4,32.7 Z M4.1,24 C4.1,21.6 4.5,19.4 5.3,17.3 L10.9,17.3 C10.5,19.4 10.3,21.7 10.3,24 C10.3,26.3 10.5,28.6 10.9,30.7 L5.3,30.7 C4.5,28.6 4.1,26.4 4.1,24 Z M12.3,24 C12.3,21.6 12.5,19.4 12.9,17.3 L23,17.3 L23,30.8 L12.9,30.8 C12.5,28.6 12.3,26.4 12.3,24 Z M19.7,4.5 C20.8,4.3 21.9,4.1 23,4 L23,15.2 L13.4,15.2 C14.6,10.4 16.9,6.5 19.7,4.5 L19.7,4.5 Z M25,43.9 L25,32.7 L34.6,32.7 C33.3,37.6 31.1,41.4 28.3,43.4 C27.3,43.7 26.1,43.9 25,43.9 Z M25,4.1 C26.1,4.2 27.2,4.3 28.3,4.6 C31.1,6.6 33.3,10.4 34.6,15.3 L25,15.3 L25,4.1 L25,4.1 Z M32.5,5.9 C36.6,7.8 39.9,11.1 41.9,15.2 L36.7,15.2 C35.8,11.6 34.3,8.4 32.5,5.9 Z M35.1,17.3 C35.5,19.4 35.7,21.7 35.7,24 C35.7,26.3 35.5,28.6 35.1,30.7 L25,30.7 L25,17.3 L35.1,17.3 Z M36.7,32.7 L41.9,32.7 C39.9,36.8 36.6,40.1 32.5,42 C34.3,39.6 35.8,36.4 36.7,32.7 Z M37.1,30.7 C37.5,28.6 37.7,26.3 37.7,24 C37.7,21.7 37.5,19.4 37.1,17.3 L42.7,17.3 C43.5,19.4 43.9,21.7 43.9,24 C43.9,26.4 43.5,28.6 42.7,30.7 L37.1,30.7 Z M15.5,6 C13.7,8.4 12.2,11.6 11.3,15.2 L6.1,15.2 C8.1,11.2 11.4,7.9 15.5,6 Z M6.1,32.7 L11.3,32.7 C12.2,36.4 13.7,39.6 15.5,42 C11.4,40.1 8.1,36.8 6.1,32.7 L6.1,32.7 Z" id="Shape"></path>
      </g>
    </g>
  </g>
</svg>
