<svg xmlns="http://www.w3.org/2000/svg" viewBox="0 0 58 49"><path d="M40.3 0H40c-4.2.1-8.1 1.6-11.2 4.4-3.1-2.7-7-4.1-11.2-4.1C13.3.3 9.2 2 6 5.1 2.6 8.5.7 13.2.8 18.1c0 1.8.3 3.6.8 5.1 1.1 4.5 6.2 10.1 16.5 17.9 2.6 2 6.6 4.6 8.2 5.8l.6.4c.1.1.3.2.5.3.6.3 1.2.5 1.9.5s1.4-.2 2.1-.6c2.3-1.4 5.3-3.6 9.1-6.6 9.8-7.8 15-13.8 16-18.1.5-1.7.8-3.5.7-5.3C57.1 7.8 49.5 0 40.3 0zm13.1 21.8v.1c-.5 2.5-3.5 7.3-14.9 16.4-3.6 2.9-6.6 5.1-8.7 6.4-.2.1-.5.1-.7 0 0 0-.1 0-.1-.1l-.7-.5c-1.7-1.1-5.5-3.7-8.1-5.7-9.6-7-14.6-12.3-15.5-16v-.1C4.3 21 4 19.5 4 18c-.1-4.1 1.5-8 4.3-10.7 2.5-2.5 5.8-3.9 9.3-3.9 3.9 0 7.5 1.5 10.1 4.2.3.3.7.5 1.2.5s.9-.2 1.2-.5c2.6-2.8 6.1-4.4 10-4.5h.3c7.5 0 13.6 6.4 13.7 14.3-.1 1.5-.3 3-.7 4.4z"/></svg>