<svg xmlns="http://www.w3.org/2000/svg" viewBox="0 0 24 24"><path d="M16.657 3c-1.367 0-2.734.55-3.786 1.629l-.883.924-.884-.924A5.248 5.248 0 007.318 3a5.185 5.185 0 00-3.87 1.739c-2.02 2.223-1.893 5.746.169 7.902l7.72 8.078c.357.375.924.375 1.261 0l7.804-8.167c2.124-2.178 2.124-5.745.041-7.924A5.25 5.25 0 0016.657 3zm2.313 8.156l-7.003 7.329-6.904-7.226C3.7 9.834 3.64 7.502 4.929 6.083 5.57 5.373 6.42 5 7.319 5c.865 0 1.717.359 2.34 1.01l2.329 2.438 2.329-2.438A3.273 3.273 0 0116.657 5c.866 0 1.718.359 2.34 1.01l.03.031c1.316 1.411 1.298 3.726-.057 5.115z"/></svg>