<svg xmlns="http://www.w3.org/2000/svg" viewBox="0 0 54 48.9"><path d="M37.4.7h-.3c-3.8.1-7.4 1.4-10.3 3.8C23.9 2.2 20.3 1 16.5 1 12.2 1 8.2 2.7 5.1 5.9 1.8 9.3-.1 14 0 18.9c0 1.8.3 3.6.8 5 1.1 4.6 5.9 10 15.6 17.5 2.4 1.9 6 4.4 7.6 5.5l.6.4c.2.1.4.3.6.4.7.4 1.5.6 2.2.6.9 0 1.7-.2 2.5-.7 2.1-1.3 5-3.5 8.4-6.3 9.3-7.7 14.1-13.3 15-17.7.5-1.7.7-3.5.7-5.3C53.9 8.5 46.4.7 37.4.7zm11.4 17.5c0 1.3-.2 2.6-.5 3.9l-.1.2c-.3 1.8-2.5 6-13.3 14.8-3.1 2.6-5.7 4.5-7.6 5.8l-.4-.3c-1.5-1.1-5.1-3.5-7.4-5.3-8.4-6.5-13-11.5-13.7-14.7l-.1-.2c-.3-1-.5-2.3-.6-3.6 0-3.5 1.3-6.9 3.6-9.3 2.1-2.1 4.8-3.3 7.7-3.3 3.3 0 6.3 1.3 8.5 3.6.5.5 1.2.8 1.9.8s1.4-.3 1.9-.9c2.1-2.4 5.1-3.8 8.3-3.8h.2c6.4-.1 11.5 5.5 11.6 12.3z"/></svg>