<?xml version="1.0" encoding="utf-8"?>
<!-- Generator: Adobe Illustrator 22.1.0, SVG Export Plug-In . SVG Version: 6.00 Build 0)  -->
<svg version="1.1" id="Layer_1" xmlns="http://www.w3.org/2000/svg"  x="0px" y="0px"
	 width="48px" height="42px" viewBox="0 0 48 42" style="enable-background:new 0 0 48 42;" xml:space="preserve">
<path d="M27.4,0.4C16.1,0.4,6.9,9.6,6.9,21H0l8.9,8.9l0.2,0.3l9.2-9.2h-6.9c0-8.8,7.2-16,16-16s16,7.2,16,16s-7.2,16-16,16
	c-4.4,0-8.4-1.8-11.3-4.7l-3.2,3.2c3.7,3.7,8.8,6,14.5,6C38.8,41.6,48,32.4,48,21S38.8,0.4,27.4,0.4z M25.1,11.9v11.4l9.8,5.8
	l1.6-2.8l-8-4.8v-9.7H25.1z"/>
</svg>
