<?xml version="1.0" encoding="UTF-8"?>
<svg width="52px" height="48px" viewBox="0 0 52 48" version="1.1" xmlns="http://www.w3.org/2000/svg">
  <!-- Generator: Sketch 41.2 (35397) - http://www.bohemiancoding.com/sketch -->
  <title>home_1</title>
  <desc>Created with Sketch.</desc>
  <defs></defs>
  <g id="Page-1" stroke="none" stroke-width="1" fill="none" fill-rule="evenodd">
    <g id="home_1" fill="#000000">
      <g id="레이어_1">
        <path d="M27.1,0.5 C26.8,0.2 26.4,0 26,0 C25.6,0 25.1,0.2 24.9,0.5 L0.9,27.1 C0.5,27.5 0.4,28.2 0.6,28.7 C0.8,29.3 1.4,29.6 2,29.6 L6.9,29.6 L6.9,46.4 C6.9,46.8 7.1,47.2 7.3,47.5 C7.6,47.8 8,48 8.4,48 L19.5,48 L19.5,27.6 L32.5,27.6 L32.5,48 L43.6,48 C44,48 44.4,47.8 44.7,47.5 C45,47.2 45.1,46.8 45.1,46.4 L45.1,29.7 L50,29.7 C50.6,29.7 51.1,29.3 51.4,28.8 C51.7,28.2 51.5,27.6 51.1,27.2 L27.1,0.5 L27.1,0.5 Z" id="Shape"></path>
      </g>
    </g>
  </g>
</svg>
