<svg xmlns="http://www.w3.org/2000/svg" viewBox="0 0 48.2 48"><path d="M17.1 30.1h-6L11 15.4h1.8c.9 0 1.5-.7 1.7-1.4l1.8-11.5c.1-.5-.1-1-.4-1.4-.3-.4-.8-.6-1.3-.6H3.2c-.5 0-.9.2-1.3.6-.3.4-.5.9-.4 1.4l1.8 11.6c.2.8.8 1.4 1.7 1.4h2.6l.1 14.7h-6c-1 0-1.7.8-1.7 1.9l2.3 12.7c.3 1.7 1.9 3.2 3.8 3.2H13c1.9 0 3.5-1.5 3.6-3.3L18.8 32c.1-.5 0-.9-.4-1.3-.3-.4-.8-.6-1.3-.6zM12.5 4l-1.3 8.2H6.3L5.1 4h7.4zm2.8 29.5l-2.1 10.8v.1c0 .2-.1.3-.3.3H6.1c-.2 0-.3-.1-.3-.3L3.7 33.5h11.6zM46.4 9.3h-3.2V1.7c0-1-.7-1.7-1.7-1.7H31.4c-1 0-1.7.7-1.7 1.7v7.7h-3.2c-1 0-1.7.7-1.7 1.7v32.4c0 2.5 2 4.5 4.5 4.5h14.3c2.5 0 4.5-2 4.5-4.5V11c0-.8-.6-1.7-1.7-1.7zM33 9.3v-6h6.7v6H33zm10.6 35.3H29.3c-.7 0-1.2-.5-1.2-1.2V12.7h16.6v30.7c0 .8-.4 1.2-1.1 1.2zm-2.5-25.1c0 1-.7 1.7-1.7 1.7h-6c-1 0-1.7-.7-1.7-1.7s.7-1.7 1.7-1.7h6c1 0 1.7.7 1.7 1.7z"/></svg>