<?xml version="1.0" encoding="utf-8"?>
<!-- Generator: Adobe Illustrator 22.1.0, SVG Export Plug-In . SVG Version: 6.00 Build 0)  -->
<svg version="1.0" id="Layer_1" xmlns="http://www.w3.org/2000/svg"  x="0px" y="0px"
	 width="64px" height="48px" viewBox="0 0 64 48" style="enable-background:new 0 0 64 48;" xml:space="preserve">
<style type="text/css">
	.st0{fill:#040000;}
</style>
<path class="st0" d="M40.937,33.813h1.683v1.65h-5.236v-1.65h1.672v-3.278c0-0.297,0.012-0.605,0.012-0.605h-0.024
	c0,0-0.099,0.221-0.308,0.418l-0.474,0.43l-1.111-1.188l2.124-1.991h1.661L40.937,33.813z M49.351,31.515
	c0,2.255-0.726,4.081-2.959,4.081c-2.233,0-2.959-1.826-2.959-4.081c0-2.256,0.726-4.049,2.959-4.049
	C48.625,27.466,49.351,29.258,49.351,31.515z M47.37,31.515c0-1.276-0.221-2.289-0.979-2.289c-0.758,0-0.979,1.013-0.979,2.289
	c0,1.287,0.22,2.321,0.979,2.321C47.151,33.836,47.37,32.802,47.37,31.515z M20.093,14.827l-0.082,0.033l0.049,0.082l1.23,2.328
	c0.049,0.082,0.049,0.164,0.033,0.213c-0.017,0.016-0.033,0.065-0.164,0.065h-1.541c-0.213,0-0.344-0.081-0.426-0.245l-1.016-2.098
	l-0.033-0.049H18.11h-0.426h-0.098v0.098v2.065c0,0.197-0.082,0.262-0.262,0.262h-1.508c-0.197,0-0.262-0.082-0.262-0.262V9.96
	c0-0.197,0.066-0.262,0.262-0.262h2.491c1.065,0,1.852,0.213,2.327,0.623c0.459,0.41,0.704,1.147,0.704,2.18
	c0,1.147-0.41,1.916-1.196,2.31L20.093,14.827z M19.274,12.501c0-0.41-0.066-0.673-0.213-0.853
	c-0.163-0.163-0.409-0.245-0.786-0.245h-0.606h-0.098v0.098v1.967v0.098h0.098h0.606c0.376,0,0.639-0.082,0.786-0.262
	C19.208,13.139,19.273,12.877,19.274,12.501z M24.304,9.698H22.78c-0.18,0-0.262,0.065-0.262,0.262v7.359
	c0,0.18,0.065,0.262,0.262,0.262h1.524c0.196-0.016,0.262-0.082,0.262-0.279V9.96C24.567,9.78,24.501,9.698,24.304,9.698z
	 M34.727,9.698h-1.524c-0.18,0-0.262,0.065-0.262,0.262v7.359c0,0.18,0.065,0.262,0.262,0.262h1.524
	c0.196-0.016,0.262-0.082,0.262-0.279V9.96C34.989,9.78,34.924,9.698,34.727,9.698z M30.941,10.582
	c0.541,0.59,0.803,1.606,0.803,3.049c0,1.442-0.261,2.458-0.786,3.048c-0.525,0.59-1.377,0.886-2.557,0.902H26.14
	c-0.197,0-0.262-0.082-0.262-0.262V9.96c0-0.197,0.082-0.262,0.262-0.262h2.245C29.565,9.698,30.417,9.992,30.941,10.582z
	 M29.68,13.631c0-0.835-0.099-1.393-0.295-1.704c-0.196-0.311-0.557-0.475-1.049-0.475h-0.312h-0.098v0.098v4.146v0.098h0.098h0.328
	c0.492,0,0.853-0.163,1.049-0.475C29.581,15.024,29.679,14.467,29.68,13.631z M57.296,33.243c0,0.845-0.713,1.514-1.593,1.514
	c-0.889,0-1.592-0.669-1.592-1.514c0-0.828,0.703-1.523,1.592-1.523C56.583,31.72,57.296,32.415,57.296,33.243z M56.187,33.233
	c0-0.247-0.22-0.458-0.484-0.458c-0.264,0-0.484,0.212-0.484,0.458c0,0.264,0.221,0.466,0.484,0.466
	C55.968,33.699,56.187,33.497,56.187,33.233z M63.193,31.97c0,8.854-7.177,16.03-16.03,16.03c-6.691,0-12.42-4.103-14.82-9.929
	H2.433c-0.897,0-1.626-0.638-1.626-1.422V1.422C0.807,0.639,1.537,0,2.433,0h34.259c3.415,0,6.193,2.302,6.193,5.13v11.406
	c1.365-0.378,2.795-0.595,4.28-0.595C56.018,15.941,63.193,23.116,63.193,31.97z M7.66,2.843H4.059v32.385h3.6H7.66V2.843z
	 M31.134,31.97c0-6.13,3.444-11.451,8.499-14.148V5.129c0-1.26-1.319-2.286-2.941-2.286H10.91v32.385h20.558
	C31.251,34.176,31.135,33.087,31.134,31.97z M60.189,31.971c0-7.181-5.843-13.024-13.024-13.024
	c-7.181,0-13.024,5.843-13.024,13.024c0,7.181,5.843,13.024,13.024,13.024C54.346,44.995,60.189,39.152,60.189,31.971z
	 M55.562,28.36l-4.858,6.291h1.337l4.857-6.291C56.899,28.36,55.562,28.36,55.562,28.36z M50.352,29.776
	c0-0.828,0.704-1.523,1.593-1.523c0.88,0,1.593,0.695,1.593,1.523c0,0.845-0.713,1.513-1.593,1.513
	C51.057,31.289,50.352,30.621,50.352,29.776z M51.461,29.767c0,0.264,0.22,0.466,0.484,0.466c0.264,0,0.484-0.203,0.484-0.466
	c0-0.247-0.221-0.458-0.484-0.458C51.682,29.309,51.461,29.52,51.461,29.767z"/>
</svg>
