<?xml version="1.0" encoding="utf-8"?>
<!-- Generator: Adobe Illustrator 22.1.0, SVG Export Plug-In . SVG Version: 6.00 Build 0)  -->
<svg version="1.0" id="Layer_1" xmlns="http://www.w3.org/2000/svg"  x="0px" y="0px"
	 width="64px" height="48px" viewBox="0 0 64 48" style="enable-background:new 0 0 64 48;" xml:space="preserve">
<path d="M49.538,46.154c0,1.02-0.827,1.846-1.846,1.846H16.308c-1.02,0-1.846-0.827-1.846-1.846V22.919l-1.464,1.464
	c-0.721,0.721-1.89,0.721-2.611,0l-9.231-9.231c-0.721-0.721-0.721-1.89,0-2.611l9.389-9.389C12.331,1.366,15.624,0,18.149,0h27.702
	c2.531,0,5.815,1.362,7.604,3.152l9.389,9.389c0.721,0.721,0.721,1.89,0,2.611l-9.231,9.231c-0.721,0.721-1.89,0.721-2.611,0
	l-1.464-1.464V46.154z M19.647,3.692h-1.498c-1.545,0-3.899,0.977-4.993,2.07l-8.083,8.083l6.62,6.62l3.31-3.31
	c1.163-1.163,3.152-0.339,3.152,1.305v25.846h27.692V18.462c0-1.645,1.989-2.468,3.152-1.305l3.31,3.31l6.62-6.62l-8.083-8.083
	c-1.098-1.098-3.443-2.07-4.993-2.07h-1.498c-0.049,0.114-0.1,0.232-0.155,0.354c-0.539,1.198-1.222,2.396-2.067,3.523
	c-2.485,3.314-5.852,5.354-10.131,5.354s-7.645-2.04-10.131-5.354c-0.845-1.127-1.528-2.325-2.067-3.523
	C19.747,3.924,19.695,3.806,19.647,3.692L19.647,3.692z M24.823,5.354C26.665,7.809,29.01,9.231,32,9.231s5.335-1.421,7.177-3.877
	c0.4-0.533,0.757-1.092,1.073-1.662H23.751C24.066,4.262,24.423,4.821,24.823,5.354z M34.769,22.15c0-0.507,0.418-0.919,0.92-0.919
	h5.544c0.508,0,0.92,0.421,0.92,0.919v4.611c0,2.044-1.657,3.701-3.692,3.701c-2.039,0-3.692-1.65-3.692-3.701V22.15z"/>
</svg>
