<?xml version="1.0" encoding="utf-8"?>
<!-- Generator: Adobe Illustrator 22.1.0, SVG Export Plug-In . SVG Version: 6.00 Build 0)  -->
<svg version="1.1" id="Layer_1" xmlns="http://www.w3.org/2000/svg"  x="0px" y="0px"
	 width="48.2px" height="48px" viewBox="0 0 48.2 48" style="enable-background:new 0 0 48.2 48;" xml:space="preserve">
<path d="M17.1,30.1h-6L11,15.4h1.8c0.9,0,1.5-0.7,1.7-1.4l1.8-11.5c0.1-0.5-0.1-1-0.4-1.4c-0.3-0.4-0.8-0.6-1.3-0.6H3.2
	c-0.5,0-0.9,0.2-1.3,0.6C1.6,1.5,1.4,2,1.5,2.5l1.8,11.6c0.2,0.8,0.8,1.4,1.7,1.4h2.6l0.1,14.7h-6c-1,0-1.7,0.8-1.7,1.9l2.3,12.7
	C2.6,46.5,4.2,48,6.1,48h6.9c1.9,0,3.5-1.5,3.6-3.3L18.8,32c0.1-0.5,0-0.9-0.4-1.3C18.1,30.3,17.6,30.1,17.1,30.1z M12.5,4l-1.3,8.2
	H6.3L5.1,4C5.1,4,12.5,4,12.5,4z M15.3,33.5l-2.1,10.8l0,0.1c0,0.2-0.1,0.3-0.3,0.3H6.1c-0.2,0-0.3-0.1-0.3-0.3L3.7,33.5
	C3.7,33.5,15.3,33.5,15.3,33.5z M46.4,9.3h-3.2V1.7c0-1-0.7-1.7-1.7-1.7H31.4c-1,0-1.7,0.7-1.7,1.7v7.7h-3.2c-1,0-1.7,0.7-1.7,1.7
	v32.4c0,2.5,2,4.5,4.5,4.5h14.3c2.5,0,4.5-2,4.5-4.5V11C48.1,10.2,47.5,9.3,46.4,9.3z M33,9.3v-6h6.7v6H33z M43.6,44.6H29.3
	c-0.7,0-1.2-0.5-1.2-1.2V12.7h16.6v30.7C44.7,44.2,44.3,44.6,43.6,44.6z M41.1,19.5c0,1-0.7,1.7-1.7,1.7h-6c-1,0-1.7-0.7-1.7-1.7
	s0.7-1.7,1.7-1.7h6C40.4,17.8,41.1,18.5,41.1,19.5z"/>
</svg>
