<svg xmlns="http://www.w3.org/2000/svg" viewBox="0 0 64 48" class="ridi_icon"><path d="M49.538 46.154c0 1.02-.827 1.846-1.846 1.846H16.308a1.846 1.846 0 0 1-1.846-1.846V22.919l-1.464 1.464a1.846 1.846 0 0 1-2.611 0l-9.231-9.231a1.846 1.846 0 0 1 0-2.611l9.389-9.389C12.331 1.366 15.624 0 18.149 0h27.702c2.531 0 5.815 1.362 7.604 3.152l9.389 9.389c.721.721.721 1.89 0 2.611l-9.231 9.231a1.846 1.846 0 0 1-2.611 0l-1.464-1.464v23.235zM19.647 3.692h-1.498c-1.545 0-3.899.977-4.993 2.07l-8.083 8.083 6.62 6.62 3.31-3.31c1.163-1.163 3.152-.339 3.152 1.305v25.846h27.692V18.462c0-1.645 1.989-2.468 3.152-1.305l3.31 3.31 6.62-6.62-8.083-8.083c-1.098-1.098-3.443-2.07-4.993-2.07h-1.498a18.597 18.597 0 0 1-2.222 3.877c-2.485 3.314-5.852 5.354-10.131 5.354s-7.645-2.04-10.131-5.354a18.597 18.597 0 0 1-2.224-3.879zm5.176 1.662C26.665 7.809 29.01 9.231 32 9.231s5.335-1.421 7.177-3.877c.4-.533.757-1.092 1.073-1.662H23.751c.315.57.672 1.129 1.072 1.662zm9.946 16.796c0-.507.418-.919.92-.919h5.544c.508 0 .92.421.92.919v4.611a3.7 3.7 0 0 1-3.692 3.701 3.692 3.692 0 0 1-3.692-3.701V22.15z"/></svg>