<svg xmlns="http://www.w3.org/2000/svg" viewBox="0 0 64 48"><path d="M40.937 33.813h1.683v1.65h-5.236v-1.65h1.672v-3.278c0-.297.012-.605.012-.605h-.024s-.099.221-.308.418l-.474.43-1.111-1.188 2.124-1.991h1.661l.001 6.214zm8.414-2.298c0 2.255-.726 4.081-2.959 4.081s-2.959-1.826-2.959-4.081c0-2.256.726-4.049 2.959-4.049s2.959 1.792 2.959 4.049zm-1.981 0c0-1.276-.221-2.289-.979-2.289s-.979 1.013-.979 2.289c0 1.287.22 2.321.979 2.321.76 0 .979-1.034.979-2.321zM20.093 14.827l-.082.033.049.082 1.23 2.328a.268.268 0 0 1 .033.213c-.017.016-.033.065-.164.065h-1.541c-.213 0-.344-.081-.426-.245l-1.016-2.098-.033-.049h-.557v2.163c0 .197-.082.262-.262.262h-1.508c-.197 0-.262-.082-.262-.262V9.96c0-.197.066-.262.262-.262h2.491c1.065 0 1.852.213 2.327.623.459.41.704 1.147.704 2.18 0 1.147-.41 1.916-1.196 2.31l-.049.016zm-.819-2.326c0-.41-.066-.673-.213-.853-.163-.163-.409-.245-.786-.245h-.704v2.163h.704c.376 0 .639-.082.786-.262.147-.165.212-.427.213-.803zm5.03-2.803H22.78c-.18 0-.262.065-.262.262v7.359c0 .18.065.262.262.262h1.524c.196-.016.262-.082.262-.279V9.96c.001-.18-.065-.262-.262-.262zm10.423 0h-1.524c-.18 0-.262.065-.262.262v7.359c0 .18.065.262.262.262h1.524c.196-.016.262-.082.262-.279V9.96c0-.18-.065-.262-.262-.262zm-3.786.884c.541.59.803 1.606.803 3.049 0 1.442-.261 2.458-.786 3.048-.525.59-1.377.886-2.557.902H26.14c-.197 0-.262-.082-.262-.262V9.96c0-.197.082-.262.262-.262h2.245c1.18 0 2.032.294 2.556.884zm-1.261 3.049c0-.835-.099-1.393-.295-1.704-.196-.311-.557-.475-1.049-.475h-.41v4.342h.426c.492 0 .853-.163 1.049-.475.18-.295.278-.852.279-1.688zm27.616 19.612c0 .845-.713 1.514-1.593 1.514-.889 0-1.592-.669-1.592-1.514 0-.828.703-1.523 1.592-1.523.88 0 1.593.695 1.593 1.523zm-1.109-.01c0-.247-.22-.458-.484-.458s-.484.212-.484.458c0 .264.221.466.484.466a.472.472 0 0 0 .484-.466zm7.006-1.263c0 8.854-7.177 16.03-16.03 16.03-6.691 0-12.42-4.103-14.82-9.929H2.433c-.897 0-1.626-.638-1.626-1.422V1.422C.807.639 1.537 0 2.433 0h34.259c3.415 0 6.193 2.302 6.193 5.13v11.406a15.993 15.993 0 0 1 4.28-.595c8.853 0 16.028 7.175 16.028 16.029zM7.66 2.843H4.059v32.385H7.66V2.843zM31.134 31.97c0-6.13 3.444-11.451 8.499-14.148V5.129c0-1.26-1.319-2.286-2.941-2.286H10.91v32.385h20.558a16.181 16.181 0 0 1-.334-3.258zm29.055.001c0-7.181-5.843-13.024-13.024-13.024-7.181 0-13.024 5.843-13.024 13.024 0 7.181 5.843 13.024 13.024 13.024 7.181 0 13.024-5.843 13.024-13.024zm-4.627-3.611l-4.858 6.291h1.337l4.857-6.291h-1.336zm-5.21 1.416c0-.828.704-1.523 1.593-1.523.88 0 1.593.695 1.593 1.523 0 .845-.713 1.513-1.593 1.513-.888 0-1.593-.668-1.593-1.513zm1.109-.009c0 .264.22.466.484.466a.474.474 0 0 0 .484-.466c0-.247-.221-.458-.484-.458s-.484.211-.484.458z"/></svg>