<svg xmlns="http://www.w3.org/2000/svg" viewBox="0 0 53.9 48" class="ridi_icon"><path d="M17.5 22.3c1.4 0 2.6-.5 3.6-1.5.9-.9 1.5-2.2 1.5-3.6s-.5-2.6-1.5-3.6c-2-2-5.2-2-7.2 0-1 1-1.5 2.2-1.5 3.6s.5 2.6 1.5 3.6 2.3 1.5 3.6 1.5zm-2.2-5.1c0-.6.2-1.1.7-1.5.4-.4 1-.7 1.5-.7.6 0 1.1.2 1.5.7.4.4.7 1 .7 1.5 0 .6-.2 1.1-.7 1.5-.9.9-2.2.9-3.1 0-.3-.3-.6-.9-.6-1.5zm15.8 8.5c-1.4 0-2.6.5-3.6 1.5-2 2-2 5.2 0 7.2.9.9 2.2 1.5 3.6 1.5s2.7-.5 3.6-1.5c2-2 2-5.2 0-7.2-1-1-2.3-1.5-3.6-1.5zm2.2 5.1c0 .6-.2 1.1-.6 1.5-.8.8-2.3.8-3.1 0-.8-.8-.8-2.2 0-3.1.4-.4 1-.7 1.5-.7.6 0 1.1.2 1.5.7.4.4.7 1 .7 1.6zm-2.2-8.5c1.4 0 2.7-.5 3.6-1.5.9-.9 1.5-2.2 1.5-3.6s-.5-2.6-1.5-3.6c-2-2-5.2-2-7.2 0-.9.9-1.5 2.2-1.5 3.6 0 1.3.5 2.6 1.5 3.6s2.3 1.5 3.6 1.5zm-2.2-5.1c0-.6.2-1.2.6-1.5.4-.4 1-.7 1.5-.7.6 0 1.1.2 1.5.7.4.4.7 1 .7 1.5 0 .6-.2 1.1-.7 1.5-.8.9-2.2.8-3.1 0-.3-.4-.5-.9-.5-1.5zm-11.4 8.5c-1.4 0-2.6.5-3.6 1.5s-1.5 2.2-1.5 3.6.5 2.6 1.5 3.6c.9 1 2.2 1.5 3.6 1.5s2.6-.5 3.6-1.5c2-2 2-5.2 0-7.2-.9-1-2.2-1.5-3.6-1.5zm2.2 5.1c0 .6-.2 1.1-.6 1.5-.9.9-2.2.9-3.1 0-.4-.4-.6-1-.6-1.5 0-.6.2-1.1.6-1.5.4-.4 1-.7 1.5-.7s1.1.2 1.5.7c.5.3.7.9.7 1.5zm1.5-6.8c0 1.7 1.4 3.2 3.2 3.2s3.2-1.4 3.2-3.2-1.4-3.2-3.2-3.2-3.2 1.5-3.2 3.2zm2.8 0c0-.1.1-.3.3-.3s.3.1.3.3c0 .3-.6.3-.6 0zm27.7 14.1h-7.9c3-4.1 4.6-9 4.6-14.1 0-13.2-10.8-24-24-24S.4 10.8.4 24s10.8 24 24 24h27.4c1 0 1.9-.8 1.9-1.9v-6.2c-.2-1-1-1.8-2-1.8zm-1.9 3.7v2.5H37.1c1.1-.7 2.2-1.5 3.2-2.5h9.5zM24.3 3.7c11.2 0 20.3 9.1 20.3 20.3s-9.1 20.3-20.3 20.3C13.1 44.3 4 35.2 4 24S13.1 3.7 24.3 3.7z"/></svg>