<svg xmlns="http://www.w3.org/2000/svg" viewBox="0 0 163 48" class="ridi_icon"><path d="M116.314 1.32c-.8 4.09-1.778 8.002-2.934 11.735-2.785.207-2.263-2.894-4.801-2.934-4.535-.444-10.935-.444-15.469 0-.462 3.183-1.671 5.619-2.134 8.802 4.801.622 10.757.089 16.003.267-.478 3.968-1.845 7.046-2.401 10.935-1.338-.132-2.96-2.162-5.334-2.134-3.032-.275-8.611-.789-11.202.267-.32 5.018-6.109 13.129 0 15.736-.29.955-.416 2.073-.8 2.934-6.537-.341-15.945.689-21.07-.533 2.218-8.896 5.421-20.044 8.268-30.405 1.219-4.436 4.629-11.462-1.067-12.536-.086-1.241.532-1.78.533-2.934h31.472c3.241.508 8.776-.916 10.935.533.042.028-.032.227.001.267zm-6.134 24.004c-1.394 14.961 10.529 21.53 23.471 22.671h9.602c4.356.089 7.558-.977 11.469-1.334.99-3.188 1.687-6.67 2.401-10.135-3.391 1.143-7.239 1.829-11.202 2.4-.374.442-2.56.442-2.934 0-8.481-1.032-14.309-4.717-15.736-12.802-.442-.46-.442-2.741 0-3.201.596-10.481 16.098-17.117 26.405-12.802 2.2.921 3.248 3.389 5.868 3.734 1.467-3.69 2.429-7.884 3.467-12.002-3.065-.58-5.638-1.653-9.335-1.6h-10.402c-15.493 1.391-31.675 10.057-33.074 25.071zM11.763 3.72c5.919.825 2.616 6.627 1.334 11.202-2.713 9.681-4.546 23.025-9.868 28.272-.779.288-1.537.597-2.667.533-.146 1.01-.645 1.666-.534 2.934 7.735.622 16.625.089 24.804.267.17-1.164.444-2.223.8-3.201-7.011-1.434.185-12.709.8-17.07 6.311 8.447 8.888 20.628 23.738 20.537h6.668c1.16-.618 3.464-.092 5.068-.267.458-.876.706-1.961.8-3.201-3.543-.196-5.359-2.248-6.935-4.267-4-5.13-7.984-12.504-11.469-17.603 3.696-2.823 7.339-5.706 11.202-8.802 4.219-3.381 8.454-8.322 14.403-9.335.002-1.154.619-1.692.533-2.934-7.024-.8-15.913.266-22.937-.533h-1.867a16.116 16.116 0 0 1-.8 3.201c1.182.507 2.699.68 2.934 2.134-5.994 5.83-13.744 11.327-20.27 15.736 2.941-5.772 1.548-15.877 8.268-17.87-.189-.989.456-1.145.267-2.134-.033-.04.041-.239 0-.267-4.108-2.756-14.224.946-19.738-.532h-3.734a16.02 16.02 0 0 0-.8 3.2z" clip-rule="evenodd"/></svg>