<?xml version="1.0" encoding="utf-8"?>
<!-- Generator: Adobe Illustrator 22.1.0, SVG Export Plug-In . SVG Version: 6.00 Build 0)  -->
<svg version="1.1" id="Layer_1" xmlns="http://www.w3.org/2000/svg"  x="0px" y="0px"
	 width="48px" height="48px" viewBox="0 0 48 48" style="enable-background:new 0 0 48 48;" xml:space="preserve">
<path d="M24,5.7c3.5,0,6.3,2.8,6.3,6.3s-2.8,6.3-6.3,6.3s-6.3-2.8-6.3-6.3S20.5,5.7,24,5.7 M24,32.7c8.9,0,18.3,4.4,18.3,6.3v3.3
	H5.7V39C5.7,37.1,15.1,32.7,24,32.7 M24,0c-6.6,0-12,5.4-12,12s5.4,12,12,12s12-5.4,12-12S30.6,0,24,0z M24,27c-8,0-24,4-24,12v9h48
	v-9C48,31,32,27,24,27z"/>
</svg>
