<svg viewBox="0 0 48 48" xmlns="http://www.w3.org/2000/svg" class="ridi_icon"><path d="M24 4.3c6.4 0 7.2 0 9.7.1 2.3.2 3.6.6 4.5.9 1.1.4 1.9 1 2.8 1.8.9.8 1.4 1.6 1.8 2.8.2.8.6 2.1.7 4.4.1 2.5.1 3.3.1 9.7 0 6.4 0 7.2-.1 9.7-.1 2.3-.5 3.6-.8 4.5-.4 1.1-1 1.9-1.8 2.8-.8.8-1.6 1.4-2.8 1.8-.8.3-2.1.7-4.5.8-2.5.1-3.3.1-9.7.1-6.4 0-7.2 0-9.7-.1-2.2-.2-3.5-.6-4.4-.9-1.1-.4-1.9-1-2.8-1.8-.8-.8-1.4-1.6-1.8-2.8-.2-.8-.6-2.1-.7-4.4-.1-2.5-.1-3.3-.1-9.7 0-6.4 0-7.2.1-9.7.1-2.3.5-3.6.8-4.5.4-1.1 1-1.9 1.8-2.8.8-.9 1.6-1.4 2.8-1.8.8-.2 2.1-.6 4.4-.7 2.5-.2 3.3-.2 9.7-.2zM24 0c-6.5 0-7.3 0-9.9.1-2.6.2-4.3.6-5.8 1.2C6.7 1.9 5.4 2.7 4 4 2.7 5.3 1.8 6.7 1.2 8.3.6 9.8.2 11.6.1 14.1 0 16.7 0 17.5 0 24s0 7.3.1 9.9c.1 2.6.5 4.3 1.1 5.8.6 1.6 1.4 2.9 2.8 4.3 1.3 1.3 2.7 2.2 4.3 2.8 1.5.6 3.3 1 5.8 1.1 2.6.1 3.4.1 9.9.1s7.3 0 9.9-.1c2.6-.1 4.3-.5 5.8-1.1 1.6-.6 2.9-1.4 4.3-2.8 1.3-1.3 2.2-2.7 2.8-4.3.6-1.5 1-3.3 1.1-5.8.1-2.6.1-3.4.1-9.9s0-7.3-.1-9.9c-.1-2.6-.5-4.3-1.1-5.8-.7-1.6-1.5-2.9-2.8-4.3-1.3-1.3-2.7-2.2-4.3-2.8-1.5-.6-3.3-1-5.8-1.1C31.3 0 30.5 0 24 0z"/><path d="M24 11.7c-6.8 0-12.3 5.5-12.3 12.3 0 6.8 5.5 12.3 12.3 12.3 6.8 0 12.3-5.5 12.3-12.3 0-6.8-5.5-12.3-12.3-12.3zM24 32c-4.4 0-8-3.6-8-8s3.6-8 8-8 8 3.6 8 8-3.6 8-8 8z"/><circle cx="36.8" cy="11.2" r="2.9"/></svg>