<?xml version="1.0" encoding="utf-8"?>
<!-- Generator: Adobe Illustrator 22.1.0, SVG Export Plug-In . SVG Version: 6.00 Build 0)  -->
<svg version="1.1" id="Layer_1" xmlns="http://www.w3.org/2000/svg"  x="0px" y="0px"
	 width="44px" height="48px" viewBox="0 0 44 48" style="enable-background:new 0 0 44 48;" xml:space="preserve">
<g>
	<path d="M39.3,0H4.5C2.1,0,0.2,2,0.2,4.4v39.1c0,2.5,2,4.5,4.5,4.5h22.5c1.1,0,2.1-0.4,2.9-1.1l12.3-10.7c1-0.8,1.5-2,1.5-3.3V4.5
		C43.8,2,41.8,0,39.3,0z M4.5,43.5V4.4h34.8c0.1,0,0.1,0.1,0.1,0.1v26H26.4v13.1H4.7C4.6,43.6,4.5,43.6,4.5,43.5z M30.7,40.5v-5.6
		h6.4L30.7,40.5z"/>
	<rect x="8.9" y="10.9" width="4.4" height="4.4"/>
	<rect x="15.7" y="10.9" width="17.5" height="4.4"/>
	<rect x="8.9" y="19.6" width="19.6" height="4.4"/>
</g>
</svg>
