<svg id="Layer_1" xmlns="http://www.w3.org/2000/svg" x="0" y="0" viewBox="0 0 156 48" xml:space="preserve" class="ridi_icon"><style/><path d="M51.64 20.205c0 11.039-11.433 20.008-25.429 20.008-1.577 0-3.154-.099-4.534-.296l-10.251 6.899c-.197.197-.296.197-.493.197s-.296 0-.493-.197-.394-.493-.197-.789l2.366-8.969C5.512 33.413.781 27.105.781 20.008.781 8.969 12.215 0 26.211 0s25.33 8.969 25.429 20.205zM155.219 5.109l-9.852 26.912c-1.322 3.604-2.763 6.848-4.565 9.612-1.802 2.763-3.845 4.806-6.368 6.368l-4.806-4.445c1.322-1.322 2.643-2.523 3.604-3.845.961-1.322 1.922-2.883 2.883-4.445L124.942 5.109l8.65-.601 6.488 23.068 6.728-23.068 8.411.601zm-45.535-.962c-1.922 0-3.845.36-6.007.961-2.163.601-3.845 1.322-5.166 2.523l2.283 5.407c1.322-.601 2.643-1.201 4.205-1.562 1.562-.36 2.883-.601 4.085-.601 1.562 0 2.883.36 3.845 1.201.961.721 1.322 1.922 1.322 3.604v.961h-4.565c-4.085 0-7.089.721-9.371 2.523-2.163 1.682-3.244 4.085-3.244 7.329 0 3.124.721 5.407 2.523 6.968 1.562 1.682 3.845 2.523 6.728 2.523 1.322 0 2.643-.24 4.205-.721 1.562-.601 3.124-1.322 4.566-2.523l.721 2.523h5.527V16.042c0-3.845-.961-6.968-3.124-8.891-1.805-2.042-4.688-3.004-8.533-3.004zm4.445 23.308c-.36.36-.721.601-1.322.961-.601.36-.961.601-1.562.721-.601.24-1.201.36-1.682.601-.601.24-1.201.24-1.682.24-2.283 0-3.484-1.201-3.484-3.484 0-2.883 2.163-4.445 6.127-4.445h3.604v5.406zM89.916 8.923C88.417 6 85.627 3.693 82.319 3.252a16.257 16.257 0 0 0-2.092-.134c-3.912-.012-6.695 1.983-8.29 3.563-.613-1.366-1.364-2.636-2.046-2.636-1.478 0-4.846.062-4.846.062v43.039h8.131V36.087c1.026.102 2.276.169 2.4.174 4.608.183 9.295-.544 12.432-3.981 3.479-3.812 4.513-10.463 4.086-15.468-.233-2.728-.927-5.446-2.178-7.889zm-4.728 10.708c-.155 3.271-1.183 7.284-3.953 9.314-.236.173-.482.33-.738.471-2.177 1.201-4.798 1.05-7.321.838V10.957c.422-.65.966-1.185 1.687-1.48 2.277-.932 5.158-.371 7.107 1.056 2.758 2.021 3.374 5.81 3.218 9.098z"/></svg>