<svg xmlns="http://www.w3.org/2000/svg" viewBox="0 0 56 48"><path d="M50.8.1L46 0c-4.8 0-13.2 0-17.9 6.1-.4-.5-.8-1-1.3-1.5-1.1-1.1-2.5-2.1-4-2.7-2.4-1-4.9-1.6-8-1.8C12.5 0 10.2 0 7.9 0H5.2c-2.7 0-5 2.2-5 5v33.9c-.1 1 .3 1.9 1 2.7.7.8 1.7 1.1 2.7 1.1 0 0 5.1-.1 7.5-.1 5.1 0 11.8 1.3 15.2 4.7.2.2.4.3.6.5.2.1.5.2.7.2.2 0 .5 0 .7-.2.3-.1.5-.3.6-.5 3.2-3.2 8.1-4.7 15.2-4.7 2.4 0 7.5.1 7.5.1 1 0 2-.4 2.7-1.1.7-.7 1-1.7 1-2.6V5c.2-2.7-2-4.9-4.8-4.9zM46 3.8h4.8c.7 0 1.2.5 1.2 1.2l.1 27.7c-.6-.8-1.4-1.4-2.4-2-.5-.3-1.1-.6-1.9-.9h-.1c-1.3-.5-2.7-1.1-3-2-.1-.4-.1-.8.2-1.4.2-.4.3-.8.6-1.2.1-.1.2-.3.2-.4 2-3.4 2.4-6 1-8.3-1.1-1.9-3-2.7-5.1-2.7-2.1 0-4 .8-5.1 2.7-1.4 2.4-1 5.1 1 8.5.1.1.2.2.2.3.3.5.5.8.6 1.2.2.5.3 1 .2 1.4-.3 1-1.7 1.5-3 2h-.1c-.7.3-1.4.5-1.9.9-1.8 1.1-3.1 2.4-3.7 4.7V10.4C32.4 4.9 38 3.8 46 3.8zM4 39V5c0-.7.5-1.2 1.2-1.2H8c2.1 0 4.3-.1 6.4.1 2.7.2 4.9.7 6.8 1.5 1.1.5 2 1.1 2.8 1.9 1.3 1.3 1.9 2.4 2 2.7v32.3c-5.4-3.1-12.3-3.4-14.7-3.4-2.4 0-7.2.1-7.3.1z"/><path d="M7.1 10.5v3.8h2.1c2.9 0 9.4.3 12.5 2.4v-4.2c-4.7-1.8-9-2.1-11.8-2.1l-2.8.1zm0 8.7V23h2.1c2.9 0 9.4.3 12.5 2.4v-4.1c-4.7-1.8-9-2.1-11.8-2.1H7.1zm0 8.8v3.8h2.1c2.9 0 9.4.3 12.5 2.4v-4.1c-4.7-1.8-9-2.2-11.8-2.1H7.1z"/></svg>