<svg xmlns="http://www.w3.org/2000/svg" viewBox="0 0 34 49"><path d="M17 0C7.9 0 .4 7.4.4 16.6c0 .1.1 7.5 6.2 15.5.9 1.1 1 3.7 1 5.1 0 .5.2 1.1.5 1.5.3.4.9.6 1.4.6h14.8c.6 0 1.1-.2 1.4-.6.4-.4.6-1 .5-1.5-.1-1.2 0-4 .9-5.1 6.2-8 6.3-15.4 6.3-15.5C33.6 7.4 26.1 0 17 0zm-3.5 21.3c.4-.1.7-.4.9-.7.2.3.6.7 1.2.7s1-.3 1.2-.7c.2.3.6.7 1.2.7s1-.4 1.2-.7c.2.4.6.7 1.2.7l-1.7 14h-3.5l-1.7-14zm10.7 8.4c-1.2 1.6-1.6 3.9-1.7 5.6h-1.7L23 16.4l-1.9-.2-.3 2.2-.3.3c-.2-.4-.6-.7-1.2-.7s-1 .4-1.2.7c-.2-.4-.6-.7-1.2-.7s-1 .3-1.2.7c-.2-.3-.6-.7-1.2-.7s-1 .3-1.2.7v-.1l-.3-2.4-2 .2 2.3 18.9h-1.7c-.1-1.7-.5-4.1-1.7-5.7-5.2-6.6-5.5-13-5.5-13C4.4 9.6 10.1 4 17 4c6.9 0 12.6 5.6 12.6 12.6 0 0-.2 6.4-5.4 13.1zm.5 10H9.3c-1.1 0-2 .9-2 2s.9 2 2 2h15.5c1.1 0 2-.9 2-2-.1-1.1-1-2-2.1-2zm-1.8 4.4H11.1c-1.1 0-2 .9-2 2s.9 2 2 2h11.7c1.1 0 2-.9 2-2 0-1.2-.8-2-1.9-2z"/></svg>