<svg xmlns="http://www.w3.org/2000/svg" viewBox="0 0 48 49"><path d="M45.1 25l1.7-2.4c1.3-1.8.7-4.3-1.2-5.4L43 15.9l.5-2.9c.4-2.2-1.2-4.2-3.4-4.3l-3-.1-.8-2.9c-.3-1.1-1.2-2-2.2-2.4-2.3 3.3-7 10-8.1 11.6 2.5 0 12 .1 12 .1.3 0 .6.2.8.5.1.1.1.2.1.4s-.1.4-.2.5c0 0-12.5 14.8-13.6 16.1.9.7 3 2.3 3 2.3.2.2.3.4.3.7v.1c0 .3-.2.6-.5.7l-11 4.4c-.3.1-.6.1-.8-.1-.2-.2-.4-.5-.3-.8L17.4 28c0-.3.2-.6.5-.7.3-.1.6-.1.8.1 0 0 2 1.6 2.9 2.3.8-1.2 5-7.7 6.3-9.5-2.4 0-12.1-.1-12.1-.1-.3 0-.6-.2-.7-.4-.1-.2-.1-.3-.1-.5s0-.3.1-.5l11.1-17c-1.5-1.2-3.7-1-5 .5l-1.9 2.2-2.7-1.1c-2-.9-4.4.2-4.9 2.4l-.8 2.8-3 .1c-2.2.2-3.8 2.2-3.4 4.4l.5 2.9-2.6 1.4c-1.9 1-2.5 3.6-1.2 5.4l1.7 2.4-1.7 2.4c-1.3 1.8-.7 4.3 1.2 5.4L5 34.3 4.5 37c-.4 2.2 1.2 4.2 3.4 4.3l3 .1.8 2.8c.6 2.1 2.9 3.2 4.9 2.4l2.7-1.2 1.9 2.2c1.4 1.7 4.1 1.7 5.5 0l1.9-2.2 2.7 1.2c2 .9 4.4-.2 4.9-2.4l.8-2.9 3-.1c2.2-.1 3.8-2.1 3.4-4.3l-.4-2.8 2.6-1.4c1.9-1 2.5-3.6 1.2-5.4L45.1 25z"/></svg>