<?xml version="1.0" encoding="UTF-8"?>
<svg width="34px" height="49px" viewBox="0 0 34 49" version="1.1" xmlns="http://www.w3.org/2000/svg">
  <!-- Generator: Sketch 41.2 (35397) - http://www.bohemiancoding.com/sketch -->
  <title>lightbulb</title>
  <desc>Created with Sketch.</desc>
  <defs></defs>
  <g id="Page-1" stroke="none" stroke-width="1" fill="none" fill-rule="evenodd">
    <g id="lightbulb" fill="#444444">
      <g id="레이어_1">
        <path d="M17,0 C7.9,0 0.4,7.4 0.4,16.6 C0.4,16.7 0.5,24.1 6.6,32.1 C7.5,33.2 7.6,35.8 7.6,37.2 C7.6,37.7 7.8,38.3 8.1,38.7 C8.4,39.1 9,39.3 9.5,39.3 L24.3,39.3 C24.9,39.3 25.4,39.1 25.7,38.7 C26.1,38.3 26.3,37.7 26.2,37.2 C26.1,36 26.2,33.2 27.1,32.1 C33.3,24.1 33.4,16.7 33.4,16.6 C33.6,7.4 26.1,0 17,0 Z M13.5,21.3 C13.9,21.2 14.2,20.9 14.4,20.6 C14.6,20.9 15,21.3 15.6,21.3 C16.2,21.3 16.6,21 16.8,20.6 C17,20.9 17.4,21.3 18,21.3 C18.6,21.3 19,20.9 19.2,20.6 C19.4,21 19.8,21.3 20.4,21.3 L18.7,35.3 L15.2,35.3 L13.5,21.3 Z M24.2,29.7 C23,31.3 22.6,33.6 22.5,35.3 L20.8,35.3 L23,16.4 L21.1,16.2 L20.8,18.4 C20.7,18.5 20.6,18.6 20.5,18.7 C20.3,18.3 19.9,18 19.3,18 C18.7,18 18.3,18.4 18.1,18.7 C17.9,18.3 17.5,18 16.9,18 C16.3,18 15.9,18.3 15.7,18.7 C15.5,18.4 15.1,18 14.5,18 C13.9,18 13.5,18.3 13.3,18.7 C13.3,18.7 13.3,18.7 13.3,18.6 L13,16.2 L11,16.4 L13.3,35.3 L11.6,35.3 C11.5,33.6 11.1,31.2 9.9,29.6 C4.7,23 4.4,16.6 4.4,16.6 C4.4,9.6 10.1,4 17,4 C23.9,4 29.6,9.6 29.6,16.6 C29.6,16.6 29.4,23 24.2,29.7 Z" id="Shape"></path>
        <path d="M24.7,39.7 L9.3,39.7 C8.2,39.7 7.3,40.6 7.3,41.7 C7.3,42.8 8.2,43.7 9.3,43.7 L24.8,43.7 C25.9,43.7 26.8,42.8 26.8,41.7 C26.7,40.6 25.8,39.7 24.7,39.7 Z" id="Shape"></path>
        <path d="M22.9,44.1 L11.1,44.1 C10,44.1 9.1,45 9.1,46.1 C9.1,47.2 10,48.1 11.1,48.1 L22.8,48.1 C23.9,48.1 24.8,47.2 24.8,46.1 C24.8,44.9 24,44.1 22.9,44.1 Z" id="Shape"></path>
      </g>
    </g>
  </g>
</svg>
