<svg viewBox="0 0 72 36" xmlns="http://www.w3.org/2000/svg" class="ridi_icon"><path d="M21.9 28.2H18c-5.6.1-10.1-4.4-10.2-10V18c-.1-5.6 4.4-10.1 9.9-10.2h11.1c5.6.1 10.1 4.6 10.2 10.2 0 2.3 1.9 4.2 4.2 4.2 2.3 0 4.2-1.9 4.2-4.2C47.2 7.9 38.9-.1 28.8 0H18.3C8.4-.1.2 7.9.1 17.8c0 10 8 18.1 17.9 18.2h10.8l-.9-.6c-2.2-1.6-4.2-3.7-5.7-6l-.3-1.2z"/><path d="M50.1 7.8H54c5.6-.1 10.1 4.4 10.2 9.9v.2c.1 5.6-4.3 10.1-9.9 10.2H43.2c-5.6 0-10.1-4.5-10.2-10.1 0-2.3-1.9-4.2-4.2-4.2-2.3 0-4.2 1.9-4.2 4.2.2 10.1 8.5 18.1 18.5 18h10.5c10 .1 18.1-7.9 18.2-17.8C71.9 8.2 63.9.1 54 0H43.2l.9.6c2.2 1.7 4.2 3.7 5.7 6l.3 1.2z"/></svg>