<?xml version="1.0" encoding="UTF-8"?>
<svg width="72px" height="36px" viewBox="0 0 72 36" version="1.1" xmlns="http://www.w3.org/2000/svg">
  <!-- Generator: Sketch 41.2 (35397) - http://www.bohemiancoding.com/sketch -->
  <title>link_1</title>
  <desc>Created with Sketch.</desc>
  <defs></defs>
  <g id="Page-1" stroke="none" stroke-width="1" fill="none" fill-rule="evenodd">
    <g id="link_1" transform="translate(0.000000, -1.000000)" fill="#000000">
      <g id="레이어_1">
        <path d="M21.9,29.2 L18,29.2 C12.4,29.3 7.9,24.8 7.8,19.2 L7.8,19 C7.7,13.4 12.2,8.9 17.7,8.8 L17.7,8.8 L28.8,8.8 C34.4,8.9 38.9,13.4 39,19 L39,19 C39,21.3 40.9,23.2 43.2,23.2 C45.5,23.2 47.4,21.3 47.4,19 C47.2,8.9 38.9,0.9 28.8,1 L18.3,1 C8.4,0.9 0.2,8.9 0.1,18.8 C0.1,28.8 8.1,36.9 18,37 L28.8,37 L27.9,36.4 C25.7,34.8 23.7,32.7 22.2,30.4 L21.9,29.2 Z" id="Shape"></path>
        <path d="M50.1,8.8 L54,8.8 C59.6,8.7 64.1,13.2 64.2,18.7 L64.2,18.9 C64.3,24.5 59.9,29 54.3,29.1 L54.3,29.1 L43.2,29.1 C37.6,29.1 33.1,24.6 33,19 L33,19 C33,16.7 31.1,14.8 28.8,14.8 C26.5,14.8 24.6,16.7 24.6,19 L24.6,19 C24.8,29.1 33.1,37.1 43.1,37 L53.6,37 C63.6,37.1 71.7,29.1 71.8,19.2 C71.9,9.2 63.9,1.1 54,1 L54,1 L43.2,1 L44.1,1.6 C46.3,3.3 48.3,5.3 49.8,7.6 L50.1,8.8 Z" id="Shape"></path>
      </g>
    </g>
  </g>
</svg>
