<svg xmlns="http://www.w3.org/2000/svg" viewBox="0 0 22 16"><path d="M20.932 11.47h-2.035a.57.57 0 0 0-.406.172l-.496.514-1.556-1.621.366-.277v-.003c.649-.555.986-1.215.986-1.945a2.475 2.475 0 0 0-2.473-2.47 2.476 2.476 0 0 0-2.469 2.47c0 .677.244 1.269.721 1.751l.386.386-.332.263c-1.791 1.412-1.409 3.407-.384 4.426a2.933 2.933 0 0 0 4.167-.007l.604-.628 1.191 1.193a.568.568 0 0 0 .409.173h2.092l-2.553-2.553 1.782-1.844zm-5.59-4.097c.501 0 .883.403.888.886 0 .267-.146.522-.481.788l-.482.383-.533-.532a.906.906 0 0 1-.281-.639.889.889 0 0 1 .889-.886zm.815 6.703a1.319 1.319 0 0 1-1.776-.083c-.47-.468-.59-1.419.261-2.08l.444-.341 1.769 1.773-.698.731zM8.234 3.047c-.109-.112-.189-.128-.377-.128H4.742c-.18 0-.279.011-.376.123l-.346.361c-.131.14-.166.211-.166.434v1.844c0 .215.084.403.475.49l4.996 1.006c1.459.326 2.345 1.377 2.345 2.791v2.88c0 .494-.152.825-.554 1.219l-1.314 1.364c-.446.448-.781.547-1.627.547H3.391c-.846 0-1.124-.098-1.573-.547L.429 14.046c-.174-.178-.177-.38-.003-.536l1.683-1.522a.373.373 0 0 1 .527-.004l.942.949.006.004c.081.09.148.123.375.123h3.679c.187 0 .28-.019.375-.125h.005v-.003l.345-.358c.129-.139.164-.212.162-.435v-1.75c0-.221-.118-.423-.507-.496l-4.963-.999C1.527 8.567.71 7.364.71 6.107v-2.98c0-.494.151-.824.552-1.218L2.574.546l.004-.002.003-.003C3.027.13 3.302 0 4.175 0h4.249c.846 0 1.125.097 1.573.547l1.39 1.384c.173.177.178.38.003.538l-1.686 1.52a.37.37 0 0 1-.524.005l-.946-.947z"/></svg>