<svg xmlns="http://www.w3.org/2000/svg" viewBox="0 0 192 48"><path d="M50.3.1L31 47.3l-.3.6h5.7l4.7-11.5h21.7l-1.9-4.6H42.8L53.1 6.1l16.6 41.5.1.3h5.7L56 .1zM33.5 14.3c0-8.4-6-14.2-14.6-14.2H.8V48h5V4.8h12.7c5.9 0 9.8 3.8 9.8 9.5s-3.9 9.5-9.8 9.5H8.7l.2 4.7h10c8.5-.1 14.6-5.9 14.6-14.2zm85.4 33.6h30.8v-4.6h-25.8V25.7h25.2V21h-25.2V4.6h25.8V.1h-30.8zM98.1.1H80V48h5V4.8h12.7c5.9 0 9.8 3.8 9.8 9.5s-3.9 9.5-9.8 9.5h-9.8v4.7H98c8.6 0 14.6-5.8 14.6-14.2.1-8.4-6-14.2-14.5-14.2zm79.4 28.1c6.5-.6 12.6-5.1 12.6-14 0-4.2-1.5-7.8-4.2-10.5-2.7-2.3-6.4-3.7-10.5-3.7h-18v47.9h5V4.6H175c5.9 0 9.9 3.8 9.9 9.5s-4 9.6-9.9 9.6h-10.5l.2 4.7h7.4l13.1 19.3h6l-13.7-19.5z"/></svg>