<?xml version="1.0" encoding="UTF-8"?>
<svg width="316px" height="49px" viewBox="0 0 316 49" version="1.1" xmlns="http://www.w3.org/2000/svg">
  <!-- Generator: Sketch 41.2 (35397) - http://www.bohemiancoding.com/sketch -->
  <title>logo_ridibooks_2</title>
  <desc>Created with Sketch.</desc>
  <defs></defs>
  <g id="Page-1" stroke="none" stroke-width="1" fill="none" fill-rule="evenodd">
    <g id="logo_ridibooks_2" fill="#1F8EE6">
      <g id="Layer_2">
        <path d="M22.7,17.5 C22.7,19.7 22.3,21.3 21.4,22.3 C20.5,23.3 19,23.8 16.8,23.8 L13.2,23.8 L12.7,23.8 L12.7,23.3 L12.7,11.7 L12.7,11.2 L13.2,11.2 L16.8,11.2 C19,11.2 20.5,11.7 21.4,12.7 C22.2,13.6 22.7,15.2 22.7,17.5 L22.7,17.5 Z M34.8,17.5 C34.8,11.4 33.4,7.1 30.6,4.7 C27.9,2.3 23.2,1 16.9,1 L2.2,1 C1.1,1 0.7,1.4 0.7,2.5 L0.7,46 C0.7,47.1 1.1,47.5 2.2,47.5 L11.2,47.5 C12.3,47.5 12.7,47.1 12.7,46 L12.7,33.8 L12.7,33.3 L13.2,33.3 L15.7,33.3 L16,33.3 L16.1,33.6 L22.1,46 C22.6,47 23.4,47.4 24.6,47.4 L33.7,47.4 C34.5,47.4 34.6,47.1 34.6,47 C34.7,46.7 34.7,46.2 34.4,45.7 L27.1,31.9 L26.8,31.4 L27.3,31.2 L27.6,31.1 C32.4,28.9 34.8,24.3 34.8,17.5 L34.8,17.5 Z M53.9,46 L53.9,2.5 C53.9,1.4 53.5,1 52.4,1 L43.4,1 C42.3,1 41.9,1.4 41.9,2.5 L41.9,46 C41.9,47.1 42.3,47.5 43.4,47.5 L52.4,47.5 C53.5,47.5 53.9,47.1 53.9,46 L53.9,46 Z M84.1,24.3 C84.1,29.3 83.5,32.5 82.4,34.3 C81.2,36.2 79.1,37.1 76.2,37.1 L74.2,37.1 L73.7,37.1 L73.7,36.6 L73.7,12 L73.7,11.4 L74.2,11.4 L76,11.4 C78.9,11.4 81,12.3 82.2,14.2 C83.5,16 84.1,19.3 84.1,24.3 L84.1,24.3 Z M91.6,42.3 C94.7,38.8 96.3,32.8 96.3,24.3 C96.3,15.8 94.7,9.7 91.6,6.3 C88.5,2.8 83.4,1 76.5,1 L63.2,1 C62.1,1 61.7,1.4 61.7,2.5 L61.7,46 C61.7,47.1 62.1,47.5 63.2,47.5 L76.6,47.5 C83.5,47.5 88.5,45.8 91.6,42.3 L91.6,42.3 Z M115.5,46 L115.5,2.5 C115.5,1.4 115,1 114,1 L105,1 C103.9,1 103.5,1.4 103.5,2.5 L103.5,46 C103.5,47.1 103.9,47.5 105,47.5 L114,47.5 C115,47.5 115.5,47.1 115.5,46 L115.5,46 Z M145.6,33.1 C145.6,34.9 145.2,36.2 144.4,37 C143.6,37.8 142.3,38.2 140.3,38.2 L135.4,38.2 L134.9,38.2 L134.9,37.7 L134.9,28.5 L134.9,28 L135.4,28 L140.2,28 C142,28 143.4,28.4 144.3,29.2 C145.1,30 145.6,31.3 145.6,33.1 L145.6,33.1 Z M144.6,14.8 C144.6,16.4 144.2,17.6 143.4,18.3 C142.6,19.1 141.4,19.4 139.7,19.4 L135.5,19.4 L135,19.4 L135,19 L135,10.8 L135,10.3 L135.5,10.3 L139.8,10.3 C141.5,10.3 142.7,10.6 143.5,11.4 C144.2,12.1 144.6,13.2 144.6,14.8 L144.6,14.8 Z M150.4,23 L149.1,22.6 L150.3,22.1 L150.9,21.8 C154.4,20.2 156.2,17.1 156.2,12.6 C156.2,8.2 154.9,5.2 152.5,3.6 C149.9,1.9 145.7,1 140.1,1 L124.6,1 C123.5,1 123.1,1.4 123.1,2.5 L123.1,46 C123.1,47.1 123.5,47.5 124.6,47.5 L141.2,47.5 C152.2,47.5 157.5,43.1 157.5,33.9 C157.5,31 156.9,28.7 155.7,26.9 C154.5,25.1 152.9,23.9 151,23.2 L150.4,23 Z M186.7,24.3 C186.7,29.5 186.3,33 185.4,34.9 C184.5,36.9 182.8,38 180.6,38 C178.4,38 176.8,36.9 175.9,34.9 C175.1,33 174.7,29.5 174.7,24.3 C174.7,19.1 175.1,15.6 175.9,13.7 C176.8,11.7 178.4,10.6 180.6,10.6 C182.8,10.6 184.5,11.7 185.4,13.7 C186.3,15.6 186.7,19.1 186.7,24.3 L186.7,24.3 Z M197.7,35.9 C198.5,32.7 198.9,28.8 198.9,24.3 C198.9,19.7 198.5,15.8 197.7,12.7 C196.9,9.6 195.7,7.1 194.1,5.4 C192.5,3.6 190.6,2.3 188.5,1.6 C186.3,0.8 183.7,0.4 180.7,0.4 C177.7,0.4 175.1,0.8 172.9,1.6 C170.8,2.4 168.9,3.6 167.3,5.4 C165.7,7.2 164.5,9.6 163.7,12.7 C162.9,15.9 162.5,19.8 162.5,24.3 C162.5,28.9 162.9,32.8 163.7,35.9 C164.5,39 165.7,41.5 167.3,43.2 C168.9,45 170.8,46.3 172.9,47 C175.1,47.8 177.7,48.2 180.7,48.2 C183.7,48.2 186.3,47.8 188.5,47 C190.6,46.2 192.5,44.9 194.1,43.2 C195.7,41.5 196.9,39 197.7,35.9 L197.7,35.9 Z M227.7,24.3 C227.7,29.5 227.3,33 226.4,34.9 C225.5,36.9 223.8,38 221.6,38 C219.4,38 217.7,36.9 216.9,34.9 C216.1,33 215.7,29.5 215.7,24.3 C215.7,19.1 216.1,15.6 216.9,13.7 C217.8,11.7 219.4,10.6 221.6,10.6 C223.8,10.6 225.5,11.7 226.4,13.7 C227.2,15.6 227.7,19.1 227.7,24.3 L227.7,24.3 Z M238.6,35.9 C239.4,32.7 239.8,28.8 239.8,24.3 C239.8,19.7 239.4,15.8 238.6,12.7 C237.8,9.6 236.6,7.1 235,5.4 C233.4,3.6 231.5,2.3 229.4,1.6 C227.2,0.8 224.6,0.4 221.6,0.4 C218.6,0.4 216,0.8 213.8,1.6 C211.7,2.4 209.8,3.6 208.2,5.4 C206.6,7.2 205.4,9.6 204.6,12.7 C203.8,15.9 203.4,19.8 203.4,24.3 C203.4,28.9 203.8,32.8 204.6,35.9 C205.4,39 206.6,41.5 208.2,43.2 C209.8,45 211.7,46.3 213.8,47 C216,47.8 218.6,48.2 221.6,48.2 C224.6,48.2 227.2,47.8 229.4,47 C231.5,46.2 233.4,44.9 235,43.2 C236.6,41.5 237.8,39 238.6,35.9 L238.6,35.9 Z M281.3,47.1 C281.4,46.9 281.5,46.5 281.1,45.8 L269.4,22.2 L269.3,21.9 L269.4,21.7 L280.4,2.7 C280.8,2 280.7,1.7 280.6,1.4 C280.5,1.3 280.4,1 279.7,1 L270.2,1 C269.1,1 268.3,1.5 267.7,2.7 L259.4,17.5 L258.4,19.3 L258.4,17.3 L258.4,2.5 C258.4,1.4 258,1 256.9,1 L247.9,1 C246.8,1 246.4,1.4 246.4,2.5 L246.4,46 C246.4,47.1 246.8,47.5 247.9,47.5 L256.9,47.5 C258,47.5 258.4,47.1 258.4,46 L258.4,27.4 L258.4,25 L259.4,27.1 L268.3,45.8 C268.8,46.9 269.6,47.4 270.7,47.4 L280.3,47.4 C281,47.5 281.2,47.3 281.3,47.1 L281.3,47.1 Z M315.7,34.7 C315.7,32.7 315.5,31 315,29.5 C314.5,28.1 313.7,26.8 312.6,25.7 C311.4,24.5 310.3,23.6 309.2,22.9 C308.1,22.2 306.5,21.2 304.4,20.1 C300.1,17.9 298.1,15.9 298.1,13.8 C298.1,12.2 298.9,11.4 299.6,11 C300.4,10.6 301.7,10.4 303.4,10.4 C306.1,10.4 308.5,10.8 310.7,11.5 C311,11.6 311.3,11.6 311.5,11.6 C312,11.6 312.4,11.4 312.6,10.5 L313.8,4.1 C313.9,3.5 313.9,2.7 312.5,2.1 C309.6,0.9 306,0.3 301.7,0.3 C296.3,0.3 292.2,1.3 289.6,3.4 C287.1,5.4 285.8,8.7 285.8,13.3 C285.8,15.5 286.1,17.4 286.7,19.1 C287.3,20.7 288.1,22.1 289.3,23.3 C290.5,24.5 291.6,25.4 292.8,26.2 C293.9,26.9 295.4,27.7 297.1,28.5 C299.6,29.8 301.2,30.8 302.1,31.5 C303.1,32.3 303.6,33.3 303.6,34.4 C303.6,36.9 301.3,38.1 296.7,38.1 C293.9,38.1 291.2,37.6 288.8,36.7 C288.4,36.6 288.1,36.5 287.8,36.5 C287.5,36.5 287.1,36.5 286.8,37.6 L285.6,44.1 C285.4,44.9 285.6,45.2 285.6,45.3 C285.7,45.4 286,45.8 286.9,46.1 C290.4,47.5 294.7,48.2 299.6,48.2 C304.3,48.2 308.2,47.1 311.2,44.9 C314.2,42.7 315.7,39.3 315.7,34.7 L315.7,34.7 Z" id="Shape"></path>
      </g>
    </g>
  </g>
</svg>
