<?xml version="1.0" encoding="UTF-8"?>
<svg width="186px" height="48px" viewBox="0 0 186 48" version="1.1" xmlns="http://www.w3.org/2000/svg">
  <!-- Generator: Sketch 41.2 (35397) - http://www.bohemiancoding.com/sketch -->
  <title>logo_paper_regular</title>
  <desc>Created with Sketch.</desc>
  <defs></defs>
  <g id="Page-1" stroke="none" stroke-width="1" fill="none" fill-rule="evenodd">
    <g id="logo_paper_regular" fill="#231F20">
      <g id="Layer_1">
        <path d="M18.3,0 L0.3,0 L0.3,48 L4.4,48 L4.4,3.7 L17.9,3.7 C24.3,3.7 28.5,7.9 28.5,14 C28.5,20 24.3,24.3 17.9,24.3 L8.4,24.3 L8.5,28 L18.3,28 C27.5,28 32.7,21.5 32.7,14 C32.7,6.5 27.5,0 18.3,0 Z M48.8,0 L29.1,48 L33.8,48 L38.5,36.2 L60.2,36.2 L58.8,32.5 L39.8,32.5 L51.1,4.5 L68.7,48 L73.4,48 L54,0 L48.8,0 Z M95.4,0 L77.4,0 L77.4,48 L81.5,48 L81.5,3.7 L95,3.7 C101.4,3.7 105.6,7.9 105.6,14 C105.6,20 101.4,24.3 95,24.3 L85.5,24.3 L85.5,28 L95.4,28 C104.6,28 109.8,21.5 109.8,14 C109.8,6.5 104.6,0 95.4,0 Z M115.2,48 L145.7,48 L145.7,44.3 L119.4,44.3 L119.4,25.3 L145.2,25.3 L145.2,21.6 L119.4,21.6 L119.4,3.8 L145.8,3.8 L145.8,0.1 L115.2,0.1 L115.2,48 Z M171.8,27.8 C179,27.5 185.1,22.7 185.1,14 C185.1,5.2 178.8,0 170.5,0 L152.5,0 L152.5,48 L156.6,48 L156.6,3.7 L170.1,3.7 C176.5,3.7 180.7,7.9 180.7,14 C180.7,20.1 176.5,24.4 170.1,24.4 L159.8,24.4 L159.9,28.1 L167.2,28.1 L180.8,48 L185.7,48 L171.8,27.8 Z" id="Shape"></path>
      </g>
    </g>
  </g>
</svg>
