<svg xmlns="http://www.w3.org/2000/svg" viewBox="0 0 186 48"><path d="M18.3 0H.3v48h4.1V3.7h13.5c6.4 0 10.6 4.2 10.6 10.3 0 6-4.2 10.3-10.6 10.3H8.4l.1 3.7h9.8c9.2 0 14.4-6.5 14.4-14S27.5 0 18.3 0zm30.5 0L29.1 48h4.7l4.7-11.8h21.7l-1.4-3.7h-19l11.3-28L68.7 48h4.7L54 0h-5.2zm46.6 0h-18v48h4.1V3.7H95c6.4 0 10.6 4.2 10.6 10.3 0 6-4.2 10.3-10.6 10.3h-9.5V28h9.9c9.2 0 14.4-6.5 14.4-14S104.6 0 95.4 0zm19.8 48h30.5v-3.7h-26.3v-19h25.8v-3.7h-25.8V3.8h26.4V.1h-30.6V48zm56.6-20.2c7.2-.3 13.3-5.1 13.3-13.8 0-8.8-6.3-14-14.6-14h-18v48h4.1V3.7h13.5c6.4 0 10.6 4.2 10.6 10.3 0 6.1-4.2 10.4-10.6 10.4h-10.3l.1 3.7h7.3L180.8 48h4.9l-13.9-20.2z"/></svg>