<?xml version="1.0" encoding="UTF-8"?>
<svg width="254px" height="49px" viewBox="0 0 254 49" version="1.1" xmlns="http://www.w3.org/2000/svg">
  <!-- Generator: Sketch 41.2 (35397) - http://www.bohemiancoding.com/sketch -->
  <title>logo_paper_lite</title>
  <desc>Created with Sketch.</desc>
  <defs></defs>
  <g id="Page-1" stroke="none" stroke-width="1" fill="none" fill-rule="evenodd">
    <g id="logo_paper_lite" fill="#000000">
      <g id="Layer_2">
        <path d="M18.6,0.9 L0.8,0.9 L0.8,48.9 L4.9,48.9 L4.9,4.6 L18.2,4.6 C24.5,4.6 28.7,8.8 28.7,14.9 C28.7,20.9 24.6,25.2 18.2,25.2 L8.8,25.2 L9,28.9 L18.7,28.9 C27.7,28.9 33,22.4 33,14.9 C33,7.4 27.7,0.9 18.6,0.9 Z M48.8,0.9 L29.4,48.9 L34.1,48.9 L38.8,37.1 L60.3,37.1 L58.8,33.4 L40.1,33.4 L51.3,5.3 L68.5,48.9 L73.2,48.9 L53.8,0.9 L48.8,0.9 L48.8,0.9 Z M94.7,0.9 L77,0.9 L77,48.9 L81.1,48.9 L81.1,4.6 L94.3,4.6 C100.6,4.6 104.8,8.8 104.8,14.9 C104.8,20.9 100.7,25.2 94.3,25.2 L85,25.2 L85,28.9 L94.7,28.9 C103.7,28.9 109,22.4 109,14.9 C109,7.4 103.8,0.9 94.7,0.9 Z M114.4,48.9 L144.5,48.9 L144.5,45.2 L118.5,45.2 L118.5,26.2 L144,26.2 L144,22.5 L118.4,22.5 L118.4,4.6 L144.4,4.6 L144.4,0.9 L114.4,0.9 L114.4,48.9 Z M183.4,14.9 C183.4,6.1 177.1,0.9 169,0.9 L151.3,0.9 L151.3,48.9 L155.4,48.9 L155.4,4.6 L168.7,4.6 C175,4.6 179.2,8.8 179.2,14.9 C179.2,21 175,25.3 168.7,25.3 L158.4,25.3 L158.5,29 L165.7,29 L179,48.9 L184,48.9 L170.2,28.8 C177.3,28.5 183.4,23.6 183.4,14.9 Z M208.6,16.3 L207,16.3 L202.9,34.9 L213.6,34.9 L213.9,33.4 L204.9,33.4 L208.6,16.3 Z M216.8,34.9 L218.3,34.9 L221.3,21.4 L219.8,21.4 L216.8,34.9 Z M221.4,17.1 C220.8,17.1 220.1,17.6 220.1,18.3 C220.1,18.8 220.6,19.3 221.1,19.3 C221.7,19.3 222.4,18.8 222.4,18.1 C222.4,17.5 221.9,17.1 221.4,17.1 Z M228.4,17.7 L226.9,17.7 L226.1,21.4 L223.9,21.4 L223.6,22.7 L225.8,22.7 L223.7,32.3 C223.6,32.6 223.6,32.9 223.6,33 C223.6,34.5 224.6,35.2 226.3,35.2 C227.1,35.2 227.7,34.9 228.2,34.6 L227.9,33.4 C227.6,33.7 227,33.9 226.5,33.9 C225.6,33.9 225.1,33.4 225.1,32.6 C225.1,32.3 225.1,32.2 225.2,32 L227.3,22.6 L230.1,22.6 L230.4,21.3 L227.6,21.3 L228.4,17.7 Z M238.6,21.1 C234.4,21.1 231.1,24.8 231.1,29.3 C231.1,32.8 233.5,35.2 237.6,35.2 C239.4,35.2 241.1,34.5 242.3,33.6 L241.7,32.5 C240.5,33.5 239,34 237.6,34 C234.3,34 232.6,31.9 232.6,29.4 C232.6,29.2 232.6,28.8 232.7,28.6 L244.2,28.6 C244.3,28.3 244.4,27.5 244.4,26.9 C244.4,23.6 242.2,21.1 238.6,21.1 Z M242.9,27.5 L232.8,27.5 C233.3,24.7 235.7,22.4 238.4,22.4 C241.3,22.4 242.9,24.3 242.9,26.9 C243,27 243,27.3 242.9,27.5 Z M247.7,7.7 L199.6,7.7 C196.5,7.7 193.9,10.2 193.9,13.3 L193.9,37.4 C193.9,40.5 196.5,43 199.6,43 L247.7,43 C250.8,43 253.4,40.5 253.4,37.4 L253.4,13.4 C253.4,10.3 250.8,7.7 247.7,7.7 Z M252.4,37.5 C252.4,40.1 250.3,42.2 247.6,42.2 L199.5,42.2 C196.9,42.2 194.7,40.1 194.7,37.5 L194.7,13.4 C194.7,10.8 196.8,8.7 199.5,8.7 L247.6,8.7 C250.2,8.7 252.4,10.8 252.4,13.4 L252.4,37.5 L252.4,37.5 Z" id="Shape"></path>
      </g>
    </g>
  </g>
</svg>
