<svg viewBox="0 0 254 49" xmlns="http://www.w3.org/2000/svg" class="ridi_icon"><path d="M18.6.9H.8v48h4.1V4.6h13.3c6.3 0 10.5 4.2 10.5 10.3 0 6-4.1 10.3-10.5 10.3H8.8l.2 3.7h9.7c9 0 14.3-6.5 14.3-14S27.7.9 18.6.9zm30.2 0l-19.4 48h4.7l4.7-11.8h21.5l-1.5-3.7H40.1L51.3 5.3l17.2 43.6h4.7L53.8.9h-5zm45.9 0H77v48h4.1V4.6h13.2c6.3 0 10.5 4.2 10.5 10.3 0 6-4.1 10.3-10.5 10.3H85v3.7h9.7c9 0 14.3-6.5 14.3-14S103.8.9 94.7.9zm19.7 48h30.1v-3.7h-26v-19H144v-3.7h-25.6V4.6h26V.9h-30v48zm69-34c0-8.8-6.3-14-14.4-14h-17.7v48h4.1V4.6h13.3c6.3 0 10.5 4.2 10.5 10.3 0 6.1-4.2 10.4-10.5 10.4h-10.3l.1 3.7h7.2L179 48.9h5l-13.8-20.1c7.1-.3 13.2-5.2 13.2-13.9zm25.2 1.4H207l-4.1 18.6h10.7l.3-1.5h-9l3.7-17.1zm8.2 18.6h1.5l3-13.5h-1.5l-3 13.5zm4.6-17.8c-.6 0-1.3.5-1.3 1.2 0 .5.5 1 1 1 .6 0 1.3-.5 1.3-1.2 0-.6-.5-1-1-1zm7 .6h-1.5l-.8 3.7h-2.2l-.3 1.3h2.2l-2.1 9.6c-.1.3-.1.6-.1.7 0 1.5 1 2.2 2.7 2.2.8 0 1.4-.3 1.9-.6l-.3-1.2c-.3.3-.9.5-1.4.5-.9 0-1.4-.5-1.4-1.3 0-.3 0-.4.1-.6l2.1-9.4h2.8l.3-1.3h-2.8l.8-3.6zm10.2 3.4c-4.2 0-7.5 3.7-7.5 8.2 0 3.5 2.4 5.9 6.5 5.9 1.8 0 3.5-.7 4.7-1.6l-.6-1.1c-1.2 1-2.7 1.5-4.1 1.5-3.3 0-5-2.1-5-4.6 0-.2 0-.6.1-.8h11.5c.1-.3.2-1.1.2-1.7 0-3.3-2.2-5.8-5.8-5.8zm4.3 6.4h-10.1c.5-2.8 2.9-5.1 5.6-5.1 2.9 0 4.5 1.9 4.5 4.5.1.1.1.4 0 .6zm4.8-19.8h-48.1c-3.1 0-5.7 2.5-5.7 5.6v24.1c0 3.1 2.6 5.6 5.7 5.6h48.1c3.1 0 5.7-2.5 5.7-5.6v-24c0-3.1-2.6-5.7-5.7-5.7zm4.7 29.8c0 2.6-2.1 4.7-4.8 4.7h-48.1c-2.6 0-4.8-2.1-4.8-4.7V13.4c0-2.6 2.1-4.7 4.8-4.7h48.1c2.6 0 4.8 2.1 4.8 4.7v24.1z"/></svg>