<svg xmlns="http://www.w3.org/2000/svg" viewBox="0 0 68 16"><path d="M12.452.165c-.267.824-1.835 7.157-1.835 7.157l-.175.683c-.378 1.33-.802 2.826-2.422 3.784-.933.571-2.315.884-3.788.884-1.142 0-3.163-.185-3.871-1.423-.221-.39-.332-.852-.332-1.417l.259-1.907.133-.583L1.975.47s.074-.378.094-.444c.036.048.561.074 3.525.048-.004.022-.008.045-.022.091C5.299.971 3.777 7.07 3.777 7.07c0 .01-.291 1.823-.291 1.823l.018.308c.094.898.649 1.371 1.602 1.371.593 0 1.105-.175 1.543-.537.772-.623.999-1.588 1.311-2.942C7.964 7.087 9.415.396 9.493.025c.203.048.838.07 2.987.048-.014.023-.018.046-.028.092zm5.364 5.018c-.378 0-1.069.092-1.69.396-.225.115-.438.249-.663.382l.203-.732-.111-.123c-1.316.267-1.61.303-2.826.474l-.102.068c-.141 1.17-.267 2.05-.79 4.351a278.05 278.05 0 0 1-.613 2.55l.056.108a30.082 30.082 0 0 1 2.707-.048l.088-.096c.137-.705.155-.87.46-2.297.143-.677.442-2.163.589-2.693.271-.125.537-.249.792-.249.607 0 .533.529.51.74-.026.354-.247 1.511-.474 2.504l-.152.64c-.105.474-.221.933-.326 1.403l.046.094a28.961 28.961 0 0 1 2.651-.048l.123-.096c.189-1.101.245-1.395.581-2.997l.169-.736c.328-1.441.494-2.171.245-2.767-.263-.667-.894-.828-1.473-.828zm5.961 1.508c-.653.125-1.069.209-1.483.263-.41.066-.81.125-1.441.213l-.05.046-.046.036c-.066.47-.111.876-.199 1.353a24.761 24.761 0 0 1-.372 1.861c-.143.617-.217.832-.299 1.049-.08.217-.167.428-.328 1.035l.038.056.032.052c.589-.028.975-.048 1.371-.052.396-.014.806 0 1.441.004l.056-.046.06-.05c.092-.547.106-.695.161-.961.056-.287.151-.683.386-1.742.111-.498.235-.993.35-1.501.119-.506.245-1.003.364-1.501l-.018-.06-.023-.055zm7.83-.537c.36.46.647 1.214.279 2.83-.113.488-.44 1.672-1.152 2.468-.925.981-2.156 1.312-3.356 1.312-.47 0-1.198-.06-1.704-.277-1.638-.663-1.377-2.444-1.15-3.433.225-.971.597-1.984 1.403-2.731 1.123-1.035 2.56-1.095 3.163-1.095 1.002.001 1.97.225 2.517.926zm-2.886.722c-.834 0-1.16 1.027-1.437 2.251-.096.424-.173.814-.169 1.196.008.774.529.774.617.774.295 0 .561-.193.786-.512.322-.432.561-1.445.613-1.718.291-1.226.243-1.991-.41-1.991zm30.497-1.578l.038.109a463.43 463.43 0 0 0-.711 2.983c-.482 2.086-.657 3.145-.842 4.235l-.115.088c-1.27-.01-1.634-.01-2.806.04l-.074-.096.116-.445c-.429.361-.892.612-1.392.638a3.182 3.182 0 0 1-1.459-.263c-1.63-.635-1.367-2.416-1.138-3.391.217-.967.599-1.976 1.395-2.713 1.133-1.031 2.45-1.316 3.011-1.095.439.169.723.439.919.756l.038-.296.096-.078a50.99 50.99 0 0 0 2.924-.472zm-3.852 4.798c.088-.355.179-.709.262-1.066.057-.247.106-.466.151-.673.057-.832-.222-1.32-.75-1.32-.836 0-1.158 1.017-1.439 2.219-.098.428-.175.818-.171 1.196.018.76.533.76.617.76.295 0 .806-.189 1.021-.494.115-.151.219-.38.309-.622zm-16.65-4.913c-.378 0-1.073.092-1.69.396-.221.115-.442.249-.659.382l.189-.732-.102-.123c-1.316.267-1.616.303-2.83.474l-.094.068c-.147 1.17-.267 2.05-.79 4.351a278.05 278.05 0 0 1-.613 2.55l.056.108a29.974 29.974 0 0 1 2.701-.048l.094-.096c.133-.705.155-.87.45-2.297.147-.677.452-2.163.595-2.693.271-.125.533-.249.796-.249.603 0 .529.529.506.74-.022.354-.243 1.511-.474 2.504l-.143.641c-.11.474-.229.933-.334 1.403l.046.094a28.864 28.864 0 0 1 2.647-.048l.127-.096c.185-1.101.235-1.395.581-2.997l.165-.736c.33-1.441.498-2.171.253-2.767-.271-.668-.905-.829-1.477-.829zm11.765 1.795c-1.515 1.115-3.447 1.115-5.159 1.115h-.181c-.123.068-.247.239-.247.239-.024.06-.416 1.704-.416 1.704-.004 0-.464 2.241-.541 2.619-.342-.038-1.156-.038-3.141-.014l2.04-8.401c0-.006.814-3.78.814-3.78l.092-.46c.374.046 1.286.054 3.559.026l.876-.008c1.775.008 3.314.028 4.086 1.109.305.406.41.925.41 1.451 0 .4-.06.8-.141 1.136-.315 1.371-1.02 2.5-2.051 3.264zm-1.96-4.926l-1.827-.157-.346-.036-.012.147-.028.193-.862 3.752-.036.189h.47c.726 0 1.431-.024 2.006-.312.699-.34 1.242-1.045 1.427-1.883.203-.918-.088-1.62-.792-1.893zm19.351 3.121c-1.298.263-1.533.305-2.725.466l-.087.087-.014.056-.004-.02c-.888 2.048-.862 1.606-1.584 3.218l-.008-.197-.181-3.495-.113-.115c-1.359.263-1.391.305-2.647.466l-.097.088c-.014.042-.014.088-.022.137l.008.018c.157.802.119.623.277 1.889.074.621.171 1.246.245 1.859.123 1.027.193 1.532.344 3.099-.848 1.399-1.049 1.929-1.865 3.157l.05.114c1.224-.046 1.509-.046 2.416-.046l.197-.225c.687-1.479 5.911-10.441 5.911-10.441l-.101-.115zm-44.081-.516c-.593-.35-1.634-.239-2.335.245-.699.474-.778 1.146-.187 1.501.583.34 1.628.239 2.323-.249.697-.484.784-1.15.199-1.497z"/></svg>