<?xml version="1.0" encoding="UTF-8"?>
<svg width="195px" height="50px" viewBox="0 0 195 50" version="1.1" xmlns="http://www.w3.org/2000/svg">
  <!-- Generator: Sketch 41.2 (35397) - http://www.bohemiancoding.com/sketch -->
  <title>logo_paper_bold_2</title>
  <desc>Created with Sketch.</desc>
  <defs></defs>
  <g id="Page-1" stroke="none" stroke-width="1" fill="none" fill-rule="evenodd">
    <g id="logo_paper_bold_2" fill="#000000">
      <g id="Layer_1">
        <g id="Group">
          <path d="M50.6,0.1 L31.1,47.9 L30.1,49.9 L38.1,49.9 L42.8,38.4 L65.6,38.4 L69.8,48.9 L70.1,49.9 L78,49.9 L57.7,0.1 L50.6,0.1 Z M45.3,31.8 L54.1,9.8 L62.9,31.8 L45.3,31.8 Z" id="Shape"></path>
          <path d="M35.5,15.3 C35.5,6.4 29.1,0.1 19.9,0.1 L0.8,0.1 L0.8,50 L7.8,50 L7.8,30.5 L19.9,30.5 C29.1,30.4 35.5,24.1 35.5,15.3 Z M7.8,23.8 L7.8,6.8 L19.5,6.8 C24.8,6.8 28.3,10.1 28.3,15.3 C28.3,20.5 24.8,23.8 19.5,23.8 L7.8,23.8 Z" id="Shape"></path>
          <path d="M180.3,30 C186.1,28.9 192.1,24.5 192.1,15.2 C192.1,10.8 190.5,6.9 187.5,3.9 C184.5,1.4 180.6,-1.77635684e-15 176.4,-1.77635684e-15 L157.4,-1.77635684e-15 L157.4,49.9 L164.4,49.9 L164.4,30.4 L172.6,30.4 L185.7,49.7 L194.2,49.7 L180.3,30 Z M164.4,23.7 L164.4,6.6 L176,6.6 C181.4,6.6 184.9,9.9 184.9,15.1 C184.9,20.2 181.3,23.7 176,23.7 L164.4,23.7 Z" id="Shape"></path>
          <polygon id="Shape" points="118.9 49.9 151.7 49.9 151.7 43.3 125.9 43.3 125.9 27.7 151.1 27.7 151.1 21 125.9 21 125.9 6.6 151.7 6.6 151.7 0.1 118.9 0.1"></polygon>
          <path d="M99.1,0.1 L80,0.1 L80,50 L87,50 L87,30.5 L99,30.5 C108.2,30.5 114.6,24.2 114.6,15.3 C114.7,11.1 113.2,7.3 110.5,4.5 C107.7,1.7 103.6,0.1 99.1,0.1 Z M98.7,23.8 L87,23.8 L87,6.8 L98.7,6.8 C104,6.8 107.5,10.1 107.5,15.3 C107.5,20.5 104,23.8 98.7,23.8 Z" id="Shape"></path>
        </g>
      </g>
    </g>
  </g>
</svg>
