<svg viewBox="0 0 195 50" xmlns="http://www.w3.org/2000/svg" class="ridi_icon"><path d="M50.6.1L31.1 47.9l-1 2h8l4.7-11.5h22.8l4.2 10.5.3 1H78L57.7.1h-7.1zm-5.3 31.7l8.8-22 8.8 22H45.3zm-9.8-16.5C35.5 6.4 29.1.1 19.9.1H.8V50h7V30.5h12.1c9.2-.1 15.6-6.4 15.6-15.2zM7.8 23.8v-17h11.7c5.3 0 8.8 3.3 8.8 8.5s-3.5 8.5-8.8 8.5H7.8zM180.3 30c5.8-1.1 11.8-5.5 11.8-14.8 0-4.4-1.6-8.3-4.6-11.3-3-2.5-6.9-3.9-11.1-3.9h-19v49.9h7V30.4h8.2l13.1 19.3h8.5L180.3 30zm-15.9-6.3V6.6H176c5.4 0 8.9 3.3 8.9 8.5 0 5.1-3.6 8.6-8.9 8.6h-11.6zm-45.5 26.2h32.8v-6.6h-25.8V27.7h25.2V21h-25.2V6.6h25.8V.1h-32.8zM99.1.1H80V50h7V30.5h12c9.2 0 15.6-6.3 15.6-15.2.1-4.2-1.4-8-4.1-10.8-2.8-2.8-6.9-4.4-11.4-4.4zm-.4 23.7H87v-17h11.7c5.3 0 8.8 3.3 8.8 8.5s-3.5 8.5-8.8 8.5z"/></svg>