<svg xmlns="http://www.w3.org/2000/svg" viewBox="0 0 50 16"><path d="M19.04.282l-6.487 15.475H8.321L5.13 3.408c-.195-.762-.364-1.04-.951-1.36C3.214 1.525 1.626 1.036.228.733l.096-.45h6.811c.87 0 1.65.577 1.847 1.577l1.686 8.956L14.832.283h4.208zm16.583 10.423c.014-4.085-5.649-4.309-5.61-6.134.011-.555.541-1.145 1.695-1.297.577-.074 2.156-.132 3.951.693l.704-3.281C35.399.335 34.158 0 32.615 0c-3.954 0-6.74 2.104-6.765 5.116-.024 2.227 1.99 3.47 3.508 4.211 1.559.758 2.082 1.245 2.077 1.923-.013 1.038-1.244 1.496-2.395 1.514-2.013.033-3.182-.543-4.115-.977l-.725 3.392c.935.429 2.661.803 4.454.821 4.201 0 6.954-2.079 6.969-5.295m10.447 5.053h3.703L46.542.282h-3.419c-.767 0-1.416.447-1.704 1.136l-6.006 14.339h4.204l.834-2.31h5.134l.485 2.311zm-4.467-5.483l2.106-5.812 1.214 5.812h-3.32zM24.76.282l-3.31 15.475h-4.003L20.757.282h4.003z"/></svg>