<svg xmlns="http://www.w3.org/2000/svg" viewBox="0 0 49 38"><path d="M45.6 33.5V13c-.5.6-1.2 1.3-1.9 1.7-4.8 3.7-8.6 6.7-11.4 9-.9.8-1.6 1.3-2.2 1.8-.5.4-1.3.9-2.3 1.3-.9.5-1.9.6-2.7.6-.9 0-1.8-.2-2.7-.6-.9-.5-1.7-.9-2.3-1.3-.5-.4-1.3-1-2.2-1.8-2.8-2.4-6.6-5.3-11.4-9-.6-.5-1.3-1.1-1.9-1.7v20.6c0 .2.1.5.2.6.2.2.4.2.6.2h39.4c.2 0 .5-.1.6-.2.1-.2.2-.4.2-.7zm0-28.1v-.9c0-.2 0-.3-.1-.3s-.1-.1-.2-.2c-.1-.2-.2-.2-.2-.2s-.2 0-.4-.1H5.3c-.2 0-.5.1-.6.2-.1.1-.2.4-.2.6 0 3 1.3 5.5 3.9 7.6 3.5 2.7 7 5.6 10.8 8.5.1.1.4.3.9.8s.9.8 1.3 1c.3.2.7.5 1.2.9.5.3.9.5 1.3.7.4.2.8.2 1.2.2.4 0 .7-.1 1.2-.2.4-.2.9-.4 1.3-.7.5-.3.9-.6 1.2-.9.3-.2.7-.5 1.3-1 .5-.5.9-.7.9-.8 3.7-2.9 7.3-5.8 10.8-8.5.9-.8 1.9-1.8 2.7-3.1.7-1.3 1.1-2.5 1.1-3.6zm3.4-.9v29.1c0 1.2-.4 2.2-1.3 3.1-.9.9-1.9 1.3-3.1 1.3H5.3c-1.2 0-2.2-.4-3.1-1.3-.9-.9-1.3-1.9-1.3-3.1V4.5c0-1.2.4-2.2 1.3-3.1C3.1.5 4.1.1 5.3.1h39.4c1.2 0 2.2.4 3.1 1.3.8.9 1.2 1.9 1.2 3.1z"/></svg>