<?xml version="1.0" encoding="UTF-8"?>
<svg width="30px" height="41px" viewBox="0 0 30 41" version="1.1" xmlns="http://www.w3.org/2000/svg">
  <!-- Generator: Sketch 41.2 (35397) - http://www.bohemiancoding.com/sketch -->
  <title>minion_pro_5</title>
  <desc>Created with Sketch.</desc>
  <defs></defs>
  <g id="Page-1" stroke="none" stroke-width="1" fill="none" fill-rule="evenodd">
    <g id="minion_pro_5" fill="#000000">
      <g id="레이어_1">
        <path d="M29.6,0.4 L10.5,0.4 L5.2,19.1 L5.7,19.7 C6.7,19.4 8.7,18.8 11,18.8 C16.6,18.8 19.9,22 19.9,28 C19.9,33.4 17.5,36.9 12.7,36.9 C8.3,36.9 5.5,33.9 4.1,32.5 C3.6,32 3.1,32 2.5,32.3 C1.6,32.7 0.5,34.2 0.4,35 C0.4,36.1 0.9,36.9 1.8,37.7 C3.1,38.9 5.9,40.1 8.9,40.1 C11.7,40.1 15.4,39.2 18.9,36.9 C24,33.9 27.2,29.5 27,24.7 C27,18.7 22.2,14.6 15.8,14.6 C14.5,14.6 12.3,15.2 8.9,16.1 L12.1,6.1 L27.3,6.1 L29.6,0.4 L29.6,0.4 Z" id="Shape"></path>
      </g>
    </g>
  </g>
</svg>
