<?xml version="1.0" encoding="UTF-8"?>
<svg width="28px" height="42px" viewBox="0 0 28 42" version="1.1" xmlns="http://www.w3.org/2000/svg">
  <!-- Generator: Sketch 41.2 (35397) - http://www.bohemiancoding.com/sketch -->
  <title>minion_pro_8</title>
  <desc>Created with Sketch.</desc>
  <defs></defs>
  <g id="Page-1" stroke="none" stroke-width="1" fill="none" fill-rule="evenodd">
    <g id="minion_pro_8" fill="#000000">
      <g id="레이어_1">
        <path d="M17.9,0.7 C10.8,0.7 5,5.7 5,12 C5,16 7.4,18.6 10.1,20.7 C8,21.9 5.1,23.7 3.5,25.1 C1.2,26.7 0,28.8 0,31.5 C0,37.9 5.5,41.4 12,41.4 C19.5,41.4 26.7,36.3 26.7,29.4 C26.7,24.8 23.7,22.1 19.6,19.1 C22.9,17.1 23.9,16.3 25,15.5 C26.8,14 28,12 28,9.7 C28.1,4 23.1,0.7 17.9,0.7 Z M16.8,3.1 C20,3.1 21.9,6 21.9,9.4 C21.9,13.2 20.1,15.9 17.5,17.6 C14.8,15.8 11.2,13.5 11.2,9 C11.3,6 13.7,3.1 16.8,3.1 L16.8,3.1 Z M13.1,39.1 C8.9,39.1 6.6,35.5 6.6,31.6 C6.6,27.5 8.8,24.3 12.2,22.1 C16.7,25.1 19.7,27.5 19.7,31.7 C19.7,36.1 16.8,39.1 13.1,39.1 L13.1,39.1 Z" id="Shape"></path>
      </g>
    </g>
  </g>
</svg>
