<?xml version="1.0" encoding="UTF-8"?>
<svg width="30px" height="48px" viewBox="0 0 30 48" version="1.1" xmlns="http://www.w3.org/2000/svg">
  <!-- Generator: Sketch 41.2 (35397) - http://www.bohemiancoding.com/sketch -->
  <title>mobile</title>
  <desc>Created with Sketch.</desc>
  <defs></defs>
  <g id="Page-1" stroke="none" stroke-width="1" fill="none" fill-rule="evenodd">
    <g id="mobile" fill="#000000">
      <g id="레이어_1">
        <path d="M25.5,0 L4.5,0 C2,0 0,2 0,4.5 L0,43.5 C0,46 2,48 4.5,48 L25.5,48 C28,48 30,46 30,43.5 L30,4.5 C30,2 28,0 25.5,0 Z M9,2.2 L21,2.2 L21,3.7 L9,3.7 L9,2.2 Z M15,45 C13.3,45 12,43.7 12,42 C12,40.3 13.3,39 15,39 C16.7,39 18,40.3 18,42 C18,43.7 16.7,45 15,45 Z M27,36 L3,36 L3,6 L27,6 L27,36 Z" id="Shape"></path>
      </g>
    </g>
  </g>
</svg>
