<svg xmlns="http://www.w3.org/2000/svg" viewBox="0 0 50 48"><path d="M8.4 48c-3.7 0-6.7-1.9-7.5-4.8-.5-1.8-.1-3.8 1.2-5.6 1.3-1.7 3.2-3.1 5.6-3.8 1-.3 2.1-.5 3.1-.5.8 0 1.5.1 2.3.2h.2c.2 0 .5-.1.6-.2.2-.2.4-.5.4-.8V4.6c0-.1.1-.3.3-.3L49 0c.1 0 .2 0 .2.1.1.1.1.1.1.2v36.1c0 .1-.1.2-.1.3-.2 3.3-3 6.3-6.9 7.5-1 .3-2.1.5-3.2.5-3.7 0-6.7-1.9-7.5-4.8-.5-1.8-.1-3.8 1.2-5.6 1.3-1.8 3.2-3.1 5.6-3.8 1-.3 2.1-.5 3.1-.5.8 0 1.6.1 2.3.2h.2c.2 0 .5-.1.6-.2.2-.2.4-.5.4-.8v-16c0-.3-.1-.6-.3-.8-.2-.2-.4-.2-.7-.2h-.1l-24.5 3.2c-.5.1-.9.5-.9 1v23.3c0 3.4-2.9 6.6-7 7.8-1 .4-2 .5-3.1.5z"/></svg>