<?xml version="1.0" encoding="UTF-8"?>
<svg width="44px" height="48px" viewBox="0 0 44 48" version="1.1" xmlns="http://www.w3.org/2000/svg">
  <!-- Generator: Sketch 41.2 (35397) - http://www.bohemiancoding.com/sketch -->
  <title>myridi_1</title>
  <desc>Created with Sketch.</desc>
  <defs></defs>
  <g id="Page-1" stroke="none" stroke-width="1" fill="none" fill-rule="evenodd">
    <g id="myridi_1" transform="translate(0.000000, -1.000000)" fill="#3D4142">
      <g id="Layer_1">
        <g id="Group">
          <path d="M26.5,27.9 C30.8,25.5 33.9,20.7 33.9,15.4 C33.9,7.5 27.5,1 19.5,1 C11.6,0.9 5,7.4 5,15.4 C5,20.9 7.9,25.5 12.4,27.9 C5.3,30.6 0.2,37.7 0.2,45.7 L0.2,49 L3.4,49 L3.4,45.8 C3.4,37 10.6,29.7 19.5,29.7 C23,29.7 26.4,30.8 29,32.9 L33.7,32.9 C31.6,30.8 29.2,29 26.5,27.9 Z M8.2,15.4 C8.2,9.3 13.2,4.2 19.4,4.2 C25.5,4.2 30.6,9.2 30.6,15.4 C30.6,21.5 25.6,26.6 19.4,26.6 C13.2,26.6 8.2,21.7 8.2,15.4 Z" id="Shape"></path>
          <g transform="translate(18.000000, 37.000000)" id="Shape">
            <path d="M1.7,0.1 L4.4,0.1 L6.6,7.2 C6.9,8 7.1,9 7.1,9.1 L7.1,9.1 C7.1,8.9 7.4,8 7.7,7.2 L9.9,0.1 L12.6,0.1 L14.4,12 L11.5,12 L10.9,6.4 C10.7,5.6 10.7,4.8 10.7,4.6 L10.7,4.6 C10.7,4.8 10.5,5.6 10.2,6.4 L8.5,12 L5.8,12 L4,6.3 C3.8,5.5 3.5,4.7 3.5,4.5 L3.5,4.5 C3.5,4.7 3.5,5.5 3.3,6.3 L2.7,12 L0.1,12 L1.7,0.1 Z"></path>
            <polygon points="18.8 7.5 14.9 0.1 18.1 0.1 20.3 4.8 20.3 4.8 22.5 0.1 25.2 0.1 21.3 7.5 21.3 12 18.4 12 18.4 7.5"></polygon>
          </g>
        </g>
      </g>
    </g>
  </g>
</svg>
