<svg xmlns="http://www.w3.org/2000/svg" viewBox="0 0 48 48"><path d="M41.4 21v-7.1h-2.7v1c-.4-.5-1.2-1.3-2.3-1.3-1.8 0-3.8 1.2-3.8 4.6 0 3.5 3.6 3.8 3.6 3.8s1.7.1 2.5-1.2v1c-.1.7-.6 1.5-2.4 1.3v2.5s3.3 0 4.3-1.8c.9-1.5.8-2.3.8-2.8zm-2.6-2.2c-.3.6-.9 1-1.6 1-1 0-1.8-.8-1.8-1.9 0-1 .8-1.9 1.8-1.9.7 0 1.3.4 1.6 1v1.8zm-12-5.2c-2.5 0-4.5 1.9-4.5 4.3s2 4.3 4.5 4.3 4.5-1.9 4.5-4.3-2-4.3-4.5-4.3zm-.1 6.2c-1 0-1.8-.8-1.8-1.9 0-1.1.8-1.9 1.8-1.9s1.8.8 1.8 1.9c0 1.1-.8 1.9-1.8 1.9zm-15-6.1c-1.1 0-1.8.8-2.2 1.3v-4.7H6.8v11.6h2.7v-1c.8 1.3 2.5 1.2 2.5 1.2s3.6-.3 3.6-3.8c-.1-3.4-2-4.6-3.9-4.6zm-.7 6.1c-.7 0-1.2-.4-1.6-.9V17c.4-.6 1-.9 1.6-.9 1 0 1.8.8 1.8 1.9 0 1.1-.7 1.8-1.8 1.8zm5.4-9.8v2.8s.4 0 .9.5c.4.4.5 1.7.5 2V22h2.7v-6.8s0-2.2-1-3.8c-1-1.6-3.1-1.4-3.1-1.4zM38.1 0H9.9C4.7 0 .5 4.3.5 9.6v28.8c0 5.3 4.2 9.6 9.4 9.6h28.2c5.2 0 9.4-4.3 9.4-9.6V9.6c0-5.3-4.2-9.6-9.4-9.6zm7.8 24.4c0 4.9-3.9 8.9-8.7 8.9h-7.8c-.9 2.1-3.6 8.1-3.8 9-.3 1.1-.8 1.4-1.5 1.4s-1.2-1.4-1.2-1.4l-4-9h-8c-4.8 0-8.7-4-8.7-8.9v-14c0-4.9 3.9-8.9 8.7-8.9h26.2c4.8 0 8.7 4 8.7 8.9l.1 14z"/></svg>