<?xml version="1.0" encoding="UTF-8"?>
<svg width="48px" height="48px" viewBox="0 0 48 48" version="1.1" xmlns="http://www.w3.org/2000/svg">
  <!-- Generator: Sketch 41.2 (35397) - http://www.bohemiancoding.com/sketch -->
  <title>new_1</title>
  <desc>Created with Sketch.</desc>
  <defs></defs>
  <g id="Page-1" stroke="none" stroke-width="1" fill="none" fill-rule="evenodd">
    <g id="new_1" fill="#000000">
      <g id="레이어_1">
        <path d="M43.2,0 L4.8,0 C2.1,0 0,2.1 0,6 L0,44.4 C0,45.9 2.1,48 4.8,48 L43.2,48 C45.8,48 48,45.8 48,43.2 L48,4.8 C48,2.1 45.9,0 43.2,0 Z M34.9,33.7 C34.9,34 34.8,34.3 34.7,34.3 C34.6,34.4 34.3,34.4 33.9,34.4 L30.3,34.4 C30,34.4 29.8,34.4 29.7,34.3 C29.6,34.3 29.5,34.1 29.3,33.9 L18.3,19.7 L18.3,33.7 C18.3,34 18.3,34.2 18.2,34.2 C18.1,34.3 17.9,34.3 17.5,34.3 L14.1,34.3 C13.7,34.3 13.5,34.3 13.4,34.2 C13.3,34.1 13.2,33.9 13.2,33.7 L13.2,14.4 C13.2,14.1 13.2,13.9 13.3,13.8 C13.4,13.7 13.7,13.7 14.1,13.7 L17.9,13.7 C18.2,13.7 18.4,13.7 18.5,13.8 C18.6,13.9 18.7,14 18.9,14.2 L29.7,28.3 L29.7,14.3 C29.7,14 29.7,13.9 29.8,13.8 C29.9,13.7 30.1,13.7 30.5,13.7 L34,13.7 C34.5,13.7 34.7,13.7 34.8,13.8 C34.9,13.9 34.9,14.1 34.9,14.3 L34.9,33.7 L34.9,33.7 Z" id="Shape"></path>
      </g>
    </g>
  </g>
</svg>
