<svg viewBox="0 0 88 36" xmlns="http://www.w3.org/2000/svg" class="ridi_icon"><path d="M69.6 0H18.3C8.4 0 .3 8.1.3 18s8.1 18 18 18h51.4c9.9 0 18-8.1 18-18-.1-9.9-8.2-18-18.1-18zm-40 27.2h-4.4l-3.4-8.5c-.5-1.2-.9-3.2-.9-3.2s-.2 1.9-.5 3.2l-1.7 8.6h-4.5l3.6-18.5h4.4l3.4 8.5c.5 1.2.9 3.2.9 3.2s.1-1.9.5-3.2l1.6-8.5h4.5l-3.5 18.4zm18.6-14.6h-7l-.6 3.3h5.6l-.8 3.9h-5.7l-.7 3.4h7.4l-.8 3.9H33.8l3.6-18.4h11.5l-.7 3.9zm19.6 14.6h-5.2l-.6-9.4v-2.1s-.3 1-.8 2.1l-4.1 9.3h-5.2L50.7 8.8h4.7l.3 11.5v1.9s.1-.8.6-1.9l5.1-11.5h3.8l.5 11.5v1.9s.2-.9.6-1.9L71 8.8h4.9l-8.1 18.4z"/></svg>