<svg xmlns="http://www.w3.org/2000/svg" viewBox="0 0 54 48"><path d="M53.4 4.8c0-.1 0-.3-.1-.4 0-.1 0-.2-.1-.4v-.1c-.2-.3-.2-.5-.3-.9 0-.1-.1-.2-.1-.3-.1-.1-.1-.3-.2-.4-.8-1.2-2-2-3.4-2.2-.2 0-.5-.1-.8-.1H17.9c-2.8-.1-5.1 2.3-5.1 5v3.3h3.8V7h30.1v25.2H45V36h3.3c2.7 0 5.1-2.3 5.1-5.1V4.8zM41.7 15.5c0-.1 0-.2-.1-.4V15c-.1-.2-.1-.4-.2-.8l-.1-.1c-.1-.1-.1-.3-.2-.4-.8-1.2-2-2-3.4-2.2-.2 0-.5-.1-.8-.1H5.7C3 11.4.6 13.6.6 16.5v26.9c0 .1 0 .3.1.4 0 .1 0 .2.1.4v.1c.1.2.1.4.2.7.1.1.1.2.2.3.1.1.1.2.2.3.8 1.2 2 2 3.4 2.2l31.9.1c2.7 0 5.1-2.3 5.1-5.1V16c0-.1 0-.3-.1-.5zM35.2 41H7.8V18.2h27.5V41h-.1z"/></svg>