<svg xmlns="http://www.w3.org/2000/svg" viewBox="0 0 60 49"><path d="M30 .2C14 .2.9 10.9.9 24.2s13 24 29.1 24c2.4 0 4.7-.2 6.9-.7 1.9-.4 2.6-2.2 1.6-3.9l-3.6-6.3c-1.9-3.3-.4-6 3.5-6h15.9c1.9 0 4-1.5 4.4-3.3.2-1.2.4-2.5.4-3.8 0-13.3-13-24-29.1-24zM10.4 27.7c-2.7 0-4.9-1.6-4.9-3.5s2.2-3.5 4.9-3.5 4.9 1.6 4.9 3.5-2.2 3.5-4.9 3.5zm4.4-12.4c-1.9-1.9-2.4-4.6-1-5.9 1.4-1.4 4-.9 5.9 1 1.9 1.9 2.4 4.6 1 5.9-1.3 1.4-3.9.9-5.9-1zm17.3 25.3c-.3 2.3-3.1 3.8-6.3 3.4-3.2-.4-5.6-2.6-5.3-4.8.3-2.3 3.1-3.8 6.3-3.4 3.2.4 5.6 2.5 5.3 4.8zM30 13c-1.9 0-3.5-2.2-3.5-4.9s1.6-4.9 3.5-4.9 3.5 2.2 3.5 4.9S31.9 13 30 13zm9.2 3.3c-1.4-1.4-.9-4 1-5.9 1.9-1.9 4.6-2.4 5.9-1 1.4 1.4.9 4-1 5.9-1.9 1.9-4.5 2.4-5.9 1zm10.4 11.4c-2.7 0-4.9-1.6-4.9-3.5s2.2-3.5 4.9-3.5 4.9 1.6 4.9 3.5-2.2 3.5-4.9 3.5z"/></svg>