<?xml version="1.0" encoding="utf-8"?>
<!-- Generator: Adobe Illustrator 16.0.4, SVG Export Plug-In . SVG Version: 6.00 Build 0)  -->
<!DOCTYPE svg PUBLIC "-//W3C//DTD SVG 1.1//EN" "http://www.w3.org/Graphics/SVG/1.1/DTD/svg11.dtd">
<svg version="1.1" id="Layer_2" xmlns="http://www.w3.org/2000/svg"  x="0px" y="0px"
	 width="36px" height="48px" viewBox="0 0 36 48" enable-background="new 0 0 36 48" xml:space="preserve">
<path d="M33.682,0H2.319C1.325,0,0.518,0.808,0.518,1.802v44.397C0.518,47.193,1.325,48,2.319,48h31.363
	c0.994,0,1.801-0.808,1.801-1.801V1.802C35.482,0.808,34.676,0,33.682,0z M2.387,30.896c0,0.396-0.322,0.718-0.719,0.718H1.236
	c-0.132,0-0.239-0.105-0.239-0.238c0-0.131,0.107-0.237,0.239-0.237h0.433c0.133,0,0.242-0.109,0.242-0.244V17.105
	c0-0.134-0.109-0.242-0.242-0.242H1.236c-0.132,0-0.239-0.106-0.239-0.239c0-0.131,0.107-0.238,0.239-0.238h0.433
	c0.396,0,0.719,0.322,0.719,0.719V30.896L2.387,30.896L2.387,30.896z M32.303,42.497H3.697V4.495h28.608v38.002H32.303z
	 M34.297,31.138h0.42c0.131,0,0.24,0.106,0.24,0.238s-0.107,0.239-0.24,0.239h-0.42c-0.396,0-0.719-0.322-0.719-0.72V17.106
	c0-0.396,0.322-0.719,0.719-0.719h0.42c0.131,0,0.24,0.105,0.24,0.238c0,0.131-0.107,0.238-0.24,0.238h-0.42
	c-0.133,0-0.244,0.108-0.244,0.242v13.789C34.053,31.029,34.164,31.138,34.297,31.138z"/>
</svg>
