<svg xmlns="http://www.w3.org/2000/svg" viewBox="0 0 36 48" class="ridi_icon"><path d="M33.682 0H2.319C1.325 0 .518.808.518 1.802v44.397c0 .994.807 1.801 1.801 1.801h31.363c.994 0 1.801-.808 1.801-1.801V1.802A1.803 1.803 0 0 0 33.682 0zM2.387 30.896a.719.719 0 0 1-.719.718h-.432a.238.238 0 1 1 0-.475h.433a.243.243 0 0 0 .242-.244v-13.79a.242.242 0 0 0-.242-.242h-.433a.238.238 0 1 1 0-.477h.433a.72.72 0 0 1 .719.719v13.791h-.001zm29.916 11.601H3.697V4.495h28.608v38.002h-.002zm1.994-11.359h.42c.131 0 .24.106.24.238s-.107.239-.24.239h-.42a.72.72 0 0 1-.719-.72V17.106a.72.72 0 0 1 .719-.719h.42c.131 0 .24.105.24.238a.239.239 0 0 1-.24.238h-.42a.244.244 0 0 0-.244.242v13.789c0 .135.111.244.244.244z"/></svg>