<?xml version="1.0" encoding="UTF-8"?>
<svg width="42px" height="48px" viewBox="0 0 42 48" version="1.1" xmlns="http://www.w3.org/2000/svg">
  <!-- Generator: Sketch 41.2 (35397) - http://www.bohemiancoding.com/sketch -->
  <title>paper_case_1</title>
  <desc>Created with Sketch.</desc>
  <defs></defs>
  <g id="Page-1" stroke="none" stroke-width="1" fill="none" fill-rule="evenodd">
    <g id="paper_case_1" fill="#231F20">
      <g id="Layer_1">
        <g id="Group">
          <path d="M38.1,1.6 C38.3,2.2 38.4,3 38.4,3.8 L38.4,44.3 C38.4,45.7 37.9,47 37.3,48 L37.5,48 C39.6,48 41.2,46.2 41.2,44.3 L41.2,5.3 C41.2,3.4 39.9,1.9 38.1,1.6 Z" id="Shape"></path>
          <path d="M33,0 L4.5,0 C2.4,0 0.8,1.8 0.8,3.7 L0.8,44.2 C0.8,46.3 2.6,47.9 4.5,47.9 L10.3,47.9 L33,47.9 C35.1,47.9 36.7,46.1 36.7,44.2 L36.7,3.7 C36.7,2.9 36.4,2.1 35.9,1.5 C35.4,0.6 34.3,0 33,0 Z M25.5,42.1 L12,42.1 L12,39.1 L25.4,39.1 L25.4,42.1 L25.5,42.1 Z" id="Shape"></path>
        </g>
      </g>
    </g>
  </g>
</svg>
