<svg xmlns="http://www.w3.org/2000/svg" viewBox="0 0 213 48" class="ridi_icon"><path d="M0 5.502A5.065 5.065 0 0 1 5.105.397h13.856c11.072 0 17.768 6.563 17.768 16.044v.133c0 10.74-8.353 16.309-18.762 16.309H10.21v9.613a5.065 5.065 0 0 1-5.105 5.105A5.064 5.064 0 0 1 0 42.497V5.502zm18.298 18.299c5.105 0 8.089-3.05 8.089-7.028v-.133c0-4.575-3.183-7.028-8.287-7.028h-7.89V23.8h8.088v.001zm16.804 16.84L51.278 4.11C52.405 1.59 54.461.066 57.245.066h.597c2.784 0 4.773 1.525 5.9 4.044L79.92 40.641c.331.729.53 1.392.53 2.055 0 2.718-2.122 4.906-4.839 4.906-2.387 0-3.978-1.392-4.907-3.513l-3.116-7.293h-20.42l-3.249 7.625c-.862 1.989-2.586 3.182-4.707 3.182-2.652 0-4.707-2.122-4.707-4.773 0-.73.265-1.46.597-2.189zm28.707-12.862l-6.431-15.315-6.431 15.315h12.862zm27.439 1.525L76.265 8.95c-.73-.994-1.26-2.188-1.26-3.647 0-2.718 2.254-4.906 5.105-4.906 2.32 0 3.779 1.26 5.039 3.116L96.42 19.756 107.889 3.38c1.26-1.856 2.785-3.049 4.906-3.049 3.117 0 4.973 2.188 4.973 4.972 0 1.393-.663 2.652-1.326 3.58l-14.984 20.221v13.392a5.065 5.065 0 0 1-5.105 5.105 5.065 5.065 0 0 1-5.105-5.105V29.304zm26.83-5.171V24c0-13.193 9.944-24 24.199-24 6.961 0 11.668 1.856 15.514 4.707 1.06.795 1.989 2.254 1.989 4.044 0 2.784-2.254 4.973-5.039 4.973-1.392 0-2.32-.53-3.05-.994-2.851-2.122-5.834-3.315-9.481-3.315-7.823 0-13.458 6.497-13.458 14.453V24c0 7.956 5.503 14.585 13.458 14.585 4.31 0 7.16-1.326 10.078-3.646.796-.663 1.857-1.127 3.05-1.127 2.586 0 4.773 2.122 4.773 4.707 0 1.591-.796 2.851-1.723 3.646C154.21 45.812 149.304 48 141.879 48c-13.658 0-23.801-10.542-23.801-23.867zm44.695 0V24c0-13.193 10.408-24 24.729-24s24.597 10.674 24.597 23.867V24c0 13.193-10.409 24-24.73 24-14.32 0-24.596-10.674-24.596-23.867zm38.651 0V24c0-7.956-5.834-14.586-14.055-14.586s-13.922 6.497-13.922 14.453V24c0 7.956 5.834 14.585 14.055 14.585s13.922-6.497 13.922-14.452z"/></svg>