<?xml version="1.0" encoding="utf-8"?>
<!-- Generator: Adobe Illustrator 22.1.0, SVG Export Plug-In . SVG Version: 6.00 Build 0)  -->
<svg version="1.1" id="Layer_1" xmlns="http://www.w3.org/2000/svg"  x="0px" y="0px"
	 width="64px" height="48px" viewBox="0 0 64 48" style="enable-background:new 0 0 64 48;" xml:space="preserve">
<path d="M56,0H8C3.6,0,0,3.6,0,8v5.5v5V40c0,4.4,3.6,8,8,8h48c4.4,0,8-3.6,8-8V18.5v-5V8C64,3.6,60.4,0,56,0z M59,40
	c0,1.6-1.4,3-3,3H8c-1.6,0-3-1.4-3-3V18.5h54V40z M5,13.5V8c0-1.6,1.4-3,3-3h48c1.6,0,3,1.4,3,3v5.5H5z M24,32H12v-8h12V32z"/>
</svg>
