<?xml version="1.0" encoding="UTF-8"?>
<svg width="158px" height="48px" viewBox="0 0 158 48" version="1.1" xmlns="http://www.w3.org/2000/svg">
  <!-- Generator: Sketch 41.2 (35397) - http://www.bohemiancoding.com/sketch -->
  <title>paynow_1</title>
  <desc>Created with Sketch.</desc>
  <defs></defs>
  <g id="Page-1" stroke="none" stroke-width="1" fill="none" fill-rule="evenodd">
    <g id="paynow_1">
      <g id="Layer_1">
        <g id="Group">
          <path d="M144.4,16.2 L144.4,18.7" id="Shape"></path>
          <path d="M150.8,18.7 L150.8,16.2" id="Shape"></path>
          <path d="M13.4,0.2 C11.2,0.2 8.9,0.8 7.2,2 L7.2,0 L0.8,0 L0.8,37 L7.2,37 L7.2,22.7 C9,23.8 11.2,24.5 13.4,24.5 C20.1,24.5 25.6,19.1 25.6,12.3 C25.6,5.5 20.1,0.2 13.4,0.2 Z M13.4,18.1 C10.2,18.1 7.6,15.5 7.6,12.3 C7.6,9.1 10.2,6.5 13.4,6.5 C16.6,6.5 19.2,9.1 19.2,12.3 C19.2,15.5 16.6,18.1 13.4,18.1 Z" id="Shape" fill="#000000"></path>
          <path d="M110.5,11.7 C103.8,11.7 98.3,17.1 98.3,23.9 C98.3,30.7 103.8,36 110.5,36 C117.2,36 122.7,30.6 122.7,23.8 C122.7,17 117.2,11.7 110.5,11.7 Z M110.5,29.6 C107.3,29.6 104.7,27 104.7,23.8 C104.7,20.6 107.3,18 110.5,18 C113.7,18 116.3,20.6 116.3,23.8 C116.3,27 113.7,29.6 110.5,29.6 Z" id="Shape" fill="#000000"></path>
          <path d="M48.9,26.6 L48.9,11.8 L42.5,11.8 L42.5,13.4 C40.7,12.3 38.7,11.6 36.3,11.6 C29.6,11.6 24.1,17 24.1,23.8 C24.1,30.6 29.6,36 36.3,36 C39.2,36 41.9,34.9 44,33.3 C44.6,34.7 45.6,36 46.9,37.1 L51.1,32.1 C49.4,30.7 49.1,27.5 48.9,26.6 Z M36.4,29.6 C33.2,29.6 30.6,27 30.6,23.8 C30.6,20.6 33.2,18 36.4,18 C39.6,18 42.2,20.6 42.2,23.8 C42.2,27 39.6,29.6 36.4,29.6 Z" id="Shape" fill="#000000"></path>
          <path d="M72.9,11.4 L66.5,11.4 L66.5,24.4 C66.5,25.8 66.2,30.5 62,30.5 C57.8,30.5 57.5,25.9 57.5,24.4 L57.5,11.4 L51.1,11.4 L51.1,24.4 C51.1,31.8 55.6,36.9 62,36.9 C63.6,36.9 65.2,36.6 66.5,35.9 L66.5,37.7 C66.5,39 66.3,40.4 65.4,41.1 C64,42.1 61.2,41.3 59.3,40.5 L55.5,45.8 C56,46.1 59.8,48 63.3,48 C65.2,48 67.1,47.7 68.9,46.6 C70.7,45.5 72.9,42.9 72.9,37.8 L72.9,24 L72.9,24 L72.9,11.4 L72.9,11.4 Z" id="Shape" fill="#000000"></path>
          <rect id="Rectangle-path" fill="#000000" x="150.8" y="12" width="6.4" height="2.6"></rect>
          <rect id="Rectangle-path" fill="#000000" x="125.2" y="12" width="6.4" height="2.6"></rect>
          <rect id="Rectangle-path" fill="#000000" x="138" y="12" width="6.4" height="2.6"></rect>
          <rect id="Rectangle-path" fill="#000000" x="150.8" y="16.2" width="6.4" height="2.6"></rect>
          <rect id="Rectangle-path" fill="#000000" x="138" y="16.2" width="6.4" height="2.6"></rect>
          <path d="M150.8,24.3 C150.8,26.5 150.2,30.4 147.6,30.4 C145,30.4 144.4,26.6 144.4,24.3 L144.4,20.3 L138,20.3 L138,24.3 C138,26.5 137.4,30.4 134.8,30.4 C132.2,30.4 131.6,26.6 131.6,24.3 L131.6,20.3 L125.2,20.3 L125.2,24.3 C125.2,31.8 129,36.8 134.8,36.8 C137.4,36.8 139.6,35.8 141.2,33.9 C142.8,35.7 145,36.8 147.6,36.8 C153.4,36.8 157.2,31.8 157.2,24.3 L157.2,20.3 L150.8,20.3 L150.8,24.3 Z" id="Shape" fill="#000000"></path>
          <rect id="Rectangle-path" fill="#000000" x="125.2" y="16.2" width="6.4" height="2.6"></rect>
          <path d="M85.6,11.4 C79.2,11.4 74.7,16.5 74.7,23.9 L74.7,36.9 L81.1,36.9 L81.1,23.9 C81.1,22.5 81.4,17.8 85.6,17.8 C89.8,17.8 90.1,22.4 90.1,23.9 L90.1,36.9 L96.5,36.9 L96.5,23.9 C96.4,16.5 92,11.4 85.6,11.4 Z" id="Shape" fill="#000000"></path>
        </g>
      </g>
    </g>
  </g>
</svg>
