<svg xmlns="http://www.w3.org/2000/svg" viewBox="0 0 48 46"><path d="M45.9 12c0-.6-.2-1.1-.6-1.5L35.4.6C35.1.2 34.6 0 34 0c-.6 0-1.1.2-1.5.6L1.2 32c-.4.3-.6.8-.6 1.3L0 43.8c0 .6.2 1.1.6 1.6.4.4.9.6 1.5.6h.1l10.5-.6c.5-.1 1-.3 1.3-.6l31.3-31.4c.4-.4.6-.9.6-1.4zM11.7 41.3l-4.7.2c-.3-1.3-1.3-2.2-2.5-2.6l.3-4.6 24.1-24.2 2 2L7.8 35.2c-.8.8-.8 2.1 0 2.9.4.4.9.6 1.5.6s1.1-.2 1.5-.6l23.1-23 2 2-24.2 24.2zm27.1-27.2l-7-7L34 5l7 7-2.2 2.1zm7.1 27.4H22.8c-1.1 0-2.1.9-2.1 2.1 0 1.2.9 2.1 2.1 2.1h23.1c1.1 0 2.1-.9 2.1-2.1 0-1.2-.9-2.1-2.1-2.1z"/></svg>