<svg xmlns="http://www.w3.org/2000/svg" viewBox="0 0 48 48"><path d="M44.9 31.7c-3.6-1.6-6.4-2.5-11.1-3.6-.3-.1-.5-.1-.8-.1-.3 0-2.8 0-3.7 1.6L27.1 33h-.2c-.3 0-.7-.2-1.1-.4-1.9-1.4-3.8-3-5.5-4.7-1.8-1.8-3.4-3.7-4.7-5.6-.6-.6-.6-1.1-.6-1.2l3.7-2.3c1.4-.9 1.8-3.5 1.5-4.6-1-3.8-2.4-7.8-3.5-10.9-.7-1.6-3.2-2.2-4.2-2.2-.5 0-1 .1-1.4.2C7.9 2.6 5 4.5 2.6 6.9c-.7.7-1.3 1.4-2 2.2l-.4.5v.7C-.1 19.5 4 29.1 11.5 36.5l.1.2C18.8 43.9 28.1 48 37.1 48h1.3l.5-.4c.8-.6 1.5-1.3 2.2-2 2.4-2.4 4.3-5.3 5.6-8.5.8-1.8-.2-4.7-1.8-5.4zm-6.5 11.1c-.4.4-.9.8-1.4 1.2-7.9 0-16.1-3.7-22.5-10.1l-.2-.2C7.9 27.3 4.2 18.9 4.1 11.1c.4-.5.8-.9 1.2-1.3 2.1-2 4.5-3.6 7-4.6.2 0 .4.1.6.1 1 2.9 2.3 6.5 3.2 9.9 0 .1 0 .4-.1.6l-3.2 2c-.9.6-1.5 1.5-1.8 2.6-.3 1.4.1 3.1 1.1 4.4 1.5 2 3.2 4.1 5.2 6 2 1.9 4 3.6 6 5.1 2.4 1.8 5.7 1.4 7-.6l2-3.2c.2-.1.4-.1.5-.1 4.2.9 6.8 1.8 9.9 3.1.1.2.2.4.2.5-.9 2.7-2.5 5.1-4.5 7.2zM24.3 0c-1.1 0-2 .9-2 2s.9 2 2 2C35 4 43.8 12.8 43.8 23.5c0 1.1.9 2 2 2s2-.9 2-2C47.9 10.6 37.3 0 24.3 0z"/><path d="M24.3 10.4c7.3 0 13.2 5.9 13.2 13.2 0 1.1.9 2 2 2s2-.9 2-2c0-9.5-7.7-17.2-17.2-17.2-1.1 0-2 .9-2 2s.9 2 2 2z"/><path d="M24.3 17c3.6 0 6.5 2.9 6.5 6.5 0 1.1.9 2 2 2s2-.9 2-2c.1-5.8-4.6-10.5-10.5-10.5-1.1 0-2 .9-2 2s.9 2 2 2z"/></svg>