<?xml version="1.0" encoding="UTF-8"?>
<svg width="48px" height="48px" viewBox="0 0 48 48" version="1.1" xmlns="http://www.w3.org/2000/svg">
  <!-- Generator: Sketch 41.2 (35397) - http://www.bohemiancoding.com/sketch -->
  <title>phone_2</title>
  <desc>Created with Sketch.</desc>
  <defs></defs>
  <g id="Page-1" stroke="none" stroke-width="1" fill="none" fill-rule="evenodd">
    <g id="phone_2" fill="#444444">
      <g id="레이어_1">
        <path d="M44.9,31.7 C41.3,30.1 38.5,29.2 33.8,28.1 C33.5,28 33.3,28 33,28 C32.7,28 30.2,28 29.3,29.6 L27.1,33 L26.9,33 C26.6,33 26.2,32.8 25.8,32.6 C23.9,31.2 22,29.6 20.3,27.9 C18.5,26.1 16.9,24.2 15.6,22.3 C15,21.7 15,21.2 15,21.1 L18.7,18.8 C20.1,17.9 20.5,15.3 20.2,14.2 C19.2,10.4 17.8,6.4 16.7,3.3 C16,1.7 13.5,1.1 12.5,1.1 C12,1.1 11.5,1.2 11.1,1.3 C7.9,2.6 5,4.5 2.6,6.9 C1.9,7.6 1.3,8.3 0.6,9.1 L0.2,9.6 L0.2,10.3 C-0.1,19.5 4,29.1 11.5,36.5 L11.6,36.7 C18.8,43.9 28.1,48 37.1,48 L38.4,48 L38.9,47.6 C39.7,47 40.4,46.3 41.1,45.6 C43.5,43.2 45.4,40.3 46.7,37.1 C47.5,35.3 46.5,32.4 44.9,31.7 Z M38.4,42.8 C38,43.2 37.5,43.6 37,44 C29.1,44 20.9,40.3 14.5,33.9 L14.3,33.7 C7.9,27.3 4.2,18.9 4.1,11.1 C4.5,10.6 4.9,10.2 5.3,9.8 C7.4,7.8 9.8,6.2 12.3,5.2 C12.5,5.2 12.7,5.3 12.9,5.3 C13.9,8.2 15.2,11.8 16.1,15.2 C16.1,15.3 16.1,15.6 16,15.8 L12.8,17.8 C11.9,18.4 11.3,19.3 11,20.4 C10.7,21.8 11.1,23.5 12.1,24.8 C13.6,26.8 15.3,28.9 17.3,30.8 C19.3,32.7 21.3,34.4 23.3,35.9 C25.7,37.7 29,37.3 30.3,35.3 L32.3,32.1 C32.5,32 32.7,32 32.8,32 C37,32.9 39.6,33.8 42.7,35.1 C42.8,35.3 42.9,35.5 42.9,35.6 C42,38.3 40.4,40.7 38.4,42.8 Z" id="Shape"></path>
        <path d="M24.3,0 C23.2,0 22.3,0.9 22.3,2 C22.3,3.1 23.2,4 24.3,4 C35,4 43.8,12.8 43.8,23.5 C43.8,24.6 44.7,25.5 45.8,25.5 C46.9,25.5 47.8,24.6 47.8,23.5 C47.9,10.6 37.3,0 24.3,0 Z" id="Shape"></path>
        <path d="M24.3,10.4 C31.6,10.4 37.5,16.3 37.5,23.6 C37.5,24.7 38.4,25.6 39.5,25.6 C40.6,25.6 41.5,24.7 41.5,23.6 C41.5,14.1 33.8,6.4 24.3,6.4 C23.2,6.4 22.3,7.3 22.3,8.4 C22.3,9.5 23.2,10.4 24.3,10.4 Z" id="Shape"></path>
        <path d="M24.3,17 C27.9,17 30.8,19.9 30.8,23.5 C30.8,24.6 31.7,25.5 32.8,25.5 C33.9,25.5 34.8,24.6 34.8,23.5 C34.9,17.7 30.2,13 24.3,13 C23.2,13 22.3,13.9 22.3,15 C22.3,16.1 23.2,17 24.3,17 Z" id="Shape"></path>
      </g>
    </g>
  </g>
</svg>
