<?xml version="1.0" encoding="UTF-8"?>
<svg width="48px" height="48px" viewBox="0 0 48 48" version="1.1" xmlns="http://www.w3.org/2000/svg">
  <!-- Generator: Sketch 41.2 (35397) - http://www.bohemiancoding.com/sketch -->
  <title>phone_1</title>
  <desc>Created with Sketch.</desc>
  <defs></defs>
  <g id="Page-1" stroke="none" stroke-width="1" fill="none" fill-rule="evenodd">
    <g id="phone_1" fill="#000000">
      <g id="레이어_1">
        <path d="M35.2,28.8 C32,32 32,35.2 28.8,35.2 C25.6,35.2 22.4,32 19.2,28.8 C16,25.6 12.8,22.4 12.8,19.2 C12.8,16 16,16 19.2,12.8 C22.4,9.6 12.8,0 9.6,0 C6.4,0 0,9.6 0,9.6 C0,16 6.6,29 12.8,35.2 C19,41.4 32,48 38.4,48 C38.4,48 48,41.6 48,38.4 C48,35.2 38.4,25.6 35.2,28.8 Z" id="Shape"></path>
      </g>
    </g>
  </g>
</svg>
