<?xml version="1.0" encoding="UTF-8"?>
<svg width="49px" height="36px" viewBox="0 0 49 36" version="1.1" xmlns="http://www.w3.org/2000/svg">
  <!-- Generator: Sketch 41.2 (35397) - http://www.bohemiancoding.com/sketch -->
  <title>planet_1</title>
  <desc>Created with Sketch.</desc>
  <defs></defs>
  <g id="Page-1" stroke="none" stroke-width="1" fill="none" fill-rule="evenodd">
    <g id="planet_1" fill="#000000">
      <g id="레이어_1">
        <path d="M44.3,19.1 C44.2,20.6 44,22.1 43.5,23.6 C44.7,25.3 46.3,28.2 45.4,29.7 C44.3,31.5 39.6,31.2 37.9,31 C32.1,30.3 26,27.6 21,24.7 C16,21.8 10.7,17.8 7.2,13.2 C6.2,11.9 3.5,7.9 4.6,6.1 C5.4,4.6 8.7,4.6 10.8,4.7 C11.8,3.6 13,2.6 14.2,1.8 C8.1,0.6 3.4,1.4 1.6,4.4 C-0.3,7.8 2.2,13.2 7.5,18.6 C7.7,24.4 10.9,29.8 16.2,32.9 C21.6,36 27.9,35.9 33,33.3 C40.4,35.3 46.3,34.7 48.3,31.3 C50.1,28.4 48.4,23.8 44.3,19.1 Z" id="Shape"></path>
        <path d="M10.7,9.1 C10.2,9.9 9.9,10.8 9.6,11.6 C12.7,15.8 18,19.8 22.5,22.3 C27,25 33,27.6 38.3,28.2 C38.9,27.5 39.4,26.7 39.9,25.9 C44.5,17.9 41.8,7.6 33.8,3 C25.6,-1.7 15.4,1.1 10.7,9.1 L10.7,9.1 Z" id="Shape"></path>
      </g>
    </g>
  </g>
</svg>
