<svg xmlns="http://www.w3.org/2000/svg" viewBox="0 0 48 48"><path d="M23.7 0C17.4 0 11.4 2.4 6.9 6.8l-.1.1C2.4 11.4 0 17.4 0 23.7c0 5.4 1.7 10.5 5 14.8 3.2 4.1 7.7 7.2 12.7 8.6 2.1.6 4.3.9 6.5.9 6.3 0 12.3-2.4 16.9-6.8l.1-.1c3.8-3.9 6.2-9.1 6.7-14.5.1-.8.1-1.6.1-2.4C48 10.9 37.1 0 23.7 0zm0 3.6c11.4 0 20.7 9.3 20.7 20.7 0 .7 0 1.3-.1 2-.4 4.6-2.5 9-5.7 12.3-3.9 3.7-9 5.8-14.4 5.8-1.9 0-3.7-.3-5.6-.8-8.8-2.4-15-10.6-15-19.8 0-5.4 2-10.5 5.8-14.4 3.8-3.8 9-5.8 14.3-5.8z"/><path d="M20.2 35.5L34 25.7c1.5-1.1 2-2.5 0-4l-13.8-9.2c-1.5-1.1-2.7-.5-2.7 1.3v20.3c0 1.9 1.2 2.5 2.7 1.4z"/></svg>