<svg viewBox="0 0 48 40" xmlns="http://www.w3.org/2000/svg" class="ridi_icon"><path d="M28.4.4c-1.5 0-3 .2-4.4.5-1.4-.3-2.9-.5-4.4-.5C8.8.4 0 9.2 0 20s8.8 19.6 19.6 19.6c1.5 0 3-.2 4.4-.5 1.4.3 2.9.5 4.4.5C39.2 39.6 48 30.8 48 20S39.2.4 28.4.4zm.6 36.7c6-3.3 10.1-9.8 10.1-17.1 0-7.3-4-13.8-10.1-17.1 9.2.3 16.6 7.8 16.6 17.1S38.2 36.8 29 37.1zm-10 0C9.8 36.8 2.4 29.3 2.4 20S9.8 3.2 19 2.9h.6c.7 0 1.3.1 2 .1.8.1 1.7.3 2.4.5 7.3 2 12.7 8.6 12.7 16.5S31.3 34.6 24 36.5c-.8.2-1.6.4-2.4.5-.7.1-1.3.1-2 .1H19z"/><path d="M24.3 20.6c.6-.4 1.1-.9 1.4-1.6.3-.6.5-1.4.5-2.4 0-.9-.2-1.7-.5-2.3-.3-.6-.7-1.1-1.3-1.5-.6-.4-1.3-.7-2-.9-.8-.2-1.7-.3-2.7-.3h-5.5v17.1h3v-7.1h2.3c.9 0 1.8-.1 2.6-.3.9 0 1.6-.3 2.2-.7zm-3.4-1.5l-3.5.1v-4.9h2.2c.5 0 .9 0 1.4.1.5.1.8.2 1.2.3.3.2.6.4.8.7.2.3.3.7.3 1.2s-.1.9-.3 1.3c-.2.3-.5.6-.9.8-.4.2-.8.3-1.2.4z"/></svg>