<svg xmlns="http://www.w3.org/2000/svg" viewBox="0 0 49 40"><path d="M29.3 3.8c-.5-2-2.4-3.6-4.6-3.6C22.1.2 20 2.3 20 5c0 .4.1.8.2 1.2h1.9c.1.3.3.5.3.5.6.8 1.5 1.4 2.6 1.4 1.8 0 3.2-1.4 3.2-3.2 0-.4.1-.8-.1-1.1h1.2zm-.1 28.3c-.5.5-1.2.9-2 .9V22.7l7.1-2.1 1.8 3.5-6.9 8z"/><path d="M23.2 8.5c-.5-.5-1.2-.9-1.9-.9-.8 0-1.5.4-2 1l-5.7 8.7c-.2.4-.4.8-.4 1.3 0 .9.5 1.7 1.1 2.1l7.6 4.2v7.2c0 1 .8 1.8 1.8 1.8s1.8-.8 1.8-1.8v-9s.2-1.4-1.4-2.2l-4.7-2.5 3.6-5.2 1.8 2.9c.4.6.9.8 1.3.8h4.7c1.9 0 1.9-2.5 0-2.5H27l-3.8-5.9zM44 20.3c.1.1.1.2.1.3 0 .2-.2.4-.4.4h-.2c-.8-.3-1.3-.6-2.3-.6-.6 0-1.4.2-2.3.9l-.8-1.6c1-.3 1.9-.6 2.8-.6 1.5 0 2.2.3 3.1 1.2z"/><path d="M12.4 21.5l8 4.4v1.8l-9.1-5c-.7-.3-1.5-.5-2.2-.5-.9 0-7.5-.3-8.3.1H.6c-.2 0-.4-.2-.4-.4 0-.1 0-.2.1-.3.9-.9 7.9-.7 9.3-.7.8-.1 1.7 0 2.8.6z"/><path d="M13.2 37.7c2.6 0 4.7-2.1 4.7-4.7s-2.1-4.7-4.7-4.7-4.7 2.1-4.7 4.7 2.1 4.7 4.7 4.7zM6.4 33c0-3.7 3-6.8 6.8-6.8s6.8 3 6.8 6.8-3 6.8-6.8 6.8-6.8-3.1-6.8-6.8zm34.8 4.7c2.6 0 4.7-2.1 4.7-4.7s-2.1-4.7-4.7-4.7-4.7 2.1-4.7 4.7 2.1 4.7 4.7 4.7zM34.5 33c0-3.7 3-6.8 6.8-6.8s6.8 3 6.8 6.8-3 6.8-6.8 6.8-6.8-3.1-6.8-6.8zm5.2-7.8l-3.3-6.6c-.4-.8-1.3-1.3-2.2-1.3H32c-.4 0-.8.3-.8.8 0 .4.3.8.8.8h2.2c.4 0 .8.2.9.6l3.1 6.3 1.5-.6zm-27.6-6.6c0 .7-.5 1.2-1.2 1.2H1.2c-.7 0-1.2-.5-1.2-1.2v-7c0-.6.6-1.2 1.2-1.2h9.7c.7 0 1.2.5 1.2 1.2v7z"/></svg>