<?xml version="1.0" encoding="UTF-8"?>
<svg width="49px" height="40px" viewBox="0 0 49 40" version="1.1" xmlns="http://www.w3.org/2000/svg">
  <!-- Generator: Sketch 41.2 (35397) - http://www.bohemiancoding.com/sketch -->
  <title>quick</title>
  <desc>Created with Sketch.</desc>
  <defs></defs>
  <g id="Page-1" stroke="none" stroke-width="1" fill="none" fill-rule="evenodd">
    <g id="quick" fill="#000000">
      <g id="레이어_1">
        <path d="M29.3,3.8 C28.8,1.8 26.9,0.2 24.7,0.2 C22.1,0.2 20,2.3 20,5 C20,5.4 20.1,5.8 20.2,6.2 L22.1,6.2 C22.2,6.5 22.4,6.7 22.4,6.7 C23,7.5 23.9,8.1 25,8.1 C26.8,8.1 28.2,6.7 28.2,4.9 C28.2,4.5 28.3,4.1 28.1,3.8 L29.3,3.8 L29.3,3.8 Z" id="Shape"></path>
        <path d="M29.2,32.1 C28.7,32.6 28,33 27.2,33 L27.2,22.7 L34.3,20.6 L36.1,24.1 L29.2,32.1 L29.2,32.1 Z" id="Shape"></path>
        <path d="M23.2,8.5 C22.7,8 22,7.6 21.3,7.6 C20.5,7.6 19.8,8 19.3,8.6 L13.6,17.3 C13.4,17.7 13.2,18.1 13.2,18.6 C13.2,19.5 13.7,20.3 14.3,20.7 L21.9,24.9 L21.9,32.1 C21.9,33.1 22.7,33.9 23.7,33.9 C24.7,33.9 25.5,33.1 25.5,32.1 L25.5,23.1 C25.5,23.1 25.7,21.7 24.1,20.9 L19.4,18.4 L23,13.2 L24.8,16.1 C25.2,16.7 25.7,16.9 26.1,16.9 L30.8,16.9 C32.7,16.9 32.7,14.4 30.8,14.4 L27,14.4 L23.2,8.5 L23.2,8.5 Z" id="Shape"></path>
        <path d="M44,20.3 C44.1,20.4 44.1,20.5 44.1,20.6 C44.1,20.8 43.9,21 43.7,21 L43.5,21 C42.7,20.7 42.2,20.4 41.2,20.4 C40.6,20.4 39.8,20.6 38.9,21.3 L38.1,19.7 C39.1,19.4 40,19.1 40.9,19.1 C42.4,19.1 43.1,19.4 44,20.3 Z" id="Shape"></path>
        <path d="M12.4,21.5 L20.4,25.9 L20.4,27.7 L11.3,22.7 C10.6,22.4 9.8,22.2 9.1,22.2 C8.2,22.2 1.6,21.9 0.8,22.3 L0.6,22.3 C0.4,22.3 0.2,22.1 0.2,21.9 C0.2,21.8 0.2,21.7 0.3,21.6 C1.2,20.7 8.2,20.9 9.6,20.9 C10.4,20.8 11.3,20.9 12.4,21.5 L12.4,21.5 Z" id="Shape"></path>
        <path d="M13.2,37.7 C15.8,37.7 17.9,35.6 17.9,33 C17.9,30.4 15.8,28.3 13.2,28.3 C10.6,28.3 8.5,30.4 8.5,33 C8.5,35.6 10.6,37.7 13.2,37.7 Z M6.4,33 C6.4,29.3 9.4,26.2 13.2,26.2 C17,26.2 20,29.2 20,33 C20,36.8 17,39.8 13.2,39.8 C9.4,39.8 6.4,36.7 6.4,33 Z" id="Shape"></path>
        <path d="M41.2,37.7 C43.8,37.7 45.9,35.6 45.9,33 C45.9,30.4 43.8,28.3 41.2,28.3 C38.6,28.3 36.5,30.4 36.5,33 C36.5,35.6 38.6,37.7 41.2,37.7 Z M34.5,33 C34.5,29.3 37.5,26.2 41.3,26.2 C45.1,26.2 48.1,29.2 48.1,33 C48.1,36.8 45.1,39.8 41.3,39.8 C37.5,39.8 34.5,36.7 34.5,33 Z" id="Shape"></path>
        <path d="M39.7,25.2 L36.4,18.6 C36,17.8 35.1,17.3 34.2,17.3 L32,17.3 C31.6,17.3 31.2,17.6 31.2,18.1 C31.2,18.5 31.5,18.9 32,18.9 L34.2,18.9 C34.6,18.9 35,19.1 35.1,19.5 L38.2,25.8 L39.7,25.2 L39.7,25.2 Z" id="Shape"></path>
        <path d="M12.1,18.6 C12.1,19.3 11.6,19.8 10.9,19.8 L1.2,19.8 C0.5,19.8 0,19.3 0,18.6 L0,11.6 C0,11 0.6,10.4 1.2,10.4 L10.9,10.4 C11.6,10.4 12.1,10.9 12.1,11.6 L12.1,18.6 Z" id="Shape"></path>
      </g>
    </g>
  </g>
</svg>
