<?xml version="1.0" encoding="UTF-8"?>
<svg width="48px" height="48px" viewBox="0 0 48 48" version="1.1" xmlns="http://www.w3.org/2000/svg">
  <!-- Generator: Sketch 41.2 (35397) - http://www.bohemiancoding.com/sketch -->
  <title>search_1</title>
  <desc>Created with Sketch.</desc>
  <defs></defs>
  <g id="Page-1" stroke="none" stroke-width="1" fill="none" fill-rule="evenodd">
    <g id="search_1" fill="#3D4142">
      <g id="Layer_1">
        <path d="M47.6,47.5 C46.9,48.2 45.9,48.2 45.2,47.5 L32.1,34.5 C28.7,37.3 24.4,39 19.5,39 C8.7,39 0.1,30.2 0.1,19.6 C0.1,9 8.7,0.1 19.5,0.1 C30.3,0.1 39,8.8 39,19.5 C39,24.3 37.3,28.6 34.5,32.1 L47.6,45.2 C48.1,45.6 48.1,46.8 47.6,47.5 Z M35.7,19.5 C35.7,10.6 28.5,3.3 19.5,3.3 C10.5,3.3 3.3,10.5 3.3,19.5 C3.3,28.5 10.5,35.7 19.5,35.7 C28.5,35.7 35.7,28.4 35.7,19.5 Z" id="Shape"></path>
      </g>
    </g>
  </g>
</svg>
