<?xml version="1.0" encoding="utf-8"?>
<!-- Generator: Adobe Illustrator 22.1.0, SVG Export Plug-In . SVG Version: 6.00 Build 0)  -->
<svg version="1.0" id="Layer_1" xmlns="http://www.w3.org/2000/svg"  x="0px" y="0px"
	 width="48px" height="48px" viewBox="0 0 48 48" style="enable-background:new 0 0 48 48;" xml:space="preserve">
<path d="M41.85,26.34C41.94,25.59,42,24.81,42,24c0-0.81-0.06-1.59-0.18-2.34l5.07-3.96c0.45-0.36,0.57-1.02,0.3-1.53l-4.8-8.31
	c-0.3-0.54-0.93-0.72-1.47-0.54l-5.97,2.4c-1.26-0.96-2.58-1.74-4.05-2.34L30,1.02C29.91,0.42,29.4,0,28.8,0h-9.6
	c-0.6,0-1.08,0.42-1.17,1.02l-0.9,6.36c-1.47,0.6-2.82,1.41-4.05,2.34l-5.97-2.4c-0.54-0.21-1.17,0-1.47,0.54l-4.8,8.31
	c-0.3,0.54-0.18,1.17,0.3,1.53l5.07,3.96C6.09,22.41,6,23.22,6,24c0,0.78,0.06,1.59,0.18,2.34L1.11,30.3
	c-0.45,0.36-0.57,1.02-0.3,1.53l4.8,8.31c0.3,0.54,0.93,0.72,1.47,0.54l5.97-2.4c1.26,0.96,2.58,1.74,4.05,2.34l0.9,6.36
	c0.12,0.6,0.6,1.02,1.2,1.02h9.6c0.6,0,1.11-0.42,1.17-1.02l0.9-6.36c1.47-0.6,2.82-1.41,4.05-2.34l5.97,2.4
	c0.54,0.21,1.17,0,1.47-0.54l4.8-8.31c0.3-0.54,0.18-1.17-0.3-1.53C46.86,30.3,41.85,26.34,41.85,26.34z M24,33c-4.95,0-9-4.05-9-9
	s4.05-9,9-9s9,4.05,9,9S28.95,33,24,33z"/>
</svg>
