<?xml version="1.0" encoding="UTF-8"?>
<svg width="60px" height="49px" viewBox="0 0 60 49" version="1.1" xmlns="http://www.w3.org/2000/svg">
  <!-- Generator: Sketch 41.2 (35397) - http://www.bohemiancoding.com/sketch -->
  <title>share</title>
  <desc>Created with Sketch.</desc>
  <defs></defs>
  <g id="Page-1" stroke="none" stroke-width="1" fill="none" fill-rule="evenodd">
    <g id="share" transform="translate(0.000000, -1.000000)" fill="#000000">
      <g id="레이어_1">
        <path d="M46.8,43.8 C46.8,43.9 46.7,44 46.6,44 L6,44 C5.9,44 5.8,43.9 5.8,43.8 L5.8,11.8 C5.9,11.8 6,11.7 6,11.7 L15.2,11.7 C18.7,8.6 23.4,7 24.2,6.7 L6.3,6.7 C3.3,6.7 0.8,9.2 0.8,12.2 L0.8,43.6 C0.8,46.6 3.3,49.1 6.3,49.1 L46.4,49.1 C49.4,49.1 51.9,46.6 51.9,43.6 L51.9,31.8 L46.8,36 L46.8,43.8 L46.8,43.8 Z M58.8,15.6 L41.7,1.3 C41.3,1 40.8,0.9 40.4,1.1 C40,1.3 39.7,1.7 39.7,2.2 L39.7,10.1 C34.2,10.7 12.1,14.7 12.1,35.5 C12.1,35.5 16.3,23.2 39.7,22.6 L39.7,30.6 C39.7,31.1 40,31.5 40.4,31.7 C40.6,31.8 40.8,31.8 40.9,31.8 C41.2,31.8 41.5,31.7 41.7,31.5 L58.8,17.5 C59,17.3 59.2,17 59.2,16.6 C59.2,16.2 59.1,15.9 58.8,15.6 L58.8,15.6 Z" id="Shape"></path>
      </g>
    </g>
  </g>
</svg>
