<svg xmlns="http://www.w3.org/2000/svg" viewBox="0 0 104 48" class="ridi_icon"><path d="M90.096 4.806h12.975l-8.852 13.166h8.336L85.498 41.587l4.598-16.695h-8.111l8.111-20.086zM17.89 15.607V8.239h4.229v7.368c1.785 2.005 3.574 4.054 5.405 6.06l-2.659 2.266-4.84-5.014-5.537 5.407-5.362-5.407-5.493 5.798c-.915-.828-1.831-1.613-2.704-2.442l6.104-6.67V8.236h4.229v7.369c1.046 1.22 2.179 2.397 3.227 3.619 1.177-1.219 2.266-2.397 3.401-3.617zm19.966 27.248H21.203V28.599h16.653v14.256zm-12.557-3.403h8.415v-7.453h-8.415v7.453zm8.459-24.15h-7.193v-3.489h7.193V5.23c-1.264-.785-2.486-1.614-3.75-2.354.48-.96 1.046-1.918 1.569-2.876 2.092 1.045 4.272 2.048 6.365 3.096v21.841h-4.184v-9.635zm15.036 5.144h11.463v3.489H44.566V8.065h14.342v3.488H48.794v8.893zm6.846 16.087h12.208v-4.575H55.64v-3.443h16.393v11.202H59.868v4.8h11.265L72.948 48H55.64V36.533zM67.801 5.231c-1.219-.785-2.482-1.613-3.704-2.354L65.624 0l6.408 3.096v21.841h-4.231V5.231z"/></svg>