<svg viewBox="0 0 48 49" xmlns="http://www.w3.org/2000/svg" class="ridi_icon"><path d="M25.5 0c-.5 0-1 .4-1 1s.4 1 1 1c11.1 0 20.2 9.1 20.2 20.2 0 .5.4 1 1 1 .5 0 1-.4 1-.9C47.7 9.9 37.8 0 25.5 0z"/><path d="M25.5 6.2c-.5 0-1 .4-1 1s.4 1 1 1c7.7 0 14 6.3 14 14 0 .5.4 1 1 1s1-.4 1-.9c0-8.9-7.2-16.1-16-16.1zm-7.6.5c-.5-.3-1-.4-1.6-.2-.6.2-1 .5-1.2 1L6.6 25.2c-.3.6-.2 1.4.1 1.9l-3.6 3.6C1.3 32.5.3 34.9.3 37.4s1 4.9 2.8 6.7c1.8 1.8 4.2 2.8 6.7 2.8 1.7 0 3.4-.5 4.9-1.3 1.7 1.6 3.9 2.5 5.8 2.5 1.5 0 2.9-.5 4-1.6.7-.7.7-2 0-2.7-.7-.7-2-.8-2.7 0-.7.7-2.5.6-4.1-.7l2.5-2.5c.3.2.7.3 1.1.3.3 0 .6-.1.8-.2l17.7-8.5c.5-.2.9-.7 1-1.2.2-.5.1-1.1-.2-1.6-6.1-9.2-13.7-16.8-22.7-22.7zm-12 34.7c-1-1.1-1.6-2.5-1.6-3.9s.6-2.9 1.6-3.9l4-4c3 2.3 5.6 4.9 7.9 7.9l-4 4c-2.2 2-5.8 2-7.9-.1zm15.9-5c-3-4.3-6.7-8-11-11l6.8-14.2c7.2 5 13.4 11.2 18.4 18.4l-14.2 6.8z"/></svg>