<?xml version="1.0" encoding="utf-8"?>
<!-- Generator: Adobe Illustrator 22.1.0, SVG Export Plug-In . SVG Version: 6.00 Build 0)  -->
<svg version="1.0" id="Layer_1" xmlns="http://www.w3.org/2000/svg"  x="0px" y="0px"
	 width="48px" height="48px" viewBox="0 0 48 48" style="enable-background:new 0 0 48 48;" xml:space="preserve">
<g>
	<path d="M11.112,47.278c-0.419,0-0.838-0.094-1.23-0.281c-0.976-0.472-1.594-1.459-1.594-2.542v-7.765H5.647
		C2.531,36.689,0,34.155,0,31.042V6.369c0-3.113,2.531-5.647,5.647-5.647h36.706c3.11,0,5.647,2.534,5.647,5.647v24.673
		c0,3.113-2.537,5.647-5.647,5.647H25.494l-12.629,9.979C12.358,47.071,11.735,47.278,11.112,47.278L11.112,47.278z M5.647,6.369
		v24.673h5.465c1.561,0,2.824,1.263,2.824,2.824v4.759l8.824-6.973c0.502-0.394,1.12-0.609,1.754-0.609h17.84V6.369H5.647
		L5.647,6.369z"/>
</g>
</svg>
