<?xml version="1.0" encoding="UTF-8"?>
<svg width="52px" height="48px" viewBox="0 0 52 48" version="1.1" xmlns="http://www.w3.org/2000/svg">
  <!-- Generator: Sketch 41.2 (35397) - http://www.bohemiancoding.com/sketch -->
  <title>speechbubble_4</title>
  <desc>Created with Sketch.</desc>
  <defs></defs>
  <g id="Page-1" stroke="none" stroke-width="1" fill="none" fill-rule="evenodd">
    <g id="speechbubble_4" fill="#444444">
      <g id="레이어_1">
        <path d="M47.1,0 L20.9,0 C18.7,0 16.9,1.8 16.9,4 L16.9,14.7 L4.9,14.7 C2.7,14.7 0.9,16.5 0.9,18.7 L0.9,36.4 C0.9,38.6 2.7,40.4 4.9,40.4 L6.8,40.4 L6.8,46 C6.8,46.8 7.2,47.5 7.9,47.8 C8.2,48 8.5,48 8.8,48 C9.2,48 9.7,47.8 10.1,47.5 L19.1,40.4 L31.2,40.4 C33.4,40.4 35.2,38.6 35.2,36.4 L35.2,27.5 L42,32.9 C42.4,33.2 42.8,33.3 43.3,33.3 C43.6,33.3 43.9,33.2 44.1,33.1 C44.8,32.8 45.2,32.1 45.2,31.3 L45.2,25.7 L47.1,25.7 C49.3,25.7 51.1,23.9 51.1,21.7 L51.1,4 C51.2,1.8 49.4,0 47.1,0 Z M31.1,36.4 L18.4,36.4 C18,36.4 17.5,36.6 17.1,36.8 L10.8,41.8 L10.8,38.4 C10.8,37.3 9.9,36.4 8.8,36.4 L4.9,36.4 L4.9,18.7 L31.2,18.7 L31.2,36.4 L31.1,36.4 Z M47.1,21.7 L43.2,21.7 C42.1,21.7 41.2,22.6 41.2,23.7 L41.2,27.1 L35.2,22.3 L35.2,18.6 C35.2,16.4 33.4,14.6 31.2,14.6 L20.9,14.6 L20.9,4 L47.2,4 C47.1,4 47.1,21.7 47.1,21.7 Z" id="Shape"></path>
      </g>
    </g>
  </g>
</svg>
