<svg xmlns="http://www.w3.org/2000/svg" viewBox="0 0 54 48"><path d="M46.7.8c-.3-.5-.8-.8-1.3-.8H7.5c-.6 0-1.1.4-1.3.9L.5 15.3c-.1.1-.1.3-.1.5 0 3.5 2.1 6.5 5.3 7.8.3.1.5.4.5.7v22.3c0 .8.6 1.4 1.4 1.4h38.6c.8 0 1.4-.6 1.4-1.4V24.2c0-.3.2-.6.5-.7 3.2-1.3 5.3-4.3 5.3-7.8 0-.2 0-.4-.1-.6L46.7.8zM8.9 3.5H44l1.1 2.4H8l.9-2.4zm29.3 41H15.7V31.1h22.4v13.4h.1zm6 0h-3.9V30.1c0-.6-.5-1.1-1.1-1.1H14.7c-.6 0-1.1.5-1.1 1.1v14.4H9.8V24.8c1.9-.2 3.7-1 5.1-2.3 1.6 1.5 3.8 2.3 6 2.3s4.4-.9 6-2.3c1.6 1.5 3.8 2.3 6 2.3s4.4-.9 6-2.3c1.4 1.3 3.2 2.1 5.1 2.3l.2 19.7zm.9-23.9c-1.7 0-3.3-.9-4.2-2.5-.4-.7-1.1-1.1-1.8-1.1-.8 0-1.5.4-1.8 1.1-.9 1.6-2.5 2.5-4.2 2.5-1.7 0-3.3-.9-4.2-2.5-.8-1.3-2.9-1.3-3.7 0-.9 1.6-2.5 2.5-4.2 2.5-1.7 0-3.3-.9-4.2-2.5-.8-1.3-2.9-1.3-3.7 0-.9 1.6-2.5 2.5-4.2 2.5-2.6 0-4.7-2-4.9-4.5L7.2 8h38.9l3.9 8.2c-.3 2.5-2.4 4.4-4.9 4.4z"/></svg>