<?xml version="1.0" encoding="UTF-8"?>
<svg width="54px" height="48px" viewBox="0 0 54 48" version="1.1" xmlns="http://www.w3.org/2000/svg">
  <!-- Generator: Sketch 41.2 (35397) - http://www.bohemiancoding.com/sketch -->
  <title>store</title>
  <desc>Created with Sketch.</desc>
  <defs></defs>
  <g id="Page-1" stroke="none" stroke-width="1" fill="none" fill-rule="evenodd">
    <g id="store" fill="#000000">
      <g id="레이어_1">
        <path d="M46.7,0.8 C46.4,0.3 45.9,0 45.4,0 L7.5,0 C6.9,0 6.4,0.4 6.2,0.9 L0.5,15.3 C0.4,15.4 0.4,15.6 0.4,15.8 C0.4,19.3 2.5,22.3 5.7,23.6 C6,23.7 6.2,24 6.2,24.3 L6.2,46.6 C6.2,47.4 6.8,48 7.6,48 L46.2,48 C47,48 47.6,47.4 47.6,46.6 L47.6,24.2 C47.6,23.9 47.8,23.6 48.1,23.5 C51.3,22.2 53.4,19.2 53.4,15.7 C53.4,15.5 53.4,15.3 53.3,15.1 L46.7,0.8 L46.7,0.8 Z M8.9,3.5 L44,3.5 L45.1,5.9 L8,5.9 L8.9,3.5 L8.9,3.5 Z M38.2,44.5 L15.7,44.5 L15.7,31.1 L38.1,31.1 L38.1,44.5 L38.2,44.5 Z M44.2,44.5 L40.3,44.5 L40.3,30.1 C40.3,29.5 39.8,29 39.2,29 L14.7,29 C14.1,29 13.6,29.5 13.6,30.1 L13.6,44.5 L9.8,44.5 L9.8,24.8 C11.7,24.6 13.5,23.8 14.9,22.5 C16.5,24 18.7,24.8 20.9,24.8 C23.1,24.8 25.3,23.9 26.9,22.5 C28.5,24 30.7,24.8 32.9,24.8 C35.1,24.8 37.3,23.9 38.9,22.5 C40.3,23.8 42.1,24.6 44,24.8 L44.2,44.5 L44.2,44.5 Z M45.1,20.6 C43.4,20.6 41.8,19.7 40.9,18.1 C40.5,17.4 39.8,17 39.1,17 C38.3,17 37.6,17.4 37.3,18.1 C36.4,19.7 34.8,20.6 33.1,20.6 C31.4,20.6 29.8,19.7 28.9,18.1 C28.1,16.8 26,16.8 25.2,18.1 C24.3,19.7 22.7,20.6 21,20.6 C19.3,20.6 17.7,19.7 16.8,18.1 C16,16.8 13.9,16.8 13.1,18.1 C12.2,19.7 10.6,20.6 8.9,20.6 C6.3,20.6 4.2,18.6 4,16.1 L7.2,8 L46.1,8 L50,16.2 C49.7,18.7 47.6,20.6 45.1,20.6 L45.1,20.6 Z" id="Shape"></path>
      </g>
    </g>
  </g>
</svg>
