<svg viewBox="0 0 54 48" xmlns="http://www.w3.org/2000/svg" class="ridi_icon"><path d="M39.3 20.8l10.4-9L49.3.3 37.6 0l-8.5 9.5 10.2 11.3zM24.6 33.5L15 25.1l-3.6 4L7 24.8l-3.8 5.1 6 5.9L6 38.4c-1.4-.1-2.9.3-4 1.4-1.9 1.9-1.9 4.9 0 6.8 1.9 1.9 5 1.9 6.9 0 1.1-1.1 1.5-2.5 1.4-3.9l2.7-3.1 6 5.9 5.2-3.7-4.2-4.3 4.6-4z"/><path d="M50.7 29.9l-3.8-5.1-4.4 4.3L16.4 0 4.7.3l-.3 11.5L34 37.5l-4.4 4.3 5.2 3.7 6-5.9 2.7 3.1c-.1 1.4.3 2.8 1.4 3.9 1.9 1.9 5 1.9 6.9 0 1.9-1.9 1.9-4.9 0-6.8-1.1-1.1-2.5-1.5-4-1.4l-3.2-2.6 6.1-5.9z"/></svg>