<?xml version="1.0" encoding="UTF-8"?>
<svg width="40px" height="48px" viewBox="0 0 40 48" version="1.1" xmlns="http://www.w3.org/2000/svg">
  <!-- Generator: Sketch 41.2 (35397) - http://www.bohemiancoding.com/sketch -->
  <title>text</title>
  <desc>Created with Sketch.</desc>
  <defs></defs>
  <g id="Page-1" stroke="none" stroke-width="1" fill="none" fill-rule="evenodd">
    <g id="text" fill="#444444">
      <g id="레이어_1">
        <path d="M37.4,0 L2.6,0 C1.4,0 0.5,1 0.5,2.1 L0.5,45.8 C0.5,47 1.5,47.9 2.6,47.9 L37.4,47.9 C38.6,47.9 39.5,46.9 39.5,45.8 L39.5,2.1 C39.5,1 38.6,0 37.4,0 Z M35.3,32.2 L35.3,43.7 L4.7,43.7 L4.7,4.3 L35.2,4.3 L35.3,32.2 L35.3,32.2 Z" id="Shape"></path>
        <polygon id="Shape" points="13.2 16.7 17.4 16.7 17.4 31.8 14.4 33 14.4 34.7 25.5 34.7 25.5 33 22.5 31.8 22.5 16.7 26.7 16.7 27.8 20.5 29.5 20.5 29.5 13.4 10.4 13.4 10.4 20.5 12.1 20.5"></polygon>
      </g>
    </g>
  </g>
</svg>
