<svg viewBox="0 0 44 49" xmlns="http://www.w3.org/2000/svg" class="ridi_icon"><path d="M41.7 32.7s2.3-1.3 2.1-4.3c-.1-1.9-2.4-3.7-2.4-3.7s1-1.8 1-2.6 0-2.9-2.1-4-12.1.4-12.1.4 1-5.8 1.1-6.6c.1-.8 1-1.7 1.1-4.4.2-3.5-1.2-7.6-4.2-7.5C23.1.1 24 5 24 5.8c0 .8-2.2 5.8-4.2 9-1.9 3.2-4.2 4.6-4.9 7.8-.6 2.7-3.6 3.8-3.6 3.8-.9.2-.9 1-.8 1.7 1.9 11.7 3.8 18 3.8 18s5 1.1 6.8 1.2c1.8.1 1.5.2 3.3.6 1.8.3 5.5 0 8.5 0s4.2-.7 7.1-2.8c2.9-2.1.8-5 .8-5s2.4-.6 2.4-3.8c0-2.8-1.5-3.6-1.5-3.6zm-34-4.6c-.2-.9-1.1-1.6-2-1.6H2c-.9 0-1.7.7-1.8 1.6v18c0 .9.8 1.6 1.7 1.6h8.2c.9 0 1.3-1.2 1.1-2.2L7.7 28.1z"/></svg>