<svg xmlns="http://www.w3.org/2000/svg" viewBox="0 0 66 48"><path d="M65.3 29.2h.4v12.7c-.2 3.5-3.1 6.1-6.5 6.1H6.8C3.3 48 .3 45.2.3 41.5v-35C.3 3 3.1 0 6.8 0h52.4c3.5 0 6.3 2.8 6.5 6.1v12.7h-.4c-2.8 0-5.2 2.4-5.2 5.2 0 2.8 2.4 5.2 5.2 5.2zm-3.9 2.9c-3.1-1.5-5-4.6-5-8.1s2.2-6.5 5-8.1V7.2c0-1.5-1.3-2.8-2.8-2.8H48.3v4.4h-4.4V4.4H7.7C6 4.4 4.6 5.7 4.6 7.5v33.4c0 1.5 1.3 2.8 3.1 2.8h50.8c1.5 0 2.8-1.3 2.8-3.1l.1-8.5zm-17.5 7.2h4.4v4.4h-4.4v-4.4zm0-8.8h4.4v4.4h-4.4v-4.4zm0-8.7h4.4v4.4h-4.4v-4.4zm0-8.7h4.4v4.4h-4.4v-4.4z"/></svg>