<?xml version="1.0" encoding="utf-8"?>
<!-- Generator: Adobe Illustrator 22.1.0, SVG Export Plug-In . SVG Version: 6.00 Build 0)  -->
<svg version="1.0" id="Layer_1" xmlns="http://www.w3.org/2000/svg"  x="0px" y="0px"
	 width="54px" height="48px" viewBox="0 0 54 48" style="enable-background:new 0 0 54 48;" xml:space="preserve">
<path d="M24.475,16.659v8.354h5.381c1.531,0,2.771,1.239,2.771,2.768s-1.24,2.768-2.771,2.768H18.932V16.659
	c0-1.529,1.24-2.768,2.771-2.768S24.475,15.13,24.475,16.659z M53.395,21.275c-0.954-1.194-2.697-1.39-3.894-0.439l-1.548,1.233
	C46.963,9.737,36.62,0,24.025,0C10.777,0,0,10.766,0,24s10.777,24,24.025,24c5.569,0,10.996-1.946,15.286-5.482l0.43-0.363
	c1.152-1.006,1.271-2.754,0.264-3.907c-1.007-1.151-2.756-1.268-3.911-0.264l-0.314,0.266c-3.295,2.717-7.471,4.214-11.756,4.214
	C13.834,42.463,5.542,34.18,5.542,24S13.834,5.537,24.025,5.537c9.394,0,17.157,7.043,18.318,16.116l-1.423-1.783
	c-0.954-1.196-2.695-1.39-3.894-0.439c-1.197,0.953-1.393,2.694-0.439,3.89l7.262,9.099l9.108-7.254
	C54.153,24.212,54.35,22.471,53.395,21.275z"/>
</svg>
