<svg viewBox="0 0 85 24" xmlns="http://www.w3.org/2000/svg" class="ridi_icon"><path d="M73.3 9.9c3.5 0 7.1 2.7 7.1 6 0 1.2-.4 2.6-1.5 3.4-.5.5-.5 1.1.1 1.9.8.9 1.8 1.5 2.9 1.5 1.3 0 3.1-1.3 3.1-3.8 0-1.4-.9-4.4-4.3-7.2-3.6-2.9-6.8-3.9-10.3-4.1C62.8 1.2 56.7 0 52.2 0 47.4 0 43 1.6 40.8 2.6c-2 .8-9.6 4.1-15 6.6-5.7 2.5-10.5 4-13.9 4-2.7 0-6.6-1-6.6-4.5 0-1.3.5-2.2 1.2-2.7.4-.3.7-.8.7-1.2 0-1.3-1.1-3.2-3-3.2-2.1 0-3.3 2.3-3.3 4 0 4.6 4.8 7.8 8 9.2C15 21.3 21 24 26.8 24c4.3 0 8.4-1.2 13.8-3.3 4.1-1.6 17-7.1 22.1-8.9 4.8-1.5 7.5-1.9 10.6-1.9-.1 0 0 0 0 0zM56.7 2.5c4 0 7.7 2.1 9.6 5.2-2.3 0-5.7.5-11.3 2.7-5.6 2-16 6.7-19.6 8-4.1 1.5-8 2.6-11.8 2.6-4.3 0-8.1-1.5-10.2-5.3 4 .5 7.8-.1 13.4-2.4 4.3-1.7 16-7.4 20-8.9 3.4-1.2 6.6-1.9 9.9-1.9z"/></svg>