<?xml version="1.0" encoding="UTF-8"?>
<svg width="137px" height="49px" viewBox="0 0 137 49" version="1.1" xmlns="http://www.w3.org/2000/svg">
  <!-- Generator: Sketch 41.2 (35397) - http://www.bohemiancoding.com/sketch -->
  <title>toss_1</title>
  <desc>Created with Sketch.</desc>
  <defs></defs>
  <g id="Page-1" stroke="none" stroke-width="1" fill="none" fill-rule="evenodd">
    <g id="toss_1" fill="#000000">
      <g id="레이어_1">
        <path d="M49.1,48.1 C41.1,48.1 35.4,45 33.2,38.7 C31,32.4 32.4,26.2 36.3,21.1 C41.8,13.8 49.3,11.9 57.9,14 C67.1,16.2 71,24.2 68.3,34 C66.5,40.7 59.5,48.5 49.1,48.1 Z M49.5,39.5 C55.2,39.5 59.9,33.6 58.9,27.7 C58.1,23.4 54.6,20.9 50.3,21.9 C45.4,23 42,28.3 42.6,33.6 C43.2,37.5 45.4,39.5 49.5,39.5 Z" id="Shape"></path>
        <path d="M83,48.3 C79.9,48.3 77.5,47.1 75.9,46.5 C74.4,45.8 73,44 71.6,43 C73.8,41 76.1,39.1 78.1,37.1 C80.5,39.7 83.4,40.8 86.7,40.6 C87.3,40.6 88.1,40.4 88.5,40.2 C89.9,39.6 90.3,39 90.3,38 C90.5,37 89.5,36 88.7,35.5 C87.7,34.7 86.5,34.5 85.2,34.1 C83.8,33.5 82.3,33.1 80.9,32.3 C76.2,29.6 74.6,24.5 77.8,20.1 C79.2,18.1 81.3,16.2 83.5,15.2 C88.6,12.7 94.1,13 99.2,15.4 C101,15.8 102.2,17 103.8,18.3 C101.4,20.3 99.3,22 97.1,23.8 C95.1,21.6 92.6,20.5 89.8,20.9 C89,21.1 88,21.3 87.3,21.7 C85.5,22.7 85.5,25 87.3,25.8 C88.3,26.4 89.3,26.6 90.6,27 C92,27.6 93.5,28 94.9,28.6 C101,31.7 102.3,39 97.6,44.1 C95.6,46.2 93.3,47.4 90.7,47.8 C90.1,48 88.7,48.2 87.4,48.2 C84.8,48.3 85,48.3 83,48.3 Z" id="Shape"></path>
        <path d="M115.1,48.3 C112.2,47.9 110,47.5 107.5,45.4 C106.3,44.8 105.3,43.8 104,42.7 C106.2,40.7 108.3,38.8 110.5,37 C112.5,39.2 115.2,40.5 118.1,40.5 C118.9,40.5 119.7,40.5 120.6,40.3 C122.4,39.5 122.6,39.3 123,38 C123.4,37.2 122.4,35.6 121.2,35.1 C119.4,34.5 117.7,33.9 115.9,33 C112.6,31.6 109.6,29.9 109.2,25.9 C108.8,21.4 110.8,18.1 114.3,15.9 C120.4,11.8 130.2,12.6 135.7,17.7 C135.9,17.9 136.3,18.1 136.5,18.3 L136.5,18.7 C134.3,20.5 132,22.4 129.8,24 C127.8,21.5 125.1,20.7 122,21.1 C120.6,21.3 118.9,21.9 118.7,23.6 C118.5,25.4 120,26 121.2,26.4 C123.4,27.2 125.9,28 128.2,29.1 C133.3,31.3 133.5,35.8 132.5,39.9 C131.5,43.6 128.8,45.8 125.3,47.2 C123.9,47.8 121.6,48.4 119.8,48.4 C117.7,48.3 117.1,48.3 115.1,48.3 Z" id="Shape"></path>
        <path d="M7,47.3 C9.2,34.6 11.3,22.4 13.5,9.7 L0.4,9.7 C1,6.4 1.4,3.6 2,0.5 L38.8,0.5 C38.4,3.4 37.2,9.5 37.2,9.5 L24.1,9.5 L17.8,47.3 C17.9,47.3 10.3,47.3 7,47.3 Z" id="Shape"></path>
      </g>
    </g>
  </g>
</svg>
