<svg viewBox="0 0 52 49" xmlns="http://www.w3.org/2000/svg" class="ridi_icon"><path d="M49.3 7.2H36.8V6c0-2.4-1.9-6-4.9-6H20c-3 0-4.9 3.5-4.9 6v1.2H2.7c-1 0-1.9.8-1.9 1.9 0 1.1.8 1.9 1.9 1.9h3.5l1 32.2c0 2.7 2.2 4.9 4.9 4.9H40c2.7 0 4.8-2.2 4.9-4.9l1-32.2h3.5c1 0 1.9-.8 1.9-1.9 0-1.1-1-1.9-2-1.9zM18.9 6c0-1 .8-2.2 1.1-2.2h12c.3.1 1.1 1.2 1.1 2.2v1.2H18.9V6zm22.2 37c0 .7-.5 1.2-1.1 1.2H12.1c-.6 0-1.1-.5-1.1-1.2v-.1l-1-32.1h32.2L41.1 43z"/><path d="M17.9 17.4c-1 0-1.9.8-1.9 1.9v16.6c0 1 .8 1.9 1.9 1.9 1.1 0 1.9-.8 1.9-1.9V19.3c-.1-1.1-.9-1.9-1.9-1.9zm8.7 0c-1 0-1.9.8-1.9 1.9v16.6c0 1 .8 1.9 1.9 1.9 1.1 0 1.9-.8 1.9-1.9V19.3c0-1.1-.8-1.9-1.9-1.9zm6.5 1.9v16.6c0 1 .8 1.9 1.9 1.9 1.1 0 1.9-.8 1.9-1.9V19.3c0-1-.8-1.9-1.9-1.9-1.1 0-1.9.8-1.9 1.9z"/></svg>