<svg xmlns="http://www.w3.org/2000/svg" viewBox="0 0 24 24"><path d="M21 11.927C21 6.968 17.045 2.962 12.113 3h-.226C6.955 2.962 3 6.968 3 11.927c0 1 .188 2 .564 2.922-.376.577-.564 1.422-.564 2.23 0 2.23 1.807 3.92 3.955 3.92H7.5v-8.1h-.545c-.566.027-1.169.143-1.696.413-.113-.386-.338-.808-.338-1.193-.038-4.074 2.936-7.236 6.815-7.236h.528c3.879 0 6.853 3.162 6.815 7.236 0 .385-.226.807-.338 1.193-.527-.27-1.13-.386-1.696-.413H16.5V21h.545C19.193 21 21 19.31 21 17.08c0-.808-.188-1.653-.564-2.23A7.76 7.76 0 0 0 21 11.927"/></svg>