<svg xmlns="http://www.w3.org/2000/svg" viewBox="0 0 48 49"><path d="M34.2 47.5h3c1.2 0 2.3-.2 3.4-.6l-6.4-6.4v7zm12.1-16.3c.9-2.4 1.4-5 1.4-7.7C47.7 10.7 36.8.3 23.9.3c-5.7 0-11 2.1-15 5.5l3.4 3.4c3.1-2.5 7-4.1 11.3-4.1 10.3 0 18.6 8.4 18.6 18.8 0 1-.4 1.8-.7 2.8-1.3-.6-2.7-1.1-4.3-1.1h-3v5.6l11.7 11.7c1.2-1.7 1.9-3.8 1.9-5.9v-.5c-.1-2-.7-3.8-1.5-5.3zM6.4 26.7c-.4-1-.9-1.9-.9-3 0-3.4.9-6.7 2.4-9.4l-3.5-3.5C2 14.4.6 18.8.6 23.5c0 2.6.5 5.1 1.4 7.4C1 32.5.3 34.4.3 36.4v.5c0 5.7 4.8 10.7 10.6 10.7h3v-22h-3c-1.6-.1-3.1.5-4.5 1.1zm27.8 6.8L11 10.3 7.6 6.9 2.8 2.1.5 4.5l4.9 4.9 3.4 3.4 25.4 25.4 8 8 2.1 2.1 2.4-2.3-1.9-1.9z"/></svg>