<svg xmlns="http://www.w3.org/2000/svg" viewBox="0 0 24 24"><path d="M20.882 18.047l-4.382-4.38v-.768h.545c.566.027 1.169.143 1.696.413.113-.386.338-.808.338-1.193.038-4.074-2.936-7.236-6.815-7.236h-.528a6.69 6.69 0 0 0-3.216.807L7.163 4.334A8.72 8.72 0 0 1 11.887 3h.226C17.044 2.962 21 6.968 21 11.927a7.76 7.76 0 0 1-.564 2.922c.376.577.564 1.422.564 2.23 0 .336-.041.66-.118.968zm-2.831 2.826c-.323.082-.66.126-1.006.126H16.5v-1.676l1.55 1.55zM5.739 8.566a7.605 7.605 0 0 0-.818 3.553c0 .385.225.807.338 1.193.527-.27 1.13-.386 1.696-.413H7.5V21h-.545C4.807 21 3 19.31 3 17.08c0-.808.188-1.653.564-2.23A7.76 7.76 0 0 1 3 11.927c0-1.748.492-3.379 1.345-4.755l1.394 1.394zM4.412 3l16.556 16.55-1.41 1.41L3.002 4.41 4.412 3z"/></svg>