<svg viewBox="0 0 50 48" xmlns="http://www.w3.org/2000/svg" class="ridi_icon"><path d="M47.3 0H2.7C1.6 0 .8.9.8 1.9v44.2c0 1.1.9 1.9 1.9 1.9h44.7c1.1 0 1.9-.9 1.9-1.9V1.9c0-1-.9-1.9-2-1.9zM43 13.5c-.8 1.3-2.1 2.6-3.5 3.7v.6c0 2.9-.6 5.9-1.9 8.8-1.7 3.8-4.3 6.8-7.7 9-3.4 2.2-7.2 3.2-11.4 3.2-3.4 0-6.6-.8-9.7-2.4-.8-.4-1.4-.7-1.7-1-.1 0-.2-.2-.2-.4s.1-.3.2-.4c.1-.1.3-.2.4-.2h1.7c2.6 0 5-.7 7.2-2-1.3-.3-2.4-.9-3.4-1.8s-1.7-2-2.1-3.3v-.2c0-.2.1-.3.2-.4.1-.1.3-.2.4-.2h.5c-1.1-.7-2.1-1.7-2.7-2.8-.6-1.1-1-2.4-1-3.8 0-.2.1-.4.2-.5.1-.1.3-.2.5-.2.1 0 .4.1.7.2.3.1.5.2.6.3-1.2-1.4-1.8-3.1-1.8-4.9 0-.7.1-1.4.3-2.1.2-.7.4-1.3.8-1.8.1-.2.3-.3.5-.3s.4.1.5.2c1 1.1 1.7 1.8 2.1 2.2 1.6 1.4 3.4 2.6 5.3 3.4 1.9.8 4 1.4 6.1 1.6-.1-.4-.2-.7-.2-1 0-2.2.8-4 2.3-5.5 1.5-1.5 3.4-2.3 5.5-2.3s3.9.7 5.4 2.2c1.2-.3 2.6-.8 4-1.6.1-.1.2-.1.3-.1.2 0 .3.1.4.2.1.1.2.3.2.4 0 .3-.2.8-.5 1.4-.3.6-.7 1.1-1 1.5.1 0 .3-.1.6-.2s.6-.2.8-.3c.3-.1.4-.1.5-.1.2 0 .3.1.4.2.1.1.2.3.2.4.1.1.1.2 0 .3z"/></svg>