<?xml version="1.0" encoding="UTF-8"?>
<svg width="60px" height="48px" viewBox="0 0 60 48" version="1.1" xmlns="http://www.w3.org/2000/svg">
  <!-- Generator: Sketch 41.2 (35397) - http://www.bohemiancoding.com/sketch -->
  <title>twitter_2</title>
  <desc>Created with Sketch.</desc>
  <defs></defs>
  <g id="Page-1" stroke="none" stroke-width="1" fill="none" fill-rule="evenodd">
    <g id="twitter_2" fill="#000000">
      <g id="레이어_1">
        <path d="M59.3,6.4 C59.3,6.6 59.2,6.8 59.1,7 C57.8,9.2 55.9,11.1 53.5,12.9 L53.5,13.9 C53.6,18.6 52.5,23.4 50.4,28.2 C47.6,34.4 43.5,39.2 38,42.7 C32.5,46.2 26.3,48 19.5,48 C14,48 8.8,46.7 3.9,44.2 C2.6,43.5 1.7,43 1.2,42.6 C0.9,42.3 0.7,42.1 0.7,41.8 C0.7,41.5 0.8,41.3 1,41.1 C1.2,40.9 1.4,40.8 1.7,40.8 C2,40.8 2.5,40.8 3.1,40.9 C3.7,41 4.2,41 4.5,41 C8.7,41 12.7,39.9 16.2,37.7 C14.1,37.2 12.2,36.2 10.5,34.7 C8.9,33.2 7.7,31.4 7,29.3 C7,29.1 6.9,29 6.9,29 C6.9,28.7 7,28.5 7.2,28.3 C7.4,28.1 7.6,28 7.9,28 C8,28 8.2,28 8.3,28.1 C8.5,28.1 8.6,28.2 8.7,28.2 C6.8,27.1 5.4,25.5 4.3,23.6 C3.2,21.7 2.6,19.6 2.6,17.5 C2.6,17.2 2.7,16.9 3,16.7 C3.2,16.5 3.5,16.4 3.9,16.4 C4.1,16.4 4.5,16.5 5,16.8 C5.5,17.1 5.9,16.9 6,17 C4.1,14.7 3.1,12 3.1,9 C3.1,7.9 3.3,6.8 3.6,5.6 C3.9,4.4 4.3,3.4 4.9,2.6 C5,2.3 5.3,2.1 5.6,2.1 C5.9,2.1 6.2,2.2 6.4,2.5 C8,4.3 9.2,5.4 9.9,6.1 C12.5,8.4 15.3,10.3 18.5,11.6 C21.7,12.9 25,13.8 28.4,14.1 C28.3,13.7 28.3,13.2 28.3,12.6 C28.3,9.1 29.5,6.1 32,3.7 C34.4,1.2 37.4,0 40.9,0 C44.3,0 47.2,1.2 49.7,3.6 C51.7,3.2 53.9,2.3 56.2,1 C56.4,0.9 56.5,0.8 56.7,0.8 C57,0.8 57.2,0.9 57.4,1.1 C57.6,1.3 57.7,1.5 57.7,1.8 C57.7,2.3 57.4,3.1 56.8,4.1 C56.2,5.1 55.7,5.9 55.2,6.5 C55.3,6.5 55.7,6.3 56.1,6.2 C56.6,6 57,5.9 57.4,5.7 C57.8,5.5 58.1,5.5 58.2,5.5 C58.5,5.5 58.7,5.6 58.9,5.8 C59.2,5.9 59.3,6.2 59.3,6.4 L59.3,6.4 Z" id="Shape"></path>
      </g>
    </g>
  </g>
</svg>
