<?xml version="1.0" encoding="utf-8"?>
<!-- Generator: Adobe Illustrator 21.0.0, SVG Export Plug-In . SVG Version: 6.00 Build 0)  -->
<svg version="1.1" id="Layer_1" xmlns="http://www.w3.org/2000/svg"  x="0px" y="0px"
	 viewBox="0 0 39 48" style="enable-background:new 0 0 39 48;" xml:space="preserve">
<path d="M33.703,8.522c-0.771-1.814-1.107-2.641-2.508-4.043c-1.402-1.402-3.032-2.503-4.846-3.274C24.466,0.406,22.471,0,20.419,0
	c-2.052,0-4.047,0.406-5.93,1.205c-1.814,0.771-3.445,1.872-4.846,3.274C8.24,5.881,7.139,7.511,6.368,9.326
	c-0.8,1.883-1.206,3.878-1.206,5.93v5.055H3.163c-1.562,0-2.832,1.271-2.832,2.832v22.025C0.331,46.729,1.602,48,3.163,48h32.673
	c1.562,0,2.832-1.271,2.832-2.832V23.143c0-1.562-1.271-2.832-2.832-2.832H10.015v-5.055c0-5.736,4.667-10.403,10.403-10.403
	c0,0,6.323-0.069,8.321,4.714L33.703,8.522z M5.184,43.147V25.164h28.632v17.984H5.184z"/>
<path d="M19.5,27.949c-2.3,0-4.171,1.871-4.171,4.171c0,1.446,0.75,2.783,1.972,3.543v4.294h4.398v-4.294
	c1.222-0.76,1.972-2.098,1.972-3.543C23.671,29.82,21.8,27.949,19.5,27.949z"/>
</svg>
