<svg viewBox="0 0 50 48" xmlns="http://www.w3.org/2000/svg" class="ridi_icon"><path d="M48.9 48H1.1C.5 48 0 47.5 0 46.9v-5.3c0-.8 0-3.2 11.1-7.3 6.5-2.4 7.5-4.1 7.5-7.3 0-.7-.2-.9-.6-1.4-.7-.8-1.6-1.8-2.1-4.6 0-.1-.1-.2-.1-.2s-.1 0-.2-.1c-1.2-.6-1.9-1.5-2.1-4.2v-.1c0-1.3.4-2.1.8-2.6-.1-.8-.4-2.5-.5-3.9-.2-1.6.3-4.3 2.3-6.5C17.5 1.8 20.2 0 25 0c4.8 0 7.5 1.8 8.9 3.4 2 2.2 2.5 4.9 2.4 6.6-.1 1.4-.4 3.1-.6 3.9.4.5.8 1.3.8 2.6v.1c-.2 2.7-1 3.6-2.1 4.2-.1 0-.2.1-.2.1v.2c-.5 2.8-1.4 3.8-2.1 4.6-.5.5-.6.7-.6 1.4 0 3.9 2.2 5.3 7.5 7.3 11 3.9 11 6.3 11 7.1v5.3c0 .7-.5 1.2-1.1 1.2zM2.3 45.7h45.4v-4.2c-.1-.5-2-2.4-9.6-5.1-6-2.2-9-4.2-9-9.4 0-1.6.6-2.3 1.2-2.9.6-.6 1.2-1.3 1.6-3.5.2-1.3 1-1.7 1.5-1.9.4-.2.7-.3.8-2.2 0-.7-.2-1-.3-1.1-.5-.2-.7-.7-.6-1.2 0 0 .5-2.5.6-4.4.1-.9-.2-3.1-1.8-4.8-1.6-1.7-4-2.6-7.2-2.6s-5.6.9-7.2 2.6c-1.5 1.7-1.7 3.8-1.6 4.7.2 1.9.6 4.4.6 4.4.1.6-.1 1.1-.6 1.2-.1.1-.3.4-.3 1.1.1 1.9.5 2.1.8 2.2.5.2 1.3.6 1.5 1.9.4 2.2 1 2.9 1.6 3.5.6.6 1.2 1.3 1.2 2.9 0 5.2-3 7.2-9 9.4-7.6 2.8-9.5 4.7-9.6 5.2v4.2z"/></svg>