<?xml version="1.0" encoding="UTF-8"?>
<svg width="48px" height="48px" viewBox="0 0 48 48" version="1.1" xmlns="http://www.w3.org/2000/svg">
  <!-- Generator: Sketch 41.2 (35397) - http://www.bohemiancoding.com/sketch -->
  <title>user_2</title>
  <desc>Created with Sketch.</desc>
  <defs></defs>
  <g id="Page-1" stroke="none" stroke-width="1" fill="none" fill-rule="evenodd">
    <g id="user_2" fill="#000000">
      <g id="레이어_1">
        <path d="M24,0 C10.7,0 0,10.7 0,24 C0,37.3 10.7,48 24,48 C37.3,48 48,37.3 48,24 C48,10.7 37.3,0 24,0 Z M12,33.9 C12.1,33.4 12.3,32.6 12.8,31.4 C13.2,30.5 14.2,29.6 14.9,29.4 C16,29 17.1,28.5 19.1,27.7 C20.4,27.2 20.9,26.2 20.9,25.6 C21,24.8 21,24.1 21,23.4 C20.6,23 20.2,22.6 19.9,22.2 C19.3,21.5 18.9,20.1 18.6,17 C18.2,12.6 20.5,10 24,10 L24,10 L24,10 L24,10 L24,10 C27.5,10.1 29.8,12.6 29.4,16.9 C29.1,20 28.7,21.4 28.1,22.1 C27.8,22.5 27.4,22.9 27,23.3 C27,24 27.1,24.8 27.2,25.5 C27.2,26.1 27.7,27.1 29,27.6 C31,28.4 32.1,29 33.2,29.3 C33.9,29.5 34.9,30.4 35.3,31.3 C35.8,32.5 36,33.3 36.1,33.8 L12,33.9 L12,33.9 Z" id="Shape"></path>
      </g>
    </g>
  </g>
</svg>
