<svg viewBox="0 0 48 48" xmlns="http://www.w3.org/2000/svg" class="ridi_icon"><path d="M42.6 39.1C50.3 29.7 49.8 15.8 41 7c-4.5-4.5-10.6-7-17-7S11.6 2.5 7.1 7C2.5 11.6 0 17.6 0 24s2.5 12.4 7 17c4.5 4.5 10.6 7 17 7s12.5-2.5 17-7c.5-.5.9-1 1.4-1.5 0-.1.1-.2.2-.4zM9.9 9.9c3.8-3.7 8.8-5.8 14.1-5.8 5.3 0 10.3 2.1 14.1 5.8 6.7 6.7 7.6 17.1 2.7 24.8-.1-.1-.1-.1-.2-.1-3.1-1.5-6.4-2.5-9.8-3.1.9-.9 1.5-1.9 1.6-2.9l.1-.9c.8-.4 1.4-1.2 1.5-2.2l.4-4c.1-.9-.3-1.8-.9-2.4l.1-1c.1-1.4.4-4.6-2.1-6.9C29.7 9.7 27 8.7 24 8.7s-5.7 1-7.4 2.6c-2.6 2.3-2.3 5.6-2.1 6.9l.1 1c-.6.6-1 1.4-.9 2.4l.4 4c.1 1 .7 1.8 1.5 2.2 0 .3.1.5.1.8.1 1 .7 2.1 1.6 2.9-3.4.6-6.8 1.7-9.9 3.1-.1 0-.1.1-.1.1-2-3.2-3.1-6.9-3.1-10.7-.1-5.3 2-10.3 5.7-14.1zm14.1 34h-1c-3.9-.2-7.7-1.5-10.9-3.9-.8-.6-1.5-1.2-2.2-1.9l-.1-.1-.1-.1c3.1-1.4 6.5-2.3 10.1-2.8.5-.1 1-.3 1.4-.8.4-.5.5-1 .4-1.5l-.4-2.8c-.1-.6-.4-1.1-.9-1.4-.4-.2-.6-.5-.6-.6-.1-.9-.2-1.7-.3-2.6-.1-.8-.6-1.4-1.4-1.7l-.2-1.4s.1 0 .1-.1c.6-.4 1-1.2.9-1.9l-.3-2.6c-.1-1.3-.2-2.7.9-3.6 1-1 2.7-1.5 4.6-1.5 1.9 0 3.7.6 4.7 1.6.9.8.9 2.2.8 3.5l-.3 2.6c-.1.7.2 1.5.9 1.9l.1.1-.2 1.5c-.7.2-1.3.9-1.4 1.7l-.3 2.5c0 .1-.2.4-.6.6-.5.3-.8.8-.9 1.4l-.4 2.8c-.1.5.1 1.1.4 1.5.3.4.8.7 1.4.8 3.5.4 6.9 1.4 10.1 2.8l-.1.1c-3.9 3.8-8.9 5.9-14.2 5.9z"/></svg>