<svg xmlns="http://www.w3.org/2000/svg" viewBox="0 0 48 48"><path d="M19 29.1l1-4.1h-2l1 4.1zm4.6-6.4h.9l-.5-1.8-.4 1.8zM24 0C10.7 0 0 10.7 0 24s10.7 24 24 24 24-10.7 24-24S37.3 0 24 0zm13.1 24.8c0 .1-.1.1-.1.2s-.2.1-.3.1h-3.5l-2.4 9.3c0 .1-.1.2-.1.2h-3.1s-.1-.1-.1-.2l-2.4-9.3h-2.2l-2.4 9.3c0 .1-.1.2-.1.2h-3s-.1-.1-.1-.2l-2.4-9.3h-3.6c-.1 0-.2 0-.3-.1-.1-.1-.1-.1-.1-.2V23c0-.1.1-.2.1-.2.1-.1.2-.1.3-.1h2.9l-1.6-6.5V16h2.6c.1 0 .2-.1.3 0 .1 0 .2 0 .2.2l1.6 6.5h3.3l1.7-6.5c.1-.2.1-.2.2-.2h2.8c.1 0 .2-.1.3 0 .1.1.1.1.1.2l1.7 6.5h3.3l1.6-6.5c0-.2.1-.2.1-.2h3v.2l-1.7 6.4h2.9c.3 0 .4.1.4.3l.1 1.9zM29 29.1l1-4.1h-2l1 4.1z"/></svg>