<svg viewBox="0 0 40 48" xmlns="http://www.w3.org/2000/svg" class="ridi_icon"><path d="M28.4 36.7s3.6-.4 6.8 1.1c3.1 1.5 4.7 1.6 4.7 6.4 0 2.6-.4 3.8-3.5 3.8s-8.4.2-9.3-1.6c-1.4-2.8-2.6-3.1-7.1-3.1v-.1.1c-4.6 0-5.7.3-7.1 3.1C12 48.2 6.7 48 3.6 48 .5 48 .1 46.7.1 44.2c0-4.8 1.6-4.9 4.7-6.4s6.8-1.1 6.8-1.1c.6 0 1-.1 1.6-.5 1.5-2 1.3-5.3 1.3-5.3l-5.1 1.6c-1.8 1.1-3.8-.3-3.8-.3-1.5-2.4-.4-3.6-.4-3.6l6.2-11.1c1.3-1.8 6.6-2.4 6.6-2.4v-2.5c-3.1-1.1-3.3-3.3-3.3-6.2C14.7 3.5 16 0 20 0s5.3 3.5 5.3 6.4c0 2.9-.2 5.1-3.3 6.2v2.6s5.3.5 6.6 2.4l6.2 11.1s1.1 1.2-.4 3.6c0 0-2 1.4-3.8.3L25.5 31s-.2 3.3 1.3 5.3c.6.3 1 .4 1.6.4zM14 22.8c-2.6 2.2-4.3 5.7-4.3 5.7l4.5-.4-.2-5.3zm16.3 5.7S28.6 25 26 22.8l-.2 5.3 4.5.4z"/></svg>