<svg xmlns="http://www.w3.org/2000/svg" viewBox="0 0 120 48">
    <path d="M78.3 0H64.6C63.5 0 63 .4 63 1.6v44.9c0 1.1.4 1.6 1.6 1.6h13.8c7.1 0 12.3-1.8 15.5-5.4 3.2-3.6 4.8-9.9 4.8-18.6 0-8.8-1.6-15-4.9-18.6C90.7 1.8 85.5 0 78.3 0zm6.2 34.3c-1.2 1.9-3.4 2.9-6.4 2.9h-2.6V10.7H78c3 0 5.2 1 6.4 2.9 1.2 1.8 1.8 5.2 1.8 10.3 0 5.2-.6 8.6-1.7 10.4zM55 1.6v44.9c0 1.1-.4 1.6-1.6 1.6h-9.3c-1.1 0-1.6-.4-1.6-1.6V1.6C42.6.4 43 0 44.1 0h9.3c1.2 0 1.6.4 1.6 1.6zm63.6 0v44.9c0 1.1-.4 1.6-1.6 1.6h-9.3c-1.1 0-1.6-.4-1.6-1.6V1.6c0-1.1.4-1.6 1.6-1.6h9.3c1.2 0 1.6.4 1.6 1.6zM27.8 31.2c4.9-2.4 7.5-7.1 7.5-14.1 0-6.3-1.4-10.8-4.3-13.3S23.3 0 16.8 0H1.6C.4 0 0 .4 0 1.6v44.9C0 47.6.4 48 1.6 48h9.3c1.1 0 1.6-.4 1.6-1.6V33.3H16l.2.3 6.2 12.8c.5 1 1.3 1.5 2.6 1.5h9.4c.8 0 .9-.3 1-.4.1-.3.1-.8-.2-1.3L27.7 32l-.3-.5.5-.2-.1-.1zM21.4 22c-.9 1.1-2.5 1.6-4.8 1.6h-4.3V10.4h4.3c2.3 0 3.8.5 4.8 1.5.9 1 1.3 2.6 1.3 5.1 0 2.3-.4 4-1.3 5z"/>
</svg>
