<svg xmlns="http://www.w3.org/2000/svg" data-name="Layer 1" viewBox="0 0 9.06 12"><path d="M7.55 0h-6A1.51 1.51 0 0 0 0 1.51v10a.55.55 0 0 0 .93.38l3.6-3.6 3.6 3.6a.55.55 0 0 0 .93-.39V1.51A1.51 1.51 0 0 0 7.55 0zm-.86 3.5l-1.1.84L6 5.7a.25.25 0 0 1 0 .09.24.24 0 0 1-.09.2.3.3 0 0 1-.15 0 .24.24 0 0 1-.14 0l-1.09-.84L3.41 6a.22.22 0 0 1-.28 0A.24.24 0 0 1 3 5.79a.2.2 0 0 1 0-.09l.42-1.36-1.06-.84a.28.28 0 0 1-.1-.21.17.17 0 0 1 0-.12.21.21 0 0 1 .25-.17h1.36l.42-1.35a.24.24 0 0 1 .24-.18.24.24 0 0 1 .24.17L5.19 3h1.36a.21.21 0 0 1 .21.13.18.18 0 0 1 0 .12.25.25 0 0 1-.07.25z"/></svg>