<svg viewBox="0 0 42 48" class="ridi_icon"><path d="M3.3 15.7C1.7 15.7.4 17 .4 18.6V30c0 1.6 1.3 2.9 2.9 2.9 1.6 0 2.9-1.3 2.9-2.9V18.6c0-1.6-1.3-2.9-2.9-2.9zm5 20.9c0 1.2 1 2.2 2.2 2.2H13v6.3c0 1.6 1.3 2.9 2.9 2.9 1.6 0 2.9-1.3 2.9-2.9v-6.3h4.4v6.3c0 1.6 1.3 2.9 2.9 2.9 1.6 0 2.9-1.3 2.9-2.9v-6.3h2.5c1.2 0 2.2-1 2.2-2.2V15.8H8.3v20.8zm30.4-20.9c-1.6 0-2.9 1.3-2.9 2.9V30c0 1.6 1.3 2.9 2.9 2.9 1.6 0 2.9-1.3 2.9-2.9V18.6c0-1.6-1.3-2.9-2.9-2.9zm-11-10.5l2.4-3.5c.3-.5.2-1.1-.3-1.5-.5-.3-1.1-.2-1.5.3l-2.6 3.9c-1.5-.5-3.1-.8-4.7-.8-1.7 0-3.3.3-4.7.8L13.6.5c-.3-.5-.9-.6-1.4-.3-.5.3-.6 1-.3 1.5l2.4 3.5c-3.4 1.8-5.7 4.9-6 8.5h25.4c-.3-3.6-2.6-6.7-6-8.5zm-12.1 5c-.8 0-1.4-.6-1.4-1.4 0-.8.6-1.4 1.4-1.4.8 0 1.4.6 1.4 1.4 0 .8-.6 1.4-1.4 1.4zm10.9 0c-.8 0-1.4-.6-1.4-1.4 0-.8.6-1.4 1.4-1.4.8 0 1.4.6 1.4 1.4 0 .8-.6 1.4-1.4 1.4z"/></svg>