<svg id="Layer_1" x="0" y="0" viewBox="0 0 57 48" xml:space="preserve" class="ridi_icon"><style>.st0{fill:#040000}</style><path d="M10.391 29.236h5.673c.873 0 1.527-.655 1.527-1.527s-.655-1.527-1.527-1.527h-5.673c-.873 0-1.527.655-1.527 1.527s.654 1.527 1.527 1.527zM10.391 37.964h5.673c.873 0 1.527-.655 1.527-1.527 0-.873-.655-1.527-1.527-1.527h-5.673c-.873 0-1.527.655-1.527 1.527 0 .872.654 1.527 1.527 1.527zM25.664 29.236h5.673c.873 0 1.527-.655 1.527-1.527s-.655-1.527-1.527-1.527h-5.673c-.873 0-1.527.655-1.527 1.527s.654 1.527 1.527 1.527zM25.664 37.964h5.673c.873 0 1.527-.655 1.527-1.527 0-.873-.655-1.527-1.527-1.527h-5.673c-.873 0-1.527.655-1.527 1.527-.001.872.654 1.527 1.527 1.527zM40.936 29.236h5.673c.873 0 1.527-.655 1.527-1.527s-.655-1.527-1.527-1.527h-5.673c-.873 0-1.527.655-1.527 1.527s.655 1.527 1.527 1.527z"/><path d="M48.136 4.364h-4.364V2.182C43.773.873 42.9 0 41.591 0s-2.182.873-2.182 2.182v2.182H17.591V2.182C17.591.873 16.718 0 15.409 0s-2.182.873-2.182 2.182v2.182H8.864c-4.8 0-8.727 3.927-8.727 8.727v26.182c0 4.8 3.927 8.727 8.727 8.727h39.273c4.8 0 8.727-3.927 8.727-8.727V13.091c0-4.8-3.928-8.727-8.728-8.727zM52.5 39.273c0 2.4-1.964 4.364-4.364 4.364H8.864A4.377 4.377 0 0 1 4.5 39.273V19.636h48v19.637zm0-24h-48v-2.182c0-2.4 1.964-4.364 4.364-4.364h4.364c0 1.309.873 2.182 2.182 2.182s2.182-.873 2.182-2.182H39.41c0 1.309.873 2.182 2.182 2.182s2.182-.873 2.182-2.182h4.364c2.4 0 4.364 1.964 4.364 4.364v2.182z"/></svg>