<svg viewBox="0 0 48 34" class="ridi_icon"><path d="M45.67 13.079C47.199 11.743 48 10.181 48 8.51 48 3.775 41.648.204 33.225.204S18.451 3.775 18.451 8.51c0 .369.04.735.119 1.097a26.792 26.792 0 0 0-3.795-.267C6.352 9.34 0 12.912 0 17.647c0 1.39.574 2.731 1.671 3.922C.574 22.759 0 24.1 0 25.49c0 4.735 6.352 8.306 14.775 8.306 3.387 0 6.643-.621 9.225-1.754 2.582 1.133 5.838 1.754 9.225 1.754C41.648 33.796 48 30.225 48 25.49c0-1.39-.575-2.731-1.672-3.922C47.425 20.378 48 19.037 48 17.647c0-1.671-.801-3.234-2.33-4.568zm-3.54 7.196c-.302.177-.635.343-.986.504-2.123.967-4.936 1.499-7.919 1.499-1.858 0-3.618-.199-5.234-.591l-.107-.119a6.465 6.465 0 0 0 1.138-1.68c.209-.446.349-.856.427-1.254.067-.337.101-.669.101-.988 0-.369-.04-.735-.12-1.097 1.237.177 2.508.267 3.795.267 3.369 0 6.496-.583 9.077-1.688 1.274.793 2.023 1.717 2.023 2.518 0 .652-.495 1.392-1.393 2.084a7.74 7.74 0 0 1-.802.545zm-.197-9.03c-.328.183-.68.358-1.063.522-.415.176-.862.337-1.333.485-3.721 1.167-8.901 1.167-12.623 0a14.212 14.212 0 0 1-1.335-.486 11.337 11.337 0 0 1-1.064-.522c-1.495-.835-2.389-1.857-2.389-2.733 0-1.934 4.222-4.631 11.099-4.631s11.1 2.697 11.1 4.631c0 .875-.894 1.898-2.392 2.734zm-16.059 6.402c0 .279-.099.587-.295.916-.236.395-.605.787-1.127 1.191l-.184.141c-.184.131-.38.258-.59.381l.439.748-.549-.688c-.271.155-.566.303-.906.459l-.254.115a16.026 16.026 0 0 1-2.136.712c-1.688.436-3.538.657-5.498.657-2.983 0-5.795-.532-7.917-1.499a10.235 10.235 0 0 1-.983-.502 7.865 7.865 0 0 1-.806-.547c-.898-.694-1.393-1.433-1.393-2.084 0-1.934 4.223-4.63 11.099-4.63 2.513 0 4.885.37 6.86 1.07.354.127.687.262 1.004.404.332.148.644.305.931.469 1.443.824 2.305 1.829 2.305 2.687zM4.642 23.766c2.712 1.413 6.28 2.187 10.132 2.187a26.685 26.685 0 0 0 5.894-.657c.431-.102.85-.213 1.258-.334a17.8 17.8 0 0 0 2.442-.928c.184-.087.364-.175.539-.267.285.265.509.537.672.809.195.328.295.636.295.915 0 .857-.862 1.863-2.305 2.687-.288.165-.599.321-.931.47-.316.141-.648.277-1.002.402-1.975.701-4.348 1.072-6.861 1.072-6.877 0-11.099-2.697-11.099-4.631-.001-.54.339-1.141.966-1.725zm24.903 1.935a26.9 26.9 0 0 0 3.68.252c3.853 0 7.421-.774 10.133-2.187.627.584.967 1.184.967 1.724 0 1.934-4.223 4.631-11.1 4.631-1.925 0-3.767-.217-5.412-.634 1.085-1.145 1.676-2.43 1.732-3.786z"/></svg>