<svg viewBox="0 0 62 49" class="ridi_icon"><path d="M30.8 36.9l4-4-5.2-5.2-4 4v1.9h3.3v3.3h1.9zm15-24.6c-.4-.4-.7-.4-1.1 0l-12 12c-.4.4-.4.8 0 1.1.4.4.7.4 1.1 0l12-12c.3-.4.4-.7 0-1.1zm2.7 20.3V39c0 2.7-1 5-2.9 6.9-1.9 1.9-4.2 2.9-6.9 2.9H10.3c-2.7 0-5-1-6.9-2.9C1.5 44 .5 41.7.5 39V10.7c0-2.7 1-5 2.9-6.9C5.3 1.9 7.6.9 10.3.9h28.5c1.4 0 2.8.3 4 .9.2.2.4.4.5.8.1.4 0 .7-.3 1l-1.7 1.7c-.3.3-.7.4-1.1.3-.5-.1-1-.2-1.5-.2H10.3c-1.5 0-2.8.5-3.9 1.6s-1.6 2.4-1.6 3.9V39c0 1.5.5 2.8 1.6 3.9s2.4 1.6 3.9 1.6h28.5c1.5 0 2.8-.5 3.9-1.6s1.6-2.4 1.6-3.9v-4.3c0-.3.1-.5.3-.8l2.2-2.2c.3-.3.7-.4 1.2-.2.3.3.5.6.5 1.1zM45.2 7.4l9.8 9.8-22.8 22.9h-9.9v-9.8L45.2 7.4zm15.3 4.5L57.3 15l-9.8-9.8 3.1-3.1c.6-.6 1.4-1 2.3-1 .9 0 1.7.3 2.3 1l5.2 5.2c.6.6 1 1.4 1 2.3 0 .9-.3 1.7-.9 2.3z"/></svg>