<svg viewBox="0 0 48 48" class="ridi_icon"><path d="M24 0C10.8 0 0 10.8 0 24s10.8 24 24 24 24-10.8 24-24S37.2 0 24 0zM13.4 32.7H23v11.2c-1.1-.1-2.2-.2-3.3-.5-2.8-1.9-5.1-5.8-6.3-10.7zM4.1 24c0-2.4.4-4.6 1.2-6.7h5.6c-.4 2.1-.6 4.4-.6 6.7s.2 4.6.6 6.7H5.3c-.8-2.1-1.2-4.3-1.2-6.7zm8.2 0c0-2.4.2-4.6.6-6.7H23v13.5H12.9c-.4-2.2-.6-4.4-.6-6.8zm7.4-19.5c1.1-.2 2.2-.4 3.3-.5v11.2h-9.6c1.2-4.8 3.5-8.7 6.3-10.7zM25 43.9V32.7h9.6c-1.3 4.9-3.5 8.7-6.3 10.7-1 .3-2.2.5-3.3.5zm0-39.8c1.1.1 2.2.2 3.3.5 2.8 2 5 5.8 6.3 10.7H25V4.1zm7.5 1.8c4.1 1.9 7.4 5.2 9.4 9.3h-5.2c-.9-3.6-2.4-6.8-4.2-9.3zm2.6 11.4c.4 2.1.6 4.4.6 6.7s-.2 4.6-.6 6.7H25V17.3h10.1zm1.6 15.4h5.2c-2 4.1-5.3 7.4-9.4 9.3 1.8-2.4 3.3-5.6 4.2-9.3zm.4-2c.4-2.1.6-4.4.6-6.7s-.2-4.6-.6-6.7h5.6c.8 2.1 1.2 4.4 1.2 6.7 0 2.4-.4 4.6-1.2 6.7h-5.6zM15.5 6c-1.8 2.4-3.3 5.6-4.2 9.2H6.1c2-4 5.3-7.3 9.4-9.2zM6.1 32.7h5.2c.9 3.7 2.4 6.9 4.2 9.3-4.1-1.9-7.4-5.2-9.4-9.3z"/></svg>