<svg viewBox="0 0 60 48" class="ridi_icon"><path d="M54.2 39.1h-5V37c0-4.3-4.7-10-8-11-.1 0-.4-.1-.8-.3 1.3-1.5 1.4-3.1 1.8-5.9v-.2c0-.4.1-.8.1-1.2 0-4.6-1.8-8.7-4.5-11.4.8-3.9 3.9-7 7.7-7 4.5 0 8.1 4.4 8.1 9.8 0 3.7-2.5 6.8-4.7 8.5 0 0 3.4 1.3 3.8 1.4 2.7.8 7.3 5.3 7.3 8.5v5.1c0 3.2-2.6 5.8-5.8 5.8zm-20.7-12s3.4 1.3 3.8 1.4c2.7.8 7.3 5.3 7.3 8.5v5.1c0 3.2-2.6 5.8-5.8 5.8H21.3c-3.2 0-5.8-2.6-5.8-5.8V37c0-3.2 4.6-7.7 7.3-8.5.4-.1 3.8-1.4 3.8-1.4-2.3-1.7-4.7-4.8-4.7-8.5 0-5.4 3.7-9.8 8.1-9.8 4.4 0 8.1 4.4 8.1 9.8.1 3.7-2.4 6.8-4.6 8.5zm-15.6-7.7v.6c.3 2.7.5 4.3 1.8 5.9-.4.2-.7.3-.8.3-3.3 1-8 6.7-8 11v2.1h-5c-3.2 0-5.8-2.6-5.8-5.8v-5.1c0-3.2 4.6-7.7 7.3-8.5.4-.1 3.8-1.4 3.8-1.4-2.3-1.7-4.7-4.8-4.7-8.5-.1-5.6 3.5-10 8-10 3.8 0 6.9 3.1 7.9 7.3-2.8 2.6-4.5 6.7-4.5 11.3v.8z"/></svg>