<svg viewBox="0 0 94 36" class="ridi_icon"><g><path d="M50.2 12.5c-3.1 0-6.2 2.9-6.2 6.5 0 2.7 1.7 4.4 4.2 4.4 3.1 0 6.2-2.9 6.2-6.7 0-2.5-1.7-4.2-4.2-4.2z"/><path d="M75.3 0H18.7C8.8 0 .7 8.1.7 18s8.1 18 18 18h56.6c9.9 0 18-8.1 18-18s-9.5-18-18-18zM34.5 27.2h-4.6l1.4-7.2h-6.8l-1.4 7.2h-4.6l3.7-18.5h4.6l-1.5 7.2h6.9l1.5-7.2h4.6l-3.8 18.5zm13.6.5c-5.4 0-8.8-3.5-8.8-8.4 0-6 5.2-11 11-11 5.3 0 8.8 3.4 8.8 8.2 0 6-5.3 11.2-11 11.2zm28.2-15.3h-5.6l-2.8 14.9h-4.6l2.8-14.9h-5.6l1.3-3.6h15.5l-1 3.6z"/></g></svg>