<svg viewBox="0 0 64 48" class="ridi_icon"><path d="M47.165 15.941c-1.485 0-2.915.217-4.28.595V5.13c0-2.828-2.778-5.13-6.193-5.13H2.433C1.537 0 .807.639.807 1.422v35.227c0 .784.729 1.422 1.626 1.422h29.91c2.4 5.826 8.129 9.929 14.82 9.929 8.853 0 16.03-7.176 16.03-16.03s-7.175-16.029-16.028-16.029zM7.66 35.228H4.059V2.843H7.66v32.385zm23.808 0H10.91V2.843h25.782c1.622 0 2.941 1.026 2.941 2.286v12.693c-5.055 2.697-8.499 8.018-8.499 14.148.001 1.117.117 2.206.334 3.258zm15.697 9.767c-7.181 0-13.024-5.843-13.024-13.024 0-7.181 5.843-13.024 13.024-13.024 7.181 0 13.024 5.843 13.024 13.024 0 7.181-5.843 13.024-13.024 13.024zM28.385 9.698H26.14c-.18 0-.262.065-.262.262v7.359c0 .18.065.262.262.262h2.261c1.18-.016 2.032-.312 2.557-.902.525-.59.786-1.606.786-3.048 0-1.443-.262-2.459-.803-3.049-.524-.59-1.376-.884-2.556-.884zm1.016 5.621c-.196.312-.557.475-1.049.475H27.926v-4.342H28.336c.492 0 .853.164 1.049.475.196.311.295.869.295 1.704-.001.836-.099 1.393-.279 1.688zm-9.259-.508c.786-.394 1.196-1.163 1.196-2.31 0-1.033-.245-1.77-.704-2.18-.475-.41-1.262-.623-2.327-.623h-2.491c-.196 0-.262.065-.262.262v7.359c0 .18.065.262.262.262h1.508c.18 0 .262-.065.262-.262v-2.163h.557l.033.049 1.016 2.098c.082.164.213.245.426.245h1.541c.131 0 .147-.049.164-.065a.268.268 0 0 0-.033-.213l-1.23-2.328-.049-.082.082-.033.049-.016zm-1.081-1.507c-.147.18-.41.262-.786.262h-.704v-2.163h.704c.377 0 .623.082.786.245.147.18.213.443.213.853-.001.376-.066.638-.213.803zm5.505-3.344v7.342c0 .197-.066.263-.262.279H22.78c-.197 0-.262-.082-.262-.262V9.96c0-.197.082-.262.262-.262h1.524c.197 0 .263.082.262.262zm10.423 0v7.342c0 .197-.066.263-.262.279h-1.524c-.197 0-.262-.082-.262-.262V9.96c0-.197.082-.262.262-.262h1.524c.197 0 .262.082.262.262zm11.699 17.572c-2.183 0-2.892 1.752-2.892 3.957 0 2.204.709 3.989 2.892 3.989s2.892-1.785 2.892-3.989c.001-2.205-.708-3.957-2.892-3.957zm0 6.226c-.741 0-.958-1.011-.958-2.269 0-1.247.215-2.237.958-2.237.741 0 .958.99.958 2.237-.001 1.258-.216 2.269-.958 2.269zm10.21-5.398l-4.857 6.291h-1.337l4.858-6.291h1.336zm-1.195 3.36c-.889 0-1.592.695-1.592 1.523 0 .845.703 1.514 1.592 1.514.88 0 1.593-.669 1.593-1.514 0-.828-.713-1.523-1.593-1.523zm0 1.979a.474.474 0 0 1-.484-.466c0-.246.22-.458.484-.458s.484.211.484.458a.472.472 0 0 1-.484.466zm-3.758-2.41c.88 0 1.593-.668 1.593-1.513 0-.828-.713-1.523-1.593-1.523-.889 0-1.593.695-1.593 1.523 0 .845.705 1.513 1.593 1.513zm0-1.98c.263 0 .484.211.484.458 0 .263-.22.466-.484.466a.473.473 0 0 1-.484-.466c0-.247.221-.458.484-.458zm-12.502 4.427h3.268v1.613H37.39a4.698 4.698 0 0 1-.086-.828c0-2.84 3.322-3.345 3.322-4.452 0-.538-.431-.763-.829-.763-.731 0-1.14.818-1.14.818l-1.398-.936s.709-1.656 2.71-1.656c1.258 0 2.623.72 2.623 2.354-.001 2.398-3.097 2.861-3.149 3.85z"/></svg>