<svg viewBox="0 0 48.2 48" class="ridi_icon"><path d="M17.2 10.9L19.6 9l-2.4-1.9c-.5-.3-.8-.9-.6-1.8 0-.6.2-1.1.7-1.6L21.8.3c.8-.6 2-.4 2.7.4.6.8.4 2-.4 2.7l-2.4 1.9 2.4 2c.4.4.7.9.7 1.6s-.2 1.1-.7 1.6l-4.5 3.4c-.4.2-.8.4-1.2.4-.6 0-1.1-.2-1.6-.7-.6-.8-.4-2 .4-2.7zm23.2 28.4c-.1 4.8-4 8.7-8.8 8.7h-22C4.8 48 .8 44.1.8 39.2v-22h39.6v6.9c3.9.4 6.9 3.7 6.9 7.6 0 4-3 7.3-6.9 7.6zM37 20.7H4.3v18.6c0 2.9 2.4 5.3 5.3 5.3h22c2.9 0 5.3-2.4 5.3-5.3.1-.1.1-18.6.1-18.6zm6.9 11c0-2.1-1.5-3.8-3.5-4.1v8.3c2-.4 3.5-2.1 3.5-4.2z"/></svg>