<svg viewBox="0 0 72 48" class="ridi_icon"><path d="M25.896 28.084V.941c0-.688.257-.941.94-.941h5.64c.684 0 .941.257.941.941v27.143c0 .688-.254.942-.941.942h-5.64c-.687 0-.94-.259-.94-.942zM70.919 0h-5.644c-.685 0-.941.253-.941.941v27.143c0 .683.254.942.941.942h5.644c.688 0 .939-.255.939-.942V.941c0-.684-.256-.941-.939-.941zm.933 37.481c0-.657-.242-.914-.876-.933h-6.091c-3.66 0-15.257.094-19.728.923-3.542.662-6.628 2.125-8.929 4.226l-.225.207-.224-.207c-2.309-2.105-5.395-3.565-8.929-4.226-4.421-.817-19.634-.923-19.705-.923H1.082c-.684 0-.94.259-.94.942v3.18c0 .664.246.923.887.937H7.67c1.697 0 15.108.057 18.291.811 5.018 1.188 7.659 4.768 8.201 5.582h3.687c.547-.814 3.18-4.395 8.203-5.582 3.088-.73 16.433-.811 18.748-.811h6.119c.683 0 .939-.254.939-.941h-.007v-3.185zm-50.637-9.499c.177.337.224.61.134.815-.028.061-.102.23-.579.23h-5.683c-.745 0-1.234-.29-1.542-.904l-3.732-7.771-.091-.188H7.619v7.923c0 .688-.257.939-.94.939H1.082c-.684 0-.94-.252-.94-.939V.941C.142.253.398 0 1.082 0h9.203c3.958 0 6.85.771 8.6 2.294 1.729 1.505 2.604 4.204 2.604 8.021 0 4.236-1.516 7.108-4.508 8.541l-.155.072-.311.152.162.307 4.538 8.595zm-7.336-17.67c0-1.474-.266-2.479-.811-3.073-.557-.607-1.494-.904-2.873-.904H7.619v7.916h2.579c1.365 0 2.334-.322 2.881-.958.539-.624.8-1.6.8-2.981zm46.008 4.202c0 5.304-.984 9.095-2.925 11.266-1.927 2.155-5.083 3.248-9.381 3.248h-8.359c-.686 0-.939-.257-.939-.939V.941c-.001-.688.253-.941.939-.941h8.271C51.82 0 55 1.093 56.938 3.249c1.955 2.17 2.949 5.962 2.949 11.265zm-7.613-.003c0-3.101-.36-5.147-1.098-6.258-.774-1.161-2.084-1.751-3.897-1.751h-1.477v16.015h1.563v.005c1.813 0 3.111-.594 3.858-1.758.708-1.113 1.051-3.156 1.051-6.253z"/></svg>