<svg viewBox="0 0 59 48" class="ridi_icon"><path d="M8.785 30.889c-.186.579-.32 1.179-.402 1.798-.641 4.906 2.286 9.48 6.845 11.337.918.369 1.9.635 2.932.766 3.582.459 6.989-.748 9.353-2.99 1.766 2.458 4.56 4.222 7.884 4.648 4.114.529 7.976-1.136 10.33-4.049 2.084.187 4.966 1.274 6.08 5.602 0 0 6.515-8.298 1.378-15.976 2.99-1.596 5.168-4.481 5.621-7.995a10.283 10.283 0 0 0-.433-4.573c-1.286-3.901-4.842-6.951-9.344-7.529a10.927 10.927 0 0 0-.929-.082c-.062-5.303-4.213-9.916-9.86-10.641-3.116-.397-6.096.461-8.379 2.168A11.542 11.542 0 0 0 23.146.096a11.678 11.678 0 0 0-4.062.189c-4.403.99-7.898 4.499-8.492 9.053-.021.115-.03.231-.041.341-3.227.192-6.144 1.708-8.063 4.045a10.304 10.304 0 0 0-2.292 5.274c-.723 5.508 3.055 10.598 8.589 11.891"/></svg>