<svg viewBox="0 0 195 48" class="ridi_icon"><path d="M14.2 10.8c0 1.4-.3 2.3-.8 2.9-.5.6-1.5.9-2.8.9H8V6.9h2.5c1.4 0 2.3.3 2.8.9.6.6.9 1.6.9 3zm7.5 0c0-3.8-.9-6.4-2.6-7.9C17.4 1.4 14.5.6 10.6.6h-9C.9.6.7.9.7 1.5v26.8c0 .7.3.9.9.9h5.5c.7.1.9-.2.9-.9v-7.8h2l.1.2 3.7 7.7c.3.6.8.9 1.5.9H21c.5 0 .5-.2.6-.2.1-.2 0-.5-.1-.8L17 19.8l-.2-.3.3-.1.2-.1c2.9-1.5 4.4-4.3 4.4-8.5zm11.8 17.5V1.6c0-.7-.3-.9-.9-.9H27c-.7 0-.9.3-.9.9v26.8c0 .7.3.9.9.9h5.6c.6 0 .9-.3.9-1zM52.1 15c0 3.1-.3 5.1-1 6.2-.7 1.2-2 1.7-3.8 1.7h-1.6V7.1H47.1c1.8 0 3.1.6 3.8 1.7.8 1.1 1.2 3.1 1.2 6.2zm4.6 11.1c1.9-2.1 2.9-5.9 2.9-11.1 0-5.2-1-9-2.9-11.1C54.8 1.8 51.6.7 47.4.7h-8.2c-.7 0-.9.3-.9.9v26.8c0 .7.3.9.9.9h8.2c4.3 0 7.4-1.1 9.3-3.2zm14.7 2.2V1.6c0-.7-.3-.9-.9-.9h-5.6c-.7 0-.9.3-.9.9v26.8c0 .7.3.9.9.9h5.6c.6 0 .9-.3.9-1zM90 20.4c0 1.1-.2 1.9-.7 2.4-.5.5-1.3.8-2.5.8h-3.3v-6.3h3.3c1.1 0 2 .3 2.5.8.4.4.7 1.2.7 2.3zm-.7-11.3c0 1-.2 1.7-.7 2.2-.5.5-1.3.7-2.3.7h-2.9V6.3h2.9c1.1 0 1.8.2 2.3.7.5.4.7 1.2.7 2.1zm3.6 5.1l-.8-.3.8-.3.4-.2c2.2-1 3.3-2.9 3.3-5.7 0-2.7-.8-4.6-2.3-5.5-1.6-1-4.2-1.6-7.7-1.6H77c-.7 0-.9.3-.9.9v26.8c0 .7.3.9.9.9h10.2c6.8 0 10.1-2.7 10.1-8.4 0-1.8-.4-3.2-1.1-4.3-.7-1.1-1.7-1.8-2.9-2.3h-.4zm22.4.8c0 3.2-.3 5.4-.8 6.5-.6 1.3-1.6 1.9-2.9 1.9-1.4 0-2.4-.7-2.9-1.9-.5-1.1-.8-3.3-.8-6.5s.3-5.4.8-6.5c.5-1.3 1.6-1.9 2.9-1.9 1.4 0 2.4.7 2.9 1.9.6 1.1.8 3.3.8 6.5zm6.8 7.1c.5-1.9.8-4.4.8-7.2s-.3-5.2-.8-7.2c-.5-1.9-1.2-3.4-2.2-4.5-1-1.1-2.1-1.9-3.4-2.4-1.3-.5-3-.7-4.8-.7-1.9 0-3.5.2-4.8.7-1.3.5-2.5 1.3-3.4 2.4-1 1.1-1.7 2.6-2.2 4.5-.5 1.9-.8 4.4-.8 7.2s.3 5.2.8 7.2c.5 1.9 1.2 3.4 2.2 4.5 1 1.1 2.1 1.9 3.4 2.4 1.3.5 3 .7 4.8.7 1.9 0 3.5-.2 4.8-.7 1.3-.5 2.5-1.3 3.4-2.4.9-1 1.7-2.6 2.2-4.5zm18.5-7.1c0 3.2-.3 5.4-.8 6.5-.6 1.3-1.6 1.9-2.9 1.9-1.4 0-2.4-.7-2.9-1.9-.5-1.1-.8-3.3-.8-6.5s.3-5.4.8-6.5c.5-1.3 1.6-1.9 2.9-1.9 1.4 0 2.4.7 2.9 1.9.5 1.1.8 3.3.8 6.5zm6.7 7.1c.5-1.9.8-4.4.8-7.2s-.3-5.2-.8-7.2c-.5-1.9-1.2-3.4-2.2-4.5-1-1.1-2.1-1.9-3.4-2.4-1.3-.5-3-.7-4.8-.7-1.9 0-3.5.2-4.8.7-1.3.5-2.5 1.3-3.4 2.4-1 1.1-1.7 2.6-2.2 4.5-.5 1.9-.8 4.4-.8 7.2s.3 5.2.8 7.2c.5 1.9 1.2 3.4 2.2 4.5 1 1.1 2.1 1.9 3.4 2.4 1.3.5 3 .7 4.8.7 1.9 0 3.5-.2 4.8-.7 1.3-.5 2.5-1.3 3.4-2.4 1-1 1.7-2.6 2.2-4.5zm26.3 6.9c.1-.1.1-.4-.1-.8l-7.2-14.6-.1-.2.1-.2 6.8-11.7c.2-.4.2-.6.1-.8 0-.1-.1-.2-.5-.2h-5.9c-.7 0-1.1.3-1.5 1l-5.1 9.1-.6 1.1V1.6c0-.7-.3-.9-.9-.9h-5.6c-.7 0-.9.3-.9.9v26.8c0 .7.3.9.9.9h5.6c.7 0 .9-.3.9-.9v-13l.6 1.3 5.5 11.5c.3.7.8 1 1.5 1h5.9c.4.1.5-.1.5-.2zm21.2-7.6c0-1.2-.2-2.3-.5-3.2-.3-.9-.8-1.7-1.5-2.3-.7-.7-1.4-1.3-2.1-1.7-.7-.4-1.7-1-2.9-1.7-2.7-1.3-3.9-2.6-3.9-3.9 0-1 .5-1.5.9-1.7.5-.3 1.3-.4 2.3-.4 1.6 0 3.1.2 4.5.6.2 0 .4.1.5.1.3 0 .6-.1.7-.7l.7-3.9c.1-.4 0-.9-.8-1.2-1.8-.7-4-1.1-6.7-1.1-3.4 0-5.9.6-7.4 1.9-1.5 1.2-2.3 3.3-2.3 6.1 0 1.3.2 2.5.5 3.6.4 1 .9 1.9 1.6 2.6.7.7 1.4 1.3 2.1 1.8.7.5 1.6.9 2.6 1.4 1.5.8 2.5 1.4 3.1 1.9.6.5.9 1.1.9 1.8 0 1.5-1.4 2.3-4.3 2.3-1.7 0-3.4-.3-4.9-.9-.2-.1-.4-.1-.6-.1-.2 0-.5 0-.6.7l-.7 4c-.1.5 0 .7 0 .7.1.1.3.3.8.5 2.2.9 4.8 1.3 7.9 1.3 2.9 0 5.3-.7 7.2-2.1 2-1.5 2.9-3.6 2.9-6.4zm.2 19.4v-3.1c0-.7-.2-.9-.9-.9h-75.7c-3.6 0-7.5.1-11.9.9-3.5.7-6.5 2.1-8.8 4.2l-.2.1-.2-.2c-2.3-2.1-5.3-3.5-8.8-4.2-4.4-.8-11.8-.9-11.9-.9H.9c-.6 0-.9.3-.9.9v3.1c0 .7.2.9.9.9h76.2c1.7 0 7.4.1 10.5.8 5 1.2 7.6 4.7 8.1 5.5h3.6c.5-.8 3.1-4.3 8.1-5.5 3-.7 8.7-.8 11-.8h75.7c.6.1.9-.2.9-.8z"/></svg>