<svg viewBox="0 0 44 48" class="ridi_icon"><g><path d="M26.5 26.9c4.3-2.4 7.4-7.2 7.4-12.5C33.9 6.5 27.5 0 19.5 0 11.6-.1 5 6.4 5 14.4c0 5.5 2.9 10.1 7.4 12.5C5.3 29.6.2 36.7.2 44.7V48h3.2v-3.2c0-8.8 7.2-16.1 16.1-16.1 3.5 0 6.9 1.1 9.5 3.2h4.7c-2.1-2.1-4.5-3.9-7.2-5zM8.2 14.4c0-6.1 5-11.2 11.2-11.2 6.1 0 11.2 5 11.2 11.2 0 6.1-5 11.2-11.2 11.2-6.2 0-11.2-4.9-11.2-11.2z"/><path d="M19.7 36.1h2.7l2.2 7.1c.3.8.5 1.8.5 1.9 0-.2.3-1.1.6-1.9l2.2-7.1h2.7L32.4 48h-2.9l-.6-5.6c-.2-.8-.2-1.6-.2-1.8 0 .2-.2 1-.5 1.8L26.5 48h-2.7L22 42.3c-.2-.8-.5-1.6-.5-1.8 0 .2 0 1-.2 1.8l-.6 5.7h-2.6l1.6-11.9zM36.8 43.5l-3.9-7.4h3.2l2.2 4.7 2.2-4.7h2.7l-3.9 7.4V48h-2.9v-4.5z"/></g></svg>