<svg viewBox="0 0 190 48" class="ridi_icon"><g><path d="M142.9 15h-4.3v7.7h4c3 .1 4.4-1.2 4.4-3.7v-.5c0-2.3-1.4-3.5-4.1-3.5zm10.7 13.5v.4c0 1.5 1.2 2.2 2.7 2.2 1.4 0 2.3-.3 3.1-1 .7-.6 1-1.3 1-2.5v-1.4h-3.9c-2 0-2.9.8-2.9 2.3z"/><path d="M.2 0v48h189.6V0H.2zM125 43.2H5V4.8h120v38.4zm24.9-24.1c0 3.4-2.3 6.1-6.8 6.1h-4.5v8.1h-2.8V12.6h7.3c4.6 0 6.8 2.5 6.8 5.9v.6zm13.3 14.2h-2.6v-1.9c-.3.6-.9 1.1-1.4 1.4-.8.5-1.7.7-3.1.7-3.1 0-5.1-1.7-5.1-4.4v-.8c0-2.7 1.7-4.5 5.6-4.5h3.9v-.9c0-2.1-.9-3.1-3.2-3.1-1.8 0-3 .6-4.4 1.6l-1.4-2.1c1.5-1.1 3.3-2 5.8-2 3.5 0 5.9 1.8 5.9 5v11zm7.8 6.5l-2.5-.9 2-5.4-5.6-16h3l4.1 12.6 4.1-12.6h2.9l-8 22.3z"/><path d="M21.6 23.9l6.5 9.4h7V14.6h-7V24l-6.5-9.4h-7v18.7h7zM103.2 27.5l4.2 5.8h8l-5.6-7c2.5-.7 4.1-2.5 4.1-5.3 0-4.8-3.8-6.4-8.9-6.4h-8.7v18.7h7v-5.8h-.1zm-.2-8.2h1.5c.7 0 1.5.2 1.9.5.4.3.6.8.6 1.4 0 .6-.2 1-.6 1.3-.5.4-1.2.5-1.9.5H103v-3.7zM93.6 28.5h-7.4v-2.2h6.7v-4.6h-6.7v-2.2h7.2v-4.9H79.3v18.7h14.3zM44.9 30.9h5.8l.7 2.4h7.7l-7.3-18.7h-7.9l-7.3 18.7h7.8l.5-2.4zm2.8-10.5h.2l1.6 6.2H46l1.7-6.2zM70 33.4l7.8-18.8h-7.6l-3.4 11.3h-.2l-3.4-11.3h-7.6l7.8 18.7H70z"/></g></svg>