<svg viewBox="0 0 48 42" class="ridi_icon"><path d="M19 24.9c-1.8-1.7-3.9-2.6-6.3-2.6-1.1 0-1.9-.2-2.1-.6-.3-.4-.2-1.4.2-2.8.6-2.7 2-5.1 4.1-7.2 2.1-2.1 4.6-3.8 7.7-5L19.8.9C17 2 14.4 3.4 12 5.1 9.6 6.9 7.6 9 5.8 11.3c-1.8 2.3-3.2 5-4.2 7.8S0 25 0 28.1c0 3.7 1 6.7 3 9.2 2 2.5 4.7 3.8 8.1 3.8 3.3 0 5.9-1 7.8-2.9 1.9-1.9 2.8-4.2 2.8-7 0-2.5-.9-4.6-2.7-6.3zm25.5 0c-1.8-1.7-3.9-2.6-6.3-2.6-1.3 0-2-.2-2.3-.6-.3-.4-.2-1.4.2-2.8.7-2.7 2.1-5.1 4.2-7.2 2.1-2.1 4.6-3.8 7.7-5L45.2.9c-2.7 1-5.3 2.5-7.7 4.2-2.4 1.8-4.5 3.9-6.2 6.2-1.8 2.3-3.2 5-4.2 7.8-1 2.9-1.6 5.9-1.6 9 0 3.7 1 6.7 3 9.2 2 2.5 4.6 3.8 8 3.8 3.4 0 6-1 7.9-2.9 1.9-1.9 2.9-4.2 2.9-7-.1-2.5-1-4.6-2.8-6.3z"/></svg>