<svg viewBox="0 0 66 48" class="ridi_icon"><g><path d="M62.2 10.1h-4.3V1.5c0-.8-.6-1.4-1.4-1.4H2.3C1.5.1.9.7.9 1.5V40c0 .8.6 1.4 1.4 1.4h19.5v3.2h-4.7c-.8 0-1.3.6-1.3 1.3V48h26.9v-2.1c0-.8-.6-1.3-1.3-1.3H37v-3.2h9.3v3.2c0 1.6 1.3 2.9 2.9 2.9h13.3c1.6 0 2.9-1.3 2.9-2.9V13c-.3-1.6-1.6-2.9-3.2-2.9zM46.1 13v19.4H4.3v-29h49.9v6.7H49c-1.6 0-2.9 1.3-2.9 2.9zm9.4 32.3c-1 0-1.6-.8-1.6-1.6s.8-1.6 1.6-1.6 1.6.8 1.6 1.6c.2.9-.6 1.6-1.6 1.6zm7.4-5H48.5V15.8h14.4v24.5z"/><path d="M34.1 18.4c-.3 1.6-.6 3-1.1 4.6h-2.6c-.3-1.4-.5-3-.8-4.6h-.8c-.3 1.4-.6 3-1 4.6h-2.6c-.3-1.6-.6-3-1-4.6h-1.6v-1.8H24c-.2-1.3-.3-2.6-.6-3.8h2.4c.2 1.3.5 2.6.6 3.7h1.3c.3-1.3.5-2.6.6-3.7h2.4c.2 1.3.5 2.6.6 3.7h1.3c.2-1.3.5-2.6.6-3.7h2.2c-.3 1.3-.6 2.6-.8 3.7H36v1.8h-1.9v.1zm-6.9 0h-.6c.2 1 .3 1.6.3 2.4 0-.8.1-1.6.3-2.4zm2.2-1.9v-1c0 .3 0 .6-.2 1h.2zm2.8 1.9h-.6c.2.8.2 1.6.3 2.4 0-.8.1-1.6.3-2.4zM58.7 28.3c-.2 1-.5 1.9-.6 2.9h-1.6c-.2-1-.3-1.9-.5-2.9h-.5c-.2 1-.5 1.9-.6 2.9h-1.6c-.2-1-.5-1.9-.6-2.9h-1v-1.1h.8c-.2-.8-.3-1.6-.5-2.4h1.4c.2.8.3 1.6.3 2.4h.8c.2-.8.3-1.6.5-2.4h1.4c.2.8.3 1.6.3 2.4h.8c.2-.8.3-1.6.5-2.4h1.4c-.2.8-.3 1.6-.5 2.4h.8v1.1h-1zm-4.3 0h-.3c.2.6.2 1.1.2 1.4-.1-.3-.1-.7.1-1.4zm1.4-1.1v-.6c-.1.1-.1.4 0 .6zm1.7 1.1h-.3c.2.5.2 1 .2 1.4-.1-.4.1-.9.1-1.4z"/></g></svg>