<svg viewBox="0 0 158 48" class="ridi_icon"><g><path d="M144.4 16.2v2.5M150.8 18.7v-2.5"/><path d="M13.4.2C11.2.2 8.9.8 7.2 2V0H.8v37h6.4V22.7c1.8 1.1 4 1.8 6.2 1.8 6.7 0 12.2-5.4 12.2-12.2C25.6 5.5 20.1.2 13.4.2zm0 17.9c-3.2 0-5.8-2.6-5.8-5.8 0-3.2 2.6-5.8 5.8-5.8 3.2 0 5.8 2.6 5.8 5.8 0 3.2-2.6 5.8-5.8 5.8zM110.5 11.7c-6.7 0-12.2 5.4-12.2 12.2 0 6.8 5.5 12.1 12.2 12.1 6.7 0 12.2-5.4 12.2-12.2 0-6.8-5.5-12.1-12.2-12.1zm0 17.9c-3.2 0-5.8-2.6-5.8-5.8 0-3.2 2.6-5.8 5.8-5.8 3.2 0 5.8 2.6 5.8 5.8 0 3.2-2.6 5.8-5.8 5.8zM48.9 26.6V11.8h-6.4v1.6c-1.8-1.1-3.8-1.8-6.2-1.8-6.7 0-12.2 5.4-12.2 12.2 0 6.8 5.5 12.2 12.2 12.2 2.9 0 5.6-1.1 7.7-2.7.6 1.4 1.6 2.7 2.9 3.8l4.2-5c-1.7-1.4-2-4.6-2.2-5.5zm-12.5 3c-3.2 0-5.8-2.6-5.8-5.8 0-3.2 2.6-5.8 5.8-5.8 3.2 0 5.8 2.6 5.8 5.8 0 3.2-2.6 5.8-5.8 5.8zM72.9 11.4h-6.4v13c0 1.4-.3 6.1-4.5 6.1s-4.5-4.6-4.5-6.1v-13h-6.4v13c0 7.4 4.5 12.5 10.9 12.5 1.6 0 3.2-.3 4.5-1v1.8c0 1.3-.2 2.7-1.1 3.4-1.4 1-4.2.2-6.1-.6l-3.8 5.3c.5.3 4.3 2.2 7.8 2.2 1.9 0 3.8-.3 5.6-1.4 1.8-1.1 4-3.7 4-8.8V11.4zM150.8 12h6.4v2.6h-6.4zM125.2 12h6.4v2.6h-6.4zM138 12h6.4v2.6H138zM150.8 16.2h6.4v2.6h-6.4zM138 16.2h6.4v2.6H138zM150.8 24.3c0 2.2-.6 6.1-3.2 6.1s-3.2-3.8-3.2-6.1v-4H138v4c0 2.2-.6 6.1-3.2 6.1s-3.2-3.8-3.2-6.1v-4h-6.4v4c0 7.5 3.8 12.5 9.6 12.5 2.6 0 4.8-1 6.4-2.9 1.6 1.8 3.8 2.9 6.4 2.9 5.8 0 9.6-5 9.6-12.5v-4h-6.4v4zM125.2 16.2h6.4v2.6h-6.4zM85.6 11.4c-6.4 0-10.9 5.1-10.9 12.5v13h6.4v-13c0-1.4.3-6.1 4.5-6.1s4.5 4.6 4.5 6.1v13h6.4v-13c-.1-7.4-4.5-12.5-10.9-12.5z"/></g></svg>