<svg viewBox="0 0 49 36" class="ridi_icon"><g><path d="M44.3 19.1c-.1 1.5-.3 3-.8 4.5 1.2 1.7 2.8 4.6 1.9 6.1-1.1 1.8-5.8 1.5-7.5 1.3-5.8-.7-11.9-3.4-16.9-6.3-5-2.9-10.3-6.9-13.8-11.5-1-1.3-3.7-5.3-2.6-7.1.8-1.5 4.1-1.5 6.2-1.4 1-1.1 2.2-2.1 3.4-2.9C8.1.6 3.4 1.4 1.6 4.4c-1.9 3.4.6 8.8 5.9 14.2.2 5.8 3.4 11.2 8.7 14.3 5.4 3.1 11.7 3 16.8.4 7.4 2 13.3 1.4 15.3-2 1.8-2.9.1-7.5-4-12.2z"/><path d="M10.7 9.1c-.5.8-.8 1.7-1.1 2.5 3.1 4.2 8.4 8.2 12.9 10.7C27 25 33 27.6 38.3 28.2c.6-.7 1.1-1.5 1.6-2.3 4.6-8 1.9-18.3-6.1-22.9-8.2-4.7-18.4-1.9-23.1 6.1z"/></g></svg>