<svg viewBox="0 0 38 50" class="ridi_icon"><g><path d="M25.7 9.8H12.3c-1.6 0-2.9 1.3-2.9 2.9v24.7c0 1.6 1.3 2.9 2.9 2.9h13.3c1.6 0 2.9-1.3 2.9-2.9V12.6c0-1.5-1.3-2.8-2.8-2.8zm-10.5 1.4h7.6v1h-7.6v-1zM19 38.3c-1 0-1.9-.9-1.9-1.9 0-1.1.9-1.9 1.9-1.9 1 0 1.9.8 1.9 1.9 0 1.1-.9 1.9-1.9 1.9zm7.6-5.7H11.4v-19h15.2v19zM31.3 13.1c-.7 0-1.3-.6-1.3-1.3 0-2-1.7-3.8-3.8-3.8-.7 0-1.2-.5-1.2-1.2s.6-1.3 1.3-1.3c3.5 0 6.3 2.8 6.3 6.3 0 .8-.6 1.3-1.3 1.3"/><path d="M35.8 13c-.7 0-1.3-.6-1.3-1.3 0-4.5-3.7-8.2-8.2-8.2-.7 0-1.3-.6-1.3-1.3 0-.7.6-1.3 1.3-1.3 5.9 0 10.8 4.8 10.8 10.8 0 .8-.6 1.3-1.3 1.3M6.7 36.9c.7 0 1.3.6 1.3 1.3 0 2 1.7 3.8 3.8 3.8.7 0 1.3.6 1.3 1.3 0 .7-.6 1.3-1.3 1.3-3.5 0-6.3-2.8-6.3-6.3-.1-.9.5-1.4 1.2-1.4"/><path d="M2.2 37c.7 0 1.3.6 1.3 1.3 0 4.5 3.7 8.2 8.2 8.2.7 0 1.3.6 1.3 1.3 0 .7-.6 1.3-1.3 1.3C5.7 49 .9 44.2.9 38.2c0-.7.6-1.2 1.3-1.2"/></g></svg>