<svg viewBox="0 0 36 48" class="ridi_icon"><g><path d="M6.9 29c-2.8-2.8-4.5-6.7-4.5-11 0-8.6 7-15.6 15.6-15.6s15.6 7 15.6 15.6c0 3.9-1.4 7.5-3.8 10.2.5.7 1 1.3 1.4 2C34.2 27 36 22.7 36 18 36 8 27.9 0 18 0S0 8.1 0 18.1c0 5.2 2.2 9.8 5.6 13.1.4-.8.8-1.5 1.3-2.2z"/><path d="M29.4 32c-.4-.7-.9-1.4-1.3-2-.7-1-1.5-1.9-2.3-2.7-.3-.3-.6-.5-.9-.8-.9-.8-1.9-1.4-2.9-1.8.8-.4 1.5-1 2.1-1.6 1.4-1.5 2.3-3.5 2.3-5.8 0-4.6-3.8-8.4-8.4-8.4-4.6 0-8.4 3.8-8.4 8.4 0 2.5 1.1 4.7 2.8 6.3.7.6 1.4 1.1 2.2 1.4-.5.3-1.1.6-1.6 1s-1 .8-1.5 1.3c-1 1-2 2.1-2.8 3.4-.2.3-.4.7-.7 1-.2.4-.4.7-.6 1-.1.2-.2.4-.4.7-1 2.2-1.6 4.5-1.6 6.6 0 .9.1 1.8.4 2.5 0 .3.1.5.2.7.3.6.6 1.1 1.1 1.6l.7.7c.7.6 1.6 1.1 2.7 1.4 1 .4 2.1.6 3.3.8 1.6.2 3.2.3 4.9.3 1.7 0 3.3-.1 4.9-.3 1.2-.2 2.3-.4 3.3-.8s1.9-.8 2.7-1.4c.2-.2.5-.4.7-.7.4-.4.8-1 1.1-1.6.1-.2.2-.4.3-.7.2-.7.4-1.6.4-2.5 0-2.1-.6-4.4-1.7-6.7-.5-.4-.7-.8-1-1.3z"/></g></svg>