<svg viewBox="0 0 333 48" class="ridi_icon"><path d="M235.192 0c-1.689 0-3.362.272-4.97.808-1.608.537-3.654 1.744-4.705 3.43V.768h-7.601V48h7.486V31.634c.835 1.45 3.166 2.783 4.821 3.325 1.69.575 3.482.867 5.324.867 2.54 0 4.478-.448 6.554-1.33 2.071-.883 3.962-2.207 5.621-3.942 1.573-1.611 2.799-3.539 3.648-5.739a18.046 18.046 0 0 0 1.333-6.784c0-5.042-1.783-9.309-5.156-12.816C243.899 1.422 239.402 0 235.192 0zm6.859 26.079c-1.784 1.81-4.14 2.991-7.037 2.991-2.86 0-5.315-.745-7.305-2.87-1.983-2.117-2.746-5.238-2.746-8.451 0-3.009.785-6.026 2.814-8.148 1.987-2.04 4.401-2.907 7.176-2.907 2.976 0 5.446 1.173 7.158 2.989 1.994 2.115 2.972 5.077 2.972 8.415 0 3.052-.974 5.896-3.032 7.981zM324.697.767l-9.653 24.272L304.573.767h-8.019l14.73 32.333L304.86 48h7.878L332.756.767zM284.367 4.238c-1.051-1.686-3.097-2.893-4.705-3.43a15.688 15.688 0 0 0-4.97-.808c-4.209 0-8.707 1.422-12.356 5.214-3.374 3.508-5.156 7.774-5.156 12.816 0 2.31.448 4.592 1.333 6.784.849 2.199 2.075 4.128 3.648 5.739 1.659 1.735 3.549 3.06 5.621 3.942 2.076.883 4.014 1.33 6.554 1.33 1.842 0 3.634-.292 5.324-.867 1.656-.541 3.986-1.875 4.821-3.325v3.562h7.486V.767h-7.601l.001 3.471zM282.175 26.2c-1.99 2.125-4.445 2.87-7.305 2.87-2.897 0-5.253-1.181-7.037-2.991-2.058-2.086-3.032-4.929-3.032-7.981 0-3.338.978-6.299 2.972-8.415 1.713-1.816 4.182-2.989 7.158-2.989 2.775 0 5.189.868 7.176 2.907 2.029 2.122 2.814 5.14 2.814 8.148 0 3.214-.763 6.334-2.746 8.451zM168.802 28.439h-.153l-6.713-22.878h-10.809v28.857h7.161l-.408-23.687h.183l7.186 23.687h10.383V5.561h-7.224zM31.193 5.561l-5.391 29.134h7.864l3.992-26.451h.17l3.886 26.451h7.849L44.177 5.561zM75.243 5.561l-3.606 22.282h-.154L67.91 5.561H56.02l-.656 29.134h7.285l.18-26.207h.163l4.889 26.207h7.385l4.863-26.207h.149l.196 26.207h7.301l-.653-29.134zM135.625 27.111c0 .376-.008.798-.064 1.112-.146.713-.769 2.094-2.806 2.094-2.026 0-2.653-1.381-2.793-2.094a6.172 6.172 0 0 1-.056-1.112V5.558h-7.378v20.885c-.006.546.036 1.638.071 1.93.498 5.435 4.79 7.184 10.156 7.184 5.359 0 9.678-1.749 10.173-7.184.03-.292.091-1.384.091-1.93V5.558h-7.393v21.553h-.001zM7.745 13.063c-.143-.605-.11-1.2-.033-1.526.21-.95.847-1.972 2.664-1.972 1.72 0 2.716 1.072 2.716 2.634v1.819h7.27v-2.047c0-6.352-5.706-7.346-9.841-7.346-5.172 0-9.401 1.726-10.185 6.483-.197 1.281-.224 2.443.067 3.91 1.261 5.972 11.636 7.688 13.125 11.446.282.714.192 1.616.064 2.163-.241.965-.892 1.965-2.847 1.965-1.817 0-2.916-1.059-2.916-2.646l-.023-2.828H0v2.246c0 6.509 5.106 8.461 10.575 8.461 5.293 0 9.623-1.785 10.311-6.646.365-2.526.1-4.174-.013-4.789-1.235-6.116-12.304-7.909-13.128-11.327zM102.576 13.12a3.697 3.697 0 0 1-.044-1.499c.204-.922.834-1.939 2.633-1.939 1.711 0 2.691 1.041 2.691 2.595v1.794h7.187v-2.014c0-6.284-5.643-7.27-9.714-7.27-5.13 0-9.336 1.678-10.088 6.407-.227 1.265-.257 2.415.067 3.886 1.246 5.91 11.497 7.601 12.98 11.348.297.692.177 1.584.064 2.13-.23.959-.9 1.921-2.814 1.921-1.808 0-2.899-1.025-2.899-2.605v-2.806h-7.748v2.236c0 6.448 5.065 8.372 10.495 8.372 5.204 0 9.501-1.773 10.195-6.593.348-2.485.09-4.124-.042-4.748-1.215-6.028-12.165-7.819-12.963-11.215zM193.604 22.594h2.982v4.21c.003.375-.019.786-.072 1.104-.13.802-.87 2.116-2.97 2.116-2.113 0-2.846-1.314-2.997-2.116-.032-.318-.05-.729-.05-1.104V13.473c0-.467.018-.995.112-1.373.169-.711.8-2.111 2.895-2.111 2.227 0 2.788 1.479 2.92 2.111.09.413.09 1.109.09 1.109v1.631h7.347l-.009-.953s.043-1.01-.062-1.914c-.517-5.491-5.062-7.197-10.235-7.197-5.155 0-9.563 1.722-10.197 7.197a16.812 16.812 0 0 0-.128 1.914v12.26c0 .545.003.947.106 1.917.483 5.286 5.063 7.194 10.219 7.194 5.174 0 9.78-1.909 10.271-7.194.069-.97.09-1.372.09-1.917v-7.832h-10.312v4.279z"/></svg>