<svg viewBox="0 0 48 48" class="ridi_icon"><path d="M41.85 26.34c.09-.75.15-1.53.15-2.34 0-.81-.06-1.59-.18-2.34l5.07-3.96c.45-.36.57-1.02.3-1.53l-4.8-8.31c-.3-.54-.93-.72-1.47-.54l-5.97 2.4c-1.26-.96-2.58-1.74-4.05-2.34L30 1.02C29.91.42 29.4 0 28.8 0h-9.6c-.6 0-1.08.42-1.17 1.02l-.9 6.36c-1.47.6-2.82 1.41-4.05 2.34l-5.97-2.4c-.54-.21-1.17 0-1.47.54l-4.8 8.31c-.3.54-.18 1.17.3 1.53l5.07 3.96C6.09 22.41 6 23.22 6 24c0 .78.06 1.59.18 2.34L1.11 30.3c-.45.36-.57 1.02-.3 1.53l4.8 8.31c.3.54.93.72 1.47.54l5.97-2.4c1.26.96 2.58 1.74 4.05 2.34l.9 6.36c.12.6.6 1.02 1.2 1.02h9.6c.6 0 1.11-.42 1.17-1.02l.9-6.36c1.47-.6 2.82-1.41 4.05-2.34l5.97 2.4c.54.21 1.17 0 1.47-.54l4.8-8.31c.3-.54.18-1.17-.3-1.53l-5.01-3.96zM24 33c-4.95 0-9-4.05-9-9s4.05-9 9-9 9 4.05 9 9-4.05 9-9 9z"/></svg>