<svg viewBox="0 0 52 48" class="ridi_icon"><path d="M47.1 0H20.9c-2.2 0-4 1.8-4 4v10.7h-12c-2.2 0-4 1.8-4 4v17.7c0 2.2 1.8 4 4 4h1.9V46c0 .8.4 1.5 1.1 1.8.3.2.6.2.9.2.4 0 .9-.2 1.3-.5l9-7.1h12.1c2.2 0 4-1.8 4-4v-8.9l6.8 5.4c.4.3.8.4 1.3.4.3 0 .6-.1.8-.2.7-.3 1.1-1 1.1-1.8v-5.6h1.9c2.2 0 4-1.8 4-4V4c.1-2.2-1.7-4-4-4zm-16 36.4H18.4c-.4 0-.9.2-1.3.4l-6.3 5v-3.4c0-1.1-.9-2-2-2H4.9V18.7h26.3v17.7h-.1zm16-14.7h-3.9c-1.1 0-2 .9-2 2v3.4l-6-4.8v-3.7c0-2.2-1.8-4-4-4H20.9V4h26.3c-.1 0-.1 17.7-.1 17.7z"/></svg>