<svg viewBox="0 0 84 24" class="ridi_icon"><path d="M11.7 9.9c-3.5 0-7.1 2.7-7.1 6 0 1.3.4 2.6 1.5 3.4.5.5.5 1.1-.1 1.9-.7.9-1.8 1.5-2.9 1.5-1.3 0-3.1-1.3-3.1-3.8 0-1.4.9-4.4 4.3-7.2 3.6-2.9 6.8-3.9 10.3-4.1C22.2 1.2 28.3 0 32.8 0c4.8 0 9.2 1.6 11.4 2.6 2 .8 9.6 4.1 15 6.6 5.7 2.5 10.5 4 13.9 4 2.7 0 6.5-1 6.5-4.5 0-1.3-.5-2.2-1.2-2.7-.4-.3-.7-.8-.7-1.2 0-1.3 1.1-3.2 3-3.2 2.1 0 3.3 2.3 3.3 4 0 4.6-4.8 7.8-8 9.2-6 6.5-12 9.2-17.8 9.2-4.3 0-8.4-1.2-13.8-3.3-4.1-1.6-17-7.1-22.1-8.9-4.8-1.5-7.5-1.9-10.6-1.9zm16.6-7.4c-4 0-7.7 2.1-9.6 5.2 2.3 0 5.7.5 11.3 2.7 5.6 2 16 6.7 19.6 8 4 1.4 7.9 2.6 11.7 2.6 4.3 0 8.1-1.5 10.2-5.3-4 .5-7.8-.1-13.4-2.4-4.3-1.7-16-7.4-20-8.9-3.2-1.2-6.5-1.9-9.8-1.9z"/></svg>