<svg viewBox="0 0 137 49" class="ridi_icon"><g><path d="M49.1 48.1c-8 0-13.7-3.1-15.9-9.4-2.2-6.3-.8-12.5 3.1-17.6 5.5-7.3 13-9.2 21.6-7.1 9.2 2.2 13.1 10.2 10.4 20-1.8 6.7-8.8 14.5-19.2 14.1zm.4-8.6c5.7 0 10.4-5.9 9.4-11.8-.8-4.3-4.3-6.8-8.6-5.8-4.9 1.1-8.3 6.4-7.7 11.7.6 3.9 2.8 5.9 6.9 5.9zM83 48.3c-3.1 0-5.5-1.2-7.1-1.8-1.5-.7-2.9-2.5-4.3-3.5 2.2-2 4.5-3.9 6.5-5.9 2.4 2.6 5.3 3.7 8.6 3.5.6 0 1.4-.2 1.8-.4 1.4-.6 1.8-1.2 1.8-2.2.2-1-.8-2-1.6-2.5-1-.8-2.2-1-3.5-1.4-1.4-.6-2.9-1-4.3-1.8-4.7-2.7-6.3-7.8-3.1-12.2 1.4-2 3.5-3.9 5.7-4.9 5.1-2.5 10.6-2.2 15.7.2 1.8.4 3 1.6 4.6 2.9-2.4 2-4.5 3.7-6.7 5.5-2-2.2-4.5-3.3-7.3-2.9-.8.2-1.8.4-2.5.8-1.8 1-1.8 3.3 0 4.1 1 .6 2 .8 3.3 1.2 1.4.6 2.9 1 4.3 1.6 6.1 3.1 7.4 10.4 2.7 15.5-2 2.1-4.3 3.3-6.9 3.7-.6.2-2 .4-3.3.4-2.6.1-2.4.1-4.4.1zM115.1 48.3c-2.9-.4-5.1-.8-7.6-2.9-1.2-.6-2.2-1.6-3.5-2.7 2.2-2 4.3-3.9 6.5-5.7 2 2.2 4.7 3.5 7.6 3.5.8 0 1.6 0 2.5-.2 1.8-.8 2-1 2.4-2.3.4-.8-.6-2.4-1.8-2.9-1.8-.6-3.5-1.2-5.3-2.1-3.3-1.4-6.3-3.1-6.7-7.1-.4-4.5 1.6-7.8 5.1-10 6.1-4.1 15.9-3.3 21.4 1.8.2.2.6.4.8.6v.4c-2.2 1.8-4.5 3.7-6.7 5.3-2-2.5-4.7-3.3-7.8-2.9-1.4.2-3.1.8-3.3 2.5-.2 1.8 1.3 2.4 2.5 2.8 2.2.8 4.7 1.6 7 2.7 5.1 2.2 5.3 6.7 4.3 10.8-1 3.7-3.7 5.9-7.2 7.3-1.4.6-3.7 1.2-5.5 1.2-2.1-.1-2.7-.1-4.7-.1zM7 47.3c2.2-12.7 4.3-24.9 6.5-37.6H.4C1 6.4 1.4 3.6 2 .5h36.8c-.4 2.9-1.6 9-1.6 9H24.1l-6.3 37.8H7z"/></g></svg>