<svg viewBox="0 0 78 49" class="ridi_icon"><g><path d="M61.7 38.2H61c-2.6 0-4.8 2.1-4.8 4.8v.7c0 2.6 2.1 4.8 4.8 4.8h.7c2.7 0 4.8-2.1 4.8-4.8v-.8c0-2.6-2.1-4.7-4.8-4.7zM15.9 38.2h-.7c-2.6 0-4.8 2.1-4.8 4.8v.7c0 2.6 2.1 4.8 4.8 4.8h.7c2.7 0 4.8-2.1 4.8-4.8v-.8c0-2.6-2.1-4.7-4.8-4.7z"/><path d="M75.8 28.6H2.4c-.3 0-.7.1-.9.4-.2.2-.4.6-.4.9v11.3c0 1 .8 1.7 1.7 1.7h4.5c0-4.3 3.5-7.7 7.8-7.7h.7c4.3 0 7.7 3.5 7.8 7.7h29.6c0-4.3 3.5-7.7 7.8-7.7h.7c4.3 0 7.7 3.4 7.8 7.7l6.2-2c.8-.2 1.4-.3 1.4-1.4v-9.7c0-.3-.1-.7-.4-.9-.2-.1-.5-.3-.9-.3zM76.8.9c-.2-.2-.5-.3-.9-.3H25.6c-.3 0-.7.1-.9.3-.3.2-.4.5-.4.8v23.6h51.6c.3 0 .7-.1.9-.3.2-.2.4-.5.4-.8V1.7c0-.3-.1-.6-.4-.8zm-3.3 20.7H28V4.2h45.4v17.4h.1zM2.1 25.3h18.7V8.4c0-.3-.1-.7-.4-.9-.2-.2-.5-.4-.9-.4H7.6c-.5 0-1 .3-1.2.8L1 23.7c-.1.4-.1.8.2 1.1.1.3.5.5.9.5z"/></g></svg>