<svg viewBox="0 0 60 48" class="ridi_icon"><path d="M59.3 6.4c0 .2-.1.4-.2.6-1.3 2.2-3.2 4.1-5.6 5.9v1c.1 4.7-1 9.5-3.1 14.3-2.8 6.2-6.9 11-12.4 14.5S26.3 48 19.5 48C14 48 8.8 46.7 3.9 44.2c-1.3-.7-2.2-1.2-2.7-1.6-.3-.3-.5-.5-.5-.8 0-.3.1-.5.3-.7.2-.2.4-.3.7-.3.3 0 .8 0 1.4.1.6.1 1.1.1 1.4.1 4.2 0 8.2-1.1 11.7-3.3-2.1-.5-4-1.5-5.7-3-1.6-1.5-2.8-3.3-3.5-5.4 0-.2-.1-.3-.1-.3 0-.3.1-.5.3-.7.2-.2.4-.3.7-.3.1 0 .3 0 .4.1.2 0 .3.1.4.1-1.9-1.1-3.3-2.7-4.4-4.6-1.1-1.9-1.7-4-1.7-6.1 0-.3.1-.6.4-.8.2-.2.5-.3.9-.3.2 0 .6.1 1.1.4.5.3.9.1 1 .2-1.9-2.3-2.9-5-2.9-8 0-1.1.2-2.2.5-3.4.3-1.2.7-2.2 1.3-3 .1-.3.4-.5.7-.5.3 0 .6.1.8.4C8 4.3 9.2 5.4 9.9 6.1c2.6 2.3 5.4 4.2 8.6 5.5 3.2 1.3 6.5 2.2 9.9 2.5-.1-.4-.1-.9-.1-1.5 0-3.5 1.2-6.5 3.7-8.9C34.4 1.2 37.4 0 40.9 0c3.4 0 6.3 1.2 8.8 3.6 2-.4 4.2-1.3 6.5-2.6.2-.1.3-.2.5-.2.3 0 .5.1.7.3.2.2.3.4.3.7 0 .5-.3 1.3-.9 2.3-.6 1-1.1 1.8-1.6 2.4.1 0 .5-.2.9-.3.5-.2.9-.3 1.3-.5s.7-.2.8-.2c.3 0 .5.1.7.3.3.1.4.4.4.6z"/></svg>