<svg viewBox="0 0 39 48" class="ridi_icon"><path d="M33.703 8.522c-.771-1.814-1.107-2.641-2.508-4.043a15.272 15.272 0 0 0-4.846-3.274A15.1 15.1 0 0 0 20.419 0a15.1 15.1 0 0 0-5.93 1.205 15.26 15.26 0 0 0-4.846 3.274 15.251 15.251 0 0 0-3.275 4.847 15.082 15.082 0 0 0-1.206 5.93v5.055H3.163a2.835 2.835 0 0 0-2.832 2.832v22.025A2.836 2.836 0 0 0 3.163 48h32.673a2.835 2.835 0 0 0 2.832-2.832V23.143a2.835 2.835 0 0 0-2.832-2.832H10.015v-5.055c0-5.736 4.667-10.403 10.403-10.403 0 0 6.323-.069 8.321 4.714l4.964-1.045zM5.184 43.147V25.164h28.632v17.984H5.184z"/><path d="M19.5 27.949a4.176 4.176 0 0 0-4.171 4.171c0 1.446.75 2.783 1.972 3.543v4.294h4.398v-4.294a4.175 4.175 0 0 0 1.972-3.543c0-2.3-1.871-4.171-4.171-4.171z"/></svg>