<svg xmlns="http://www.w3.org/2000/svg" viewBox="0 0 36 36"><path d="M17.97 0C8.033 0 0 8.033 0 17.97c0 7.944 5.147 14.668 12.288 17.048.892.179 1.22-.387 1.22-.863 0-.416-.03-1.844-.03-3.332-4.999 1.071-6.04-2.142-6.04-2.142-.803-2.083-1.993-2.618-1.993-2.618-1.637-1.101.119-1.101.119-1.101 1.815.119 2.767 1.845 2.767 1.845 1.606 2.737 4.195 1.963 5.236 1.487.149-1.16.625-1.963 1.13-2.41-3.986-.416-8.181-1.963-8.181-8.866 0-1.963.714-3.57 1.844-4.82-.178-.446-.803-2.29.179-4.76 0 0 1.517-.476 4.939 1.845a17.398 17.398 0 0 1 4.492-.595c1.518 0 3.065.208 4.493.595 3.421-2.321 4.939-1.845 4.939-1.845.981 2.47.357 4.314.178 4.76 1.16 1.25 1.845 2.857 1.845 4.82 0 6.903-4.195 8.42-8.212 8.866.655.566 1.22 1.637 1.22 3.333 0 2.41-.03 4.343-.03 4.938 0 .476.328 1.042 1.22.863 7.14-2.38 12.288-9.104 12.288-17.048C35.94 8.033 27.878 0 17.97 0z"/></svg>