<svg xmlns="http://www.w3.org/2000/svg" viewBox="0 0 36 36"><path d="M18 36C8.059 36 0 27.941 0 18S8.059 0 18 0s18 8.059 18 18-8.059 18-18 18zm-5.967-16.586c.938-.448 1.414-1.35 1.414-2.679 0-1.197-.275-2.044-.817-2.516-.55-.477-1.457-.719-2.698-.719H7.045c-.215 0-.295.08-.295.295v8.515c0 .215.08.295.295.295h1.756c.215 0 .295-.08.295-.295V19.824H9.752l.028.06 1.172 2.437c.096.193.25.284.484.284h1.783c.15 0 .173-.052.182-.072.028-.064.014-.15-.042-.256l-1.423-2.696-.05-.096.098-.047.049-.024zm-1.224-1.744c-.172.2-.476.3-.904.3H9.096v-2.483H9.906c.432 0 .726.093.9.284.171.187.255.502.255.964 0 .434-.083.74-.252.935zm6.086-4.17h-1.77c-.215 0-.295.08-.295.295v8.515c0 .215.08.295.295.295h1.77c.215 0 .295-.08.295-.295v-8.515c0-.215-.08-.295-.295-.295zm4.71 0h-2.594c-.214 0-.295.08-.295.295v8.515c0 .215.08.295.295.295h2.622c1.348 0 2.338-.343 2.942-1.018.61-.681.919-1.87.919-3.534 0-1.664-.312-2.853-.925-3.534-.609-.676-1.606-1.019-2.963-1.019zm1.171 6.513c-.234.366-.64.552-1.21.552h-.49V15.54H21.54c.568 0 .978.185 1.221.55.233.348.346.99.346 1.963 0 .97-.108 1.612-.33 1.96zm6.18-6.513h-1.77c-.216 0-.296.08-.296.295v8.515c0 .215.08.295.296.295h1.77c.214 0 .294-.08.294-.295v-8.515c0-.215-.08-.295-.295-.295z"/></svg>