<svg xmlns="http://www.w3.org/2000/svg" viewBox="0 0 36 36"><path d="M18 36C8.059 36 0 27.941 0 18S8.059 0 18 0s18 8.059 18 18-8.059 18-18 18zm0-29.25C11.797 6.75 6.75 11.796 6.75 18S11.797 29.25 18 29.25 29.25 24.204 29.25 18 24.203 6.75 18 6.75zm7.406 5.312a9.485 9.485 0 0 1 2.102 5.797 23.734 23.734 0 0 0-4.399-.422c-.695 0-1.43.039-2.164.125l-.187-.454a29.044 29.044 0 0 0-.61-1.33c3.32-1.385 4.922-3.286 5.258-3.716zM18 8.51c2.398 0 4.586.892 6.266 2.363-.266.36-1.703 2.16-4.907 3.372a52.947 52.947 0 0 0-3.492-5.492A9.53 9.53 0 0 1 18 8.51zm-4.086.923a61.375 61.375 0 0 1 3.477 5.422c-4.086 1.072-7.711 1.142-8.594 1.142h-.094a9.577 9.577 0 0 1 5.211-6.564zm-5.422 8.583c0-.079 0-.157.008-.235h.25c1.18 0 5.273-.102 9.492-1.353.258.5.5 1.009.727 1.517l-.313.094c-4.758 1.541-7.367 5.61-7.765 6.274a9.448 9.448 0 0 1-2.399-6.297zM18 27.52a9.44 9.44 0 0 1-5.797-1.98c.274-.531 2.242-4.083 7.445-5.898h.008c1.305 3.403 1.86 6.259 2.008 7.143A9.484 9.484 0 0 1 18 27.52zm5.383-1.674c-.125-.736-.64-3.411-1.82-6.673.664-.102 1.304-.141 1.914-.141 1.984 0 3.539.438 3.898.547a9.54 9.54 0 0 1-3.992 6.267z"/></svg>