<?xml version="1.0" encoding="UTF-8"?>
<svg width="32px" height="32px" viewBox="0 0 32 32" version="1.1" xmlns="http://www.w3.org/2000/svg" xmlns:xlink="http://www.w3.org/1999/xlink">
    <!-- Generator: Sketch 52.5 (67469) - http://www.bohemiancoding.com/sketch -->
    <title>Group 2</title>
    <desc>Created with Sketch.</desc>
    <g id="Symbols" stroke="none" stroke-width="1" fill="none" fill-rule="evenodd">
        <g id="footer/A-1" transform="translate(-1065.000000, -30.000000)">
            <g id="Group" transform="translate(1009.000000, 30.000000)">
                <g id="Group-2" transform="translate(56.000000, 0.000000)">
                    <path d="M16,32 C7.163444,32 0,24.836556 0,16 C0,7.163444 7.163444,0 16,0 C24.836556,0 32,7.163444 32,16 C32,24.836556 24.836556,32 16,32 Z M16,6 C10.4861111,6 6,10.4853964 6,16 C6,21.5146036 10.4861111,26 16,26 C21.5138889,26 26,21.5146036 26,16 C26,10.4853964 21.5138889,6 16,6 Z M22.5833333,10.7218359 C23.7222222,12.1335188 24.4166667,13.9276773 24.4513889,15.8748261 C24.0694444,15.798331 22.4652778,15.4993046 20.5416667,15.4993046 C19.9236111,15.4993046 19.2708333,15.5340751 18.6180556,15.6105702 C18.5625,15.4784423 18.5069444,15.3393602 18.4513889,15.2072323 C18.2847222,14.8108484 18.0972222,14.4144645 17.9097222,14.0250348 C20.8611111,12.7941586 22.2847222,11.1043115 22.5833333,10.7218359 Z M16,7.56467316 C18.1319444,7.56467316 20.0763889,8.35744089 21.5694444,9.66481224 C21.3333333,9.98470097 20.0555556,11.5841446 17.2083333,12.6620306 C15.8888889,10.2489569 14.4444444,8.24617524 14.1041667,7.78025035 C14.7083333,7.64116829 15.3472222,7.56467316 16,7.56467316 Z M12.3680556,8.3852573 C12.6597222,8.78859527 14.1041667,10.8052851 15.4583333,13.2044506 C11.8263889,14.1571627 8.60416667,14.2197497 7.81944444,14.2197497 C7.78472222,14.2197497 7.75694444,14.2197497 7.73611111,14.2197497 C8.30555556,11.6397775 10.0416667,9.49791377 12.3680556,8.3852573 Z M7.54861111,16.0139082 C7.54861111,15.9443672 7.54861111,15.8748261 7.55555556,15.8052851 C7.60416667,15.8052851 7.68055556,15.8052851 7.77777778,15.8052851 C8.82638889,15.8052851 12.4652778,15.7148818 16.2152778,14.6022253 C16.4444444,15.0472879 16.6597222,15.4993046 16.8611111,15.9513213 C16.7638889,15.9791377 16.6736111,16.0069541 16.5833333,16.0347705 C12.3541667,17.4047288 10.0347222,21.0208623 9.68055556,21.6119611 C8.35416667,20.1168289 7.54861111,18.162726 7.54861111,16.0139082 Z M16,24.4631433 C14.0625,24.4631433 12.2777778,23.8094576 10.8472222,22.7037552 C11.0902778,22.2308762 12.8402778,19.0737135 17.4652778,17.4603616 C17.4652778,17.4603616 17.4722222,17.4603616 17.4722222,17.4603616 C18.6319444,20.4853964 19.125,23.0236439 19.2569444,23.8094576 C18.2569444,24.2267038 17.1597222,24.4631433 16,24.4631433 Z M20.7847222,22.9749652 C20.6736111,22.3212796 20.2152778,19.9429764 19.1666667,17.0431154 C19.7569444,16.9527121 20.3263889,16.9179416 20.8680556,16.9179416 C22.6319444,16.9179416 24.0138889,17.3073713 24.3333333,17.4047288 C23.9513889,19.7065369 22.6319444,21.6954103 20.7847222,22.9749652 Z" id="Combined-Shape" fill="#9EAFBF" fill-rule="nonzero"></path>
                    <g id="Dribbble" transform="translate(5.333333, 5.333333)"></g>
                </g>
            </g>
        </g>
    </g>
</svg>