<?xml version="1.0" encoding="UTF-8"?>
<svg width="32px" height="32px" viewBox="0 0 32 32" version="1.1" xmlns="http://www.w3.org/2000/svg" xmlns:xlink="http://www.w3.org/1999/xlink">
    <!-- Generator: Sketch 52.5 (67469) - http://www.bohemiancoding.com/sketch -->
    <title>Group 3</title>
    <desc>Created with Sketch.</desc>
    <g id="Symbols" stroke="none" stroke-width="1" fill="none" fill-rule="evenodd">
        <g id="footer/A-1" transform="translate(-1009.000000, -30.000000)" fill="#9EAFBF" fill-rule="nonzero">
            <g id="Group" transform="translate(1009.000000, 30.000000)">
                <g id="Group-3">
                    <path d="M16,32 C7.163444,32 0,24.836556 0,16 C0,7.163444 7.163444,0 16,0 C24.836556,0 32,7.163444 32,16 C32,24.836556 24.836556,32 16,32 Z M10.6959044,17.2570523 C11.5300386,16.8582798 11.9530915,16.0573625 11.9530915,14.8757145 C11.9530915,13.8114219 11.708601,13.0590655 11.2265331,12.6393849 C10.7385637,12.2151517 9.93174499,12 8.82850254,12 L6.26219502,12 C6.07115518,12 6,12.0709866 6,12.2623636 L6,19.8312847 C6,20.0224931 6.07115518,20.0934797 6.26219502,20.0934797 L7.8230563,20.0934797 C8.01443337,20.0934797 8.08558855,20.0224931 8.08558855,19.8312847 L8.08558855,17.7150083 L8.08558855,17.6217647 L8.17883218,17.6217647 L8.60947274,17.6217647 L8.66815047,17.6217647 L8.6934426,17.6745409 L9.73480365,19.8408957 C9.82079687,20.0127135 9.95771157,20.0934797 10.165107,20.0934797 L11.7499115,20.0934797 C11.8832853,20.0934797 11.9038562,20.0469422 11.9116125,20.0294063 C11.9365674,19.9724147 11.9240899,19.8958639 11.8745173,19.8021144 L10.6099111,17.40577 L10.5648912,17.320114 L10.6520647,17.2781291 L10.6959044,17.2570523 Z M9.60817441,15.7066451 C9.45524137,15.8838586 9.18495287,15.9737299 8.80472794,15.9737299 L8.17883218,15.9737299 L8.08575716,15.9737299 L8.08575716,15.8804863 L8.08575716,13.859477 L8.08575716,13.7662333 L8.17900079,13.7662333 L8.80489656,13.7662333 C9.18899961,13.7662333 9.45102602,13.8490229 9.60581382,14.018986 C9.75773517,14.1849023 9.83175679,14.4653076 9.83175679,14.8758831 C9.83175679,15.2611665 9.75857825,15.5329725 9.60817441,15.7066451 Z M15.0176539,12 L13.4446524,12 C13.2532753,12 13.1821202,12.0711552 13.1821202,12.2623636 L13.1821202,19.8311161 C13.1821202,20.0223245 13.2532753,20.0934797 13.4446524,20.0934797 L15.0176539,20.0934797 C15.2086937,20.0934797 15.2796803,20.0223245 15.2796803,19.8311161 L15.2796803,12.2623636 C15.2796803,12.0711552 15.2086937,12 15.0176539,12 Z M19.205018,12 L16.8990507,12 C16.7080109,12 16.6368557,12.0711552 16.6368557,12.2623636 L16.6368557,19.8311161 C16.6368557,20.0223245 16.7080109,20.0934797 16.8990507,20.0934797 L19.2289612,20.0934797 C20.4276392,20.0934797 21.3074679,19.7887939 21.8446726,19.1880217 C22.3864299,18.5826968 22.6609338,17.5258233 22.6609338,16.0469085 C22.6609338,14.567825 22.3844066,13.5109515 21.839277,12.9059639 C21.2978569,12.3046858 20.4117895,12 19.205018,12 Z M20.2455359,17.7893672 C20.0376347,18.1147925 19.6756201,18.2796972 19.1699462,18.2796972 L18.8276595,18.2796972 L18.7344158,18.2796972 L18.7344158,18.1864535 L18.7344158,13.9066889 L18.7344158,13.8134453 L18.8276595,13.8134453 L19.1465088,13.8134453 C19.651171,13.8134453 20.0162207,13.9778441 20.232384,14.3017519 C20.4392736,14.6118333 20.539599,15.1825923 20.539599,16.0467398 C20.539599,16.9098757 20.4431517,17.4799602 20.2455359,17.7893672 Z M25.7381422,12 L24.1649721,12 C23.973595,12 23.9026085,12.0711552 23.9026085,12.2623636 L23.9026085,19.8311161 C23.9026085,20.0223245 23.973595,20.0934797 24.1649721,20.0934797 L25.7381422,20.0934797 C25.9291821,20.0934797 26,20.0223245 26,19.8311161 L26,12.2623636 C26,12.0711552 25.9291821,12 25.7381422,12 Z" id="Combined-Shape"></path>
                </g>
            </g>
        </g>
    </g>
</svg>