<?xml version="1.0" encoding="UTF-8"?>
<svg width="32px" height="32px" viewBox="0 0 32 32" version="1.1" xmlns="http://www.w3.org/2000/svg" xmlns:xlink="http://www.w3.org/1999/xlink">
    <!-- Generator: Sketch 52.5 (67469) - http://www.bohemiancoding.com/sketch -->
    <title>Path</title>
    <desc>Created with Sketch.</desc>
    <g id="Symbols" stroke="none" stroke-width="1" fill="none" fill-rule="evenodd">
        <g id="footer/A-1" transform="translate(-1121.000000, -30.000000)" fill="#9EAFBF">
            <g id="Group" transform="translate(1009.000000, 30.000000)">
                <g id="GitHub" transform="translate(112.000000, 0.000000)">
                    <path d="M15.9735537,0 C7.14049587,0 0,7.14049587 0,15.9735537 C0,23.0347107 4.57520661,29.0115702 10.922314,31.1272727 C11.7157025,31.2859504 12.0066116,30.7834711 12.0066116,30.3603306 C12.0066116,29.9900826 11.9801653,28.7206612 11.9801653,27.3983471 C7.53719008,28.3504132 6.61157025,25.4942149 6.61157025,25.4942149 C5.89752066,23.6429752 4.83966942,23.1669421 4.83966942,23.1669421 C3.38512397,22.1884298 4.94545455,22.1884298 4.94545455,22.1884298 C6.55867769,22.2942149 7.40495868,23.8280992 7.40495868,23.8280992 C8.83305785,26.261157 11.1338843,25.5735537 12.0595041,25.1504132 C12.1917355,24.1190083 12.614876,23.4049587 13.0644628,23.0082645 C9.52066116,22.6380165 5.79173554,21.2628099 5.79173554,15.1272727 C5.79173554,13.3818182 6.42644628,11.953719 7.43140496,10.8429752 C7.27272727,10.446281 6.71735537,8.80661157 7.59008264,6.61157025 C7.59008264,6.61157025 8.93884298,6.18842975 11.9801653,8.25123967 C13.2495868,7.90743802 14.6247934,7.72231405 15.9735537,7.72231405 C17.322314,7.72231405 18.6975207,7.90743802 19.9669421,8.25123967 C23.0082645,6.18842975 24.3570248,6.61157025 24.3570248,6.61157025 C25.2297521,8.80661157 24.6743802,10.446281 24.5157025,10.8429752 C25.5471074,11.953719 26.1553719,13.3818182 26.1553719,15.1272727 C26.1553719,21.2628099 22.4264463,22.6115702 18.8561983,23.0082645 C19.4380165,23.5107438 19.9404959,24.4628099 19.9404959,25.9702479 C19.9404959,28.1123967 19.9140496,29.831405 19.9140496,30.3603306 C19.9140496,30.7834711 20.2049587,31.2859504 20.9983471,31.1272727 C27.3454545,29.0115702 31.9206612,23.0347107 31.9206612,15.9735537 C31.9471074,7.14049587 24.7801653,0 15.9735537,0 Z" id="Path"></path>
                </g>
            </g>
        </g>
    </g>
</svg>