<svg xmlns="http://www.w3.org/2000/svg" viewBox="0 0 187 48"><path d="M18 0H0v48h4.1V3.7h13.5C24 3.7 28.2 7.9 28.2 14c0 6-4.2 10.3-10.6 10.3H8.1l.1 3.7H18c9.2 0 14.4-6.5 14.4-14S27.2 0 18 0zm30.5 0L28.8 48h4.7l4.7-11.8H60l-1.4-3.7h-19L51 4.4 68.4 48h4.7L53.7 0h-5.2zm46.6 0H77v48h4.1V3.7h13.5c6.4 0 10.6 4.2 10.6 10.3 0 6-4.2 10.3-10.6 10.3h-9.5V28H95c9.2 0 14.4-6.5 14.4-14 .1-7.5-5.1-14-14.3-14zm19.8 48h30.5v-3.7H119v-19h25.8v-3.7H119V3.8h26.4V.1h-30.5V48zm56.6-20.2c7.2-.3 13.3-5.1 13.3-13.8 0-8.8-6.3-14-14.6-14h-17.9v48h4.1V3.7h13.5c6.4 0 10.6 4.2 10.6 10.3s-4.2 10.4-10.6 10.4h-10.3l.1 3.7h7.3L180.4 48h4.9l-13.8-20.2z"/></svg>