<?xml version="1.0" encoding="UTF-8"?>
<svg width="166px" height="18px" viewBox="0 0 166 18" version="1.1" xmlns="http://www.w3.org/2000/svg" xmlns:xlink="http://www.w3.org/1999/xlink">
    <!-- Generator: Sketch 52.6 (67491) - http://www.bohemiancoding.com/sketch -->
    <title>Combined Shape</title>
    <desc>Created with Sketch.</desc>
    <g id="Symbols" stroke="none" stroke-width="1" fill="none" fill-rule="evenodd">
        <g id="GNB/desktop" transform="translate(-128.000000, -32.000000)" fill="#0F1724">
            <g id="GNB">
                <g id="Group-20" transform="translate(128.000000, 0.000000)">
                    <g id="Group-8">
                        <g id="left" transform="translate(0.000000, 28.000000)">
                            <path d="M159.223416,17.6201927 L157.119202,17.6201927 L157.119202,11.5490197 C157.119202,10.7953493 156.976528,10.2329988 156.691257,9.86204673 C156.405908,9.4911731 155.960129,9.30565784 155.35384,9.30565784 C154.545403,9.30565784 153.952471,9.56828155 153.575044,10.093529 C153.197537,10.618698 153.008902,11.4926984 153.008902,12.715138 L153.008902,17.6201927 L150.913566,17.6201927 L150.913566,7.77447063 L152.554166,7.77447063 L152.848393,9.06523321 L152.955399,9.06523321 C153.228728,8.59654245 153.625482,8.23453277 154.145663,7.9792826 C154.665765,7.72418932 155.237878,7.5964858 155.862079,7.5964858 C157.377761,7.5964858 158.382218,8.11279083 158.875686,9.1454009 L159.018361,9.1454009 C159.309524,8.65890382 159.719635,8.27900937 160.248772,8.00595287 C160.777673,7.73305327 161.38404,7.5964858 162.067637,7.5964858 C163.244545,7.5964858 164.101928,7.89331021 164.639864,8.48664525 C165.177801,9.08021563 165.446809,9.98527906 165.446809,11.2018355 L165.446809,17.6201927 L163.351551,17.6201927 L163.351551,11.5490197 C163.351551,10.7953493 163.207305,10.2329988 162.919128,9.86204673 C162.630714,9.4911731 162.183521,9.30565784 161.577232,9.30565784 C160.762825,9.30565784 160.166985,9.55933917 159.789558,10.0667803 C159.411973,10.5742214 159.223416,11.3530717 159.223416,12.4035665 L159.223416,17.6201927 Z M144.31581,9.18101356 C143.649969,9.18101356 143.116511,9.39178713 142.715357,9.81309894 C142.314045,10.2345676 142.074814,10.8487682 141.997584,11.6557792 L146.473449,11.6557792 C146.461507,10.8428067 146.265329,10.2270372 145.884995,9.80862774 C145.504582,9.39021829 144.981415,9.18101356 144.31581,9.18101356 Z M144.699209,17.798256 C143.165536,17.798256 141.966394,17.3517643 141.101547,16.4584672 C140.2367,15.5654053 139.804199,14.3353568 139.804199,12.768557 C139.804199,11.1603397 140.20551,9.89624742 141.007897,8.97628002 C141.810363,8.0564695 142.912948,7.5964858 144.31581,7.5964858 C145.61748,7.5964858 146.645742,7.99120578 147.400755,8.78048887 C148.155531,9.56977195 148.533116,10.6558794 148.533116,12.038576 L148.533116,13.1691601 L141.961916,13.1691601 C141.991613,14.1247402 142.250172,14.8591923 142.737591,15.3724381 C143.224931,15.8858408 143.911435,16.1424245 144.797258,16.1424245 C145.379741,16.1424245 145.921999,16.087672 146.424424,15.9777748 C146.926613,15.8680345 147.466121,15.6855 148.042633,15.4302498 L148.042633,17.1305579 C147.531409,17.3739634 147.014292,17.546065 146.491283,17.6469414 C145.968117,17.7477393 145.370785,17.798256 144.699209,17.798256 Z M136.888719,16.1068118 C137.399865,16.1068118 137.910932,16.0267226 138.422235,15.8665441 L138.422235,17.4421294 C138.190389,17.5431627 137.891684,17.6275663 137.526198,17.6958892 C137.160634,17.7640553 136.781635,17.798256 136.389358,17.798256 C134.404013,17.798256 133.41142,16.7538012 133.41142,14.6646562 L133.41142,9.35907683 L132.065046,9.35907683 L132.065046,8.43330472 L133.509469,7.66771111 L134.222763,5.58452776 L135.515555,5.58452776 L135.515555,7.77447063 L138.324107,7.77447063 L138.324107,9.35907683 L135.515555,9.35907683 L135.515555,14.629122 C135.515555,15.1335823 135.64181,15.5059463 135.894476,15.7462925 C136.147063,15.9867172 136.47853,16.1068118 136.888719,16.1068118 Z M130.950598,14.8160492 C130.950598,15.7775124 130.599804,16.5149454 129.898451,17.0281912 C129.19702,17.5415939 128.192406,17.798256 126.884844,17.798256 C125.571154,17.798256 124.516101,17.5994056 123.719684,17.2017832 L123.719684,15.3947156 C124.878758,15.928827 125.957617,16.1958434 126.956181,16.1958434 C128.245988,16.1958434 128.891009,15.8072419 128.891009,15.0297251 C128.891009,14.7804366 128.819671,14.5727222 128.676997,14.4065037 C128.534322,14.2404421 128.299491,14.0682619 127.97258,13.8901987 C127.645592,13.7122139 127.190934,13.5104611 126.608451,13.284862 C125.473026,12.8457439 124.704893,12.4066257 124.30366,11.9674292 C123.902427,11.5282326 123.70185,10.9585086 123.70185,10.2581787 C123.70185,9.41555504 124.042038,8.76119214 124.722727,8.29524685 C125.40326,7.82945845 126.328995,7.5964858 127.500089,7.5964858 C128.659162,7.5964858 129.755855,7.83094884 130.790089,8.29971804 L130.112463,9.8754603 C129.048375,9.43626372 128.153831,9.21662621 127.428752,9.21662621 C126.323102,9.21662621 125.770317,9.53125695 125.770317,10.1602046 C125.770317,10.4688738 125.914406,10.7300071 126.20274,10.943683 C126.490996,11.1572805 127.119597,11.4510457 128.088543,11.8249001 C128.902793,12.1396093 129.494233,12.4274129 129.862783,12.6884677 C130.231254,12.9496795 130.504818,13.2508182 130.683083,13.5919623 C130.861426,13.9333418 130.950598,14.3413184 130.950598,14.8160492 Z M113.038183,7.77447063 L115.320662,7.77447063 L117.326827,13.3561658 C117.629932,14.1514104 117.831923,14.8991977 117.933037,15.5993707 L118.004452,15.5993707 C118.057877,15.2731306 118.155926,14.8769202 118.298679,14.4109749 C118.441275,13.9451081 119.196052,11.7329661 120.563324,7.77447063 L122.827968,7.77447063 L118.610662,18.9288401 C117.843944,20.9762539 116.565843,22 114.776755,22 C114.313141,22 113.861312,21.9494834 113.421504,21.8486854 L113.421504,20.1929324 C113.736472,20.2640792 114.096065,20.2996919 114.500362,20.2996919 C115.51079,20.2996919 116.221178,19.7150639 116.631367,18.5460433 L116.996853,17.6201927 L113.038183,7.77447063 Z M112.235718,14.0860683 C112.235718,15.2433226 111.81665,16.1512884 110.978594,16.8101225 C110.14046,17.4687997 108.984293,17.798256 107.510173,17.798256 C106.036052,17.798256 104.829368,17.569833 103.890277,17.1127516 L103.890277,15.1009505 C104.484623,15.3798901 105.116288,15.5993707 105.784958,15.7596277 C106.453627,15.9198846 107.076257,16.0000523 107.652847,16.0000523 C108.496796,16.0000523 109.119583,15.8397954 109.520737,15.5193599 C109.922048,15.198846 110.122626,14.7685918 110.122626,14.2285189 C110.122626,13.7419434 109.938311,13.329417 109.56984,12.9910968 C109.201212,12.6528551 108.440386,12.2522519 107.287283,11.7893659 C106.098433,11.3085951 105.260299,10.7597366 104.772958,10.1424768 C104.28546,9.52529536 104.041908,8.7835481 104.041908,7.91692124 C104.041908,6.83089219 104.428214,5.97634539 105.200982,5.35312395 C105.973593,4.72998096 107.01089,4.41840946 108.312639,4.41840946 C109.560884,4.41840946 110.803158,4.69146595 112.039619,5.23742205 L111.361993,6.9733428 C110.202841,6.48676728 109.168607,6.24336185 108.259136,6.24336185 C107.569568,6.24336185 107.046559,6.39326445 106.689951,6.69291277 C106.333265,6.99271797 106.154921,7.38877147 106.154921,7.88138703 C106.154921,8.2196288 106.226259,8.50892277 106.368933,8.74926896 C106.511608,8.9896936 106.746361,9.21662621 107.07335,9.43030213 C107.400181,9.64389961 107.988635,9.92589849 108.838633,10.275985 C109.795637,10.6736073 110.497068,11.0446378 110.942926,11.3887628 C111.388627,11.7329661 111.715537,12.1217245 111.923656,12.5549595 C112.131697,12.9881945 112.235718,13.4985379 112.235718,14.0860683 Z M96.8377069,17.6201927 L94.7334928,17.6201927 L94.7334928,11.5667476 C94.7334928,10.807194 94.580369,10.2403723 94.2743572,9.86643948 C93.9681098,9.4926635 93.4821835,9.30565784 92.8165783,9.30565784 C91.9307547,9.30565784 91.2829839,9.5668696 90.8728731,10.0890578 C90.4626837,10.6113244 90.2577069,11.4866583 90.2577069,12.715138 L90.2577069,17.6201927 L88.1623707,17.6201927 L88.1623707,7.77447063 L89.8028925,7.77447063 L90.097198,9.06523321 L90.2041254,9.06523321 C90.5012593,8.59654245 90.9232335,8.23453277 91.470205,7.9792826 C92.0170194,7.72418932 92.6233077,7.5964858 93.2891485,7.5964858 C95.6548279,7.5964858 96.8377069,8.79821675 96.8377069,11.2018355 L96.8377069,17.6201927 Z M79.4870345,10.9614109 C79.4870345,11.5787492 79.6459721,12.05348 79.9640044,12.3858386 C80.2819581,12.7181972 80.7382653,12.8842589 81.3326117,12.8842589 C82.5452669,12.8842589 83.1514766,12.2375048 83.1514766,10.943683 C83.1514766,10.3027337 83.0013384,9.80862774 82.7012975,9.46144359 C82.4010996,9.11425944 81.9447924,8.94074581 81.3326117,8.94074581 C80.7263233,8.94074581 80.2671092,9.11284749 79.9551265,9.45705084 C79.6430652,9.8012542 79.4870345,10.3027337 79.4870345,10.9614109 Z M78.5865192,19.1513799 C78.5865192,19.6023428 78.7900818,19.9494485 79.1972071,20.1929324 C79.6043325,20.4361025 80.1764449,20.5578444 80.913623,20.5578444 C82.0547838,20.5578444 82.9048602,20.3945282 83.4636165,20.0682881 C84.0222157,19.7418126 84.3016725,19.3084992 84.3016725,18.7685831 C84.3016725,18.3412313 84.1486273,18.0370333 83.8425369,17.8561461 C83.5362894,17.6749452 82.967241,17.5845801 82.1350775,17.5845801 L80.5480587,17.5845801 C79.9475842,17.5845801 79.4706143,17.7255403 79.116992,18.0074607 C78.7632911,18.2892243 78.5865192,18.6706875 78.5865192,19.1513799 Z M86.3345493,7.77447063 L86.3345493,8.92286104 L84.6494024,9.23443254 C84.8039403,9.44222531 84.9316875,9.69731859 85.0328796,9.99994771 C85.133836,10.3027337 85.1843535,10.6231691 85.1843535,10.9614109 C85.1843535,11.9762931 84.8335595,12.774597 84.1322857,13.3561658 C83.4308548,13.937813 82.4649732,14.2285189 81.2345622,14.2285189 C80.9194368,14.2285189 80.6340877,14.2048294 80.3785934,14.1572936 C79.9267644,14.4363117 79.7009678,14.7626302 79.7009678,15.1364847 C79.7009678,15.3621622 79.806481,15.5312831 80.0175859,15.6439258 C80.2284551,15.7567253 80.6163319,15.8130466 81.1810592,15.8130466 L82.9018747,15.8130466 C83.9896111,15.8130466 84.8158037,16.0445289 85.380531,16.5074149 C85.9451797,16.9703794 86.2276219,17.637999 86.2276219,18.5104306 C86.2276219,19.6260323 85.7668365,20.4866975 84.8455799,21.0920342 C83.9241662,21.6973709 82.5927203,22 80.8511636,22 C79.5077757,22 78.4824202,21.7626346 77.7751754,21.2878254 C77.067695,20.8129377 76.7141512,20.1363757 76.7141512,19.2582179 C76.7141512,18.6528028 76.905772,18.1438713 77.2891706,17.7315019 C77.6725692,17.319054 78.2089344,17.0326624 78.8985805,16.8724054 C78.6191238,16.7538012 78.3887703,16.5624028 78.2075988,16.2982102 C78.0261915,16.034253 77.9356843,15.7567253 77.9356843,15.4658625 C77.9356843,15.0980481 78.0395476,14.7863982 78.2476671,14.531148 C78.455708,14.2760547 78.7647838,14.0237069 79.1749732,13.7744968 C78.6636703,13.5550161 78.2490813,13.1973992 77.9311275,12.7018029 C77.6130952,12.2062849 77.4541577,11.6262066 77.4541577,10.9614109 C77.4541577,9.89318819 77.7914385,9.06523321 78.4661571,8.47778131 C79.1407187,7.89025097 80.1022793,7.5964858 81.3505246,7.5964858 C81.6298241,7.5964858 81.9224798,7.61578252 82.2287273,7.65429753 C82.5348177,7.69296942 82.765014,7.73305327 82.919709,7.77447063 L86.3345493,7.77447063 Z M72.9159124,17.6201927 L72.9159124,7.77447063 L75.0111701,7.77447063 L75.0111701,17.6201927 L72.9159124,17.6201927 Z M72.7910722,5.16619674 C72.7910722,4.79234232 72.8935999,4.50453874 73.0986553,4.30270756 C73.3037892,4.10095481 73.5964449,4 73.976858,4 C74.3454078,4 74.6322497,4.10095481 74.8373051,4.30270756 C75.0423605,4.50453874 75.1448882,4.79234232 75.1448882,5.16619674 C75.1448882,5.52224483 75.0423605,5.80275331 74.8373051,6.00740841 C74.6322497,6.21214195 74.3454078,6.31458716 73.976858,6.31458716 C73.5964449,6.31458716 73.3037892,6.21214195 73.0986553,6.00740841 C72.8935999,5.80275331 72.7910722,5.52224483 72.7910722,5.16619674 Z M70.6511894,14.8160492 C70.6511894,15.7775124 70.3003954,16.5149454 69.5991216,17.0281912 C68.8976908,17.5415939 67.8930764,17.798256 66.5854358,17.798256 C65.2717456,17.798256 64.2166923,17.5994056 63.420276,17.2017832 L63.420276,15.3947156 C64.5793497,15.928827 65.6582082,16.1958434 66.6567731,16.1958434 C67.9465794,16.1958434 68.5916004,15.8072419 68.5916004,15.0297251 C68.5916004,14.7804366 68.5202631,14.5727222 68.3775885,14.4065037 C68.234914,14.2404421 68.0000823,14.0682619 67.6732507,13.8901987 C67.346262,13.7122139 66.8915261,13.5104611 66.3090431,13.284862 C65.1736961,12.8457439 64.4054847,12.4066257 64.0042518,11.9674292 C63.6030189,11.5282326 63.4024417,10.9585086 63.4024417,10.2581787 C63.4024417,9.41555504 63.7426294,8.76119214 64.4233191,8.29524685 C65.1038516,7.82945845 66.0295864,7.5964858 67.2006805,7.5964858 C68.3597542,7.5964858 69.4564471,7.83094884 70.4906805,8.29971804 L69.8130549,9.8754603 C68.7489667,9.43626372 67.8545009,9.21662621 67.1293433,9.21662621 C66.023694,9.21662621 65.4709086,9.53125695 65.4709086,10.1602046 C65.4709086,10.4688738 65.6149973,10.7300071 65.9034105,10.943683 C66.191588,11.1572805 66.8201889,11.4510457 67.7891345,11.8249001 C68.6033852,12.1396093 69.1948247,12.4274129 69.563453,12.6884677 C69.9319242,12.9496795 70.20541,13.2508182 70.3837532,13.5919623 C70.5620178,13.9333418 70.6511894,14.3413184 70.6511894,14.8160492 Z M57.4286515,9.18101356 C56.7628892,9.18101356 56.2294309,9.39178713 55.828198,9.81309894 C55.4270437,10.2345676 55.1876552,10.8487682 55.1105041,11.6557792 L59.5863685,11.6557792 C59.5743481,10.8428067 59.3782491,10.2270372 58.9979145,9.80862774 C58.6174229,9.39021829 58.0943352,9.18101356 57.4286515,9.18101356 Z M57.8120501,17.798256 C56.2784557,17.798256 55.0793137,17.3517643 54.2143884,16.4584672 C53.3495418,15.5654053 52.9171184,14.3353568 52.9171184,12.768557 C52.9171184,11.1603397 53.3183513,9.89624742 54.1208172,8.97628002 C54.9232045,8.0564695 56.0257897,7.5964858 57.4286515,7.5964858 C58.7303997,7.5964858 59.7586622,7.99120578 60.5135961,8.78048887 C61.2684514,9.56977195 61.6459576,10.6558794 61.6459576,12.038576 L61.6459576,13.1691601 L55.0748355,13.1691601 C55.1045331,14.1247402 55.3630915,14.8591923 55.8505106,15.3724381 C56.337851,15.8858408 57.0243545,16.1424245 57.9101781,16.1424245 C58.4925826,16.1424245 59.0349188,16.087672 59.5372652,15.9777748 C60.0395331,15.8680345 60.5789624,15.6855 61.155553,15.4302498 L61.155553,17.1305579 C60.6443287,17.3739634 60.1271334,17.546065 59.6042029,17.6469414 C59.0810366,17.7477393 58.4837047,17.798256 57.8120501,17.798256 Z M48.6820566,11.0593065 C48.6820566,7.94366995 47.2227064,6.38573402 44.3042416,6.38573402 L42.4585859,6.38573402 L42.4585859,15.830853 L43.974346,15.830853 C47.1127935,15.830853 48.6820566,14.2404421 48.6820566,11.0593065 Z M50.9288667,10.9881596 C50.9288667,13.1366067 50.3315348,14.7790246 49.1367139,15.9154919 C47.9419716,17.0520375 46.2211561,17.6201927 43.974346,17.6201927 L40.3276596,17.6201927 L40.3276596,4.60533667 L44.3577446,4.60533667 C46.4321039,4.60533667 48.0459134,5.16321595 49.1991733,6.2789745 C50.352276,7.3948115 50.9288667,8.96443528 50.9288667,10.9881596 Z M0.444471193,18.1299742 C0.120684231,18.1299742 1.3500312e-13,18.0089713 1.3500312e-13,17.6833408 L1.3500312e-13,4.79344416 C1.3500312e-13,4.46741951 0.120684231,4.34641661 0.444471193,4.34641661 L4.79642961,4.34641661 C6.66732955,4.34641661 8.03534581,4.71303833 8.86267056,5.4357055 C9.68024899,6.15042406 10.0948271,7.43172787 10.0948271,9.24420946 C10.0948271,11.2562604 9.37745912,12.620335 7.96300069,13.2995804 L7.88856239,13.3350535 L7.74086321,13.4065254 L7.81726385,13.5524909 L9.96178012,17.6336127 C10.0458993,17.7931762 10.0668964,17.9237043 10.024706,18.02073 C10.011362,18.0505537 9.97656312,18.1299742 9.75037013,18.1299742 L7.06287293,18.1299742 C6.71122067,18.1299742 6.47914064,17.9924828 6.33360003,17.6998292 L4.56762016,14.0104231 L4.52457938,13.9206892 L4.42515389,13.9206892 L3.69483441,13.9206892 L3.53680021,13.9206892 L3.53680021,14.0792674 L3.53680021,17.6833408 C3.53680021,18.0089713 3.41611598,18.1299742 3.09147867,18.1299742 L0.444471193,18.1299742 Z M3.53680021,10.9551984 L3.53680021,11.1137766 L3.69483441,11.1137766 L4.75620153,11.1137766 C5.40102817,11.1137766 5.85923578,10.9609135 6.118527,10.6590632 C6.37363188,10.3633221 6.49752127,9.90046298 6.49752127,9.24420946 C6.49752127,8.54512537 6.37199659,8.06748579 6.1145369,7.78494861 C5.8519751,7.49544818 5.40770015,7.35454089 4.75620153,7.35454089 L3.69483441,7.35454089 L3.53680021,7.35454089 L3.53680021,7.51331614 L3.53680021,10.9551984 Z M30.3538176,17.6831437 L30.3538176,4.79344416 C30.3538176,4.46781366 30.4745018,4.34621954 30.7990737,4.34621954 L33.4669474,4.34621954 C33.7906036,4.34621954 33.9110916,4.46781366 33.9110916,4.79344416 L33.9110916,17.6831437 C33.9110916,18.0089056 33.7906036,18.1303026 33.4669474,18.1303026 L30.7990737,18.1303026 C30.4745018,18.1303026 30.3538176,18.0089056 30.3538176,17.6831437 Z M12.1777258,17.6833408 L12.1777258,4.79344416 C12.1777258,4.46781366 12.2983446,4.34621954 12.6229819,4.34621954 L15.2904632,4.34621954 C15.6145118,4.34621954 15.7347381,4.46781366 15.7347381,4.79344416 L15.7347381,17.6833408 C15.7347381,18.0089056 15.6145118,18.1303026 15.2904632,18.1303026 L12.6229819,18.1303026 C12.2983446,18.1303026 12.1777258,18.0089056 12.1777258,17.6833408 Z M18.4790125,18.130237 C18.1548331,18.130237 18.0345413,18.009037 18.0345413,17.6834722 L18.0345413,4.79331278 C18.0345413,4.46774797 18.1548331,4.34615385 18.4790125,4.34615385 L22.3897703,4.34615385 C24.4357114,4.34615385 25.9387371,4.86537586 26.8567876,5.88930216 C27.7811176,6.91986325 28.2500527,8.71960078 28.2500527,11.2384582 C28.2500527,13.7572499 27.784519,15.5573158 26.8658798,16.5881397 C25.9550899,17.6114091 24.4625956,18.130237 22.4301946,18.130237 L18.4790125,18.130237 Z M21.5911612,14.8826031 L21.5911612,15.0413127 L21.7492608,15.0413127 L22.3301804,15.0413127 C23.1877907,15.0413127 23.801416,14.7604178 24.1541149,14.2062481 C24.4894797,13.6790775 24.652616,12.708361 24.652616,11.2384582 C24.652616,9.7668474 24.482219,8.79488272 24.1317442,8.26672672 C23.7652435,7.71518472 23.1457311,7.43527518 22.2899523,7.43527518 L21.7492608,7.43527518 L21.5911612,7.43527518 L21.5911612,7.59378767 L21.5911612,14.8826031 Z" id="Combined-Shape"></path>
                        </g>
                    </g>
                </g>
            </g>
        </g>
    </g>
</svg>