<?xml version="1.0" encoding="UTF-8"?>
<svg width="187px" height="20px" viewBox="0 0 187 20" version="1.1" xmlns="http://www.w3.org/2000/svg" xmlns:xlink="http://www.w3.org/1999/xlink">
    <!-- Generator: Sketch 52.4 (67378) - http://www.bohemiancoding.com/sketch -->
    <title>RIDI Design System</title>
    <desc>Created with Sketch.</desc>
    <g id="Symbols" stroke="none" stroke-width="1" fill="none" fill-rule="evenodd">
        <g id="GNB" transform="translate(-128.000000, -30.000000)" fill="#0F1724">
            <g id="Group-20">
                <g transform="translate(128.000000, 25.000000)">
                    <g id="Group-8">
                        <g id="left" transform="translate(0.000000, 3.000000)">
                            <path d="M179.757511,17.2906496 L177.498524,17.2906496 L177.498524,10.7626727 C177.498524,9.952295 177.345355,9.34763246 177.039102,8.94876942 C176.732764,8.54999072 176.254196,8.35051703 175.603313,8.35051703 C174.735413,8.35051703 174.098868,8.63290093 173.693679,9.19766873 C173.288406,9.76235219 173.085896,10.7021137 173.085896,12.0165314 L173.085896,17.2906496 L170.83644,17.2906496 L170.83644,6.70412105 L172.597713,6.70412105 L172.913581,8.0920025 L173.028458,8.0920025 C173.321891,7.58804676 173.747828,7.19879894 174.30627,6.92434338 C174.864628,6.65005651 175.478821,6.51274439 176.148935,6.51274439 C177.7761,6.51274439 178.854439,7.06789697 179.384204,8.17820212 L179.537373,8.17820212 C179.849952,7.65510029 180.290228,7.24662202 180.858285,6.95302036 C181.426089,6.65958739 182.077057,6.51274439 182.810934,6.51274439 C184.074408,6.51274439 184.994855,6.8319023 185.572359,7.46988074 C186.149863,8.10811221 186.438657,9.08127393 186.438657,10.3893659 L186.438657,17.2906496 L184.189285,17.2906496 L184.189285,10.7626727 C184.189285,9.952295 184.034429,9.34763246 183.725055,8.94876942 C183.415428,8.54999072 182.935342,8.35051703 182.284459,8.35051703 C181.410148,8.35051703 180.770483,8.62328571 180.365294,9.16890741 C179.959937,9.71452911 179.757511,10.5519812 179.757511,11.6815168 L179.757511,17.2906496 Z M163.753395,8.21649432 C163.038579,8.21649432 162.465883,8.4431268 162.035222,8.89613873 C161.604393,9.34931934 161.347565,10.0097333 161.264655,10.877465 L166.069736,10.877465 C166.056915,10.0033232 165.846308,9.34122231 165.437999,8.89133112 C165.029605,8.44143992 164.467958,8.21649432 163.753395,8.21649432 Z M164.164994,17.4821106 C162.518514,17.4821106 161.23117,17.0020243 160.302711,16.0415141 C159.374251,15.0812571 158.909937,13.7586579 158.909937,12.0739697 C158.909937,10.3447479 159.340767,8.98554343 160.202173,7.99635634 C161.063663,7.00733793 162.247347,6.51274439 163.753395,6.51274439 C165.150807,6.51274439 166.254702,6.93716368 167.065249,7.78583357 C167.875542,8.63450347 168.280899,9.80233127 168.280899,11.2890639 L168.280899,12.5047148 L161.226363,12.5047148 C161.258245,13.5321941 161.535821,14.3219075 162.059091,14.8737707 C162.582278,15.4258025 163.319276,15.7016919 164.270255,15.7016919 C164.895582,15.7016919 165.477725,15.6428198 166.017105,15.5246538 C166.556232,15.4066564 167.135423,15.2103878 167.75434,14.9359323 L167.75434,16.764174 C167.205513,17.0258936 166.65036,17.2109445 166.088882,17.3194109 C165.527235,17.4277931 164.885967,17.4821106 164.164994,17.4821106 Z M155.780014,15.6633997 C156.328756,15.6633997 156.877414,15.5772845 157.426325,15.4050539 L157.426325,17.0991886 C157.177426,17.2078238 156.85675,17.298578 156.464382,17.3720416 C156.071929,17.4453366 155.665053,17.4821106 155.243923,17.4821106 C153.112549,17.4821106 152.046946,16.3590695 152.046946,14.1127343 L152.046946,8.40795533 L150.601542,8.40795533 L150.601542,7.41252678 L152.152207,6.58932879 L152.917967,4.34940369 L154.305848,4.34940369 L154.305848,6.70412105 L157.32098,6.70412105 L157.32098,8.40795533 L154.305848,8.40795533 L154.305848,14.0745264 C154.305848,14.616943 154.441389,15.0173243 154.71264,15.2757545 C154.983806,15.534269 155.339654,15.6633997 155.780014,15.6633997 Z M149.405121,14.2755183 C149.405121,15.3093234 149.028525,16.1022419 148.275586,16.654105 C147.522562,17.2061369 146.444055,17.4821106 145.040316,17.4821106 C143.629999,17.4821106 142.497343,17.2682984 141.642347,16.8407584 L141.642347,14.8977244 C142.886675,15.4720231 144.044888,15.7591302 145.116901,15.7591302 C146.501577,15.7591302 147.194042,15.3412898 147.194042,14.5052715 C147.194042,14.2372261 147.117458,14.013883 146.964289,13.835158 C146.81112,13.6566016 146.559016,13.4714664 146.20806,13.2800054 C145.85702,13.0886287 145.368921,12.8716958 144.743594,12.6291223 C143.524654,12.1569643 142.700022,11.6848063 142.269277,11.2125639 C141.838532,10.7403215 141.623201,10.1277306 141.623201,9.3747069 C141.623201,8.46868305 141.988411,7.76508493 142.719168,7.26408124 C143.449756,6.76324623 144.443582,6.51274439 145.700815,6.51274439 C146.945143,6.51274439 148.122501,6.76484877 149.232806,7.26888885 L148.505339,8.96319225 C147.362983,8.49094988 146.402642,8.25478653 145.62423,8.25478653 C144.437256,8.25478653 143.843812,8.59309053 143.843812,9.26936118 C143.843812,9.60125504 143.998499,9.8820364 144.308041,10.1117896 C144.6175,10.3414585 145.292336,10.657327 146.332552,11.0593107 C147.206694,11.3976991 147.841636,11.7071574 148.237294,11.9878545 C148.632867,12.2687202 148.926553,12.592517 149.11793,12.9593293 C149.309391,13.3263946 149.405121,13.7650681 149.405121,14.2755183 Z M130.175183,6.70412105 L132.625546,6.70412105 L134.779272,12.7057911 C135.104671,13.5608711 135.32152,14.364923 135.43007,15.117778 L135.506739,15.117778 C135.564093,14.7669911 135.669354,14.3409693 135.822608,13.8399656 C135.975692,13.3390462 136.785985,10.9604595 138.253825,6.70412105 L140.685042,6.70412105 L136.157538,18.6977615 C135.334424,20.8992257 133.962315,22 132.041632,22 C131.543918,22 131.058855,21.9456824 130.586697,21.8373003 L130.586697,20.056966 C130.924833,20.133466 131.310875,20.1717582 131.74491,20.1717582 C132.829659,20.1717582 133.592298,19.543142 134.032658,18.2861625 L134.425027,17.2906496 L130.175183,6.70412105 Z M129.313692,13.4906125 C129.313692,14.7349404 128.863801,15.7112228 127.964103,16.4196285 C127.064321,17.1278656 125.823114,17.4821106 124.240566,17.4821106 C122.658019,17.4821106 121.362578,17.2365007 120.354414,16.7450279 L120.354414,14.5818559 C120.992477,14.8817834 121.670603,15.117778 122.388455,15.2900929 C123.106307,15.4624079 123.774734,15.5486075 124.393735,15.5486075 C125.299759,15.5486075 125.968354,15.3762926 126.399015,15.0317471 C126.829844,14.6871173 127.045175,14.2244901 127.045175,13.6437813 C127.045175,13.1205951 126.847304,12.6770297 126.45173,12.3132538 C126.055988,11.9495623 125.2392,11.5188172 124.001282,11.0211029 C122.724988,10.5041582 121.825205,9.9140028 121.302019,9.25029942 C120.778664,8.58668039 120.517198,7.78912299 120.517198,6.85728986 C120.517198,5.6895464 120.931917,4.77070225 121.761526,4.10058872 C122.590965,3.43055954 123.70456,3.09554495 125.102056,3.09554495 C126.442115,3.09554495 127.775763,3.38914661 129.10317,3.97618124 L128.375702,5.8427152 C127.13129,5.31952902 126.020985,5.05780942 125.044618,5.05780942 C124.30433,5.05780942 123.742852,5.21899091 123.360014,5.5411852 C122.977092,5.86354819 122.785631,6.28940133 122.785631,6.819082 C122.785631,7.18277357 122.862216,7.49383445 123.015384,7.75226464 C123.168553,8.01077917 123.420573,8.25478653 123.771613,8.48453973 C124.122484,8.7142086 124.754221,9.01742548 125.66674,9.39385301 C126.694135,9.82139303 127.447158,10.2203404 127.925811,10.5903578 C128.404295,10.9604595 128.75525,11.3784686 128.978678,11.8443009 C129.202021,12.3101331 129.313692,12.8588755 129.313692,13.4906125 Z M112.783101,17.2906496 L110.524114,17.2906496 L110.524114,10.7817345 C110.524114,9.96503095 110.359727,9.3555608 110.031207,8.95349269 C109.702434,8.55159326 109.180766,8.35051703 108.466203,8.35051703 C107.515224,8.35051703 106.819807,8.63138274 106.379531,9.19286112 C105.939171,9.75442385 105.719117,10.6956192 105.719117,12.0165314 L105.719117,17.2906496 L103.469661,17.2906496 L103.469661,6.70412105 L105.23085,6.70412105 L105.546803,8.0920025 L105.661595,8.0920025 C105.980584,7.58804676 106.433596,7.19879894 107.020799,6.92434338 C107.607834,6.65005651 108.258717,6.51274439 108.973533,6.51274439 C111.513217,6.51274439 112.783101,7.80489533 112.783101,10.3893659 L112.783101,17.2906496 Z M94.1562221,10.1308514 C94.1562221,10.7946391 94.3268501,11.3050893 94.6682748,11.6624551 C95.0096152,12.0198209 95.4994855,12.1983772 96.1375483,12.1983772 C97.4393988,12.1983772 98.0901975,11.5029605 98.0901975,10.1117896 C98.0901975,9.42261433 97.929016,8.89133112 97.6069061,8.51802432 C97.2846275,8.14471753 96.7947572,7.95814848 96.1375483,7.95814848 C95.4866652,7.95814848 94.9936742,8.14319934 94.6587439,8.51330106 C94.3237294,8.88340278 94.1562221,9.42261433 94.1562221,10.1308514 Z M93.1894705,18.9370456 C93.1894705,19.4219396 93.4080059,19.795162 93.8450768,20.056966 C94.2821477,20.3184326 94.8963412,20.4493345 95.6877414,20.4493345 C96.9128389,20.4493345 97.8254415,20.2737302 98.4252965,19.9229433 C99.0249827,19.5719033 99.3249945,19.1059867 99.3249945,18.5254466 C99.3249945,18.0659402 99.1606923,17.7388539 98.8320879,17.5443565 C98.5033147,17.3495218 97.8924107,17.2523574 96.9990385,17.2523574 L95.2952885,17.2523574 C94.6506469,17.2523574 94.1385942,17.4039237 93.7589616,17.7070562 C93.3792446,18.0100201 93.1894705,18.4201852 93.1894705,18.9370456 Z M101.507397,6.70412105 L101.507397,7.93891803 L99.6983013,8.27393263 C99.8642061,8.49736003 100.00135,8.7716469 100.109985,9.09704627 C100.218367,9.42261433 100.2726,9.7671598 100.2726,10.1308514 C100.2726,11.2220948 99.8960038,12.0804642 99.1431487,12.7057911 C98.390125,13.3312022 97.3531992,13.6437813 96.0322869,13.6437813 C95.6939829,13.6437813 95.3876453,13.6183094 95.1133584,13.5671969 C94.6282957,13.8672087 94.3858909,14.21808 94.3858909,14.6200638 C94.3858909,14.8627216 94.499165,15.0445674 94.7257975,15.1656855 C94.9521769,15.2869722 95.3685835,15.3475312 95.9748486,15.3475312 L97.8222365,15.3475312 C98.9899799,15.3475312 99.876942,15.5964306 100.483207,16.0941448 C101.089388,16.5919435 101.392605,17.3097957 101.392605,18.2478703 C101.392605,19.4474115 100.897927,20.3728345 99.9089084,21.0237175 C98.9197213,21.6746006 97.4903426,22 95.6206879,22 C94.1784889,22 93.0777146,21.7447749 92.3184494,21.2342403 C91.5589312,20.7236214 91.1793829,19.9961539 91.1793829,19.0519222 C91.1793829,18.4009548 91.3850981,17.8537305 91.7966971,17.4103338 C92.2082961,16.9668528 92.784113,16.6589126 93.5244851,16.4865977 C93.2244733,16.3590695 92.9771765,16.15327 92.7826791,15.8691992 C92.5879287,15.5853815 92.4907643,15.2869722 92.4907643,14.9742245 C92.4907643,14.5787352 92.6022672,14.2436362 92.8256946,13.9691807 C93.0490376,13.6948938 93.3808472,13.423559 93.8212075,13.1555979 C93.2722964,12.9196032 92.8272128,12.5350787 92.4858724,12.0021929 C92.1444476,11.4693915 91.9738196,10.8456672 91.9738196,10.1308514 C91.9738196,8.98225401 92.3359086,8.0920025 93.0602554,7.46034986 C93.7844335,6.82861288 94.8167204,6.51274439 96.1567787,6.51274439 C96.4566219,6.51274439 96.7708035,6.53349302 97.0995766,6.57490596 C97.428181,6.61648758 97.6753091,6.65958739 97.8413826,6.70412105 L101.507397,6.70412105 Z M87.1017695,17.2906496 L89.3511412,17.2906496 L89.3511412,6.70412105 L87.1017695,6.70412105 L87.1017695,17.2906496 Z M86.9677468,3.89959684 C86.9677468,3.49761306 87.0778158,3.18815472 87.2979538,2.97113746 C87.5181761,2.75420455 87.8323578,2.64565375 88.2407517,2.64565375 C88.6364096,2.64565375 88.9443498,2.75420455 89.1644878,2.97113746 C89.3846258,3.18815472 89.4946948,3.49761306 89.4946948,3.89959684 C89.4946948,4.28243451 89.3846258,4.58404885 89.1644878,4.80410249 C88.9443498,5.02424048 88.6364096,5.13439382 88.2407517,5.13439382 C87.8323578,5.13439382 87.5181761,5.02424048 87.2979538,4.80410249 C87.0778158,4.58404885 86.9677468,4.28243451 86.9677468,3.89959684 Z M84.6704678,14.2755183 C84.6704678,15.3093234 84.2938716,16.1022419 83.5410165,16.654105 C82.7879928,17.2061369 81.7094853,17.4821106 80.3056629,17.4821106 C78.8953459,17.4821106 77.7626896,17.2682984 76.9076939,16.8407584 L76.9076939,14.8977244 C78.1520217,15.4720231 79.3102343,15.7591302 80.3822473,15.7591302 C81.7669236,15.7591302 82.4593883,15.3412898 82.4593883,14.5052715 C82.4593883,14.2372261 82.3828039,14.013883 82.2296351,13.835158 C82.0764663,13.6566016 81.8243619,13.4714664 81.4734907,13.2800054 C81.1224507,13.0886287 80.6342673,12.8716958 80.0089405,12.6291223 C78.7900845,12.1569643 77.9653683,11.6848063 77.5346232,11.2125639 C77.1038781,10.7403215 76.8885478,10.1277306 76.8885478,9.3747069 C76.8885478,8.46868305 77.2537575,7.76508493 77.9845144,7.26408124 C78.7151026,6.76324623 79.7089287,6.51274439 80.9661612,6.51274439 C82.210489,6.51274439 83.3878477,6.76484877 84.4981529,7.26888885 L83.7706854,8.96319225 C82.6283295,8.49094988 81.6680724,8.25478653 80.8895768,8.25478653 C79.7026029,8.25478653 79.1091581,8.59309053 79.1091581,9.26936118 C79.1091581,9.60125504 79.2638451,9.8820364 79.5734721,10.1117896 C79.8828461,10.3414585 80.5576829,10.657327 81.5978981,11.0593107 C82.4720399,11.3976991 83.106982,11.7071574 83.5027243,11.9878545 C83.8982979,12.2687202 84.1918996,12.592517 84.3833606,12.9593293 C84.5747373,13.3263946 84.6704678,13.7650681 84.6704678,14.2755183 Z M70.4753631,8.21649432 C69.7606316,8.21649432 69.1879354,8.4431268 68.7571903,8.89613873 C68.3265296,9.34931934 68.0695332,10.0097333 67.9867074,10.877465 L72.7917883,10.877465 C72.7788836,10.0033232 72.5683609,9.34122231 72.1600513,8.89133112 C71.751573,8.44143992 71.1900103,8.21649432 70.4753631,8.21649432 Z M70.8869621,17.4821106 C69.2405661,17.4821106 67.9532228,17.0020243 67.0246791,16.0415141 C66.0962197,15.0812571 65.63199,13.7586579 65.63199,12.0739697 C65.63199,10.3447479 66.0627351,8.98554343 66.9242253,7.99635634 C67.7856311,7.00733793 68.9693156,6.51274439 70.4753631,6.51274439 C71.8728598,6.51274439 72.9767548,6.93716368 73.7872168,7.78583357 C74.5975945,8.63450347 75.0028677,9.80233127 75.0028677,11.2890639 L75.0028677,12.5047148 L67.9484152,12.5047148 C67.9802972,13.5321941 68.2578735,14.3219075 68.781144,14.8737707 C69.3043302,15.4258025 70.0413286,15.7016919 70.9923078,15.7016919 C71.6175503,15.7016919 72.1997773,15.6428198 72.7390732,15.5246538 C73.2782848,15.4066564 73.8573911,15.2103878 74.4763921,14.9359323 L74.4763921,16.764174 C73.9275653,17.0258936 73.3723284,17.2109445 72.8109344,17.3194109 C72.2492873,17.4277931 71.6080194,17.4821106 70.8869621,17.4821106 Z M61.0854237,10.2361128 C61.0854237,6.88605118 59.5187328,5.21089388 56.3856042,5.21089388 L54.4041936,5.21089388 L54.4041936,15.3666774 L56.0314435,15.3666774 C59.4007355,15.3666774 61.0854237,13.6566016 61.0854237,10.2361128 Z M63.497495,10.1596127 C63.497495,12.469712 62.8562271,14.2357079 61.5735227,15.4576846 C60.2909027,16.6797456 58.4435148,17.2906496 56.0314435,17.2906496 L52.1165297,17.2906496 L52.1165297,3.29653683 L56.4430425,3.29653683 C58.6699786,3.29653683 60.4024898,3.89639176 61.6405762,5.09610162 C62.878494,6.29589582 63.497495,7.98362038 63.497495,10.1596127 Z M4.56048312,10.4856868 L4.56048312,6.06647999 L4.56048312,5.8626204 L4.76425836,5.8626204 L6.13282502,5.8626204 C6.97289182,5.8626204 7.54575665,6.0435384 7.88431369,6.41524266 C8.2162919,6.77800644 8.37814814,7.39127208 8.37814814,8.28886152 C8.37814814,9.13145865 8.2184005,9.72574687 7.88945868,10.1054638 C7.55511884,10.4930247 6.96428873,10.6892934 6.13282502,10.6892934 L4.76425836,10.6892934 L4.56048312,10.6892934 L4.56048312,10.4856868 Z M0.573117862,19.6977446 L3.98626879,19.6977446 C4.40486834,19.6977446 4.56048312,19.5423829 4.56048312,19.1242894 L4.56048312,14.4968371 L4.56048312,14.2932305 L4.76425836,14.2932305 L5.70595975,14.2932305 L5.83416272,14.2932305 L5.88966111,14.4084445 L8.16678194,19.1454598 C8.35444746,19.5212125 8.65370017,19.6977446 9.10713382,19.6977446 L12.5724937,19.6977446 C12.8641555,19.6977446 12.9090265,19.5957727 12.9262327,19.5574805 C12.9806346,19.4329043 12.9535602,19.2653127 12.8450937,19.060441 L10.0798738,13.8204821 L9.98135996,13.6330696 L10.1718088,13.5413033 L10.2677924,13.4957575 C12.0916483,12.62364 13.0166495,10.8722356 13.0166495,8.28886152 C13.0166495,5.96172467 12.4820769,4.31659385 11.4278605,3.39893052 C10.3610769,2.47106155 8.59710531,2.00033738 6.18469661,2.00033738 L0.573117862,2.00033738 C0.155614784,2.00033738 0,2.15569913 0,2.57429868 L0,19.1242894 C0,19.5423829 0.155614784,19.6977446 0.573117862,19.6977446 Z M39.1393532,19.1240364 L39.1393532,2.57429868 C39.1393532,2.15620519 39.294968,2.00008434 39.7134832,2.00008434 L43.1535399,2.00008434 C43.5708743,2.00008434 43.7262361,2.15620519 43.7262361,2.57429868 L43.7262361,19.1240364 C43.7262361,19.5422985 43.5708743,19.6981664 43.1535399,19.6981664 L39.7134832,19.6981664 C39.294968,19.6981664 39.1393532,19.5422985 39.1393532,19.1240364 Z M15.7024173,19.1242894 L15.7024173,2.57429868 C15.7024173,2.15620519 15.8579477,2.00008434 16.2765473,2.00008434 L19.7160979,2.00008434 C20.1339384,2.00008434 20.2889627,2.15620519 20.2889627,2.57429868 L20.2889627,19.1242894 C20.2889627,19.5422985 20.1339384,19.6981664 19.7160979,19.6981664 L16.2765473,19.6981664 C15.8579477,19.6981664 15.7024173,19.5422985 15.7024173,19.1242894 Z M27.8404548,15.5282806 L27.8404548,6.16980145 L27.8404548,5.96627925 L28.0443144,5.96627925 L28.7415023,5.96627925 C29.8449756,5.96627925 30.6437982,6.32566927 31.1163779,7.03382197 C31.5682934,7.71194818 31.7880096,8.95990284 31.7880096,10.8493784 C31.7880096,12.736661 31.5776556,13.9830131 31.1452236,14.6598742 C30.6904404,15.3714006 29.8992089,15.7320558 28.7933739,15.7320558 L28.0443144,15.7320558 L27.8404548,15.7320558 L27.8404548,15.5282806 Z M23.8275333,19.698082 L28.922336,19.698082 C31.5429902,19.698082 33.4674685,19.0319327 34.6418751,17.7181053 C35.8264031,16.3945784 36.4266797,14.0833825 36.4266797,10.8493784 C36.4266797,7.61528989 35.8220172,5.30451578 34.6301513,3.98132623 C33.4463825,2.66665542 31.5083248,2 28.8702114,2 L23.8275333,2 C23.4095241,2 23.2544154,2.15612085 23.2544154,2.57412999 L23.2544154,19.1244581 C23.2544154,19.5424672 23.4095241,19.698082 23.8275333,19.698082 Z" id="RIDI-Design-System"></path>
                        </g>
                    </g>
                </g>
            </g>
        </g>
    </g>
</svg>