<?xml version="1.0" standalone="no"?>
<!DOCTYPE svg PUBLIC "-//W3C//DTD SVG 20010904//EN"
 "http://www.w3.org/TR/2001/REC-SVG-20010904/DTD/svg10.dtd">
<svg version="1.0" xmlns="http://www.w3.org/2000/svg"
 width="260.000000pt" height="260.000000pt" viewBox="0 0 260.000000 260.000000"
 preserveAspectRatio="xMidYMid meet">
<metadata>
Created by potrace 1.11, written by Peter Selinger 2001-2013
</metadata>
<g transform="translate(0.000000,260.000000) scale(0.100000,-0.100000)"
fill="#000000" stroke="none">
<path d="M0 1300 l0 -1300 1300 0 1300 0 0 1300 0 1300 -1300 0 -1300 0 0
-1300z m785 376 c96 -42 130 -110 130 -261 -1 -120 -21 -175 -83 -224 l-40
-33 63 -131 c35 -72 61 -135 59 -139 -9 -14 -180 -9 -192 5 -7 7 -33 63 -60
123 -43 96 -52 109 -75 112 l-27 3 0 -113 c0 -62 -4 -119 -8 -126 -6 -9 -33
-12 -98 -10 l-89 3 -3 395 c-1 217 0 401 3 409 8 21 366 11 420 -13z m440
-386 l0 -405 -92 -3 -93 -3 0 411 0 411 93 -3 92 -3 0 -405z m518 389 c61 -21
123 -82 146 -145 31 -82 44 -225 32 -339 -15 -128 -41 -194 -97 -244 -66 -58
-133 -73 -314 -69 l-145 3 -3 395 c-1 217 0 401 3 408 7 19 322 11 378 -9z
m492 -389 l0 -405 -95 0 -95 0 -3 395 c-1 217 0 401 3 408 3 9 29 12 97 10
l93 -3 0 -405z"/>
<path d="M560 1410 l0 -110 54 0 c83 0 101 20 101 110 0 90 -18 110 -101 110
l-54 0 0 -110z"/>
<path d="M1560 1290 l0 -232 48 7 c91 13 117 64 116 230 -1 161 -25 205 -121
221 l-43 7 0 -233z"/>
</g>
</svg>
